<?xml version="1.0" encoding="utf-8"?>
<!-- Generator: Adobe Illustrator 24.3.0, SVG Export Plug-In . SVG Version: 6.00 Build 0)  -->
<svg version="1.1" id="Layer_1" xmlns="http://www.w3.org/2000/svg" xmlns:xlink="http://www.w3.org/1999/xlink" x="0px" y="0px"
	 viewBox="0 0 70 70" style="enable-background:new 0 0 70 70;" xml:space="preserve">
<style type="text/css">
	.st0{fill:#8BC440;}
	.st1{fill:#8CC440;}
	.st2{fill:#FEFEFE;}
	.st3{fill:#FEFEFD;}
	.st4{fill:#FDFEFD;}
	.st5{fill:#F9FBF6;}
</style>
<g>
	<path class="st0" d="M34.94,33.25c1.69,0,3.33,0.01,4.98,0c1.46-0.01,2.34-0.87,2.31-2.23c-0.02-1.25-0.97-2.12-2.34-2.13
		c-1.39-0.01-2.76,0-4.15,0c-2.05,0-2.69,0.59-2.9,2.72c-1.39-0.89-2.89-1.47-4.5-1.71c-0.64-0.1-0.43-0.58-0.43-0.92
		c-0.02-3.76-0.01-7.51-0.01-11.27c0-2.24-0.01-4.48,0-6.72c0.02-3.33,2.34-5.65,5.67-5.65c9.75-0.01,19.49-0.01,29.24,0
		c3.41,0,5.76,2.34,5.77,5.78c0.02,5.96,0.01,11.92,0.01,17.88c0,7.21-0.07,14.43,0.02,21.63c0.05,3.69-2.52,6.25-6.21,6.2
		c-9.51-0.12-19.02-0.04-28.66-0.04c0.6-1.22,1.16-2.38,1.74-3.53c0.17-0.33,0.5-0.26,0.79-0.26c1.25,0,2.5,0.01,3.76-0.01
		c1.31-0.02,2.16-0.88,2.16-2.17c0-1.27-0.87-2.15-2.17-2.18c-0.76-0.02-1.52-0.02-2.27,0c-0.43,0.01-0.62-0.12-0.46-0.57
		c0.07-0.21,0.14-0.45,0.16-0.67c0.05-0.78,0.42-1.09,1.21-0.97c0.45,0.07,0.92,0.02,1.38,0.01c1.29-0.03,2.16-0.92,2.16-2.19
		c0-1.29-0.85-2.14-2.17-2.17c-0.17-0.01-0.33,0-0.5,0c-1.6,0-1.72-0.14-1.68-1.78c0.01-0.4,0.21-0.41,0.5-0.41
		c0.56,0,1.12,0.02,1.68-0.01c1.38-0.07,2.2-0.96,2.18-2.29c-0.02-1.27-0.84-2.03-2.24-2.08c-0.43-0.02-0.87-0.09-1.28-0.01
		C36.83,35.84,35.65,35.05,34.94,33.25z"/>
	<path class="st0" d="M37.12,41.92c0.11,3.61-0.76,7.04-2.17,10.33c-1.72,4.03-3.95,7.73-7.3,10.65c-0.64,0.57-1.35,1.05-2.15,1.39
		c-1.39,0.59-2.68,0.46-3.91-0.43c-2.32-1.68-2.33-1.68-4.69,0.01c-1.38,0.98-2.81,1.02-4.28,0.25c-1.78-0.94-3.18-2.34-4.39-3.91
		C4.36,55.18,1.7,49.62,1.39,43.18c-0.2-4.31,1.02-8.17,4.77-10.79c3.48-2.43,8.61-2.33,12.28,0.21c0.63,0.44,1.02,0.4,1.63,0
		c5.29-3.54,12.22-2.16,15.29,3.01C36.51,37.55,37.06,39.66,37.12,41.92z"/>
	<path class="st1" d="M9.05,20.68c5.14-0.45,8.61,2.38,9.41,7.67c0.25,1.64,0.26,1.72-1.41,1.8c-5.53,0.29-8.57-1.92-9.62-7.5
		C7.07,20.86,7.11,20.85,9.05,20.68z"/>
	<path class="st1" d="M23.65,23.44c0.01,1.96-1.68,4.17-3.6,4.75c-0.46,0.14-0.5-0.17-0.63-0.4c-1.68-3.15-0.56-6.36,2.7-7.76
		c0.4-0.17,0.57-0.09,0.74,0.29C23.31,21.31,23.66,22.32,23.65,23.44z"/>
	<path class="st2" d="M48.26,24.19c-4.47,0-8.95,0-13.43,0c-1.72,0-2.32-0.6-2.32-2.3c0-2.4-0.01-4.8,0-7.21
		c0.01-1.41,0.69-2.15,2.1-2.15c9.05-0.02,18.1-0.02,27.15,0c1.5,0,2.15,0.7,2.15,2.19c0.01,2.43,0,4.87,0,7.3
		c0,1.54-0.62,2.17-2.14,2.17C57.29,24.2,52.77,24.19,48.26,24.19z"/>
	<path class="st3" d="M58.86,39.89c-0.83,0-1.64,0.03-2.47-0.01c-1.3-0.06-2.16-0.97-2.16-2.21c0-1.25,0.86-2.17,2.17-2.2
		c1.64-0.04,3.28-0.04,4.93,0c1.36,0.03,2.23,0.96,2.2,2.26c-0.02,1.25-0.89,2.11-2.21,2.15C60.51,39.9,59.69,39.89,58.86,39.89z"/>
	<path class="st2" d="M58.84,33.25c-0.86,0-1.71,0.02-2.57-0.01c-1.17-0.04-2.01-0.92-2.03-2.1c-0.02-1.18,0.78-2.2,1.91-2.24
		c1.84-0.06,3.68-0.06,5.52,0c1.12,0.03,1.91,1.07,1.87,2.26c-0.03,1.16-0.83,2.03-1.95,2.08C60.68,33.28,59.75,33.26,58.84,33.25z"
		/>
	<path class="st2" d="M58.78,46.44c-0.82,0-1.64,0.02-2.46-0.01c-1.2-0.04-2.06-0.95-2.07-2.17c-0.01-1.2,0.86-2.15,2.06-2.18
		c1.74-0.03,3.48-0.03,5.22,0c1.18,0.02,2,0.92,2.01,2.11c0.02,1.23-0.81,2.16-2.01,2.24c-0.07,0.01-0.13,0-0.2,0
		C60.48,46.44,59.63,46.44,58.78,46.44z"/>
	<path class="st2" d="M48.17,33.26c-0.85,0-1.71,0.02-2.56-0.01c-1.16-0.04-2-0.93-2.03-2.11c-0.03-1.16,0.78-2.2,1.91-2.23
		c1.84-0.07,3.68-0.07,5.51,0c1.12,0.04,1.91,1.07,1.87,2.25c-0.04,1.16-0.83,2.03-1.95,2.08C50.01,33.28,49.09,33.25,48.17,33.26
		C48.17,33.25,48.17,33.25,48.17,33.26z"/>
	<path class="st2" d="M48.11,46.44c-0.83,0-1.64,0.02-2.47-0.01c-1.2-0.04-2.07-0.97-2.07-2.18s0.86-2.15,2.06-2.18
		c1.74-0.03,3.48-0.03,5.22,0c1.17,0.02,2,0.93,2.01,2.12c0.02,1.23-0.82,2.19-2.01,2.23C49.95,46.47,49.03,46.44,48.11,46.44z"/>
	<path class="st2" d="M58.82,53.01c-0.85,0-1.71,0.02-2.56-0.01c-1.16-0.04-2.01-0.95-2.02-2.11c-0.02-1.18,0.78-2.19,1.92-2.22
		c1.84-0.06,3.68-0.06,5.51,0c1.11,0.03,1.91,1.08,1.87,2.27c-0.04,1.15-0.84,2.02-1.96,2.07C60.66,53.03,59.74,53.01,58.82,53.01z"
		/>
	<path class="st2" d="M48.3,53.01c-0.88,0-1.77,0.02-2.66-0.01c-1.21-0.04-2.06-0.97-2.06-2.19c0.01-1.16,0.83-2.13,1.99-2.16
		c1.77-0.05,3.55-0.04,5.32,0c1.19,0.02,2.02,1.02,2,2.24c-0.02,1.19-0.85,2.07-2.02,2.11C50.01,53.03,49.15,53.01,48.3,53.01z"/>
	<path class="st2" d="M48.26,39.76c-0.89,0-1.77,0.02-2.67-0.01c-1.15-0.04-2.01-0.97-2-2.12c0.02-1.15,0.89-2.06,2.06-2.07
		c1.71-0.02,3.42-0.02,5.13,0c1.27,0.02,2.07,0.87,2.06,2.13c-0.01,1.22-0.78,2.03-2.02,2.07C49.96,39.79,49.11,39.77,48.26,39.76
		C48.26,39.77,48.26,39.77,48.26,39.76z"/>
	<path class="st4" d="M4.55,44.15c-0.02-2.49,0.64-4.75,2.3-6.64c0.19-0.22,0.42-0.41,0.64-0.6c0.17-0.14,0.36-0.12,0.54,0.03
		c0.21,0.19,0.21,0.42,0.03,0.61c-4.19,4.56-2.68,9.4-0.66,14.25c0.52,1.25,1.24,2.39,2.01,3.5c0.18,0.26,0.45,0.56,0.08,0.85
		c-0.38,0.31-0.59-0.01-0.78-0.29C6.3,52.32,4.67,48.5,4.55,44.15z"/>
	<path class="st5" d="M51.87,36.47c0,0.41,0.6,0.54,0.46,0.99c-0.02,0.05-0.26,0.09-0.35,0.04C51.57,37.25,51.6,36.88,51.87,36.47z"
		/>
</g>
</svg>
