<svg width="71" height="71" viewBox="0 0 71 71" fill="none" xmlns="http://www.w3.org/2000/svg">
<path d="M70.4019 35.574C70.4019 54.9039 54.7318 70.574 35.4019 70.574C16.0719 70.574 0.401855 54.9039 0.401855 35.574C0.401855 16.244 16.0719 0.573975 35.4019 0.573975C54.7318 0.573975 70.4019 16.244 70.4019 35.574Z" fill="#10C6C6"/>
<g clip-path="url(#clip0)">
<path d="M44.0196 41.3464C43.9024 41.4154 43.7792 41.4722 43.6519 41.5172V47.574C44.1498 47.4343 44.914 47.1564 45.6221 46.5743C46.8031 45.6035 47.4019 44.1794 47.4019 42.3416V37.9217C47.1351 38.3574 46.8319 38.7784 46.4925 39.1818C45.3687 40.5173 44.2354 41.2193 44.0196 41.3464Z" fill="white"/>
<path d="M40.1362 41.6385C40.1362 42.0773 40.035 42.4929 39.855 42.8634L42.2456 43.696V41.5179L40.1362 40.7833V41.6385Z" fill="white"/>
<path d="M34.5112 38.8243L23.4019 34.9553V37.1334L34.5112 41.0024V38.8243Z" fill="white"/>
<path d="M37.3237 44.4509C36.0897 44.4509 35.0394 43.6516 34.6616 42.5438L23.4019 38.6224V40.4665C23.4019 40.7657 23.5912 41.0321 23.8737 41.1305L42.2456 47.5287V45.185L38.8464 44.0012C38.4072 44.2852 37.8846 44.4509 37.3237 44.4509Z" fill="white"/>
<path d="M31.4644 29.4333C31.4644 31.1134 32.8312 32.4802 34.5112 32.4802C36.1913 32.4802 37.5581 31.1134 37.5581 29.4333C37.5581 27.9763 36.5299 26.7556 35.1611 26.4569C34.9644 25.2937 34.2307 24.2884 33.1486 23.7473L32.9506 23.6483C32.6035 23.4747 32.181 23.6155 32.0073 23.9628C31.8336 24.3101 31.9744 24.7325 32.3217 24.9061L32.5197 25.005C33.1295 25.31 33.5618 25.8515 33.7301 26.4884C32.4274 26.8342 31.4644 28.0232 31.4644 29.4333Z" fill="white"/>
<path d="M47.4019 32.9666C47.4019 32.7724 47.3553 28.1847 43.3057 25.7983C43.1274 25.6932 42.7165 25.7404 42.7165 25.7404C42.7165 25.7404 40.4825 26.5195 38.3899 27.2479C38.7554 27.8939 38.9644 28.6396 38.9644 29.4333C38.9644 31.8888 36.9667 33.8865 34.5112 33.8865C32.2923 33.8865 30.4474 32.2551 30.1125 30.1288C27.2367 31.1298 24.7905 31.9817 23.8727 32.3029C23.5905 32.4017 23.4016 32.6681 23.4019 32.9671C23.4021 33.2661 23.5914 33.5323 23.8737 33.6306L35.9175 37.8249V41.6384C35.9175 42.4151 36.5471 43.0447 37.3237 43.0447C38.1004 43.0447 38.73 42.4151 38.73 41.6384V38.8044L42.7174 40.193C42.7926 40.2193 42.8708 40.2322 42.9487 40.2322C43.0729 40.2322 43.1963 40.1993 43.3057 40.1348C43.473 40.0363 47.4019 37.6669 47.4019 32.9666ZM39.9019 33.4353C39.5135 33.4353 39.1987 33.1205 39.1987 32.7322C39.1987 32.3439 39.5135 32.0291 39.9019 32.0291C40.2902 32.0291 40.605 32.3439 40.605 32.7322C40.605 33.1205 40.2902 33.4353 39.9019 33.4353ZM41.3081 36.7166C40.9198 36.7166 40.605 36.4018 40.605 36.0135C40.605 35.6251 40.9198 35.3103 41.3081 35.3103C41.6964 35.3103 42.0112 35.6251 42.0112 36.0135C42.0112 36.4018 41.6964 36.7166 41.3081 36.7166ZM42.7144 30.6228C42.326 30.6228 42.0112 30.308 42.0112 29.9197C42.0112 29.5314 42.326 29.2166 42.7144 29.2166C43.1027 29.2166 43.4175 29.5314 43.4175 29.9197C43.4175 30.308 43.1027 30.6228 42.7144 30.6228ZM43.6519 33.9041C43.2635 33.9041 42.9487 33.5893 42.9487 33.201C42.9487 32.8126 43.2635 32.4978 43.6519 32.4978C44.0402 32.4978 44.355 32.8126 44.355 33.201C44.355 33.5893 44.0402 33.9041 43.6519 33.9041Z" fill="white"/>
</g>
<defs>
<clipPath id="clip0">
<rect width="24" height="24" fill="white" transform="translate(23.4019 23.574)"/>
</clipPath>
</defs>
</svg>
