<svg width="295" height="235" viewBox="0 0 295 235" fill="none" xmlns="http://www.w3.org/2000/svg">
<path opacity="0.33" d="M294.334 233.507L47.6567 228.804L5.69849 227.698L8.37274 229.173L62.7801 234.06H224.434L294.334 233.507Z" fill="#346F45"/>
<path d="M21.9284 183.803C21.9284 183.803 23.035 188.598 19.8996 190.165C19.623 190.258 18.4242 191.733 18.5164 192.932C18.6086 194.131 20.1763 202.799 28.7524 200.494L30.5967 199.018L30.32 201.508C30.32 201.508 27.0003 210.914 25.4326 216.17C25.4326 216.17 23.3116 219.951 26.908 222.072C26.908 222.072 31.15 228.804 24.4182 228.712C24.4182 228.712 -6.10522 232.954 1.91756 217C2.00977 216.724 8.92597 205.658 7.63495 190.719C7.63495 190.719 5.79063 182.696 16.3955 182.327L21.9284 183.803Z" fill="black"/>
<path d="M51.6213 184.632C51.6213 184.632 49.9614 188.136 47.1949 189.427C47.0105 189.519 45.535 190.902 45.4428 192.193C45.3506 193.392 47.2871 202.798 54.3877 201.323L56.0476 200.032L55.5865 202.429C55.5865 202.429 51.8057 211.467 49.8691 216.538C49.8691 216.538 47.7482 220.135 50.3302 222.532C50.3302 222.532 52.9123 229.633 47.5637 228.803C47.5637 228.803 22.7577 230.094 31.0571 214.971C31.1493 214.786 37.9733 204.366 38.8032 189.427C38.8032 189.427 38.3422 181.22 46.826 181.865L51.6213 184.632Z" fill="black"/>
<path d="M220.193 105.972L223.051 117.96L225.449 128.472L232.826 158.166L233.472 166.465L235.961 173.289L250.163 225.115L247.027 227.789L248.595 234.06H266.854H293.965L294.426 232.584L265.932 222.717L259.938 170.799L258.185 154.938L252.653 136.68V121.464L249.609 106.156L247.673 88.8196L246.566 86.0531L242.324 75.2639L235.961 72.313L220.193 105.972Z" fill="url(#paint0_linear)"/>
<path d="M220.192 105.972L221.668 112.888C243.062 105.418 238.635 85.2231 238.635 85.2231L240.664 86.4219L245.275 82.8255L242.324 75.2638L235.961 72.2207L220.192 105.972Z" fill="#F8B181"/>
<path d="M54.0193 201.6L66.3762 193.209L76.52 190.073L88.6925 181.59H88.7847L92.5655 179.561C93.1188 172.46 95.6086 162.132 95.6086 162.132L85.7416 163.146L70.3415 168.311L69.5116 168.587L67.8517 169.97L57.8002 177.993L53.005 183.157L45.7199 190.996C44.3366 201.508 54.0193 201.6 54.0193 201.6Z" fill="url(#paint1_linear)"/>
<path d="M52.9127 183.157C65.5462 178.915 84.5427 169.325 84.5427 169.325C87.7702 170.432 88.6924 170.247 88.6924 170.247C88.6924 170.247 88.6002 178.27 88.6924 181.59L92.4732 179.561C93.0265 172.46 95.5164 162.132 95.5164 162.132L85.6493 163.146L70.2492 168.311L67.7594 169.97L57.7079 177.993L52.9127 183.157Z" fill="#F8B181"/>
<path d="M82.1453 166.373C82.1453 166.373 62.8722 165.082 58.6302 139.077L53.5583 151.342L41.9392 157.428L35.3918 159.918L27.1846 170.246L18.3319 190.349C18.3319 190.349 15.1966 195.421 20.8217 199.294C20.8217 199.294 26.7236 203.997 30.7811 198.649L33.0865 193.577L67.2063 172.828L69.6961 170.062L75.2291 170.246L82.1453 166.373Z" fill="url(#paint2_linear)"/>
<path d="M236.33 80.3354C236.422 78.3066 220.838 76.0012 220.838 76.0012C220.838 76.0012 208.112 83.9318 203.04 83.1018C197.876 82.2719 182.015 53.7772 202.671 43.0802L161.82 36.7173L139.596 43.8179L129.913 56.4515L140.795 46.5844C140.795 46.5844 152.414 47.2299 149.278 88.0815L143.838 95.6432L109.533 153.186L117.095 165.082L128.991 167.11L153.52 143.688L174.914 134.558L189.208 116.3L219.362 105.971C219.27 106.064 235.131 112.795 236.33 80.3354Z" fill="#B76215"/>
<path d="M194.003 76.5547C194.003 76.5547 201.288 90.4793 220.284 78.4913L223.881 76.4625L219.823 59.587L216.596 46.308L206.452 40.5906L201.196 43.8181L197.784 45.9391C197.784 45.8469 186.533 53.593 194.003 76.5547Z" fill="url(#paint3_linear)"/>
<path d="M221.853 75.7259L213.461 79.0457L198.522 74.896L213.461 81.0745L221.853 75.7259Z" fill="#F8B181"/>
<path d="M59.5527 136.588L83.3444 98.5027L102.802 82.2727L114.698 80.7051L106.675 142.766L96.439 158.535C97.6378 157.89 98.56 157.336 98.56 157.336L96.1624 165.359C96.1624 165.359 92.6582 165.267 90.9983 164.253C69.4198 173.382 60.7515 148.023 60.7515 148.023C57.1551 141.383 59.5527 136.588 59.5527 136.588Z" fill="#238642"/>
<path d="M109.442 221.242L120.231 224.654L130.375 228.066L138.49 234.245L91.644 234.152L90.6296 197.082L92.3817 174.12L97.0847 156.691L97.4536 150.974L100.497 145.256L104.554 122.663L108.612 92.6933L125.487 61.3399L139.965 46.2166C139.965 46.2166 164.218 51.9339 154.443 93.3388L150.385 97.0275L140.611 122.94L124.749 145.164L122.075 167.388L113.96 189.612L109.442 221.242Z" fill="url(#paint4_linear)"/>
<path d="M207.282 54.0552L206.36 61.8935L220.746 73.6049L219.823 59.4037L216.596 46.1246L206.452 40.4072L201.196 43.727L207.282 54.0552Z" fill="#F8B181"/>
<path d="M261.136 35.7033L258.461 51.2877L255.326 52.8554L238.266 83.3788L224.618 81.4423L212.169 61.3393L214.843 47.8758L212.907 52.0255C198.337 41.4206 209.034 30.7236 211.155 30.7236C213.276 30.7236 215.766 36.0721 215.766 36.0721L229.598 30.5392L234.578 20.3032L259.107 29.8937L261.136 35.7033Z" fill="url(#paint5_linear)"/>
<path d="M260.398 36.9948L236.883 23.2546L232.641 35.9804L223.143 36.9948L219.178 44.9253L215.12 34.8738C215.12 34.8738 211.247 27.1277 206.821 34.7816C206.821 34.7816 209.772 6.56354 222.774 5.82581L225.725 6.37911L238.359 0.477295L257.447 11.3588L268.79 28.2343L260.398 36.9948Z" fill="url(#paint6_linear)"/>
<path d="M242.14 153.648L234.209 153.371C234.209 153.371 233.564 163.515 242.14 153.648Z" fill="#F8B181"/>
<path d="M121.613 144.519L117.464 144.242C117.464 144.242 118.386 148.945 119.953 154.386C120.968 157.706 122.535 146.455 121.613 144.519Z" fill="#F8B181"/>
<defs>
<linearGradient id="paint0_linear" x1="294.426" y1="153.154" x2="220.208" y2="153.154" gradientUnits="userSpaceOnUse">
<stop offset="0.0215018" stop-color="#FBCD99"/>
<stop offset="0.1378" stop-color="#FBC69D"/>
<stop offset="0.3777" stop-color="#FBBFA1"/>
<stop offset="1" stop-color="#FBBDA2"/>
</linearGradient>
<linearGradient id="paint1_linear" x1="95.5751" y1="181.905" x2="45.4777" y2="181.905" gradientUnits="userSpaceOnUse">
<stop offset="0.0215018" stop-color="#FBCD99"/>
<stop offset="0.1378" stop-color="#FBC69D"/>
<stop offset="0.3777" stop-color="#FBBFA1"/>
<stop offset="1" stop-color="#FBBDA2"/>
</linearGradient>
<linearGradient id="paint2_linear" x1="82.1326" y1="170.132" x2="17.5856" y2="170.132" gradientUnits="userSpaceOnUse">
<stop offset="0.0215018" stop-color="#FBCD99"/>
<stop offset="0.1378" stop-color="#FBC69D"/>
<stop offset="0.3777" stop-color="#FBBFA1"/>
<stop offset="1" stop-color="#FBBDA2"/>
</linearGradient>
<linearGradient id="paint3_linear" x1="223.868" y1="61.8738" x2="191.427" y2="61.8738" gradientUnits="userSpaceOnUse">
<stop offset="0.0215018" stop-color="#FBCD99"/>
<stop offset="0.1378" stop-color="#FBC69D"/>
<stop offset="0.3777" stop-color="#FBBFA1"/>
<stop offset="1" stop-color="#FBBDA2"/>
</linearGradient>
<linearGradient id="paint4_linear" x1="156.572" y1="140.131" x2="90.6086" y2="140.131" gradientUnits="userSpaceOnUse">
<stop offset="0.0215018" stop-color="#FBCD99"/>
<stop offset="0.1378" stop-color="#FBC69D"/>
<stop offset="0.3777" stop-color="#FBBFA1"/>
<stop offset="1" stop-color="#FBBDA2"/>
</linearGradient>
<linearGradient id="paint5_linear" x1="261.15" y1="51.7978" x2="205.41" y2="51.7978" gradientUnits="userSpaceOnUse">
<stop offset="0.0215018" stop-color="#FBCD99"/>
<stop offset="0.1378" stop-color="#FBC69D"/>
<stop offset="0.3777" stop-color="#FBBFA1"/>
<stop offset="1" stop-color="#FBBDA2"/>
</linearGradient>
<linearGradient id="paint6_linear" x1="268.821" y1="22.6979" x2="206.837" y2="22.6979" gradientUnits="userSpaceOnUse">
<stop stop-color="#9B7761"/>
<stop offset="1" stop-color="#875837"/>
</linearGradient>
</defs>
</svg>
