<?xml version="1.0" encoding="UTF-8"?>
<!DOCTYPE svg PUBLIC "-//W3C//DTD SVG 1.1//EN" "http://www.w3.org/Graphics/SVG/1.1/DTD/svg11.dtd">
<!-- Creator: CorelDRAW 2020 (64-Bit) -->
<svg xmlns="http://www.w3.org/2000/svg" xml:space="preserve" width="210mm" height="297mm" version="1.1" style="shape-rendering:geometricPrecision; text-rendering:geometricPrecision; image-rendering:optimizeQuality; fill-rule:evenodd; clip-rule:evenodd"
viewBox="0 0 21000 29700"
 xmlns:xlink="http://www.w3.org/1999/xlink"
 xmlns:xodm="http://www.corel.com/coreldraw/odm/2003">
 <defs>
  <style type="text/css">
   <![CDATA[
    .fil0 {fill:#FEFEFE;fill-rule:nonzero}
   ]]>
  </style>
 </defs>
 <g id="Layer_x0020_1">
  <metadata id="CorelCorpID_0Corel-Layer"/>
  <g id="_2317797638688">
   <g>
    <g>
     <path class="fil0" d="M18480.37 6488.12l-15814.43 0c-503.87,0 -910.57,406.7 -910.57,910.57l0 15803.64c0,503.87 406.7,910.57 910.57,910.57l15803.64 -0.01c503.87,0 910.57,-406.7 910.57,-910.57l0 -15803.64c10.8,-503.86 -395.91,-910.56 -899.78,-910.56zm-3023.24 2281.82c-309.52,1022.14 -629.84,2044.29 -939.36,3066.43 -770.2,-295.12 -1554.81,-503.87 -2350.21,-615.45 -57.58,-824.19 -755.81,-1468.43 -1594.4,-1468.43 -435.49,0 -824.19,169.16 -1104.92,446.29l-1734.76 -881.78c-183.55,-82.77 -392.3,-14.39 -475.08,154.77 -82.77,183.55 -14.39,392.3 154.77,475.08l1666.38 838.59c-57.58,140.36 -82.78,280.73 -97.17,421.09 -799,111.57 -1580,320.32 -2350.21,615.45 -309.52,-1022.14 -629.84,-2044.29 -939.36,-3066.43 3159.98,-1191.3 6600.72,-1191.3 9764.32,14.39zm-9238.88 14050.88c-1356.85,0 -2461.78,-2184.65 -2461.78,-4883.98 0,-2699.32 1104.92,-4883.97 2461.78,-4883.97 1356.87,0 2461.79,2184.65 2461.79,4883.97 0,2699.33 -1101.33,4883.98 -2461.79,4883.98zm8706.21 0c-1356.85,0 -2461.78,-2184.65 -2461.78,-4883.98 0,-2699.32 1104.92,-4883.97 2461.78,-4883.97 1356.87,0 2461.79,2184.65 2461.79,4883.97 0,2699.33 -1101.32,4883.98 -2461.79,4883.98z"/>
    </g>
   </g>
   <g>
   </g>
   <g>
   </g>
   <g>
   </g>
   <g>
   </g>
   <g>
   </g>
   <g>
   </g>
   <g>
   </g>
   <g>
   </g>
   <g>
   </g>
   <g>
   </g>
   <g>
   </g>
   <g>
   </g>
   <g>
   </g>
   <g>
   </g>
   <g>
   </g>
  </g>
 </g>
</svg>
