<?xml version="1.0" encoding="UTF-8"?>
<!DOCTYPE svg PUBLIC "-//W3C//DTD SVG 1.1//EN" "http://www.w3.org/Graphics/SVG/1.1/DTD/svg11.dtd">
<!-- Creator: CorelDRAW 2020 (64-Bit) -->
<svg xmlns="http://www.w3.org/2000/svg" xml:space="preserve" width="210mm" height="297mm" version="1.1" style="shape-rendering:geometricPrecision; text-rendering:geometricPrecision; image-rendering:optimizeQuality; fill-rule:evenodd; clip-rule:evenodd"
viewBox="0 0 21000 29700"
 xmlns:xlink="http://www.w3.org/1999/xlink"
 xmlns:xodm="http://www.corel.com/coreldraw/odm/2003">
 <defs>
  <style type="text/css">
   <![CDATA[
    .fil0 {fill:#FEFEFE}
   ]]>
  </style>
 </defs>
 <g id="Layer_x0020_1">
  <metadata id="CorelCorpID_0Corel-Layer"/>
  <g id="_2130209105552">
   <path class="fil0" d="M2187.1 19033.48c-179.03,0 -319.48,-65.27 -427.91,-182.49l-45.64 -54.8c-46.46,-59.35 -80.5,-125.18 -111.12,-194.08 -63.32,-142.45 -110.71,-336.83 -110.71,-503.54 0,-152.68 -3.03,-197.65 23.17,-355.41 37.99,-228.72 145.4,-550.3 251.11,-761.06 14.24,-28.39 26.46,-56.71 41.21,-86.28 14.84,-29.75 29.24,-54.47 43.78,-83.71 30.77,-61.87 147.93,-264.56 186.2,-323.75l199.36 -306.72c83.74,-125.96 225.52,-323.09 314.78,-442.42l308.39 -421.76c6.7,-9.31 6.14,-12.46 18.9,-15.87l77.16 166.22c47.96,108.61 91.01,255.75 119.91,374.59 43.76,179.94 65.53,345.66 90.46,527.65 12.17,88.81 21.53,257.94 21.53,349.35 0,44.76 4.02,78.91 3.87,119.75l0.04 266.62c0.18,31.78 -3.93,53.62 -3.91,88.81 0.08,133.79 -26.38,400.86 -49.19,518.7 -46.71,241.31 -69.68,373.16 -154.98,602.22 -34.36,92.28 -74.31,178.85 -120.14,258.45 -40.54,70.41 -102.62,162.29 -159.56,219.04 -110.29,109.93 -195.17,181.38 -348.23,219.67 -50.65,12.68 -107.13,20.82 -168.48,20.82zm2797.67 -5174.31c0,0 449.8,-1102.44 930.46,-952.51 376.38,204.57 -762.21,864.4 -930.46,952.51zm10887.49 6538.03l-137.07 0.01c-139.1,-4.64 -262.84,-23.27 -379.86,-52.55 -79.23,-19.82 -145.59,-41.84 -215.9,-69.97 -98.13,-39.28 -193.15,-86.03 -280.9,-144.05 -56.9,-37.62 -113.78,-76.13 -166.67,-119.21l-95.12 -82.6c-61.48,-56.87 -134.69,-139.09 -184.66,-205.52 -31.14,-41.4 -62.3,-82.28 -89.8,-126.54 -9.49,-15.28 -17.5,-26.6 -27.06,-42.48 -44.76,-74.36 -89.42,-152.47 -122.72,-232.7 -84.47,-203.47 -139.73,-385.22 -173.85,-606.53 -3.48,-22.58 -6.19,-44.74 -8.65,-64.75 -2.64,-21.53 -2.99,-41.12 -6.21,-63.33 -5.05,-34.87 -3.56,-68.71 -6.29,-101.88 -28.48,-347.01 16.87,-717.69 121.37,-1038.01 11.81,-36.18 24.68,-68.74 36.78,-102.3 26.56,-73.71 70.87,-181.65 110.85,-248.43 9.6,-16.02 14.48,-29.7 23.58,-45.96 50.66,-90.58 104.67,-175.78 165.12,-259.83 88.86,-123.59 189.54,-237.15 296.8,-344.5 14.29,-14.29 20.94,-19.98 36.53,-33.01 12.78,-10.68 24.87,-24.45 36.84,-36.56l233.04 -195.78c67.02,-50.42 133.42,-101.81 203.34,-148.21 15.42,-10.23 28.73,-18.33 43.96,-29.44 125.2,-91.27 262.68,-162.51 394.94,-242.5l182.49 -99.53c70.7,-41.09 208.37,-106.37 284.42,-144.4l193.21 -92.67c33.06,-16.54 63.33,-29.76 96.53,-46.4 79.45,-39.82 162.37,-73.09 242.13,-113.3l96.53 -46.4c18.19,-8.43 30.06,-13.05 47.67,-21.88l242.44 -112.97c82.61,-34.1 200.03,-98.01 281.58,-143.38 14.21,-7.91 30.15,-20.88 45.16,-24.37 0,-45.22 -6.25,-98.78 -10.89,-139.78 -20,-176.66 -52.14,-349.52 -73.41,-525.39l-13.92 -132.88c-6.63,-45.48 -4.47,-97.63 -9.39,-141.29 -5.33,-47.49 3.3,-99.28 3.3,-142.37 -18.05,13.23 -54.24,64.55 -70.04,84.49l-251.18 285.8c-23.14,29.01 -50.15,52.06 -73.97,80.57 -34.02,40.7 -148.13,148.47 -191.05,191.4 -26.7,26.7 -50.59,50.55 -77.27,77.27l-181.53 166.16c-9.04,8.8 -12.38,9.53 -21.22,17.4 -13.43,11.96 -25.1,22.83 -38.89,34.52 -200.32,169.7 -506.38,394.6 -761.49,467.02 -278.15,78.96 -499.66,1.64 -619.11,-239.21l-47.65 -106.89c-68.86,-173.71 -100.44,-472.42 -100.44,-664.48 -10.47,7.67 -7.44,7.84 -14.28,20.48 -40.93,75.63 -86.53,123.37 -135.24,181.55l-176.62 167.21c-12.95,10.24 -21.74,17.21 -34.34,27.47 -24.07,19.61 -48.19,36.2 -72.74,54.75 -23.74,17.92 -48.42,33.18 -73.63,49.99 -215.74,143.85 -446.55,250.56 -705.88,302.43 -127.4,25.48 -321.59,43.74 -459.81,14.89 -164.76,-34.38 -293.53,-121.23 -380.46,-249.25 -17.29,-25.46 -29.29,-51.76 -43.5,-80.13 -25.79,-51.52 -48.53,-126.98 -59.21,-191.9 -31.24,-189.75 -11.57,-292.54 -11.57,-475.2 -20.16,13.5 -42.52,23.17 -62.41,38.03 -82.07,61.32 -139.01,120.31 -203.26,198.51 -103.89,126.44 -228.89,330.59 -349.54,450.16 -96.05,95.19 -187.22,180.69 -311.9,236.68 -36.44,16.37 -70.26,29.07 -111.31,39.36 -129.8,32.52 -202.01,26.64 -282.84,-78.02 -144.24,-186.79 -166.08,-388.36 -166.08,-633.61l-23.96 37.86c-9.3,13.76 -14.3,23.65 -24.58,37.23 -44.48,58.75 -91.78,109.51 -143.6,161.59 -85.99,86.42 -277.88,216.27 -393.74,274.61 -212.03,106.75 -373.87,182.85 -624.97,224.94 -131,21.96 -318.07,29.26 -442.62,-2.21 -134.64,-34.02 -184.35,-71.7 -278.81,-150.02l-27.37 -30.57c-82.4,-81 -125.29,-226.76 -144.73,-342.04 -12.73,-75.53 -12.37,-143.49 -12.69,-230.72 -0.28,-76.01 13.3,-151.6 19.33,-224.05 -32.73,2.72 -108.79,55.07 -130.36,74.39l-75.31 75.35c-39.98,42.96 -76.88,91.5 -112.23,138.89 -127.02,170.24 -210.22,295.5 -359.13,444.42 -35.35,35.34 -67.76,62.94 -107.75,93.14 -71.63,54.08 -171.14,108.22 -272.16,133.48 -137.49,34.39 -193.82,14.89 -280.96,-93.09 -129.27,-160.19 -157.18,-361.12 -157.18,-646.38 -11.96,8.01 -15.14,9.81 -26.07,20.28l-454.11 399.67c-130.77,109.99 -263.05,216.22 -399.51,319.06l-52.07 36.78c-10.12,6.86 -17.44,11.21 -27.9,18.46l-307.28 187.21c-17.82,10.28 -37.22,22.05 -56.85,32.01 -78.26,39.69 -150.68,87.33 -229.23,126.19 -20.5,10.14 -37.45,20.71 -57.94,30.91 -354.81,176.43 -807.5,362.44 -1193.71,189.25 -80.61,-36.15 -149.92,-86.6 -207.75,-151.53 -193.74,-217.5 -240.42,-519.79 -240.42,-833.55 -42.15,0 -80.78,-0.27 -111.65,-11.98 -24.87,-9.44 -49.06,-34.83 -62.52,-57.25 -28.76,-47.91 -38.38,-154.48 -17.57,-207.5 29.15,-74.3 129.62,-90.13 177.35,-189.66 42.59,-88.79 51.9,-193.15 73.84,-289.3 33.7,-147.65 83.4,-324.06 150.47,-456.06 10.08,-19.83 32.69,-62.55 37.32,-82.44 -34.45,9.2 -230.52,160.3 -262.7,185.44l-101.41 84.02c-44.34,42.23 -91.37,79.79 -135.21,123.63 -39.58,39.58 -146.53,142.4 -182.24,188.63 -7.18,9.3 -10.93,11.89 -18.72,19.91 -58.04,59.76 -160.8,195.07 -213.65,265.39 -64.05,85.22 -122.5,173.84 -181.68,262.6 -20.53,30.79 -38.39,57.74 -58.73,88.06 -11.03,16.45 -18.83,30.29 -30.15,47.13 -19.9,29.61 -73.61,108.43 -82.11,138.13 -11.47,40.06 12.47,84.33 24.87,116.94 41.75,109.75 77.97,218.27 111.15,333.13 45.9,158.9 79.12,315.89 112.29,478.78 29.58,145.21 62.46,364.97 75.77,519.17l13.72 133.09c8.39,59.3 8.99,115.32 13.43,172 4.86,62.04 15.29,184.95 15.37,243.47 0.11,81.07 11.85,373.79 1.5,442.17 -3.44,22.7 -1.72,48.2 -1.58,71.82 0.35,61.85 -10.06,145.3 -11.57,208.64 -1.01,42.66 -8.94,92.45 -11.8,135 -2.9,43.27 -10.5,92.33 -15.32,135.35 -32.31,288.74 -88.29,577.89 -183.94,851.41 -81.94,234.35 -179.97,444.51 -333.18,632.62l-103.89 116.32c-15.13,15.12 -23.4,23.71 -40.17,37.09 -44.1,35.18 -63.99,59.15 -122.28,97.93 -232.42,154.62 -540.52,219 -837.51,175.35 -43.69,-6.43 -82.6,-13.76 -122.91,-23.89 -100.53,-25.28 -160.69,-51.88 -245.79,-90.31l-119.65 -65.79c-57.64,-38.12 -118.39,-77.13 -169.05,-124.56l-38.64 -34.76c-50.42,-51 -97.82,-97.58 -141.7,-155.77 -11.86,-15.72 -22.52,-29.28 -33.06,-44.2 -138.65,-196.22 -245.58,-439.98 -278.4,-683.55l-11.37 -100.66c-2.16,-42 -3.45,-84.27 -3.85,-126.66l0 -56.93c0.9,-93.26 6.17,-186.84 16.12,-279.34 42.29,-393.02 201.68,-813.16 394.62,-1158.41 88.27,-157.95 182.55,-312.41 283.92,-461.69 10.58,-15.57 18.58,-27.98 29.29,-44.1 20.02,-30.15 41.09,-57.34 60.29,-86.52 58,-88.18 123.77,-172.71 187.09,-257.18l259.41 -335.53c64.3,-82.34 126.13,-167.45 192.13,-248.28 67.03,-82.08 131.08,-169.54 191.94,-256.2 20.19,-28.74 41.12,-56.26 61.11,-85.69 40.97,-60.33 79.55,-115.59 118.37,-179.1 27.43,-44.89 8.61,-71.43 -8.36,-111.03 -21.54,-50.31 -50.02,-100.28 -75.78,-148.28 -42.59,-79.35 -93.24,-154.14 -139.49,-231.39 -37.52,-62.67 -74.91,-124.19 -107.81,-189.66 -41.53,-82.65 -75.77,-171.21 -110.17,-256.84 -6.02,-14.98 -16.41,-38.72 -19.86,-53.53 -120.27,0 -387.59,178.84 -547.57,213.49 -113.06,24.47 -208.61,26.54 -287.87,-61.85 -65.68,-73.26 -59.08,-251.47 2.4,-277.7 66.35,-28.31 159.12,2.86 222.79,-28.33 39.2,-19.2 74.04,-55.24 108.03,-81.27 12.94,-9.91 19.22,-18.99 32.53,-29.28 61.25,-47.3 134.32,-138.99 180.54,-201.92 36.12,-49.17 69.68,-98.16 97.24,-153.87 11.76,-23.76 28.93,-35.39 18.93,-59.65 -27.86,-67.53 -55.22,-139.84 -70.1,-212.34 -17.68,-86.16 -19.11,-115.26 -24.91,-198.75l4.59 -87.52c12.32,-84.15 32.6,-167.59 70.23,-242.69 33.51,-66.85 77.82,-129.75 130.39,-182.54 53.24,-53.46 115.11,-98.32 188,-128.78 58.13,-24.28 126.6,-44.14 207.02,-44.14 220.03,0 358.96,152.36 400.84,356.4 72.24,352.06 -311.07,510.58 -342.69,899.4 -10.17,125.03 13.22,226.44 44.76,333.43 18.13,61.52 46.95,118.96 78.86,172.24 39.37,65.69 86.19,124.14 129.6,187.2 66.76,97.01 89.58,121.83 144.5,234.1 21.88,44.74 31,93.65 42.48,142.95 27.45,-7.33 214.53,-172.73 236.6,-192.23l220.29 -204.66c11.89,-11.96 20.88,-21 32.78,-32.9l455.81 -455.92c12.67,-12.74 22,-17.81 34.86,-30.81 42.74,-43.24 85.13,-87.91 132.85,-125.98 12.88,-10.28 20.72,-21.37 33.26,-32.42l105.79 -91.24c97.5,-78.74 191,-159.33 296.15,-229.24 13.97,-9.29 26.13,-17.42 39.41,-26.27 137.27,-91.53 270.61,-158.45 417.23,-231.8 29.29,-14.65 58.17,-27.7 89.96,-41.39l184.32 -78.37c163.3,-65.37 322.96,-127.42 499.48,-153.41 201.07,-29.6 431.63,-6 585.04,108.11 136.33,101.4 188.68,237.02 160.04,412.89 -24.87,152.61 -127.49,310.66 -225.85,427.05l-90.39 102.77c-29.78,35.62 -63.77,67.29 -96.75,100.27 -76.44,76.44 -156.59,147.06 -239.29,216.57l-290.94 230.6c-11.92,8.92 -25.65,18.05 -37.49,28.18 -94.34,80.74 -194.08,153.59 -293.66,227.89l-128.59 103.2c-7.39,5.7 -9.26,7.19 -16.43,14.48 -12.92,13.13 -22.09,18.1 -34.8,30.87 -108.98,109.54 -130.22,141.86 -130.33,325.53 -0.1,167.43 31.7,320.76 133.59,387.95 89.86,59.26 224.67,15.79 326.14,-9.34 164.1,-40.65 328.9,-98.55 483.01,-166.02 91.24,-39.94 174.87,-85.72 261.27,-132.78 95.85,-52.22 189.66,-113.82 277.84,-178.02l187.63 -136.89c26.18,-19.64 48.13,-37.62 73.42,-57.93 87.74,-70.46 184.2,-183.67 253.51,-268.02 39.63,-48.23 73.94,-101.51 110.69,-152.01 19.43,-26.7 34.1,-51.9 53.54,-77.81 19.06,-25.42 36.86,-50.06 54.53,-76.83 57.45,-87.05 156.04,-216.37 219.77,-301.76 10.39,-13.93 18.32,-23.03 28.71,-36.96l342.2 -407.27c42.22,-50.51 132.17,-129.31 181.33,-177.96 117.89,-116.68 257.98,5.95 304.35,122.68 76.14,191.67 -45.99,580.69 -79.01,786.46 -14.17,88.31 -13.76,156.97 -13.76,245.08 52.09,-4.34 150.29,-90.4 186.4,-126.52l56.01 -59.89c7.97,-8.56 9.52,-12.36 17.43,-21.21 134.88,-151.02 304.31,-466.7 440.42,-606.51 8.83,-9.07 9.5,-12.33 17.37,-21.27 150.2,-170.56 373.49,-322.72 636.77,-279.48 120.43,19.78 102.02,97.2 102.06,210.88 0.04,211.19 -64.6,459.77 -102.69,669.97 -18.15,100.17 -48.51,329.89 -35.35,426.14 5.93,43.32 7.6,93.88 18.99,135.54 30.98,113.37 118.22,199.01 227.67,235.91 285.84,96.37 559.95,-183.26 730.58,-392.69 128.93,-158.25 246.02,-324.89 359.16,-494.61 97.5,-146.26 206.1,-318.91 312.7,-459.95 23.28,-30.81 43.76,-59.59 67.34,-91.06 22.97,-30.67 44.33,-57.02 68.21,-86.31l71.49 -83.04c13.91,-13.83 24.8,-24.73 38.64,-38.63l41.23 -36.03c30.87,-24.12 60.31,-41.48 93.32,-61.21 112.34,-67.11 244.27,-6.36 310.81,94.33 47.8,72.34 52.97,168.99 50.28,259.03 -0.55,18.52 -3.15,17.67 -3.96,34.68l-11.04 104.86c-22.16,130.98 -56.86,250.59 -78.95,384.63 -9.91,60.17 -34.7,212.32 -18.21,283.12 22.36,-0.49 58.75,-19.04 76,-28.31 44.45,-23.88 81.58,-57.27 116.27,-92.34 50.63,-51.16 93.62,-111.16 136.66,-168.53 30.02,-40.02 56.22,-77.41 86.07,-118.68l173.31 -240.06c57.81,-77.01 120.44,-153.57 191.14,-218.37 9.85,-9.02 17.43,-17.44 26.98,-27.1 74.81,-75.69 182.59,-141.64 280.21,-183.38 51.81,-22.15 96.14,-40.97 154.95,-49.8 66.5,-9.98 109.05,1.59 149.79,51.98 88.36,109.32 103.73,270.23 103.69,410.12 -0.01,67.32 2.13,137.99 0.13,204.87 -0.6,20.14 -4.18,26.34 -4.08,50.01 0.35,83.83 -7.9,165.16 -7.55,251.29 0.1,22.43 -3,28.31 -3.97,46.25 -6.12,113.4 5.44,343.48 41.39,418.37 12.62,26.29 28.35,41.86 57.77,46.54 89.62,14.24 203,4.52 286.68,-9.53 105.86,-17.78 213.98,-50.86 305.53,-103.98 85.18,-49.42 165.3,-108.93 234.86,-178.5l124.09 -134.75c68.51,-86.71 135.39,-174.76 196.76,-266.83l82.66 -122.09c67.8,-102.17 160.93,-239.31 243.63,-324.27 33.99,-34.91 43.86,-50.98 86.87,-90.84 71.82,-66.55 162.13,-105.56 260.31,-122.15 67.15,-11.35 119.83,-15.82 188.36,-3.92 52.27,9.08 106.57,37.57 112.02,92.73 24.35,246.59 -33.99,500.75 -78.44,735.8 -16.83,89.01 -23.52,181.93 -35.95,273.11l-5.12 95.42c-0.42,23.34 3.09,31.91 4.09,50.31 3.67,68.1 -0.98,62.43 14.44,140.09 24.57,123.86 130.5,324.16 270.31,344.2 108.48,15.55 402.62,-154.09 483.07,-234.11l52.08 -48.36c35.02,-32.28 71.24,-69.36 101.17,-107.44 46.01,-58.53 89.46,-116.84 128.04,-181.03 93.46,-155.51 167.18,-312.15 235.67,-482.88 39.66,-98.84 76.62,-197.23 110.35,-299.16 50.64,-153.06 128.67,-374.2 193.72,-524.84 21.27,-49.24 38.02,-94.92 61.97,-142.78 45.67,-91.28 92.16,-181.26 144.32,-269.05 7.12,-11.99 12.33,-19.3 19.8,-30.42 7.13,-10.63 12.47,-20.64 19.5,-30.72 54.99,-78.87 130.22,-155.04 221.31,-192.06 25.4,-10.32 48.31,-19.87 76.2,-28.11 144.33,-42.64 277.9,5.17 356.01,124.1 29.99,45.67 46.33,87.58 65.14,143.48 13.01,38.65 22.08,84.29 28.22,126.31 17.82,122 -2.79,241.39 -42.67,352.78 -23.62,65.95 -38.99,136.65 -53.67,205.17 -67.77,316.41 -56.08,631.22 -28.09,953.38 15.92,183.26 51.92,359.52 79.43,538.7 6.1,39.85 14.45,24.92 65.96,12.12l793.95 -233.68c80.25,-23.8 163.98,-39.31 245.25,-59.94 112.89,-28.67 225.2,-49.57 330.37,-83 146.5,-46.58 290.86,-113.31 365.29,-252.82 24.73,-46.35 41.83,-92.46 52.08,-152.67 21.54,-126.46 -15.18,-215.83 -82.25,-313.01 -4.13,-5.98 -6.36,-10.56 -10.51,-16.54 -3.96,-5.71 -6.92,-9.01 -11.42,-15.62l-61.8 -92.73c-65.66,-102.25 -131.07,-279.46 -26.89,-376.95 56.78,-53.13 176.34,-56.12 250.27,-43.45 98.42,16.86 204.08,64.4 267.12,142.38 83.41,103.19 119.12,362.35 119.15,498.97 0.03,125.82 -32.11,250.37 -74.68,334.82 -73.29,145.38 -179.43,264.85 -309.47,362.73l-87.94 62.74c-127.94,85.31 -265.94,149.26 -406.18,211.93 -145.68,65.1 -296.22,117.52 -446.33,171.79 -50.02,18.08 -99.91,34.71 -152.63,52.12 -142.5,47.06 -629.48,213.18 -751.86,271.9 0,95.29 0.11,190.59 0,285.88 -0.06,47.67 3.86,87.87 3.86,139.07 0,45.65 -2.43,98.18 -0.02,142.96l3.89 139.06c-0.14,114.12 8.14,233.2 7.71,347.71 -0.1,28.06 3.74,42.02 4.03,65.49l7.57 703.29c0.01,37.14 -8.49,449.38 -13.82,484.52 -5.46,36.05 -3.69,153.26 -10.99,201.49 -2.82,18.69 -4.58,50.93 -5.88,67.52 -11.72,149.47 -22.89,305.91 -44.42,453.94 -29.34,201.74 -64.34,397.79 -118.89,591.95l-68.21 213.81c-12.68,35.1 -25.93,68.83 -39.67,103.26 -25.09,62.88 -54.04,135.74 -88.1,193.91 -8.92,15.23 -16.17,31.71 -24.67,48.74 -65.14,130.48 -150.33,250.98 -246.89,359.64l-50.92 57.25c-23.11,29.92 -116.15,112.45 -145.74,136.27 -94.68,76.23 -186.54,143.87 -291.35,207.01 -30.53,18.39 -57.73,32.46 -88.31,50.77l-144.06 72.28c-185.09,79.02 -402.8,155.31 -607.75,172.63l-129.68 11.69zm-206.32 -339.96c-121.99,0 -212.96,-20.15 -307.6,-51.68 -85.75,-28.57 -161.64,-67.75 -233.28,-118.28 -45.86,-32.35 -126.21,-100.07 -163.16,-142.03 -9.04,-10.26 -10.74,-14.77 -21.26,-25.11 -21.72,-21.36 -59.72,-72.24 -79.38,-98.32 -126.76,-168.21 -215.91,-395.19 -273.19,-611.49 -34.58,-130.58 -62.29,-315.12 -69.5,-459.76l-7.74 -169.98c0,-234.48 30.41,-431.09 84.23,-649.79 23.58,-95.83 56.7,-189.29 91.27,-275.73 9.66,-24.14 17.17,-41.98 27.02,-65.71 36.62,-88.2 113.95,-217.47 165.26,-294.46l203.41 -260.18 231.46 -228.26c48.66,-48.71 198.85,-166.19 253.08,-206.65l53.79 -38.93c18.53,-12.62 36.36,-24.76 54.41,-38.31 18.9,-14.2 35.84,-23.36 55.23,-37.49 20.12,-14.64 36.13,-23.93 55.75,-36.96 83.28,-55.29 196.37,-127.22 284.52,-175.21l208.31 -116.2c11.63,-6.96 17.37,-10.19 29.95,-16.4 22.73,-11.24 38.99,-21.49 60.53,-32.2l119.76 -61.8c21.57,-10.78 38.45,-21.3 60.51,-32.21l370.89 -185.42c72.82,-36.42 209.05,-100.57 273.95,-139.42l152.34 -79.45c10.67,-4.75 20.74,-8.9 32.51,-13.85 12.6,-5.29 21.65,-10.57 33.12,-13.24 0,58.53 8.12,108.97 7.68,166.16 -0.25,31.31 4.1,50.67 3.86,85l7.91 165.93c0.08,62.32 -1.42,68.12 3.52,127.83l0.21 335.9c0,272.34 -14.42,565.64 -35,834.23 -24.29,317.04 -80.59,764.92 -148.21,1068.71 -44.48,199.86 -84.75,357.95 -145.62,549.76l-93.9 253.79c-8.87,21.13 -16.74,39.45 -25.52,59.48 -107.15,244.37 -195.24,391.87 -364.17,593.9 -69.61,83.25 -190.29,179.86 -284.96,236.59 -112.57,67.45 -236.85,119.18 -369.07,152.47 -89,22.4 -194.76,44.77 -302.92,44.77zm-10546.64 -6239.13l0 0zm-517.68 -459.73l0 0zm517.68 459.73l0 0z"/>
   <path class="fil0" d="M2272.09 10159.62c0,111.31 38.49,155.63 100.42,243.41 41.89,59.4 65.99,84.21 114.46,136.64l17.9 16.88c49.46,47.36 49.09,48.99 109.92,94.83 99.96,75.33 245.61,130.22 372,130.22 96.13,0 172.24,-27.2 252.43,-64.36 59.7,-27.66 92.94,-51.79 144.95,-90.7 71.76,-53.69 148.16,-128.51 188.59,-209.33 79.92,-159.74 84.51,-330.51 10.62,-494.9 -43.99,-97.86 -122.89,-169.69 -212.89,-219.79 -104.3,-58.07 -223.58,-87.17 -344.51,-91.48l-63.87 0.01c-89.05,3.13 -177.72,19.3 -260.71,46.84 -76.22,25.29 -186.33,82.05 -244.89,141.44 -32.26,32.71 -42.32,36.83 -74.6,79.92 -53.41,71.31 -109.82,174.86 -109.82,280.37z"/>
   <path class="fil0" d="M11613.4 17132.76c0,171.84 61.05,310.37 140.22,404.51 72.83,86.61 215.7,171.12 373.59,171.12 125.52,0 218.71,-24.46 314.55,-91.1 10.69,-7.44 25.21,-18.97 34.19,-27.62 11.98,-11.54 20.51,-23.1 33.73,-31.95 1.83,22.07 24.46,95.96 30.9,123.62 35.74,0 104.31,7.78 104.31,-11.59l0 -482.9c0,-40.04 -3.86,-64.79 -3.86,-104.31l-339.97 0c-57.61,-0.01 -101.09,3.87 -158.39,3.87l3.86 135.21 197.03 -3.86c57.6,0 101.09,3.86 158.39,3.86 0,81.55 -17.07,139.55 -53.82,201.15l-37.88 50.97c-53.57,58.35 -160.4,99.43 -244.4,99.43 -89.09,0 -174.98,-20.83 -238.39,-74.54 -5.44,-4.61 -6.75,-6.62 -12.2,-10.97 -6.78,-5.42 -5.95,-3.08 -13.02,-10.16 -78.24,-78.3 -126.57,-200.42 -126.58,-313.83 0,-95.71 -1.63,-143.64 29.43,-237.14 30.73,-92.49 91.34,-175.9 176.53,-221.38 140.64,-75.07 379.45,-46.05 456,105.62 10.45,20.7 40.61,79.05 45.01,97.93 24.51,0 32.26,3.86 57.95,3.86l96.58 0c-0.46,-20.77 -14.27,-60.21 -20.76,-79.68 -9.01,-27.03 -18.5,-51.22 -29.46,-74.85 -4.8,-10.35 -12.18,-20.96 -18.58,-31.64l-44.11 -60.19c-10.81,-11.8 -17.95,-14.69 -29.05,-25.04 -65.4,-60.99 -184.38,-107.2 -310.04,-107.2 -119.48,0 -184.74,-0.34 -288.47,55.36 -51.62,27.71 -116.09,79.3 -149.78,124.5l-54.03 81.19c-32.3,54.06 -56.98,145.4 -67.93,210.22 -6.14,36.31 -11.55,86.1 -11.55,127.53z"/>
   <path class="fil0" d="M7332.93 17067.09l0 -370.87c54.31,0 241.63,-4.18 286.04,-0.26 49.22,4.37 123.15,-7.92 174.94,14.46 108.54,46.93 128.24,228 40.38,309.45 -61.63,57.13 -232.44,53.83 -319.91,51.21 -19.45,-0.58 -21.39,-3.89 -42.22,-4.14l-139.23 0.15zm-158.39 370.87c0,85.63 3.86,157.94 3.86,243.38 19.59,0 21.05,-3.86 42.5,-3.86l112.03 0 0 -475.18 293.61 0c56.91,0 123.71,4.54 159.26,26.17 46.79,28.47 56.17,54.71 71.04,114.4 11.96,47.99 20.43,108.02 24.42,161.02 3.21,42.58 7.08,136.58 15.71,173.59 66.4,0 122.46,3.86 185.43,3.87 -3.52,-15.11 -17.61,-28.84 -29.12,-63.6 -54.35,-164.2 9.8,-366.41 -138.7,-463.96 -11.91,-7.83 -21.58,-10.62 -29.2,-21.03 33.86,-2.81 94.06,-65.85 112.88,-95.73 118.81,-188.65 26.9,-476.03 -259.69,-476.03l-564.03 0 0 876.96z"/>
   <path class="fil0" d="M5289.28 17113.45c0,148.37 40.68,316.99 128.37,424.07 38.62,47.15 80.11,81.45 133,110.38 159.55,87.25 400.89,83.66 549.19,-17.5 115.57,-78.83 166.31,-191.08 195.42,-326.11 3.52,-16.34 4.26,-35.84 10.05,-47.9 -57.8,-4.81 -99.19,-3.87 -158.39,-3.87 -9.86,42.33 -18.33,82.14 -33.07,121.46 -43.7,116.51 -148.76,199.19 -272.13,199.19 -72.43,0 -139.18,-7.45 -199.32,-44.06 -96.41,-58.69 -133.84,-126.44 -168.2,-237.45 -27.44,-88.7 -31.3,-178.88 -18.2,-270.33 18.27,-127.59 79.31,-256.52 197.66,-316.15 128.63,-64.83 306.02,-47.16 395.37,42.57 29.43,29.55 83.02,122.6 90.16,153.22l150.67 0c-24.86,-106.71 -52.32,-194.52 -147.3,-269.93 -45.06,-35.78 -75.79,-51.13 -137.08,-71.54 -101.8,-33.91 -203.87,-35.59 -307.69,-14.94 -271,53.9 -408.51,314.75 -408.51,568.89z"/>
   <path class="fil0" d="M9152.52 17217.76c1.98,-23.83 73.28,-218.78 86.62,-253.35l68.4 -186.57c7.08,-21.46 17.42,-43.56 22.69,-66.17 0.54,0.78 1.21,1.13 1.4,2.46l112.13 308.97c8.08,23.14 14.95,40.89 22.2,62.79 6.87,20.74 14.74,43.25 22.1,62.88 5.55,14.8 18.62,49.95 19.88,65.12 -122.94,0 -232.95,3.87 -355.42,3.87zm-339.97 459.72c27.05,0 54.09,0.03 81.13,0 32.81,-0.04 51.89,3.86 81.13,3.86 12.06,-22.79 20.82,-55.83 30.91,-81.12 10.73,-26.94 18.65,-54.15 29.77,-82.26 6.68,-16.9 57.7,-152.27 59.08,-168.85 52.2,0.01 90.39,-3.87 142.94,-3.87l169.98 -0.01c57.61,0.01 101.1,3.88 158.4,3.88 1.64,19.76 91.53,263.08 101.57,288.61 4.53,11.52 13.37,32.18 14.32,43.62 62.68,0 111.44,-3.86 173.85,-3.86 -1.78,-21.36 -194.45,-497.22 -215.89,-556.76 -8.66,-24.04 -18.58,-46.05 -27.04,-69.54 -8.26,-22.93 -18.24,-48.04 -26.94,-69.64l-162.81 -420.54 -177.71 0 -161.71 417.78c-9.45,23.54 -18.2,47.42 -27.04,69.55l-216.85 555.79c-8.38,21.07 -21.87,50.98 -27.09,73.36z"/>
   <path class="fil0" d="M10663.05 17677.48l127.61 4c17.21,0.25 34.64,4.59 34.64,-11.73l0 -1108.75 -162.25 0 0 1116.48z"/>
   <path class="fil0" d="M18331.58 19172.55c61.99,0 92.78,-0.06 152,29.58l63.38 40.92c25.07,23.58 11.13,5.5 36.93,36.47 7.03,8.44 8.71,9.2 15.97,18.81 87.41,115.73 80.5,267.7 -12.11,377.64 -7.64,9.07 -8.39,12.63 -17.49,21.14 -48.35,45.21 -127.81,89.7 -196.19,89.7 -66.02,0 -96.19,-1.72 -157.16,-32.14 -82.05,-40.94 -144.24,-115.89 -165.08,-205.79 -46.81,-202.01 120.42,-376.33 279.75,-376.33zm-374.74 309.06c0,191.43 180.2,370.87 355.42,370.87 88.75,0 138.98,4.8 220.79,-38.05 32.03,-16.78 81.29,-50.23 104.66,-76.9 30.39,-34.68 53.44,-67.09 72.59,-108.99 65.53,-143.4 35.33,-298.19 -76.42,-410.6 -191.77,-192.88 -534.32,-133.55 -642.43,108.98 -18.16,40.74 -34.62,106.58 -34.61,154.69z"/>
   <path class="fil0" d="M18285.22 19458.43l0 -131.35c16.66,0.37 24.42,3.64 46.42,3.8 28.26,0.2 64.41,4.28 82.23,25.95 31.72,38.56 16.75,97.19 -78.27,97.89 -19.19,0.15 -36.83,-2.79 -50.38,3.71zm-81.13 -81.12l0 320.64 81.13 -3.86 0 -166.12c0,-13.57 5.4,-9.64 15.71,-8.9 13.27,0.96 21.61,3.12 31.35,4.34 21.8,2.69 42.19,4.02 61.11,8.42 14,29.18 17.6,109.6 52.27,152.48 24.64,30.48 46.46,25.23 82.94,25.23l-41.95 -174.39c-2.63,-4.45 -26.1,-30.73 -39.17,-34.22l0 -7.73c47.87,-12.78 107.47,-152.32 9.1,-202.27 -71.12,-36.1 -158.53,-25.66 -248.63,-25.66 0,42.05 -3.86,69.51 -3.86,112.04z"/>
  </g>
 </g>
</svg>
