<svg width="243" height="259" viewBox="0 0 243 259" fill="none" xmlns="http://www.w3.org/2000/svg">
<path d="M154.161 96.7119C166.318 99.7511 176.756 113.097 194.991 124.461C213.358 135.824 223.929 145.074 228.158 147.981C232.386 151.02 232.122 156.438 229.215 161.327C226.176 166.348 211.376 174.408 208.205 174.937C205.034 175.465 155.614 155.381 152.972 152.606C150.197 149.963 154.161 96.7119 154.161 96.7119Z" fill="#41EA71"/>
<path d="M207.016 158.42C210.055 151.813 220.89 147.32 225.911 149.038C230.932 150.756 240.975 159.213 241.768 163.97C242.56 168.727 242.56 176.126 237.275 179.298C232.122 182.469 211.772 177.315 206.751 173.88C201.73 170.312 205.694 161.195 207.016 158.42Z" fill="#39A457"/>
<path d="M97.0764 88.916C77.388 93.0122 69.4598 95.2585 67.2135 95.9192C64.9671 96.7121 43.1646 243.913 43.1646 243.913C43.1646 243.913 51.0928 251.048 88.7518 254.616C126.411 258.051 150.724 251.576 150.724 251.576C150.724 251.576 147.288 169.255 144.778 139.524C142.267 109.794 142.003 95.1264 132.885 92.8801C123.768 90.6338 118.483 86.1411 116.236 86.1411C113.99 86.2733 97.0764 88.916 97.0764 88.916Z" fill="#DD9847"/>
<path d="M72.6311 236.909C77.388 219.731 78.1808 202.025 82.1449 184.715C88.7518 155.777 95.755 120.497 82.8056 92.0872C73.2918 94.2013 68.7991 95.5227 67.2135 96.0513C64.9671 96.8441 43.1646 244.045 43.1646 244.045C43.1646 244.045 48.0536 248.537 68.5348 252.105C69.7241 246.952 71.1776 241.93 72.6311 236.909Z" fill="#39A457"/>
<path d="M115.444 104.112C112.14 113.097 108.308 119.836 109.762 129.614C112.272 146.792 120.861 162.913 121.126 180.355C121.39 199.25 118.483 217.749 122.05 236.513C123.24 242.855 124.957 249.066 127.468 254.88C142.135 253.691 150.724 251.444 150.724 251.444C150.724 251.444 147.289 169.123 144.778 139.392C142.267 109.661 142.003 94.9942 132.886 92.7479C126.147 91.1622 121.654 88.3873 118.747 86.9338C118.351 93.0121 117.426 98.694 115.444 104.112Z" fill="#39A457"/>
<path d="M96.1516 41.2146C76.5953 43.1966 76.5953 49.1428 78.8417 70.1526C81.088 91.2944 76.8596 93.0122 76.8596 93.0122C76.8596 93.0122 87.5627 103.98 101.173 100.412C114.783 96.8442 116.236 86.2733 116.236 86.2733C116.236 86.2733 112.272 82.3091 112.272 63.6778C112.272 45.0465 101.173 40.686 96.1516 41.2146Z" fill="#F1B19D"/>
<g clip-path="url(#clip0)">
<path d="M48.3806 87.1847C38.6931 86.9247 24.8723 118.131 19.5764 131.264C14.2806 144.397 3.81809 159.09 1.49309 162.47C-0.831913 165.851 -0.444414 181.714 9.24309 183.405C18.9306 185.095 26.9389 183.665 30.2973 176.123C33.6556 168.582 38.9514 162.73 50.0597 139.586C61.1681 116.441 71.3722 87.9649 48.3806 87.1847Z" fill="#42EA71"/>
</g>
<path d="M74.8776 84.291C74.8776 84.291 73.1599 91.03 83.8629 97.6368C83.8629 97.6368 78.8417 144.281 76.4633 159.609C73.9527 174.937 60.8711 236.381 58.6248 244.573C56.3785 252.766 56.3785 253.955 56.3785 253.955C56.3785 253.955 41.7113 248.934 32.3296 246.555C22.9479 244.177 22.155 241.798 22.155 241.798C22.155 241.798 28.1012 199.911 31.801 179.297C35.5009 158.684 37.4829 126.046 37.4829 117.061C37.4829 108.076 40.6542 88.123 45.4111 87.0659C50.168 86.0088 56.907 88.9158 63.7781 87.198C70.6493 85.7445 74.8776 84.291 74.8776 84.291Z" fill="#756FD5"/>
<path d="M74.8776 84.291C74.8776 84.291 73.1599 91.03 83.8629 97.6368C83.8629 97.6368 78.8417 144.281 76.4633 159.609C73.9527 174.937 60.8711 236.381 58.6248 244.573C56.3785 252.766 56.3785 253.955 56.3785 253.955C56.3785 253.955 41.7113 248.934 32.3296 246.555C22.9479 244.177 22.155 241.798 22.155 241.798C22.155 241.798 28.1012 199.911 31.801 179.297C35.5009 158.684 37.4829 126.046 37.4829 117.061C37.4829 108.076 40.6542 88.123 45.4111 87.0659C50.168 86.0088 56.907 88.9158 63.7781 87.198C70.6493 85.7445 74.8776 84.291 74.8776 84.291Z" fill="url(#paint0_linear)"/>
<path d="M83.8628 97.7692C83.8628 97.7692 77.1238 93.4087 74.8775 84.4234C74.8775 84.4234 72.3669 83.7627 67.8742 86.009C63.3816 88.2554 69.3277 111.247 69.3277 111.247C69.3277 111.247 74.8775 100.28 76.331 98.2978C77.9166 96.1836 83.8628 97.7692 83.8628 97.7692Z" fill="#39A457"/>
<path d="M119.804 82.4414C119.804 82.4414 118.879 99.4871 117.162 102.262C115.444 105.037 113.462 109.133 113.462 109.133C113.462 109.133 118.483 149.699 120.729 171.502C122.976 193.304 134.604 242.063 135.793 249.33C136.982 256.466 137.246 258.051 137.246 258.051C137.246 258.051 158.52 256.598 164.466 255.805C170.413 255.012 174.112 253.294 174.112 253.294C174.112 253.294 166.977 173.484 166.977 166.877C166.977 160.138 159.842 99.2228 156.538 97.505C153.367 95.7872 135.925 91.5588 130.507 89.8411C125.222 88.1233 119.804 82.4414 119.804 82.4414Z" fill="#756FD5"/>
<path d="M119.804 82.4414C119.804 82.4414 118.879 99.4871 117.162 102.262C115.444 105.037 113.462 109.133 113.462 109.133C113.462 109.133 118.483 149.699 120.729 171.502C122.976 193.304 134.604 242.063 135.793 249.33C136.982 256.466 137.246 258.051 137.246 258.051C137.246 258.051 158.52 256.598 164.466 255.805C170.413 255.012 174.112 253.294 174.112 253.294C174.112 253.294 166.977 173.484 166.977 166.877C166.977 160.138 159.842 99.2228 156.538 97.505C153.367 95.7872 135.925 91.5588 130.507 89.8411C125.222 88.1233 119.804 82.4414 119.804 82.4414Z" fill="url(#paint1_linear)"/>
<path d="M117.161 102.262C118.879 99.4871 119.804 82.4414 119.804 82.4414C119.804 82.4414 125.222 88.1233 130.772 89.8411L132.225 112.701C132.225 112.701 121.654 102.526 120.861 102.394C119.936 102.262 113.594 109.133 113.594 109.133L117.161 102.262Z" fill="#39A457"/>
<path d="M121.127 52.7104C121.391 68.4347 110.688 85.8768 99.192 85.8768C87.6961 85.8768 74.6145 65.5277 74.6145 49.8034C74.6145 34.0791 80.4285 25.0938 99.9848 24.301C116.898 23.6403 120.598 26.6794 121.127 52.7104Z" fill="#F1B19D"/>
<g filter="url(#filter0_d)">
<path d="M114.652 72.1344C113.463 72.1344 112.009 69.3595 110.952 69.0952C110.159 69.4916 109.366 70.0202 108.706 70.5487C107.384 71.2094 106.592 71.4737 105.006 71.738C103.024 72.0022 102.231 71.8701 100.381 71.4737C95.6242 70.2845 95.36 68.831 92.5851 74.3807C91.528 76.3628 87.9603 75.3057 86.1104 72.9272C84.2605 70.5487 82.2784 67.7739 80.957 65.2633C79.2393 61.8277 77.7857 58.7886 75.2751 56.5422C78.3143 70.2845 89.0174 86.0088 98.9276 86.0088C105.402 86.0088 113.463 79.4019 116.634 71.6058C116.37 71.6058 115.18 72.1344 114.652 72.1344Z" fill="#F1B19D"/>
</g>
<path d="M76.993 52.7104L79.3715 54.296C79.3715 54.296 79.2393 45.575 79.2393 44.3858C79.2393 43.1965 80.9571 31.4364 78.5787 29.4543C76.2002 27.4723 70.5183 27.7365 70.5183 33.6827C70.5183 39.6288 70.7826 47.9535 71.0469 47.9535C71.3111 47.9535 76.993 52.7104 76.993 52.7104Z" fill="#343038"/>
<path d="M90.7351 57.7315C91.9243 57.8637 92.9814 57.9958 94.0385 57.8637C94.5671 57.8637 94.9635 57.7315 95.492 57.5994C96.0206 57.4673 96.417 57.203 97.0777 56.9387C96.9455 57.5994 96.5491 58.128 96.0206 58.5244C95.492 58.9208 94.8313 59.185 94.1707 59.185C93.51 59.185 92.8493 59.185 92.3207 58.9208C91.6601 58.5244 91.1315 58.2601 90.7351 57.7315Z" fill="#343038"/>
<path d="M110.027 54.4281C111.216 54.5602 112.273 54.6923 113.331 54.5602C113.859 54.5602 114.255 54.4281 114.784 54.2959C115.313 54.1638 115.709 53.8995 116.37 53.6353C116.238 54.2959 115.841 54.8245 115.313 55.2209C114.784 55.6173 114.123 55.8816 113.463 55.8816C112.802 55.8816 112.141 55.8816 111.613 55.6173C110.82 55.353 110.291 54.9566 110.027 54.4281Z" fill="#343038"/>
<path d="M109.234 63.2815C109.234 63.2815 112.538 66.4528 110.952 67.3777C109.367 68.3027 108.309 68.1706 106.856 69.0955C105.402 70.1526 103.949 69.4919 102.628 68.8312C101.306 68.1706 98.7956 69.2277 98.3992 68.8312" stroke="#AA7E74" stroke-miterlimit="10"/>
<path d="M95.3599 71.4739C95.3599 71.4739 99.1918 75.5701 108.706 72.1346C108.706 72.1346 100.777 82.177 95.3599 71.4739Z" fill="#F4F5FB"/>
<path d="M86.3748 52.9747C86.3748 52.9747 88.2247 50.5962 92.1888 49.8034C96.0207 49.1427 101.042 49.2748 101.174 50.0677C101.306 50.8605 102.892 51.9176 96.1529 52.0497C89.4139 52.1819 86.3748 52.9747 86.3748 52.9747Z" fill="#343038"/>
<path d="M119.673 48.2177C119.673 48.2177 117.559 46.4999 114.652 46.7642C111.613 47.0285 108.045 48.3499 108.177 49.0105C108.309 49.6712 107.384 51.1247 112.406 49.6712C117.162 48.0856 119.673 48.2177 119.673 48.2177Z" fill="#343038"/>
<path d="M77.0001 63.0036C79.8557 61.7023 80.4532 56.8788 78.3348 52.2302C76.2163 47.5816 72.1841 44.868 69.3285 46.1694C66.4729 47.4707 65.8753 52.2941 67.9938 56.9428C70.1122 61.5914 74.1445 64.3049 77.0001 63.0036Z" fill="#F1B19D"/>
<path d="M70.1218 49.8035C70.1218 49.8035 72.8967 48.7464 76.068 55.8818" stroke="#AA7E74" stroke-miterlimit="10"/>
<path opacity="0.36" d="M74.4522 58.5883C75.3785 58.3829 75.8474 56.9456 75.4997 55.3782C75.1519 53.8107 74.1192 52.7066 73.1929 52.9121C72.2667 53.1176 71.7978 54.5548 72.1455 56.1223C72.4933 57.6897 73.526 58.7938 74.4522 58.5883Z" fill="#EDEDFA"/>
<path d="M74.3186 58.2776C72.6008 65.1487 71.5437 72.2841 72.3365 79.2873C72.7329 82.7229 73.6579 86.2906 75.5078 89.1976C77.3577 92.2367 79.604 94.8795 82.5111 96.8615C85.4181 98.8436 88.7215 100.165 91.8928 101.751C93.4784 102.543 95.0641 103.468 96.5176 104.658C97.9711 105.715 99.1603 107.168 100.217 108.622C102.199 111.661 103.653 114.964 104.71 118.4C105.767 121.835 106.692 125.271 107.221 128.839H105.899C106.56 122.496 107.353 116.286 108.278 109.943C108.674 106.772 109.203 103.601 109.731 100.561C109.996 98.9757 110.524 97.3901 111.185 95.9366C111.845 94.4831 112.638 93.0296 113.563 91.7082C115.281 89.0655 117.263 86.5548 118.452 83.6478C119.642 80.7408 120.038 77.5695 120.302 74.5304C120.963 68.1878 120.963 61.8453 120.831 55.5027C121.227 61.8453 121.227 68.1878 120.831 74.5304C120.566 77.7017 120.302 80.873 119.113 83.9121C117.924 86.9513 116.074 89.594 114.356 92.2367C113.563 93.5581 112.77 94.8795 112.11 96.333C111.581 97.7865 111.053 99.24 110.788 100.826C110.26 103.865 109.863 107.036 109.335 110.207C108.542 116.55 107.749 122.76 107.089 129.103L106.56 133.86L105.767 129.103C105.239 125.667 104.446 122.232 103.389 118.796C102.332 115.493 101.01 112.189 99.1603 109.282C97.3104 106.375 94.4034 104.393 91.2321 102.808C88.0608 101.222 84.7574 99.9007 81.8504 97.6544C78.8112 95.5402 76.5649 92.6331 74.715 89.594C72.8651 86.4227 71.9401 82.855 71.6758 79.2873C71.2794 75.7196 71.5437 72.1519 71.9401 68.5842C72.4295 65.4033 72.8247 61.8899 73.9443 58.2278C74.0327 57.9387 74.2402 58.5224 74.3186 58.2776Z" fill="#EDEDFA"/>
<path d="M71.3113 35.7969C71.3113 35.7969 71.5755 38.5718 75.5396 37.5147C75.5396 37.5147 80.2966 39.6289 80.9573 35.1362C80.9573 35.1362 83.4679 37.5147 86.1106 34.872C86.1106 34.872 90.6032 37.2504 90.9997 31.5685C90.9997 31.5685 95.8887 33.6827 96.2851 29.8508C96.2851 29.8508 97.4744 33.4184 101.571 30.5114C101.571 30.5114 104.874 33.022 107.12 29.7186C107.12 29.7186 110.952 31.4364 112.009 28.3972C112.009 28.3972 112.934 31.7007 116.37 31.7007C119.806 31.7007 118.881 28.133 118.881 28.133C118.881 28.133 121.391 25.7545 119.145 23.376C119.145 23.376 122.713 22.3189 121.391 19.1477C121.391 19.1477 124.034 15.58 120.202 14.7871C120.202 14.7871 122.052 10.9552 117.956 10.6909C117.956 10.6909 118.748 6.46252 114.124 6.7268C114.124 6.7268 113.595 2.76269 109.631 4.34833C109.631 4.34833 107.517 0.384228 104.742 1.96987C104.742 1.96987 101.438 -1.46569 98.7957 1.57346C98.7957 1.57346 95.6245 -0.937141 93.5103 1.57346C93.5103 1.57346 91.9246 -1.20141 87.8284 2.89483C87.8284 2.89483 86.7713 -0.276456 82.4108 2.89483C82.4108 2.89483 77.6538 1.44132 76.4646 6.7268C76.4646 6.7268 73.029 5.27329 70.9149 7.78389C68.8007 10.2945 69.3292 11.8801 69.3292 11.8801C69.3292 11.8801 66.6865 12.4087 65.7615 14.7871C64.8366 17.1656 67.3472 17.562 67.3472 17.562C67.3472 17.562 63.5152 20.469 67.0829 23.1118C67.0829 23.1118 64.7044 26.1509 67.215 27.8687C67.215 27.8687 65.233 30.3793 68.6685 31.8328C68.8007 32.0971 67.8757 36.9861 71.3113 35.7969Z" fill="#343038"/>
<path d="M236.746 167.67C238.332 159.081 231.329 152.606 215.737 151.02C203.58 149.831 179.531 150.095 175.699 147.056C171.867 144.017 163.146 135.164 161.825 134.9C160.636 134.635 157.332 138.203 157.332 138.203C157.332 138.203 152.179 132.389 149.8 133.05C147.422 133.71 145.176 136.089 145.176 136.089C145.176 136.089 138.172 129.482 134.737 126.443C131.301 123.404 130.773 120.365 127.866 121.818C124.959 123.139 135.397 133.975 137.908 137.146C140.419 140.317 142.533 146.924 145.176 150.36C147.686 153.663 149.404 154.588 149.404 154.588C149.404 154.588 141.079 152.077 136.587 150.624C132.094 149.303 130.773 152.474 130.773 153.531C130.773 154.588 135.662 157.363 141.872 158.156C148.083 159.081 153.764 163.97 159.182 165.027C164.468 166.084 168.828 163.045 171.074 162.781C173.321 162.516 179.531 162.516 184.288 164.763C224.061 183.658 234.236 181.676 236.746 167.67Z" fill="#F1B19D"/>
<path d="M152.839 135.032C152.179 133.182 147.025 134.503 146.365 134.9C146.365 134.9 137.776 140.317 137.115 142.167C136.454 144.017 134.604 150.756 135.001 151.02C135.397 151.285 139.626 150.756 140.815 148.906C142.004 146.924 145.175 140.978 148.082 139.921C151.122 138.6 153.632 136.882 152.839 135.032Z" fill="url(#paint2_linear)"/>
<path d="M161.428 134.9C160.768 134.503 158.653 136.485 155.746 139.921C152.707 143.356 152.179 145.339 153.896 145.867C155.614 146.396 160.239 143.885 162.221 142.167C164.203 140.449 166.185 138.996 165.392 137.807C164.6 136.75 161.693 135.164 161.428 134.9Z" fill="url(#paint3_linear)"/>
<path d="M150.99 133.182C148.743 132.257 147.951 133.182 143.986 136.617C139.89 140.053 139.89 141.638 144.251 141.242C148.611 140.713 154.69 135.692 154.69 135.692C154.69 135.692 151.65 133.446 150.99 133.182Z" fill="url(#paint4_linear)"/>
<path d="M37.2194 160.138C37.2194 160.138 27.5735 184.055 39.2015 194.494C50.9617 204.932 53.0759 207.839 52.8116 217.75C52.4152 227.66 62.9861 234.267 70.6501 233.342C78.314 232.417 85.7137 232.417 89.4135 219.996C93.1133 207.575 91.3956 170.313 99.5881 160.138C107.781 149.963 106.988 131.729 106.856 128.822" stroke="#EDEDFA" stroke-miterlimit="10"/>
<path d="M49.3761 161.637L47.5262 162.617L31.934 155.92L30.3484 117.044L31.934 115.901L49.3761 121.618V161.637Z" fill="#E1E1E8"/>
<path opacity="0.9" d="M47.9226 162.781L30.3484 157.063V117.044L47.9226 122.761V162.781Z" fill="white"/>
<path d="M5.9031 182.733C-0.968019 178.637 0.221212 168.066 6.56378 159.609C12.9064 151.02 19.2489 134.371 26.12 138.071C32.9912 141.771 33.3876 150.888 29.0271 166.084C24.2701 181.676 17.9276 189.736 5.9031 182.733Z" fill="url(#paint5_linear)"/>
<path d="M24.4023 157.231C22.5523 156.57 20.9667 154.72 21.8917 152.738C21.8917 152.738 18.0597 149.17 20.7024 146.396C20.7024 146.396 18.0597 142.696 19.6453 140.449C21.231 138.203 22.2881 138.071 22.2881 137.014C22.2881 135.957 20.9667 134.239 22.6845 132.521C24.4023 130.803 29.952 129.482 32.859 128.821C35.766 128.161 46.2048 128.557 46.337 131.068C46.4691 133.578 33.3876 133.975 30.7448 134.9C28.1021 135.825 27.8378 135.825 27.5735 136.485C27.3093 137.014 26.12 139.524 36.1624 140.449C46.2048 141.374 54.5295 141.771 55.3223 143.092C55.983 144.413 54.7937 147.056 51.226 147.056C47.6583 147.188 35.6339 147.056 35.2375 147.056C34.9732 147.056 40.6551 147.717 45.6763 147.981C50.6975 148.245 55.4544 147.188 55.3223 149.435C55.1901 151.681 51.3582 152.738 51.3582 152.738C51.3582 152.738 55.3223 155.381 49.6404 157.231C43.6942 159.081 29.027 158.816 24.4023 157.231Z" fill="#F1B19D"/>
<path d="M27.8376 152.077C27.8376 152.077 42.1084 154.456 51.358 152.738L27.8376 152.077Z" fill="#F1B19D"/>
<defs>
<filter id="filter0_d" x="71.2751" y="56.5422" width="49.3588" height="39.4665" filterUnits="userSpaceOnUse" color-interpolation-filters="sRGB">
<feFlood flood-opacity="0" result="BackgroundImageFix"/>
<feColorMatrix in="SourceAlpha" type="matrix" values="0 0 0 0 0 0 0 0 0 0 0 0 0 0 0 0 0 0 127 0" result="hardAlpha"/>
<feOffset dy="6"/>
<feGaussianBlur stdDeviation="2"/>
<feComposite in2="hardAlpha" operator="out"/>
<feColorMatrix type="matrix" values="0 0 0 0 0 0 0 0 0 0 0 0 0 0 0 0 0 0 0.1 0"/>
<feBlend mode="normal" in2="BackgroundImageFix" result="effect1_dropShadow"/>
<feBlend mode="normal" in="SourceGraphic" in2="effect1_dropShadow" result="shape"/>
</filter>
<linearGradient id="paint0_linear" x1="53.009" y1="84.291" x2="53.009" y2="253.955" gradientUnits="userSpaceOnUse">
<stop stop-color="#44EC73"/>
<stop offset="1" stop-color="#27D056"/>
</linearGradient>
<linearGradient id="paint1_linear" x1="143.787" y1="82.4414" x2="143.787" y2="258.051" gradientUnits="userSpaceOnUse">
<stop stop-color="#44EC73"/>
<stop offset="1" stop-color="#27D056"/>
</linearGradient>
<linearGradient id="paint2_linear" x1="148.473" y1="138.186" x2="132.046" y2="153.943" gradientUnits="userSpaceOnUse">
<stop stop-color="#F1B19D"/>
<stop offset="1" stop-color="#CC8169"/>
</linearGradient>
<linearGradient id="paint3_linear" x1="162.407" y1="137.531" x2="151.696" y2="148.58" gradientUnits="userSpaceOnUse">
<stop stop-color="#F1B19D"/>
<stop offset="1" stop-color="#CC8169"/>
</linearGradient>
<linearGradient id="paint4_linear" x1="151.251" y1="134.89" x2="143.649" y2="146.064" gradientUnits="userSpaceOnUse">
<stop stop-color="#F1B19D"/>
<stop offset="1" stop-color="#CC8169"/>
</linearGradient>
<linearGradient id="paint5_linear" x1="14.7384" y1="167.853" x2="39.254" y2="137.49" gradientUnits="userSpaceOnUse">
<stop stop-color="#F1B19D"/>
<stop offset="1" stop-color="#D79079"/>
</linearGradient>
<clipPath id="clip0">
<rect width="62" height="97" fill="white" transform="translate(0.201416 87.1848)"/>
</clipPath>
</defs>
</svg>
