<?xml version="1.0" encoding="UTF-8"?>
<!DOCTYPE svg PUBLIC "-//W3C//DTD SVG 1.1//EN" "http://www.w3.org/Graphics/SVG/1.1/DTD/svg11.dtd">
<!-- Creator: CorelDRAW 2020 (64-Bit) -->
<svg xmlns="http://www.w3.org/2000/svg" xml:space="preserve" width="210mm" height="297mm" version="1.1" style="shape-rendering:geometricPrecision; text-rendering:geometricPrecision; image-rendering:optimizeQuality; fill-rule:evenodd; clip-rule:evenodd"
viewBox="0 0 21000 29700"
 xmlns:xlink="http://www.w3.org/1999/xlink"
 xmlns:xodm="http://www.corel.com/coreldraw/odm/2003">
 <defs>
  <style type="text/css">
   <![CDATA[
    .str0 {stroke:#373435;stroke-width:20;stroke-miterlimit:22.9256}
    .fil0 {fill:#FEFEFE}
    .fil1 {fill:#70B33E}
   ]]>
  </style>
 </defs>
 <g id="Layer_x0020_1">
  <metadata id="CorelCorpID_0Corel-Layer"/>
  <path class="fil0" d="M4197.77 22172.58c1939.3,-4109.76 4056.56,-7557.2 7404.06,-10551.23 567.11,-507.26 2666.85,-2352.96 3375.57,-2525.72 -435.06,180.22 -2244.11,2221.4 -2729.94,2756.71 -814.33,897.06 -1761.19,2157.16 -2491.33,3276.13 -993.9,1522.73 -3403.15,5756.43 -3603.65,7917.16 4102.3,148.43 7694.92,-2709.51 9299.73,-4966.59 2150.35,-3024.05 2760.28,-7686.81 1913.67,-11921.81 -5798.44,555.27 -11447.64,3931.33 -13075.65,9422.86 -423.71,1429.61 -903.87,5372.13 -92.46,6592.49z"/>
  <rect class="fil1 str0" x="29173.62" y="10795.03" width="19261.67" height="12841.12"/>
 </g>
</svg>
