<?xml version="1.0" encoding="UTF-8"?>
<!DOCTYPE svg PUBLIC "-//W3C//DTD SVG 1.1//EN" "http://www.w3.org/Graphics/SVG/1.1/DTD/svg11.dtd">
<!-- Creator: CorelDRAW 2020 (64-Bit) -->
<svg xmlns="http://www.w3.org/2000/svg" xml:space="preserve" width="210mm" height="297mm" version="1.1" style="shape-rendering:geometricPrecision; text-rendering:geometricPrecision; image-rendering:optimizeQuality; fill-rule:evenodd; clip-rule:evenodd"
viewBox="0 0 21000 29700"
 xmlns:xlink="http://www.w3.org/1999/xlink"
 xmlns:xodm="http://www.corel.com/coreldraw/odm/2003">
 <defs>
  <style type="text/css">
   <![CDATA[
    .fil0 {fill:#FEFEFE;fill-rule:nonzero}
   ]]>
  </style>
 </defs>
 <g id="Layer_x0020_1">
  <metadata id="CorelCorpID_0Corel-Layer"/>
  <g id="_2130214516864">
   <g id="Others">
    <path id="Subtraction_1" class="fil0" d="M11888.08 23950.78l-3165.49 0c-1.35,-0.15 -3.82,-0.15 -5.46,-0.15 -3711.36,0 -6721.18,-3009.82 -6721.18,-6721.18 0,-1.64 0,-4.11 0,-5.75l-0.07 -9298.41 16618.98 0 0 9298.7c0,18.62 0,37.02 0,55.56 -779.69,-669.99 -1774.58,-1038.41 -2802.53,-1038.41 -2360.46,0 -4280.41,1903.05 -4300.37,4263.51 0.15,1.12 0.15,3.14 0.15,4.71 0,1298.41 596.49,2526.08 1616.88,3328.28 -405.81,74.1 -820.82,113.06 -1234.25,113.06 -1.65,0 -4.94,0 -6.66,0l0 0.08z" data-name="Subtraction 1"/>
    <path class="fil0" d="M6744.16 9705.93l7122.42 0c436.99,0 791.36,354.37 791.36,791.36l0 0c0,436.99 -354.37,791.35 -791.36,791.35l-7122.42 0c-436.92,0 -791.28,-354.36 -791.28,-791.35l-0.15 0c0.15,-436.99 354.51,-791.36 791.51,-791.36z" data-name="Rectangle 69"/>
    <circle id="Ellipse_62" class="fil0" cx="16240.66" cy="20983.07" r="3759.07" data-name="Ellipse 62"/>
    <circle id="Ellipse_63" class="fil0" cx="15251.45" cy="20983.09" r="395.64" data-name="Ellipse 63"/>
    <circle id="Ellipse_64" class="fil0" cx="16240.67" cy="20983.09" r="395.64" data-name="Ellipse 64"/>
    <circle id="Ellipse_65" class="fil0" cx="17229.9" cy="20983.09" r="395.64" data-name="Ellipse 65"/>
   </g>
  </g>
 </g>
</svg>
