<svg width="71" height="71" viewBox="0 0 71 71" fill="none" xmlns="http://www.w3.org/2000/svg">
<rect x="0.919434" y="0.647461" width="70" height="70" rx="35" fill="#66CC33"/>
<g clip-path="url(#clip0)">
<path d="M44.6699 45.0224V38.7725C44.6699 36.705 46.3524 35.0225 48.4199 35.0225C49.1099 35.0225 49.6699 35.5825 49.6699 36.2725C49.6699 36.9675 49.1024 37.5312 48.4049 37.5225C47.7199 37.5137 47.1699 38.0875 47.1699 38.7725V42.5225C47.1699 43.9037 46.0512 45.0224 44.6699 45.0224Z" fill="white"/>
<path d="M27.1699 45.0224V38.7725C27.1699 36.705 25.4874 35.0225 23.4199 35.0225C22.7299 35.0225 22.1699 35.5825 22.1699 36.2725C22.1699 36.9675 22.7374 37.5312 23.4349 37.5225C24.1199 37.5137 24.6699 38.0875 24.6699 38.7725V42.5225C24.6699 43.9037 25.7887 45.0224 27.1699 45.0224Z" fill="white"/>
<path d="M41.2324 50.6475H30.6074C29.9174 50.6475 29.3574 50.0875 29.3574 49.3975C29.3574 48.7075 29.9174 48.1475 30.6074 48.1475H41.2324C41.9224 48.1475 42.4824 48.7075 42.4824 49.3975C42.4824 50.0875 41.9224 50.6475 41.2324 50.6475Z" fill="white"/>
<path d="M35.9199 50.6474C35.2299 50.6474 34.6699 50.0874 34.6699 49.3974V44.085C34.6699 43.395 35.2299 42.835 35.9199 42.835C36.6099 42.835 37.1699 43.395 37.1699 44.085V49.3974C37.1699 50.0874 36.6099 50.6474 35.9199 50.6474Z" fill="white"/>
<path d="M42.246 36.8975H29.5935C28.946 36.8975 28.336 36.6125 27.9198 36.1175C27.5023 35.6225 27.3273 34.9725 27.4385 34.335L29.5035 22.46C29.686 21.41 30.5923 20.6475 31.6585 20.6475H40.1798C41.2473 20.6475 42.1535 21.41 42.3348 22.4612L44.3998 34.3362C44.511 34.9737 44.336 35.6237 43.9185 36.1187C43.5035 36.6125 42.8935 36.8975 42.246 36.8975Z" fill="white"/>
<path d="M44.9824 45.0225H26.8574C26.3399 45.0225 25.9199 44.6025 25.9199 44.085V41.585C25.9199 39.6887 27.4612 38.1475 29.3574 38.1475H42.4824C44.3787 38.1475 45.9199 39.6887 45.9199 41.585V44.085C45.9199 44.6025 45.4999 45.0225 44.9824 45.0225Z" fill="white"/>
</g>
<defs>
<clipPath id="clip0">
<rect width="30" height="30" fill="white" transform="translate(20.9199 20.6475)"/>
</clipPath>
</defs>
</svg>
