<svg width="71" height="71" viewBox="0 0 71 71" fill="none" xmlns="http://www.w3.org/2000/svg">
<rect x="0.919434" y="0.322266" width="70" height="70" rx="35" fill="#F2AD05"/>
<g clip-path="url(#clip0)">
<path d="M50.9182 20.6707L49.1949 20.3223L48.2773 24.8605H41.5569V26.6186H44.1874L41.6487 36.7676L32.8273 31.6842C31.9799 31.1958 31.0764 30.8745 30.1553 30.7194V27.3592H31.5817C32.7368 27.3592 33.6767 26.4194 33.6767 25.2642C33.6767 24.2332 32.9383 23.3638 31.9209 23.1968L26.1831 22.2553C25.4376 22.133 24.68 22.3433 24.1042 22.8322C23.5284 23.3212 23.1982 24.0349 23.1982 24.7903C23.1982 26.2068 24.3506 27.3593 25.7671 27.3593H26.694V30.9194C26.0741 31.0983 25.4681 31.3541 24.8886 31.689C22.404 33.1249 20.9207 35.6953 20.9207 38.565C20.9207 41.8558 22.9328 44.6853 25.7912 45.8885L24.6299 48.5642H23.0262V50.3223H27.3872V48.5641H26.5465L27.4911 46.3876C27.9366 46.4655 28.3947 46.5064 28.8622 46.5064H42.5096C42.7851 46.5064 43.0542 46.4793 43.3154 46.4295L44.2418 48.5641H43.4011V50.3223H47.7621V48.5641H46.1584L44.9375 45.7509C46.0615 44.9765 46.8003 43.681 46.8003 42.2158C46.8003 40.6863 45.9771 39.2619 44.6519 38.4983L44.3643 38.3325L47.2945 26.6186H49.7155L50.9182 20.6707ZM31.2905 44.0077V42.2496H31.3141L31.117 42.0525C30.468 42.4719 29.6959 42.7166 28.8674 42.7166C26.5752 42.7166 24.7104 40.8518 24.7104 38.5596C24.7104 36.2676 26.5752 34.4028 28.8674 34.4028C31.1595 34.4028 33.0243 36.2676 33.0243 38.5596C33.0243 39.3882 32.7797 40.1602 32.3602 40.8092L33.8005 42.2495H34.7824V44.0077H31.2905Z" fill="white"/>
<path d="M31.0668 39.516C31.1948 39.2229 31.2662 38.8996 31.2662 38.5598C31.2662 37.2372 30.1901 36.1611 28.8675 36.1611C27.5448 36.1611 26.4688 37.2372 26.4688 38.5598C26.4688 39.8825 27.5448 40.9586 28.8675 40.9586C29.2072 40.9586 29.5305 40.8872 29.8236 40.7592L28.2459 39.1815L29.4891 37.9383L31.0668 39.516Z" fill="white"/>
</g>
<defs>
<clipPath id="clip0">
<rect width="30" height="30" fill="white" transform="translate(20.9194 20.3223)"/>
</clipPath>
</defs>
</svg>
