<svg width="71" height="71" viewBox="0 0 71 71" fill="none" xmlns="http://www.w3.org/2000/svg">
<rect x="0.919434" y="0.99707" width="70" height="70" rx="35" fill="#478D4B"/>
<g clip-path="url(#clip0)">
<path d="M40.7735 41.2959H31.0654C30.5799 41.2959 30.1863 41.6895 30.1863 42.175V43.0576C30.1863 43.5431 30.5799 43.9367 31.0654 43.9367H40.7735C41.259 43.9367 41.6526 43.5431 41.6526 43.0576V42.175C41.6526 41.6895 41.259 41.2959 40.7735 41.2959Z" fill="white"/>
<path d="M48.7164 29.8228H46.0656V21.8762C46.0656 21.3903 45.6718 20.9971 45.1865 20.9971C44.7006 20.9971 44.3074 21.3903 44.3074 21.8762V22.7623H27.5316V21.8762C27.5316 21.3903 27.1383 20.9971 26.6524 20.9971C26.1672 20.9971 25.7733 21.3903 25.7733 21.8762V29.8228H23.1225C22.6367 29.8228 22.2434 30.216 22.2434 30.7019V36.3282C22.2434 36.8134 22.6367 37.2073 23.1225 37.2073C23.6078 37.2073 24.0016 36.8134 24.0016 36.3282V31.581H25.7733V46.2575L22.9022 49.5389C22.4059 50.1056 22.8088 50.9971 23.5638 50.9971H48.2751C49.0282 50.9971 49.4342 50.107 48.9368 49.5389L46.0656 46.2575V31.581H47.8373V36.7971C47.8373 37.2823 48.2311 37.6762 48.7164 37.6762C49.2023 37.6762 49.5955 37.2823 49.5955 36.7971V30.7019C49.5955 30.216 49.2023 29.8228 48.7164 29.8228ZM27.5316 24.5206H35.0404V26.2923H34.1542C33.6689 26.2923 33.2751 26.6861 33.2751 27.1714V29.8228H27.5316V24.5206ZM44.3074 45.7089H27.5316V31.581H35.0404V36.8832H31.0656C30.5797 36.8832 30.1865 37.2765 30.1865 37.7623V38.645C30.1865 39.1302 30.5797 39.5241 31.0656 39.5241H40.7733C41.2592 39.5241 41.6525 39.1302 41.6525 38.645V37.7623C41.6525 37.2765 41.2592 36.8832 40.7733 36.8832H36.7986V31.581H44.3074V45.7089ZM44.3074 29.8228H38.5638V27.1714C38.5638 26.6861 38.17 26.2923 37.6847 26.2923H36.7986V24.5206H44.3074V29.8228Z" fill="white"/>
</g>
<defs>
<clipPath id="clip0">
<rect width="30" height="30" fill="white" transform="translate(20.9194 20.9971)"/>
</clipPath>
</defs>
</svg>
