<svg width="22" height="22" viewBox="0 0 22 22" fill="none" xmlns="http://www.w3.org/2000/svg">
<rect x="0.584473" y="0.948242" width="20.6462" height="20.7529" rx="7" fill="url(#paint0_linear_4329_126)"/>
<path d="M11.2428 7.66211C11.3546 7.66211 11.4618 7.70674 11.5408 7.78617C11.6198 7.86561 11.6642 7.97335 11.6642 8.08569V10.6272H14.1927C14.3044 10.6272 14.4116 10.6718 14.4907 10.7513C14.5697 10.8307 14.6141 10.9384 14.6141 11.0508C14.6141 11.1631 14.5697 11.2709 14.4907 11.3503C14.4116 11.4297 14.3044 11.4744 14.1927 11.4744H11.6642V14.0159C11.6642 14.1282 11.6198 14.236 11.5408 14.3154C11.4618 14.3948 11.3546 14.4395 11.2428 14.4395C11.1311 14.4395 11.0239 14.3948 10.9449 14.3154C10.8658 14.236 10.8214 14.1282 10.8214 14.0159V11.4744H8.29299C8.18122 11.4744 8.07404 11.4297 7.99501 11.3503C7.91598 11.2709 7.87158 11.1631 7.87158 11.0508C7.87158 10.9384 7.91598 10.8307 7.99501 10.7513C8.07404 10.6718 8.18122 10.6272 8.29299 10.6272H10.8214V8.08569C10.8214 7.97335 10.8658 7.86561 10.9449 7.78617C11.0239 7.70674 11.1311 7.66211 11.2428 7.66211Z" fill="white"/>
<defs>
<linearGradient id="paint0_linear_4329_126" x1="21.2306" y1="11.3247" x2="1.45156" y2="11.3247" gradientUnits="userSpaceOnUse">
<stop stop-color="#86B841"/>
<stop offset="1" stop-color="#41B87F"/>
</linearGradient>
</defs>
</svg>
