<svg width="10" height="17" viewBox="0 0 10 17" fill="none" xmlns="http://www.w3.org/2000/svg">
<path d="M1.65923 8.32114e-05C1.87269 -0.000534751 2.0836 0.0395005 2.27646 0.117242C2.46932 0.194984 2.63924 0.308458 2.77372 0.449327L9.67496 7.73435C9.88511 7.95161 10 8.22412 10 8.50535C10 8.78658 9.88511 9.0591 9.67496 9.27635L2.53081 16.5614C2.28829 16.8093 1.93978 16.9653 1.56196 16.9949C1.18414 17.0245 0.807956 16.9253 0.516165 16.7192C0.224375 16.5131 0.0408784 16.217 0.00604449 15.8959C-0.0287903 15.5749 0.0878898 15.2552 0.330418 15.0072L6.71728 8.49928L0.544744 1.99132C0.370022 1.8131 0.259035 1.59608 0.224915 1.36593C0.190795 1.13579 0.234971 0.902154 0.352214 0.692676C0.469458 0.483197 0.654863 0.306644 0.88649 0.183902C1.11812 0.0611622 1.38627 -0.00262715 1.65923 8.32114e-05Z" fill="#6AB85A"/>
</svg>
