<svg width="10" height="17" viewBox="0 0 10 17" fill="none" xmlns="http://www.w3.org/2000/svg">
<path d="M8.34077 16.9999C8.12731 17.0005 7.9164 16.9605 7.72354 16.8828C7.53068 16.805 7.36076 16.6915 7.22628 16.5507L0.325041 9.26565C0.114887 9.04839 0 8.77588 0 8.49465C0 8.21342 0.114887 7.9409 0.325041 7.72365L7.46918 0.438622C7.71171 0.190668 8.06022 0.0347389 8.43804 0.00513777C8.81586 -0.0244634 9.19204 0.0746882 9.48383 0.28078C9.77562 0.486871 9.95912 0.783022 9.99395 1.10408C10.0288 1.42514 9.91211 1.74481 9.66958 1.99276L3.28272 8.50072L9.45526 15.0087C9.62998 15.1869 9.74096 15.4039 9.77508 15.6341C9.8092 15.8642 9.76503 16.0978 9.64779 16.3073C9.53054 16.5168 9.34514 16.6934 9.11351 16.8161C8.88188 16.9388 8.61372 17.0026 8.34077 16.9999Z" fill="#6AB85A"/>
</svg>
