<svg id="Layer_1" data-name="Layer 1" xmlns="http://www.w3.org/2000/svg" viewBox="0 0 88.29 76.52"><defs><style>.cls-1{fill:#41b87f;}.cls-2{fill:#fefefe;}</style></defs><path class="cls-1" d="M50,77.35H17.1c-6.62,0-11.24-4.64-11.24-11.28V23.78A10.76,10.76,0,0,1,17,12.61c3.83,0,7.66,0,11.5,0a.82.82,0,0,0,1-.69c.4-1.34.86-2.67,1.34-4A10.65,10.65,0,0,1,40.88.84q9.1,0,18.21,0A10.6,10.6,0,0,1,69.16,7.91c.49,1.32,1,2.65,1.35,4,.17.6.46.73,1,.72,3.8,0,7.6,0,11.4,0a10.75,10.75,0,0,1,11.2,11.22V66.22A10.76,10.76,0,0,1,83,77.35Z" transform="translate(-5.86 -0.83)"/><path class="cls-2" d="M49.94,71.46q-16.41,0-32.82,0c-3.39,0-5.38-2-5.38-5.34V23.83c0-3.33,2-5.33,5.3-5.34H30.83c2,0,2.87-.63,3.51-2.55s1.24-3.77,1.88-5.65a4.86,4.86,0,0,1,5-3.57H58.84a4.86,4.86,0,0,1,4.95,3.59c.66,1.94,1.29,3.89,1.95,5.83A3,3,0,0,0,69,18.49c4.66,0,9.32,0,14,0a4.9,4.9,0,0,1,5.27,5.27V66.24A4.89,4.89,0,0,1,83,71.46Q66.48,71.47,49.94,71.46Z" transform="translate(-5.86 -0.83)"/><path class="cls-1" d="M27.93,43.52A22.07,22.07,0,1,1,50,65.58,22.08,22.08,0,0,1,27.93,43.52Z" transform="translate(-5.86 -0.83)"/><path class="cls-1" d="M79.47,24.38a2.94,2.94,0,1,1-3,2.94A3,3,0,0,1,79.47,24.38Z" transform="translate(-5.86 -0.83)"/><path class="cls-2" d="M66.18,43.52A16.18,16.18,0,1,1,50.1,27.32,16.22,16.22,0,0,1,66.18,43.52Z" transform="translate(-5.86 -0.83)"/></svg>