<svg width="39" height="23" viewBox="0 0 39 23" fill="none" xmlns="http://www.w3.org/2000/svg">
<path d="M15.0753 5.94169C16.7161 5.94169 18.0462 4.61159 18.0462 2.97084C18.0462 1.33009 16.7161 0 15.0753 0C13.4346 0 12.1045 1.33009 12.1045 2.97084C12.1045 4.61159 13.4346 5.94169 15.0753 5.94169Z" fill="#72B852"/>
<path d="M37.441 20.0605C37.4401 20.0605 37.439 20.0605 37.438 20.0605L35.909 20.064C35.8217 19.8262 35.682 19.6035 35.4866 19.4166L28.0768 12.333C27.4737 11.7564 26.5426 11.6987 25.8728 12.1963L22.014 15.0637L20.2748 8.35256L24.1384 2.55734C24.684 1.73888 24.1417 0.637031 23.165 0.564632L18.0206 0.183594C18.514 0.705877 18.8654 1.3552 19.0279 2.06075C19.0875 2.31981 19.1212 2.58076 19.1301 2.84081L20.7816 2.96316L18.4995 6.38623L13.6737 7.54L15.2223 8.98322L10.9092 6.46105L11.8215 5.39222C11.4888 4.94461 11.248 4.42995 11.1218 3.88122C11.0017 3.35977 10.9859 2.83061 11.0694 2.31785L7.95638 5.96507C7.43576 6.57486 7.59658 7.50751 8.28845 7.9091L14.3255 11.4129L13.059 11.1381L15.1253 20.1119L1.24937 20.1439C0.557806 20.1455 -0.00158366 20.7076 3.36855e-06 21.3991C0.0015904 22.0897 0.561963 22.6486 1.25224 22.6486C1.25323 22.6486 1.25429 22.6486 1.25519 22.6486L37.4439 22.5652C38.1355 22.5636 38.6949 22.0016 38.6934 21.3101C38.6917 20.6192 38.1313 20.0605 37.441 20.0605ZM20.9789 20.0985L26.7552 15.8063L31.2203 20.0749L20.9789 20.0985Z" fill="#72B852"/>
</svg>
