<svg width="24" height="14" viewBox="0 0 24 14" fill="none" xmlns="http://www.w3.org/2000/svg">
<path d="M9.26299 3.65099C10.2712 3.65099 11.0885 2.83369 11.0885 1.82549C11.0885 0.817301 10.2712 0 9.26299 0C8.2548 0 7.4375 0.817301 7.4375 1.82549C7.4375 2.83369 8.2548 3.65099 9.26299 3.65099Z" fill="url(#paint0_linear_4257_502)"/>
<path d="M23.0063 12.327C23.0058 12.327 23.0051 12.327 23.0045 12.327L22.065 12.3292C22.0114 12.1831 21.9255 12.0462 21.8054 11.9314L17.2524 7.57871C16.8817 7.2244 16.3096 7.18896 15.8981 7.49471L13.5269 9.25663L12.4583 5.13286L14.8323 1.57187C15.1676 1.06896 14.8344 0.391904 14.2342 0.347418L11.0731 0.113281C11.3763 0.434209 11.5922 0.833197 11.6921 1.26674C11.7287 1.42592 11.7494 1.58627 11.7549 1.74606L12.7697 1.82124L11.3674 3.92461L8.40207 4.63357L9.35366 5.52038L6.7034 3.97059L7.26394 3.31383C7.05953 3.03878 6.91158 2.72254 6.83398 2.38536C6.76019 2.06494 6.75049 1.73979 6.8018 1.42471L4.88896 3.66582C4.56905 4.04052 4.66787 4.6136 5.093 4.86037L8.80259 7.01334L8.02435 6.84449L9.29404 12.3586L0.767702 12.3783C0.342755 12.3793 -0.000973112 12.7246 2.06987e-06 13.1496C0.000977251 13.5739 0.345309 13.9173 0.769467 13.9173C0.77007 13.9173 0.77072 13.9173 0.771278 13.9173L23.0082 13.8661C23.4331 13.8651 23.7768 13.5198 23.7759 13.0948C23.7749 12.6704 23.4305 12.327 23.0063 12.327ZM12.8909 12.3504L16.4403 9.71297L19.184 12.3359L12.8909 12.3504Z" fill="url(#paint1_linear_4257_502)"/>
<defs>
<linearGradient id="paint0_linear_4257_502" x1="9.26299" y1="0" x2="9.26299" y2="3.65099" gradientUnits="userSpaceOnUse">
<stop stop-color="#F187DA"/>
<stop offset="1" stop-color="#AD198D" stop-opacity="0.71"/>
</linearGradient>
<linearGradient id="paint1_linear_4257_502" x1="11.8879" y1="0.113281" x2="11.8879" y2="13.9173" gradientUnits="userSpaceOnUse">
<stop stop-color="#F187DA"/>
<stop offset="1" stop-color="#AD198D" stop-opacity="0.71"/>
</linearGradient>
</defs>
</svg>
