<svg width="21" height="16" viewBox="0 0 21 16" fill="none" xmlns="http://www.w3.org/2000/svg">
<path d="M1.69629 12.8916V14.0118C1.69629 14.6112 2.20274 15.1305 2.80228 15.1305H17.3252C17.9247 15.1305 18.386 14.6112 18.386 14.0118V12.8916H1.69629Z" fill="url(#paint0_linear_4257_498)"/>
<path d="M18.4421 7.93925C18.1955 3.46154 14.532 0 10.0637 0C5.59525 0 1.93167 3.46147 1.68506 7.93925H18.4421ZM4.97529 4.47988C4.66613 4.47988 4.41558 4.22933 4.41558 3.92017C4.41558 3.611 4.66613 3.36045 4.97529 3.36045C5.28446 3.36045 5.53501 3.611 5.53501 3.92017C5.53501 4.22933 5.28446 4.47988 4.97529 4.47988ZM7.82474 6.71873C7.51558 6.71873 7.26503 6.46819 7.26503 6.15902C7.26503 5.84985 7.51558 5.59931 7.82474 5.59931C8.13391 5.59931 8.38446 5.84985 8.38446 6.15902C8.38446 6.46819 8.13391 6.71873 7.82474 6.71873ZM10.0804 2.78378C9.77126 2.78378 9.52071 2.53323 9.52071 2.22406C9.52071 1.9149 9.77126 1.66435 10.0804 1.66435C10.3896 1.66435 10.6401 1.9149 10.6401 2.22406C10.6401 2.53323 10.3896 2.78378 10.0804 2.78378ZM12.3025 6.71873C11.9933 6.71873 11.7427 6.46819 11.7427 6.15902C11.7427 5.84985 11.9933 5.59931 12.3025 5.59931C12.6116 5.59931 12.8622 5.84985 12.8622 6.15902C12.8622 6.46819 12.6116 6.71873 12.3025 6.71873ZM15.7116 3.92017C15.7116 4.22933 15.4611 4.47988 15.1519 4.47988C14.8427 4.47988 14.5922 4.22933 14.5922 3.92017C14.5922 3.611 14.8427 3.36045 15.1519 3.36045C15.4611 3.36045 15.7116 3.61107 15.7116 3.92017Z" fill="url(#paint1_linear_4257_498)"/>
<path d="M18.6852 9.02441H18.6797H1.39135C0.635428 9.02441 0 9.61995 0 10.3759V10.404C0 11.16 0.635428 11.806 1.39135 11.806H18.6852C19.4411 11.806 20.014 11.1599 20.014 10.404V10.3759C20.014 9.61995 19.4411 9.02441 18.6852 9.02441Z" fill="url(#paint2_linear_4257_498)"/>
<defs>
<linearGradient id="paint0_linear_4257_498" x1="10.0411" y1="12.8916" x2="10.0411" y2="15.1305" gradientUnits="userSpaceOnUse">
<stop stop-color="#F7F6F3"/>
<stop offset="1" stop-color="#D2D2D2"/>
</linearGradient>
<linearGradient id="paint1_linear_4257_498" x1="10.0636" y1="0" x2="10.0636" y2="7.93925" gradientUnits="userSpaceOnUse">
<stop stop-color="#F7F6F3"/>
<stop offset="1" stop-color="#D2D2D2"/>
</linearGradient>
<linearGradient id="paint2_linear_4257_498" x1="10.007" y1="9.02441" x2="10.007" y2="11.806" gradientUnits="userSpaceOnUse">
<stop stop-color="#F7F6F3"/>
<stop offset="1" stop-color="#D2D2D2"/>
</linearGradient>
</defs>
</svg>
