<svg width="27" height="24" viewBox="0 0 27 24" fill="none" xmlns="http://www.w3.org/2000/svg">
<path d="M17.6855 19.3179V22.9064C17.6855 23.3303 18.0292 23.674 18.4531 23.674C18.8771 23.674 19.2207 23.3303 19.2207 22.9064V19.3174C18.9689 19.3468 18.7129 19.3624 18.4532 19.3624C18.1935 19.3624 17.9374 19.3472 17.6855 19.3179Z" fill="#DADADA"/>
<path d="M26.3533 8.01303C26.3533 6.86285 25.9231 5.76508 25.1418 4.92193C24.4387 4.16299 23.5091 3.67087 22.4968 3.51574C22.2193 1.51989 20.502 0 18.4536 0C16.4051 0 14.6878 1.51989 14.4103 3.51574C13.7647 3.61471 13.1529 3.85133 12.6118 4.20627C13.672 6.61363 14.2471 9.40867 14.2471 12.2237C14.2471 14.0674 13.8734 15.6063 13.3158 16.8926C14.3729 18.2092 15.9243 19.1127 17.686 19.3182V15.2559L16.101 13.5936C15.8085 13.2868 15.8201 12.801 16.1269 12.5085C16.4337 12.216 16.9195 12.2274 17.2121 12.5343L17.686 13.0313V11.907L16.101 10.2447C15.8085 9.93789 15.8201 9.45206 16.1269 9.15955C16.4337 8.86703 16.9195 8.87851 17.2121 9.18538L17.686 9.68239V8.55805L16.101 6.89579C15.8085 6.58897 15.8201 6.10314 16.1269 5.81063C16.4337 5.51812 16.9195 5.5296 17.2121 5.83647L17.686 6.33347V4.78151C17.686 4.3576 18.0297 4.01393 18.4536 4.01393C18.8775 4.01393 19.2212 4.3576 19.2212 4.78151V6.33347L19.6951 5.83647C19.9877 5.5296 20.4734 5.51812 20.7803 5.81063C21.0871 6.10319 21.0986 6.58903 20.8061 6.89579L19.2212 8.55805V9.68239L19.6951 9.18538C19.9877 8.87851 20.4734 8.86698 20.7803 9.15955C21.0871 9.45211 21.0986 9.93794 20.8061 10.2447L19.2212 11.907V13.0312L19.6951 12.5342C19.9877 12.2273 20.4734 12.2158 20.7803 12.5084C21.0871 12.8009 21.0986 13.2868 20.8061 13.5935L19.2212 15.2558V19.3176C22.4928 18.9361 25.0404 16.1481 25.0404 12.7757C25.0404 12.2976 24.989 11.8221 24.8874 11.3587C25.8219 10.4972 26.3533 9.29116 26.3533 8.01303Z" fill="#DADADA"/>
<path d="M0 12.2238C0 12.2823 0.000720596 12.3402 0.00154413 12.3979H1.88534C2.30925 12.3979 2.65293 12.7416 2.65293 13.1655C2.65293 13.5894 2.30925 13.9331 1.88534 13.9331H0.129707C0.190237 14.3202 0.270481 14.6886 0.367298 15.0393H3.70618C4.1301 15.0393 4.47377 15.383 4.47377 15.8069C4.47377 16.2308 4.1301 16.5745 3.70618 16.5745H0.937289C1.85934 18.5207 3.26945 19.7849 4.26274 20.6753C4.42209 20.8182 4.57264 20.9531 4.70482 21.0766C5.0574 21.4061 5.2167 21.8485 5.35722 22.2388C5.53474 22.7318 5.73594 23.2906 6.35591 23.2906C6.97588 23.2906 7.17708 22.7318 7.35461 22.2388C7.49512 21.8485 7.65443 21.4061 8.007 21.0766C8.13918 20.9531 8.28973 20.8182 8.44909 20.6753C9.44238 19.7849 10.8524 18.5207 11.7745 16.5745H10.1183C9.69438 16.5745 9.35071 16.2308 9.35071 15.8069C9.35071 15.383 9.69438 15.0393 10.1183 15.0393H12.3445C12.4413 14.6886 12.5216 14.3203 12.5821 13.9331H9.10349C8.67958 13.9331 8.33591 13.5894 8.33591 13.1655C8.33591 12.7416 8.67958 12.3979 9.10349 12.3979H12.7102C12.7111 12.3401 12.7118 12.2822 12.7118 12.2238C12.7118 11.8059 12.6977 11.3887 12.6708 10.9736H0.040971C0.0141031 11.3887 0 11.8059 0 12.2238H0Z" fill="#DADADA"/>
<path d="M10.6373 3.66727C9.37968 1.37093 7.77909 0 6.35581 0C4.93248 0 3.33193 1.37093 2.07428 3.66727C1.14425 5.36551 0.505083 7.35198 0.20166 9.43842H12.5099C12.2065 7.35198 11.5674 5.36551 10.6373 3.66727Z" fill="#DADADA"/>
</svg>
