<svg width="68" height="54" viewBox="0 0 68 54" fill="none" xmlns="http://www.w3.org/2000/svg">
<path d="M62.5261 42.0651C62.5261 42.0651 62.2722 43.1654 62.9916 43.5251C63.0551 43.5463 63.3302 43.8848 63.309 44.1599C63.2878 44.435 62.9281 46.424 60.9603 45.895L60.5371 45.5564L60.6006 46.1277C60.6006 46.1277 61.3623 48.286 61.722 49.4921C61.722 49.4921 62.2087 50.3596 61.3835 50.8463C61.3835 50.8463 60.4101 52.391 61.9548 52.3698C61.9548 52.3698 68.9586 53.3431 67.1177 49.6825C67.0966 49.6191 65.5096 47.0799 65.8058 43.6521C65.8058 43.6521 66.229 41.8112 63.7957 41.7266L62.5261 42.0651Z" fill="black"/>
<path d="M55.7129 42.2554C55.7129 42.2554 56.0938 43.0595 56.7286 43.3557C56.7709 43.3768 57.1094 43.6942 57.1306 43.9905C57.1518 44.2655 56.7074 46.4238 55.0781 46.0853L54.6973 45.789L54.8031 46.3392C54.8031 46.3392 55.6706 48.4128 56.115 49.5766C56.115 49.5766 56.6016 50.4018 56.0092 50.9519C56.0092 50.9519 55.4167 52.5812 56.6439 52.3908C56.6439 52.3908 62.3358 52.687 60.4315 49.2169C60.4103 49.1746 58.8445 46.7835 58.6541 43.3557C58.6541 43.3557 58.7599 41.4725 56.8132 41.6206L55.7129 42.2554Z" fill="black"/>
<path d="M17.0334 24.2066L16.3775 26.9574L15.8273 29.3695L14.1345 36.1829L13.9864 38.0873L13.4151 39.6531L10.1566 51.5447L10.876 52.1583L10.5163 53.5972H6.32669H0.105798L0 53.2586L6.53829 50.9946L7.91365 39.0817L8.31568 35.4423L9.58525 31.2527V27.7614L10.2835 24.2489L10.7279 20.271L10.9818 19.6362L11.9551 17.1605L13.4151 16.4834L17.0334 24.2066Z" fill="url(#paint0_linear_4372_454)"/>
<path d="M17.0337 24.2063L16.6952 25.7933C11.7861 24.0793 12.8018 19.4454 12.8018 19.4454L12.3363 19.7205L11.2783 18.8953L11.9554 17.1602L13.4154 16.4619L17.0337 24.2063Z" fill="#F8B181"/>
<path d="M55.1631 46.149L52.3277 44.2235L50.0001 43.5041L47.2071 41.5574H47.1859L46.3184 41.0919C46.1914 39.4626 45.6201 37.0928 45.6201 37.0928L47.8842 37.3255L51.4178 38.5105L51.6083 38.5739L51.9891 38.8913L54.2955 40.7322L55.3958 41.9171L57.0674 43.7157C57.3848 46.1279 55.1631 46.149 55.1631 46.149Z" fill="url(#paint1_linear_4372_454)"/>
<path d="M55.4173 41.9171C52.5184 40.9438 48.1596 38.7432 48.1596 38.7432C47.419 38.9971 47.2074 38.9548 47.2074 38.9548C47.2074 38.9548 47.2286 40.7957 47.2074 41.5574L46.3399 41.0919C46.2129 39.4626 45.6416 37.0928 45.6416 37.0928L47.9057 37.3255L51.4393 38.5105L52.0106 38.8913L54.317 40.7322L55.4173 41.9171Z" fill="#F8B181"/>
<path d="M48.709 38.0659C48.709 38.0659 53.1313 37.7697 54.1047 31.8027L55.2684 34.6169L57.9345 36.0135L59.4369 36.5848L61.32 38.9546L63.3514 43.5674C63.3514 43.5674 64.0708 44.7312 62.7801 45.6199C62.7801 45.6199 61.4258 46.699 60.4948 45.4718L59.9658 44.308L52.1368 39.5471L51.5655 38.9123L50.2959 38.9546L48.709 38.0659Z" fill="url(#paint2_linear_4372_454)"/>
<path d="M13.3302 18.3239C13.309 17.8584 16.885 17.3294 16.885 17.3294C16.885 17.3294 19.805 19.1491 20.9688 18.9587C22.1537 18.7682 25.7931 12.2299 21.0534 9.77544L30.4271 8.31543L35.5265 9.94471L37.7482 12.8436L35.2514 10.5795C35.2514 10.5795 32.5853 10.7276 33.3047 20.1013L34.5532 21.8364L42.4245 35.0399L40.6894 37.7695L37.9598 38.235L32.3314 32.8605L27.4224 30.7657L24.1427 26.5761L17.2235 24.2062C17.2447 24.2274 13.6052 25.772 13.3302 18.3239Z" fill="#B76215"/>
<path d="M23.0432 17.4563C23.0432 17.4563 21.3716 20.6514 17.0127 17.9007L16.1875 17.4351L17.1185 13.563L17.8591 10.516L20.1866 9.2041L21.3927 9.94468L22.1756 10.4314C22.1756 10.4102 24.7571 12.1876 23.0432 17.4563Z" fill="url(#paint3_linear_4372_454)"/>
<path d="M16.6523 17.2666L18.5779 18.0283L22.0057 17.0762L18.5779 18.4939L16.6523 17.2666Z" fill="#F8B181"/>
<path d="M53.8936 31.2318L48.4345 22.493L43.9698 18.7689L41.2402 18.4092L43.0811 32.6495L45.4298 36.2678C45.1547 36.1197 44.9431 35.9927 44.9431 35.9927L45.4933 37.8336C45.4933 37.8336 46.2974 37.8124 46.6782 37.5797C51.6296 39.6745 53.6185 33.8556 53.6185 33.8556C54.4438 32.3321 53.8936 31.2318 53.8936 31.2318Z" fill="#238642"/>
<path d="M42.4455 50.6559L39.9698 51.4388L37.6423 52.2217L35.7802 53.6393L46.5293 53.6182L46.762 45.1121L46.36 39.8434L45.2809 35.8442L45.1962 34.5323L44.498 33.2204L43.5669 28.0363L42.6359 21.1595L38.7637 13.9653L35.4417 10.4951C35.4417 10.4951 29.8767 11.807 32.1196 21.3076L33.0507 22.154L35.2936 28.0998L38.933 33.1993L39.5466 38.2987L41.4087 43.3981L42.4455 50.6559Z" fill="url(#paint4_linear_4372_454)"/>
<path d="M19.9955 12.2937L20.2071 14.0923L16.9062 16.7795L17.1178 13.521L17.8584 10.474L20.186 9.16211L21.3921 9.92385L19.9955 12.2937Z" fill="#F8B181"/>
<path d="M7.63867 8.08247L8.2523 11.6584L8.97172 12.0181L12.8862 19.0219L16.0178 18.5776L18.8744 13.9648L18.2607 10.8755L18.7051 11.8277C22.0483 9.39435 19.5938 6.93985 19.1071 6.93985C18.6205 6.93985 18.0491 8.1671 18.0491 8.1671L14.8752 6.89753L13.7326 4.54883L8.10418 6.74942L7.63867 8.08247Z" fill="url(#paint5_linear_4372_454)"/>
<path d="M7.80833 8.37916L13.204 5.2264L14.1773 8.14641L16.3568 8.37916L17.2666 10.1989L18.1976 7.8925C18.1976 7.8925 19.0863 6.1151 20.102 7.87134C20.102 7.87134 19.4249 1.39653 16.4414 1.22725L15.7643 1.35421L12.8654 0L8.48543 2.49682L5.88281 6.36901L7.80833 8.37916Z" fill="url(#paint6_linear_4372_454)"/>
<path d="M11.9971 35.1455L13.8168 35.082C13.8168 35.082 13.9649 37.4096 11.9971 35.1455Z" fill="#F8B181"/>
<path d="M39.6531 33.0508L40.6052 32.9873C40.6052 32.9873 40.3936 34.0664 40.0339 35.3149C39.8012 36.0766 39.4415 33.4951 39.6531 33.0508Z" fill="#F8B181"/>
<defs>
<linearGradient id="paint0_linear_4372_454" x1="0" y1="35.033" x2="17.0299" y2="35.033" gradientUnits="userSpaceOnUse">
<stop offset="0.0215018" stop-color="#FBCD99"/>
<stop offset="0.1378" stop-color="#FBC69D"/>
<stop offset="0.3777" stop-color="#FBBFA1"/>
<stop offset="1" stop-color="#FBBDA2"/>
</linearGradient>
<linearGradient id="paint1_linear_4372_454" x1="45.6278" y1="41.6297" x2="57.123" y2="41.6297" gradientUnits="userSpaceOnUse">
<stop offset="0.0215018" stop-color="#FBCD99"/>
<stop offset="0.1378" stop-color="#FBC69D"/>
<stop offset="0.3777" stop-color="#FBBFA1"/>
<stop offset="1" stop-color="#FBBDA2"/>
</linearGradient>
<linearGradient id="paint2_linear_4372_454" x1="48.7119" y1="38.9284" x2="63.5226" y2="38.9284" gradientUnits="userSpaceOnUse">
<stop offset="0.0215018" stop-color="#FBCD99"/>
<stop offset="0.1378" stop-color="#FBC69D"/>
<stop offset="0.3777" stop-color="#FBBFA1"/>
<stop offset="1" stop-color="#FBBDA2"/>
</linearGradient>
<linearGradient id="paint3_linear_4372_454" x1="16.1904" y1="14.0877" x2="23.6343" y2="14.0877" gradientUnits="userSpaceOnUse">
<stop offset="0.0215018" stop-color="#FBCD99"/>
<stop offset="0.1378" stop-color="#FBC69D"/>
<stop offset="0.3777" stop-color="#FBBFA1"/>
<stop offset="1" stop-color="#FBBDA2"/>
</linearGradient>
<linearGradient id="paint4_linear_4372_454" x1="31.6311" y1="32.0443" x2="46.7668" y2="32.0443" gradientUnits="userSpaceOnUse">
<stop offset="0.0215018" stop-color="#FBCD99"/>
<stop offset="0.1378" stop-color="#FBC69D"/>
<stop offset="0.3777" stop-color="#FBBFA1"/>
<stop offset="1" stop-color="#FBBDA2"/>
</linearGradient>
<linearGradient id="paint5_linear_4372_454" x1="7.63543" y1="11.7755" x2="20.4254" y2="11.7755" gradientUnits="userSpaceOnUse">
<stop offset="0.0215018" stop-color="#FBCD99"/>
<stop offset="0.1378" stop-color="#FBC69D"/>
<stop offset="0.3777" stop-color="#FBBFA1"/>
<stop offset="1" stop-color="#FBBDA2"/>
</linearGradient>
<linearGradient id="paint6_linear_4372_454" x1="5.87562" y1="5.09866" x2="20.0983" y2="5.09866" gradientUnits="userSpaceOnUse">
<stop stop-color="#9B7761"/>
<stop offset="1" stop-color="#875837"/>
</linearGradient>
</defs>
</svg>
