<svg id="Layer_1" data-name="Layer 1" xmlns="http://www.w3.org/2000/svg" viewBox="0 0 94.29 94.29"><defs><style>.cls-1{fill:#41b87f;}.cls-2{fill:#fefefe;}</style></defs><path class="cls-1" d="M25.93,61.76h9.31c1.73,0,2.45.71,2.45,2.44q0,9.38,0,18.74c0,1.65-.73,2.4-2.39,2.4q-9.42,0-18.86,0A2,2,0,0,1,14.11,83q0-9.43,0-18.86c0-1.67.74-2.39,2.39-2.39Z" transform="translate(-2.32 -2.86)"/><path class="cls-1" d="M37.7,26.46v9.2c0,1.87-.7,2.57-2.57,2.58H16.61c-1.79,0-2.5-.7-2.5-2.51q0-9.31,0-18.63c0-1.73.71-2.44,2.45-2.44H35.18c1.81,0,2.51.7,2.52,2.5Z" transform="translate(-2.32 -2.86)"/><path class="cls-1" d="M73,38.24h-9.2c-1.88,0-2.58-.7-2.58-2.57q0-9.26,0-18.51c0-1.81.69-2.51,2.5-2.51H82.35c1.74,0,2.46.7,2.47,2.43q0,9.38,0,18.74c0,1.71-.75,2.41-2.5,2.41C79.22,38.25,76.11,38.24,73,38.24Z" transform="translate(-2.32 -2.86)"/><path class="cls-1" d="M82.8,2.86H94.08c1.82,0,2.52.7,2.52,2.5q0,11.28,0,22.55c0,1.67-.83,2.56-2.19,2.41-1.13-.12-1.72-.83-1.72-2.16,0-5.1,0-10.2,0-15.3,0-1.65-.05-3.3,0-4.95,0-.9-.21-1.15-1.13-1.15-6.67,0-13.35,0-20,0-.93,0-1.78-.11-2.23-1a2,2,0,0,1,2-2.87C75.13,2.85,79,2.86,82.8,2.86Z" transform="translate(-2.32 -2.86)"/><path class="cls-1" d="M96.61,83.36q0,5.63,0,11.26c0,1.81-.7,2.52-2.49,2.52H71.46c-1.57,0-2.46-.84-2.33-2.16a1.87,1.87,0,0,1,2.13-1.76c3.41,0,6.82,0,10.23,0s6.67,0,10,0c.93,0,1.22-.21,1.21-1.18,0-6.71,0-13.41,0-20.11,0-1.72,1-2.61,2.53-2.19,1.12.32,1.4,1.18,1.4,2.22Q96.6,77.66,96.61,83.36Z" transform="translate(-2.32 -2.86)"/><path class="cls-1" d="M2.32,16.64V5.48c0-2,.66-2.62,2.63-2.62H27.39c1.45,0,2.11.45,2.35,1.53C30,5.8,29.2,6.78,27.6,6.78c-5,0-10,0-14.95,0-1.81,0-3.61,0-5.41,0-.82,0-1,.23-1,1,0,6.75,0,13.5,0,20.25,0,1.59-.84,2.44-2.18,2.28-1.15-.14-1.73-.88-1.74-2.29C2.31,24.23,2.32,20.43,2.32,16.64Z" transform="translate(-2.32 -2.86)"/><path class="cls-1" d="M2.32,83.24V72c0-1,.27-1.9,1.4-2.22,1.43-.41,2.51.46,2.52,2.07,0,4.48,0,9,0,13.45,0,2.3,0,4.59,0,6.89,0,.89.26,1.07,1.1,1.06,6.74,0,13.48,0,20.22,0,1.62,0,2.48.93,2.21,2.33-.21,1.12-.91,1.59-2.41,1.59H7.57c-1,0-1.91,0-2.87,0-1.65,0-2.37-.74-2.38-2.41C2.31,90.9,2.32,87.07,2.32,83.24Z" transform="translate(-2.32 -2.86)"/><path class="cls-1" d="M69.08,48.7c0-1.42,0-2.83,0-4.25,0-1.6.75-2.28,2.36-2.29,1.18,0,2.37,0,3.56,0A1.79,1.79,0,0,1,76.9,44a1.86,1.86,0,0,1-1.84,2c-.65,0-1.53-.18-1.88.15S73,47.6,73,48.32c0,2.37,0,4.75,0,7.12,0,1.75-.68,2.39-2.46,2.4-1.49,0-3,0-4.48,0-.78,0-1,.25-.93,1,0,1.57,0,3.15,0,4.71A1.94,1.94,0,0,1,63,65.68c-1.23,0-2.45,0-3.68,0a1.87,1.87,0,0,1-2-2,1.93,1.93,0,0,1,1.87-1.94c.64-.06,1.54.18,1.87-.16s.14-1.37.16-2.08c0-1.08,0-2.15,0-3.22,0-1.68.72-2.39,2.37-2.4s3.14,0,4.71,0c.59,0,.8-.13.78-.75C69.05,51.69,69.08,50.19,69.08,48.7Z" transform="translate(-2.32 -2.86)"/><path class="cls-1" d="M51.47,34.31c1.26,0,2.53,0,3.79,0a1.84,1.84,0,0,1,2,1.86,1.88,1.88,0,0,1-2,2c-1.64.05-3.29,0-4.94,0-.64,0-.94.07-.92.85.06,2.06.05,4.13,0,6.2,0,.64.16.9.82.82a6.31,6.31,0,0,1,1.15,0A1.86,1.86,0,0,1,53.37,48,1.82,1.82,0,0,1,51.53,50q-4,.06-8,0a1.82,1.82,0,0,1-1.85-2,1.85,1.85,0,0,1,1.92-1.86c2-.11,2-.11,2-2,0-2.49,0-5,0-7.47,0-1.54.7-2.23,2.24-2.24C49,34.3,50.24,34.31,51.47,34.31Z" transform="translate(-2.32 -2.86)"/><path class="cls-1" d="M53.35,85.35c-1.92,0-3.84.05-5.75,0a2,2,0,0,1-1.78-3,2.07,2.07,0,0,1,2.07-.93c2.8,0,5.6,0,8.4,0,.78,0,1.07-.17,1-1-.07-1.45,0-2.91,0-4.37,0-1.82.69-2.59,2.49-2.49,1.23.07,1.53-.32,1.46-1.49-.09-1.76.94-2.7,2.39-2.38a1.67,1.67,0,0,1,1.48,1.66c0,1.41,0,2.83,0,4.25a1.77,1.77,0,0,1-1.72,1.82,7.09,7.09,0,0,1-1.38,0c-.68-.06-.83.24-.82.87,0,1.57,0,3.14,0,4.71s-.68,2.27-2.23,2.3c-1.88,0-3.76,0-5.64,0Z" transform="translate(-2.32 -2.86)"/><path class="cls-1" d="M35.69,57.84H28.22c-1.51,0-2.28-.68-2.28-2s.77-2,2.28-2,3-.07,4.48,0c1,.06,1.12-.33,1.09-1.17-.06-1.49,0-3,0-4.48s.69-2.19,1.91-2.21,2,.8,2,2.27,0,3.21,0,4.82c0,.62.19.77.78.75,1.6,0,3.21,0,4.82,0,1.39,0,2.21.73,2.24,1.92s-.8,2-2.25,2Z" transform="translate(-2.32 -2.86)"/><path class="cls-1" d="M53.38,65.72c0,1.87,0,3.75,0,5.63,0,1.41-.71,2.16-2,2.16s-1.93-.75-2-2.16c0-1.73,0-1.73-1.74-1.73-2,0-2,0-2.18,2a1.86,1.86,0,0,1-2,1.9,1.8,1.8,0,0,1-1.91-2c0-1.15,0-2.3,0-3.45,0-1.73.69-2.4,2.47-2.41,1.42,0,2.84,0,4.25,0,.85,0,1.21-.14,1.15-1.09-.1-1.49,0-3,0-4.48s.77-2.31,2-2.28,1.91.83,1.92,2.23C53.39,62,53.38,63.84,53.38,65.72Z" transform="translate(-2.32 -2.86)"/><path class="cls-1" d="M75.58,65.68c-1.49,0-3,0-4.47,0a2,2,0,1,1-.07-3.9c3.94,0,7.88,0,11.82,0a1.87,1.87,0,0,1,1.94,2q.08,3.9,0,7.8a1.81,1.81,0,0,1-2,1.93,1.79,1.79,0,0,1-1.92-2c0-1.68,0-3.36,0-5,0-.63-.17-.87-.84-.85-1.49,0-3,0-4.48,0Z" transform="translate(-2.32 -2.86)"/><path class="cls-1" d="M47.39,30.39c-1.15,0-2.3,0-3.45,0-1.5,0-2.3-.72-2.31-2s.77-1.94,2.29-1.95,3.14,0,4.71,0c.63,0,.87-.15.85-.82,0-1.61,0-3.22,0-4.83a2,2,0,0,1,2.17-2.23c1.22,0,2.45,0,3.68,0a1.85,1.85,0,0,1,2,1.93,1.9,1.9,0,0,1-1.94,2c-.63.07-1.52-.29-1.83.18s-.13,1.33-.13,2c0,1.15,0,2.3,0,3.45a2,2,0,0,1-2.2,2.23H47.39Z" transform="translate(-2.32 -2.86)"/><path class="cls-1" d="M14.1,50c0-1.84,0-3.68,0-5.51,0-1.5.74-2.28,2-2.27S18,42.94,18,44.38A3.72,3.72,0,0,1,18,45c-.13.88.17,1.2,1.11,1.14,1.52-.08,3.06,0,4.59,0a2,2,0,1,1,0,3.91c-1.6,0-3.22,0-4.82,0-.7,0-.94.15-.91.89.06,1.56,0,3.14,0,4.71s-.75,2.27-2,2.24-1.89-.8-1.91-2.23C14.08,53.71,14.1,51.83,14.1,50Z" transform="translate(-2.32 -2.86)"/><path class="cls-1" d="M76.84,85.35c-1.87,0-3.75,0-5.63,0a1.92,1.92,0,0,1-1.89-1.06,2.1,2.1,0,0,1,.15-2.08,2,2,0,0,1,2.15-.77c1.21.17,1.49-.31,1.41-1.44-.1-1.41,0-2.83,0-4.25s.77-2.17,2-2.17,1.91.77,1.94,2.2c0,1.6,0,3.21,0,4.82,0,.66.21.85.86.83,1.57,0,3.14,0,4.7,0s2.29.7,2.28,2-.78,1.94-2.3,2c-1.88,0-3.75,0-5.63,0Z" transform="translate(-2.32 -2.86)"/><path class="cls-1" d="M84.82,52c0,1.22,0,2.45,0,3.67a2,2,0,0,1-2.22,2.19c-1.23,0-2.45,0-3.68,0a1.84,1.84,0,0,1-1.92-2,1.87,1.87,0,0,1,2-1.95c1.94-.11,1.93-.11,1.94-2.11,0-1.26,0-2.53,0-3.79a1.84,1.84,0,0,1,1.84-1.93,1.86,1.86,0,0,1,2,1.87c.07,1.33,0,2.68,0,4Z" transform="translate(-2.32 -2.86)"/><path class="cls-1" d="M61.22,46.08c0,.69,0,1.38,0,2.07A1.84,1.84,0,0,1,59.38,50a1.86,1.86,0,0,1-2-1.74,39.63,39.63,0,0,1,0-4.36,1.83,1.83,0,0,1,2.06-1.71A1.81,1.81,0,0,1,61.21,44C61.25,44.7,61.22,45.39,61.22,46.08Z" transform="translate(-2.32 -2.86)"/><path class="cls-1" d="M41.63,18.6c0-.69,0-1.38,0-2.06a1.95,1.95,0,0,1,3.89-.05c.06,1.38.06,2.76,0,4.13a1.95,1.95,0,0,1-3.89-.07C41.6,19.9,41.62,19.25,41.63,18.6Z" transform="translate(-2.32 -2.86)"/><path class="cls-2" d="M18,73.59c0-2.34,0-4.68,0-7,0-.7.18-.91.9-.91q7,0,14,0c.64,0,.85.17.85.83q0,7,0,14c0,.69-.19.91-.9.91q-6.94,0-13.9,0c-.75,0-1-.19-1-1C18.07,78.18,18,75.88,18,73.59Z" transform="translate(-2.32 -2.86)"/><path class="cls-2" d="M25.87,34.31c-2.33,0-4.67,0-7,0-.67,0-.85-.21-.84-.85q0-7.06,0-14.13c0-.61.19-.78.79-.78q7.07,0,14.13,0c.65,0,.84.2.84.85q0,7,0,14c0,.72-.2.91-.91.9C30.55,34.29,28.21,34.31,25.87,34.31Z" transform="translate(-2.32 -2.86)"/><path class="cls-2" d="M73,34.31c-2.34,0-4.68,0-7,0-.65,0-.86-.17-.85-.84q0-7.07,0-14.13c0-.59.17-.79.77-.79q7.13,0,14.25,0c.66,0,.74.3.73.83,0,4.68,0,9.35,0,14,0,.69-.17.92-.9.91C77.67,34.28,75.33,34.31,73,34.31Z" transform="translate(-2.32 -2.86)"/><path class="cls-1" d="M22,73.5c0-3.73.14-3.88,3.86-3.88s4,.13,4,4c0,3.7-.17,3.87-3.89,3.87-.65,0-1.3,0-1.95,0a1.92,1.92,0,0,1-2-2C22,74.8,22,74.15,22,73.5Z" transform="translate(-2.32 -2.86)"/><path class="cls-1" d="M22,26.36c-.13-3.49.31-4,3.89-3.84.61,0,1.22,0,1.83,0a2,2,0,0,1,2.14,2.15c0,1.19,0,2.37,0,3.56a2,2,0,0,1-2.17,2.14c-1.15,0-2.3,0-3.44,0-1.52-.05-2.19-.76-2.24-2.3C22,27.51,22,26.93,22,26.36Z" transform="translate(-2.32 -2.86)"/><path class="cls-1" d="M73,22.52c3.62-.14,4.06.29,3.94,3.9,0,.5,0,1,0,1.49,0,1.75-.69,2.44-2.41,2.47-1,0-2.07,0-3.1,0a2.08,2.08,0,0,1-2.35-2.32c0-1,0-2.07,0-3.1,0-1.74.69-2.41,2.44-2.44Z" transform="translate(-2.32 -2.86)"/></svg>