<svg width="21" height="21" viewBox="0 0 21 21" fill="none" xmlns="http://www.w3.org/2000/svg">
<path d="M18.4319 3.82173H19.7456C19.9181 3.82173 20.0674 3.88476 20.1935 4.01083C20.3195 4.13689 20.3826 4.28618 20.3826 4.45869C20.3826 4.6312 20.3195 4.78048 20.1935 4.90655C20.0674 5.03261 19.9181 5.09564 19.7456 5.09564H17.1978C17.0253 5.09564 16.876 5.03261 16.7499 4.90655C16.6239 4.78048 16.5608 4.6312 16.5608 4.45869C16.5608 4.28618 16.6272 4.13357 16.7599 4.00088L18.5115 1.27391H17.1978C17.0253 1.27391 16.876 1.2142 16.7499 1.09477C16.6239 0.975338 16.5608 0.826052 16.5608 0.646908C16.5608 0.467764 16.6239 0.31516 16.7499 0.189096C16.876 0.063032 17.0253 0 17.1978 0H19.7456C19.9049 0 20.0508 0.0763019 20.1835 0.228906C20.3162 0.38151 20.3826 0.517526 20.3826 0.636955C20.3826 0.756385 20.3295 0.902353 20.2233 1.07486L18.4319 3.82173ZM15.2869 5.09564C15.2869 5.42739 15.4163 5.72265 15.6751 5.98141C15.9338 6.24017 16.2291 6.36955 16.5608 6.36955H19.6262C20.1304 7.60365 20.3826 8.87757 20.3826 10.1913C20.3826 11.5714 20.1139 12.8917 19.5764 14.1524C19.039 15.413 18.3158 16.4978 17.4068 17.4068C16.4978 18.3158 15.413 19.039 14.1524 19.5764C12.8917 20.1139 11.5714 20.3826 10.1913 20.3826C8.81122 20.3826 7.49086 20.1139 6.23022 19.5764C4.96958 19.039 3.88476 18.3158 2.97578 17.4068C2.06679 16.4978 1.34358 15.413 0.806147 14.1524C0.268716 12.8917 0 11.5714 0 10.1913C0 8.81122 0.268716 7.49086 0.806147 6.23022C1.34358 4.96958 2.06679 3.88476 2.97578 2.97578C3.88476 2.06679 4.96958 1.34358 6.23022 0.806147C7.49086 0.268716 8.81122 0 10.1913 0C12.5401 0 14.6433 0.73648 16.5011 2.20944L15.9239 3.18478C15.7779 3.33075 15.6353 3.57956 15.4959 3.93121C15.3566 4.28286 15.2869 4.67101 15.2869 5.09564ZM6.36955 8.91738C5.66625 8.91738 5.06579 9.10315 4.56816 9.47471C4.07054 9.84627 3.82173 10.2974 3.82173 10.8282C3.82173 11.0273 3.87481 11.2396 3.98097 11.4652C4.15348 11.0936 4.45869 10.7884 4.89659 10.5496C5.3345 10.3107 5.82549 10.1913 6.36955 10.1913C6.91362 10.1913 7.40461 10.3107 7.84251 10.5496C8.28042 10.7884 8.58563 11.0936 8.75814 11.4652C8.8643 11.2529 8.91738 11.0406 8.91738 10.8282C8.91738 10.2974 8.66856 9.84627 8.17094 9.47471C7.67332 9.10315 7.07286 8.91738 6.36955 8.91738ZM7.64346 16.5708C7.64346 16.9224 7.89228 17.221 8.3899 17.4665C8.88752 17.712 9.48798 17.8348 10.1913 17.8348C10.8946 17.8348 11.4951 17.712 11.9927 17.4665C12.4903 17.221 12.7391 16.9224 12.7391 16.5708C12.7391 16.2191 12.4903 15.9172 11.9927 15.6651C11.4951 15.413 10.8946 15.2869 10.1913 15.2869C9.48798 15.2869 8.88752 15.413 8.3899 15.6651C7.89228 15.9172 7.64346 16.2191 7.64346 16.5708ZM11.4652 10.8282C11.4652 11.0406 11.5183 11.2529 11.6244 11.4652C11.7969 11.0936 12.1022 10.7884 12.5401 10.5496C12.978 10.3107 13.469 10.1913 14.013 10.1913C14.5571 10.1913 15.0481 10.3107 15.486 10.5496C15.9239 10.7884 16.2291 11.0936 16.4016 11.4652C16.5078 11.2529 16.5608 11.0406 16.5608 10.8282C16.5608 10.2974 16.312 9.84627 15.8144 9.47471C15.3168 9.10315 14.7163 8.91738 14.013 8.91738C13.3097 8.91738 12.7093 9.10315 12.2116 9.47471C11.714 9.84627 11.4652 10.2974 11.4652 10.8282Z" fill="url(#paint0_linear_4257_476)"/>
<defs>
<linearGradient id="paint0_linear_4257_476" x1="10.1913" y1="0" x2="10.1913" y2="20.3826" gradientUnits="userSpaceOnUse">
<stop stop-color="#FE23DB"/>
<stop offset="1" stop-color="#EC991C" stop-opacity="0.95"/>
</linearGradient>
</defs>
</svg>
