<svg width="26" height="26" viewBox="0 0 26 26" fill="none" xmlns="http://www.w3.org/2000/svg">
<path d="M14.4872 5.41598L13.7746 3.69531H9.40694V5.71117H11.3413L9.03027 8.02221L9.74291 9.74283H14.1105V7.72697H12.1762L14.4872 5.41598Z" fill="#72B852"/>
<path d="M20.1992 4.07218L19.4865 2.35156H15.1189V4.36737H17.0532L14.7422 6.67846L15.4548 8.39902H19.8225V6.38322H17.8881L20.1992 4.07218Z" fill="#72B852"/>
<path d="M25.9101 2.72848L25.1975 1.00781H20.8298V3.02367H22.7642L20.4531 5.33471L21.1658 7.05533H25.5334V5.03947H23.5991L25.9101 2.72848Z" fill="#72B852"/>
<path d="M24.9898 9.07119H21.8381V10.4151H16.1266V11.7591H8.39626L6.65261 7.54971L7.39137 6.81091V1.67998H13.1029V0.335976H15.6872C14.7493 0.116445 13.7717 0 12.7669 0C5.71594 0 0 5.71594 0 12.7669C0 19.8178 5.71594 25.5338 12.7669 25.5338C19.8179 25.5338 25.5338 19.8178 25.5338 12.7669C25.5338 11.4816 25.3431 10.2412 24.9898 9.07119ZM8.06332 16.4626C6.49953 16.4626 4.98837 15.716 4.92481 15.6842L5.82419 13.8802C5.83567 13.8858 6.98338 14.4468 8.06332 14.4468C9.13916 14.4468 10.289 13.8869 10.3003 13.8812L11.2018 15.6842C11.1383 15.716 9.6271 16.4626 8.06332 16.4626ZM12.7669 21.8381C12.0258 21.8381 11.423 21.2352 11.423 20.4942C11.423 19.7531 12.0258 19.1503 12.7669 19.1503C13.508 19.1503 14.1108 19.7531 14.1108 20.4942C14.1105 21.2354 13.5077 21.8381 12.7669 21.8381ZM17.4705 16.4626C15.9067 16.4626 14.3955 15.716 14.332 15.6842L15.2314 13.8802C15.2428 13.8858 16.3905 14.4468 17.4705 14.4468C18.5463 14.4468 19.6962 13.8869 19.7075 13.8812L20.609 15.6842C20.5454 15.716 19.0343 16.4626 17.4705 16.4626Z" fill="#72B852"/>
</svg>
