<svg width="56" height="60" viewBox="0 0 56 60" fill="none" xmlns="http://www.w3.org/2000/svg">
<path d="M35.4649 22.2051C38.2652 22.9052 40.6699 25.9794 44.8704 28.5972C49.1013 31.2149 51.5364 33.3456 52.5104 34.0152C53.4845 34.7153 53.4236 35.9633 52.754 37.0895C52.0539 38.2461 48.6448 40.1029 47.9142 40.2246C47.1837 40.3464 35.7997 35.7198 35.191 35.0805C34.5518 34.4718 35.4649 22.2051 35.4649 22.2051Z" fill="#41EA71"/>
<path d="M47.6402 36.4197C48.3403 34.8978 50.8362 33.8629 51.9929 34.2586C53.1495 34.6543 55.4629 36.6024 55.6455 37.6981C55.8281 38.7939 55.8281 40.4985 54.6106 41.229C53.4235 41.9595 48.736 40.7724 47.5793 39.981C46.4227 39.1592 47.3358 37.0589 47.6402 36.4197Z" fill="#39A457"/>
<path d="M22.3154 20.4087C17.78 21.3523 15.9537 21.8698 15.4363 22.022C14.9188 22.2046 9.89648 56.113 9.89648 56.113C9.89648 56.113 11.7228 57.7567 20.3978 58.5786C29.0727 59.37 34.6734 57.8785 34.6734 57.8785C34.6734 57.8785 33.882 38.9153 33.3037 32.0667C32.7253 25.218 32.6644 21.8393 30.5642 21.3219C28.4639 20.8044 27.2464 19.7695 26.7289 19.7695C26.2115 19.8 22.3154 20.4087 22.3154 20.4087Z" fill="#DD9847"/>
<path d="M16.6843 54.5002C17.78 50.5432 17.9627 46.4644 18.8758 42.477C20.3978 35.811 22.011 27.6839 19.028 21.1396C16.8365 21.6267 15.8015 21.931 15.4363 22.0528C14.9188 22.2354 9.89648 56.1439 9.89648 56.1439C9.89648 56.1439 11.0227 57.1788 15.7407 58.0006C16.0146 56.8135 16.3494 55.6569 16.6843 54.5002Z" fill="#39A457"/>
<path d="M26.5469 23.9091C25.7859 25.979 24.9032 27.5313 25.238 29.7838C25.8164 33.7408 27.7949 37.4543 27.8558 41.4721C27.9166 45.8248 27.247 50.0862 28.0688 54.4085C28.3428 55.8695 28.7385 57.3001 29.3168 58.6394C32.6955 58.3655 34.674 57.848 34.674 57.848C34.674 57.848 33.8826 38.8849 33.3042 32.0362C32.7259 25.1876 32.665 21.8089 30.5648 21.2914C29.0124 20.9262 27.9775 20.287 27.3079 19.9521C27.2165 21.3523 27.0035 22.6612 26.5469 23.9091Z" fill="#39A457"/>
<path d="M22.1032 9.42069C17.5983 9.87726 17.5983 11.247 18.1158 16.0867C18.6332 20.9569 17.6592 21.3526 17.6592 21.3526C17.6592 21.3526 20.1247 23.879 23.2599 23.0571C26.395 22.2353 26.7298 19.8002 26.7298 19.8002C26.7298 19.8002 25.8167 18.887 25.8167 14.5952C25.8167 10.3034 23.2599 9.29893 22.1032 9.42069Z" fill="#F1B19D"/>
<g clip-path="url(#clip0_4372_500)">
<path d="M11.0979 20.0101C8.86638 19.9502 5.68267 27.1388 4.46275 30.164C3.24283 33.1892 0.832732 36.5738 0.297156 37.3526C-0.238421 38.1313 -0.149158 41.7855 2.08241 42.1749C4.31398 42.5643 6.15874 42.2348 6.93235 40.4976C7.70596 38.7603 8.92589 37.4125 11.4848 32.081C14.0436 26.7494 16.3942 20.1899 11.0979 20.0101Z" fill="#42EA71"/>
</g>
<path d="M17.2026 19.3438C17.2026 19.3438 16.8069 20.8961 19.2724 22.418C19.2724 22.418 18.1157 33.1628 17.5678 36.6937C16.9895 40.2245 13.9761 54.3784 13.4586 56.2656C12.9412 58.1528 12.9412 58.4267 12.9412 58.4267C12.9412 58.4267 9.56251 57.2701 7.40138 56.7222C5.24025 56.1743 5.05762 55.6264 5.05762 55.6264C5.05762 55.6264 6.42735 45.9774 7.27962 41.229C8.1319 36.4806 8.58848 28.9623 8.58848 26.8925C8.58848 24.8227 9.319 20.2265 10.4148 19.983C11.5106 19.7394 13.0629 20.4091 14.6457 20.0134C16.2285 19.6786 17.2026 19.3438 17.2026 19.3438Z" fill="#756FD5"/>
<path d="M17.2026 19.3438C17.2026 19.3438 16.8069 20.8961 19.2724 22.418C19.2724 22.418 18.1157 33.1628 17.5678 36.6937C16.9895 40.2245 13.9761 54.3784 13.4586 56.2656C12.9412 58.1528 12.9412 58.4267 12.9412 58.4267C12.9412 58.4267 9.56251 57.2701 7.40138 56.7222C5.24025 56.1743 5.05762 55.6264 5.05762 55.6264C5.05762 55.6264 6.42735 45.9774 7.27962 41.229C8.1319 36.4806 8.58848 28.9623 8.58848 26.8925C8.58848 24.8227 9.319 20.2265 10.4148 19.983C11.5106 19.7394 13.0629 20.4091 14.6457 20.0134C16.2285 19.6786 17.2026 19.3438 17.2026 19.3438Z" fill="url(#paint0_linear_4372_500)"/>
<path d="M19.2719 22.4477C19.2719 22.4477 17.7196 21.4432 17.2021 19.3734C17.2021 19.3734 16.6238 19.2212 15.5889 19.7387C14.554 20.2561 15.9237 25.5524 15.9237 25.5524C15.9237 25.5524 17.2021 23.026 17.537 22.5695C17.9022 22.0824 19.2719 22.4477 19.2719 22.4477Z" fill="#39A457"/>
<path d="M27.5509 18.917C27.5509 18.917 27.3378 22.8436 26.9421 23.4828C26.5464 24.122 26.0898 25.0656 26.0898 25.0656C26.0898 25.0656 27.2465 34.4102 27.764 39.4325C28.2814 44.4549 30.96 55.6866 31.2339 57.3608C31.5079 59.0044 31.5688 59.3697 31.5688 59.3697C31.5688 59.3697 36.4694 59.0349 37.8391 58.8522C39.2088 58.6696 40.0611 58.2739 40.0611 58.2739C40.0611 58.2739 38.4174 39.8891 38.4174 38.3672C38.4174 36.8148 36.7737 22.7827 36.0128 22.387C35.2823 21.9913 31.2644 21.0172 30.0164 20.6215C28.7989 20.2258 27.5509 18.917 27.5509 18.917Z" fill="#756FD5"/>
<path d="M27.5509 18.917C27.5509 18.917 27.3378 22.8436 26.9421 23.4828C26.5464 24.122 26.0898 25.0656 26.0898 25.0656C26.0898 25.0656 27.2465 34.4102 27.764 39.4325C28.2814 44.4549 30.96 55.6866 31.2339 57.3608C31.5079 59.0044 31.5688 59.3697 31.5688 59.3697C31.5688 59.3697 36.4694 59.0349 37.8391 58.8522C39.2088 58.6696 40.0611 58.2739 40.0611 58.2739C40.0611 58.2739 38.4174 39.8891 38.4174 38.3672C38.4174 36.8148 36.7737 22.7827 36.0128 22.387C35.2823 21.9913 31.2644 21.0172 30.0164 20.6215C28.7989 20.2258 27.5509 18.917 27.5509 18.917Z" fill="url(#paint1_linear_4372_500)"/>
<path d="M26.9429 23.4828C27.3386 22.8436 27.5517 18.917 27.5517 18.917C27.5517 18.917 28.7997 20.2258 30.0781 20.6215L30.4129 25.8874C30.4129 25.8874 27.9778 23.5436 27.7952 23.5132C27.5821 23.4828 26.1211 25.0656 26.1211 25.0656L26.9429 23.4828Z" fill="#39A457"/>
<path d="M27.855 12.0691C27.9158 15.6913 25.4503 19.7091 22.8022 19.7091C20.154 19.7091 17.1406 15.0216 17.1406 11.3994C17.1406 7.77727 18.4799 5.70745 22.9848 5.52482C26.8809 5.37263 27.7332 6.07271 27.855 12.0691Z" fill="#F1B19D"/>
<g filter="url(#filter0_d_4372_500)">
<path d="M26.3636 16.5429C26.0897 16.5429 25.7549 15.9037 25.5114 15.8428C25.3287 15.9341 25.1461 16.0559 24.9939 16.1776C24.6895 16.3298 24.5069 16.3907 24.1416 16.4516C23.685 16.5125 23.5024 16.482 23.0763 16.3907C21.9805 16.1168 21.9196 15.7819 21.2804 17.0604C21.0369 17.5169 20.2151 17.2734 19.7889 16.7255C19.3628 16.1776 18.9062 15.5384 18.6018 14.9601C18.2061 14.1687 17.8713 13.4686 17.293 12.9512C17.9931 16.1168 20.4586 19.7389 22.7415 19.7389C24.2329 19.7389 26.0897 18.217 26.8202 16.4212C26.7593 16.4212 26.4854 16.5429 26.3636 16.5429Z" fill="#F1B19D"/>
</g>
<path d="M17.6888 12.0685L18.2366 12.4338C18.2366 12.4338 18.2062 10.4249 18.2062 10.1509C18.2062 9.87697 18.6019 7.16795 18.054 6.71137C17.5061 6.25479 16.1973 6.31567 16.1973 7.6854C16.1973 9.05513 16.2581 10.9728 16.319 10.9728C16.3799 10.9728 17.6888 12.0685 17.6888 12.0685Z" fill="#343038"/>
<path d="M20.8545 13.2256C21.1284 13.256 21.3719 13.2865 21.6155 13.256C21.7372 13.256 21.8285 13.2256 21.9503 13.1952C22.072 13.1647 22.1633 13.1038 22.3155 13.043C22.2851 13.1952 22.1938 13.3169 22.072 13.4082C21.9503 13.4995 21.7981 13.5604 21.6459 13.5604C21.4937 13.5604 21.3415 13.5604 21.2198 13.4995C21.0676 13.4082 20.9458 13.3474 20.8545 13.2256Z" fill="#343038"/>
<path d="M25.2988 12.4649C25.5728 12.4953 25.8163 12.5257 26.0598 12.4953C26.1815 12.4953 26.2729 12.4649 26.3946 12.4344C26.5164 12.404 26.6077 12.3431 26.7599 12.2822C26.7294 12.4344 26.6381 12.5562 26.5164 12.6475C26.3946 12.7388 26.2424 12.7997 26.0902 12.7997C25.938 12.7997 25.7858 12.7997 25.6641 12.7388C25.4815 12.6779 25.3597 12.5866 25.2988 12.4649Z" fill="#343038"/>
<path d="M25.1161 14.5039C25.1161 14.5039 25.877 15.2344 25.5118 15.4475C25.1465 15.6606 24.903 15.6301 24.5682 15.8432C24.2334 16.0867 23.8985 15.9345 23.5941 15.7823C23.2898 15.6301 22.7114 15.8736 22.6201 15.7823" stroke="#AA7E74" stroke-miterlimit="10"/>
<path d="M21.9199 16.3906C21.9199 16.3906 22.8026 17.3342 24.9942 16.5428C24.9942 16.5428 23.1679 18.8561 21.9199 16.3906Z" fill="#F4F5FB"/>
<path d="M19.8496 12.1297C19.8496 12.1297 20.2757 11.5818 21.1889 11.3992C22.0716 11.247 23.2283 11.2774 23.2587 11.4601C23.2892 11.6427 23.6544 11.8862 22.1021 11.9167C20.5497 11.9471 19.8496 12.1297 19.8496 12.1297Z" fill="#343038"/>
<path d="M27.5201 11.0336C27.5201 11.0336 27.033 10.6379 26.3634 10.6988C25.6633 10.7596 24.8415 11.064 24.8719 11.2162C24.9024 11.3684 24.6893 11.7032 25.8459 11.3684C26.9417 11.0031 27.5201 11.0336 27.5201 11.0336Z" fill="#343038"/>
<path d="M17.6907 14.4396C18.3485 14.1398 18.4861 13.0287 17.9981 11.9579C17.5101 10.887 16.5813 10.2619 15.9235 10.5617C15.2657 10.8615 15.128 11.9726 15.616 13.0434C16.104 14.1143 17.0329 14.7393 17.6907 14.4396Z" fill="#F1B19D"/>
<path d="M16.1064 11.3994C16.1064 11.3994 16.7457 11.1559 17.4762 12.7996" stroke="#AA7E74" stroke-miterlimit="10"/>
<path opacity="0.36" d="M17.1041 13.423C17.3175 13.3757 17.4255 13.0446 17.3454 12.6835C17.2653 12.3225 17.0274 12.0681 16.8141 12.1155C16.6007 12.1628 16.4927 12.4939 16.5728 12.8549C16.6529 13.216 16.8908 13.4704 17.1041 13.423Z" fill="#EDEDFA"/>
<path d="M17.0729 13.3511C16.6772 14.9339 16.4337 16.5776 16.6163 18.1908C16.7076 18.9822 16.9207 19.8041 17.3468 20.4737C17.773 21.1738 18.2904 21.7826 18.9601 22.2391C19.6297 22.6957 20.3907 23.0001 21.1212 23.3654C21.4865 23.548 21.8517 23.7611 22.1865 24.035C22.5214 24.2785 22.7953 24.6133 23.0388 24.9482C23.4954 25.6483 23.8302 26.4092 24.0737 27.2006C24.3172 27.992 24.5303 28.7834 24.6521 29.6053H24.3477C24.4999 28.1442 24.6825 26.7136 24.8956 25.2526C24.9869 24.522 25.1086 23.7915 25.2304 23.0914C25.2913 22.7262 25.413 22.3609 25.5652 22.0261C25.7174 21.6913 25.9 21.3564 26.1131 21.0521C26.5088 20.4433 26.9654 19.865 27.2393 19.1953C27.5133 18.5257 27.6046 17.7951 27.6655 17.0951C27.8177 15.634 27.8177 14.173 27.7872 12.7119C27.8785 14.173 27.8785 15.634 27.7872 17.0951C27.7263 17.8256 27.6655 18.5561 27.3915 19.2562C27.1176 19.9563 26.6914 20.565 26.2957 21.1738C26.1131 21.4782 25.9305 21.7826 25.7783 22.1174C25.6565 22.4522 25.5348 22.787 25.4739 23.1523C25.3521 23.8524 25.2608 24.5829 25.1391 25.3134C24.9564 26.7745 24.7738 28.2051 24.6216 29.6661L24.4999 30.7619L24.3172 29.6661C24.1955 28.8747 24.0129 28.0833 23.7693 27.2919C23.5258 26.531 23.2215 25.77 22.7953 25.1004C22.3692 24.4307 21.6995 23.9741 20.969 23.6089C20.2385 23.2436 19.4775 22.9392 18.8079 22.4218C18.1078 21.9348 17.5903 21.2651 17.1642 20.565C16.7381 19.8345 16.525 19.0127 16.4641 18.1908C16.3728 17.369 16.4337 16.5472 16.525 15.7253C16.6377 14.9926 16.7288 14.1833 16.9867 13.3397C17.007 13.2731 17.0548 13.4075 17.0729 13.3511Z" fill="#EDEDFA"/>
<path d="M16.3802 8.17268C16.3802 8.17268 16.4411 8.81189 17.3543 8.56838C17.3543 8.56838 18.4501 9.0554 18.6022 8.02049C18.6022 8.02049 19.1806 8.56838 19.7893 7.95961C19.7893 7.95961 20.8243 8.5075 20.9156 7.19865C20.9156 7.19865 22.0418 7.68566 22.1331 6.80295C22.1331 6.80295 22.4071 7.62479 23.3506 6.95514C23.3506 6.95514 24.1116 7.53347 24.6291 6.77251C24.6291 6.77251 25.5118 7.16821 25.7553 6.46813C25.7553 6.46813 25.9684 7.22909 26.7598 7.22909C27.5512 7.22909 27.3381 6.40725 27.3381 6.40725C27.3381 6.40725 27.9164 5.85936 27.399 5.31146C27.399 5.31146 28.2208 5.06796 27.9164 4.33743C27.9164 4.33743 28.5252 3.5156 27.6425 3.33296C27.6425 3.33296 28.0686 2.45025 27.125 2.38937C27.125 2.38937 27.3076 1.41534 26.2423 1.47622C26.2423 1.47622 26.1205 0.563065 25.2074 0.928327C25.2074 0.928327 24.7204 0.0151732 24.0812 0.380435C24.0812 0.380435 23.3202 -0.410965 22.7114 0.289119C22.7114 0.289119 21.9809 -0.289211 21.4939 0.289119C21.4939 0.289119 21.1286 -0.350088 20.185 0.593504C20.185 0.593504 19.9415 -0.137019 18.9371 0.593504C18.9371 0.593504 17.8413 0.258681 17.5673 1.47622C17.5673 1.47622 16.7759 1.1414 16.2889 1.71973C15.8019 2.29806 15.9237 2.66332 15.9237 2.66332C15.9237 2.66332 15.3149 2.78507 15.1018 3.33296C14.8888 3.88086 15.4671 3.97217 15.4671 3.97217C15.4671 3.97217 14.5844 4.64182 15.4062 5.25059C15.4062 5.25059 14.8583 5.95067 15.4366 6.34637C15.4366 6.34637 14.9801 6.9247 15.7715 7.25953C15.8019 7.3204 15.5888 8.44663 16.3802 8.17268Z" fill="#343038"/>
<path d="M54.489 38.5507C54.8543 36.5723 53.2411 35.0808 49.6493 34.7155C46.849 34.4416 41.3092 34.5024 40.4265 33.8024C39.5438 33.1023 37.5348 31.0629 37.2304 31.002C36.9565 30.9411 36.1955 31.763 36.1955 31.763C36.1955 31.763 35.0084 30.4237 34.4605 30.5759C33.9126 30.7281 33.3952 31.276 33.3952 31.276C33.3952 31.276 31.7819 29.754 30.9905 29.054C30.1991 28.3539 30.0774 27.6538 29.4077 27.9886C28.7381 28.293 31.1427 30.7889 31.7211 31.5195C32.2994 32.25 32.7864 33.7719 33.3952 34.5633C33.9735 35.3243 34.3692 35.5373 34.3692 35.5373C34.3692 35.5373 32.4516 34.959 31.4167 34.6242C30.3818 34.3198 30.0774 35.0503 30.0774 35.2938C30.0774 35.5373 31.2036 36.1766 32.6342 36.3592C34.0648 36.5723 35.3737 37.6985 36.6217 37.942C37.8392 38.1855 38.8437 37.4854 39.3611 37.4245C39.8786 37.3637 41.3092 37.3637 42.405 37.8811C51.5669 42.2338 53.9107 41.7772 54.489 38.5507Z" fill="#F1B19D"/>
<path d="M35.1609 31.0327C35.0088 30.6066 33.8217 30.911 33.6695 31.0023C33.6695 31.0023 31.691 32.2503 31.5388 32.6764C31.3866 33.1026 30.9604 34.6549 31.0518 34.7158C31.1431 34.7767 32.1171 34.6549 32.3911 34.2288C32.665 33.7722 33.3955 32.4025 34.0652 32.159C34.7653 31.8546 35.3436 31.4589 35.1609 31.0327Z" fill="url(#paint2_linear_4372_500)"/>
<path d="M37.1393 31.0018C36.9871 30.9105 36.5001 31.367 35.8305 32.1584C35.1304 32.9498 35.0086 33.4064 35.4043 33.5282C35.8 33.6499 36.8654 33.0716 37.3219 32.6759C37.7785 32.2802 38.2351 31.9454 38.0525 31.6714C37.8698 31.4279 37.2002 31.0627 37.1393 31.0018Z" fill="url(#paint3_linear_4372_500)"/>
<path d="M34.7344 30.606C34.2169 30.3929 34.0343 30.606 33.1212 31.3974C32.1776 32.1888 32.1776 32.5541 33.182 32.4627C34.1865 32.341 35.5867 31.1843 35.5867 31.1843C35.5867 31.1843 34.8866 30.6669 34.7344 30.606Z" fill="url(#paint4_linear_4372_500)"/>
<path d="M8.52809 36.8155C8.52809 36.8155 6.30609 42.3248 8.98467 44.7295C11.6937 47.1341 12.1807 47.8038 12.1198 50.0866C12.0285 52.3695 14.4636 53.8915 16.229 53.6784C17.9945 53.4653 19.699 53.4653 20.5513 50.6041C21.4036 47.7429 21.0079 39.1592 22.895 36.8155C24.7822 34.4717 24.5996 30.2712 24.5692 29.6016" stroke="#EDEDFA" stroke-miterlimit="10"/>
<path d="M11.3284 37.1607L10.9023 37.3864L7.31057 35.8437L6.94531 26.8884L7.31057 26.625L11.3284 27.942V37.1607Z" fill="#E1E1E8"/>
<path opacity="0.9" d="M10.9936 37.4243L6.94531 36.1074V26.8887L10.9936 28.2056V37.4243Z" fill="white"/>
<path d="M1.31407 42.0202C-0.268725 41.0766 0.00522107 38.6416 1.46627 36.6935C2.92731 34.715 4.38836 30.8797 5.97116 31.732C7.55396 32.5843 7.64527 34.6846 6.64081 38.185C5.54502 41.7767 4.08397 43.6335 1.31407 42.0202Z" fill="url(#paint5_linear_4372_500)"/>
<path d="M5.57578 36.1456C5.14964 35.9935 4.78438 35.5673 4.99745 35.1107C4.99745 35.1107 4.11473 34.2889 4.7235 33.6497C4.7235 33.6497 4.11473 32.7974 4.47999 32.28C4.84525 31.7625 5.08876 31.7321 5.08876 31.4886C5.08876 31.2451 4.78438 30.8494 5.18008 30.4537C5.57578 30.058 6.85419 29.7536 7.52384 29.6014C8.19348 29.4492 10.5981 29.5405 10.6286 30.1188C10.659 30.6972 7.64559 30.7885 7.03682 31.0015C6.42805 31.2146 6.36718 31.2146 6.3063 31.3668C6.24542 31.4886 5.97148 32.0669 8.2848 32.28C10.5981 32.493 12.5157 32.5844 12.6984 32.8887C12.8506 33.1931 12.5766 33.8019 11.7548 33.8019C10.9329 33.8323 8.16305 33.8019 8.07173 33.8019C8.01085 33.8019 9.31971 33.9541 10.4764 34.015C11.633 34.0758 12.7288 33.8323 12.6984 34.3498C12.6679 34.8672 11.7852 35.1107 11.7852 35.1107C11.7852 35.1107 12.6984 35.7195 11.3895 36.1456C10.0198 36.5718 6.64112 36.5109 5.57578 36.1456Z" fill="#F1B19D"/>
<path d="M6.36719 34.959C6.36719 34.959 9.65454 35.5069 11.7852 35.1112L6.36719 34.959Z" fill="#F1B19D"/>
<defs>
<filter id="filter0_d_4372_500" x="13.293" y="12.9512" width="17.5273" height="16.7881" filterUnits="userSpaceOnUse" color-interpolation-filters="sRGB">
<feFlood flood-opacity="0" result="BackgroundImageFix"/>
<feColorMatrix in="SourceAlpha" type="matrix" values="0 0 0 0 0 0 0 0 0 0 0 0 0 0 0 0 0 0 127 0" result="hardAlpha"/>
<feOffset dy="6"/>
<feGaussianBlur stdDeviation="2"/>
<feComposite in2="hardAlpha" operator="out"/>
<feColorMatrix type="matrix" values="0 0 0 0 0 0 0 0 0 0 0 0 0 0 0 0 0 0 0.1 0"/>
<feBlend mode="normal" in2="BackgroundImageFix" result="effect1_dropShadow_4372_500"/>
<feBlend mode="normal" in="SourceGraphic" in2="effect1_dropShadow_4372_500" result="shape"/>
</filter>
<linearGradient id="paint0_linear_4372_500" x1="12.165" y1="19.3437" x2="12.165" y2="58.4267" gradientUnits="userSpaceOnUse">
<stop stop-color="#44EC73"/>
<stop offset="1" stop-color="#27D056"/>
</linearGradient>
<linearGradient id="paint1_linear_4372_500" x1="33.0755" y1="18.917" x2="33.0755" y2="59.3697" gradientUnits="userSpaceOnUse">
<stop stop-color="#44EC73"/>
<stop offset="1" stop-color="#27D056"/>
</linearGradient>
<linearGradient id="paint2_linear_4372_500" x1="34.1552" y1="31.7593" x2="30.3711" y2="35.3891" gradientUnits="userSpaceOnUse">
<stop stop-color="#F1B19D"/>
<stop offset="1" stop-color="#CC8169"/>
</linearGradient>
<linearGradient id="paint3_linear_4372_500" x1="37.3649" y1="31.608" x2="34.8974" y2="34.1532" gradientUnits="userSpaceOnUse">
<stop stop-color="#F1B19D"/>
<stop offset="1" stop-color="#CC8169"/>
</linearGradient>
<linearGradient id="paint4_linear_4372_500" x1="34.7946" y1="30.9995" x2="33.0434" y2="33.5735" gradientUnits="userSpaceOnUse">
<stop stop-color="#F1B19D"/>
<stop offset="1" stop-color="#CC8169"/>
</linearGradient>
<linearGradient id="paint5_linear_4372_500" x1="3.34934" y1="38.5925" x2="8.99665" y2="31.5982" gradientUnits="userSpaceOnUse">
<stop stop-color="#F1B19D"/>
<stop offset="1" stop-color="#D79079"/>
</linearGradient>
<clipPath id="clip0_4372_500">
<rect width="14.282" height="22.3445" fill="white" transform="translate(0 20.0098)"/>
</clipPath>
</defs>
</svg>
