<svg width="20" height="25" viewBox="0 0 20 25" fill="none" xmlns="http://www.w3.org/2000/svg">
<path d="M3.95453 18.0965C3.33976 18.1908 2.32777 18.3662 1.65454 17.5671C0.981318 16.7681 0.399133 14.8385 0.14326 13.114C-0.234322 10.5724 0.140385 8.43029 1.19742 7.08277C1.82033 6.2892 2.63779 5.8295 3.56162 5.75631C4.35272 5.69264 5.53482 6.01649 6.67619 7.92146C7.3911 9.11508 7.93495 10.7007 8.1683 12.2713C8.45005 14.1673 8.72461 16.1905 7.76389 16.9159C7.22195 17.3255 6.83287 17.4674 5.91336 17.6965C5.15724 17.8845 4.56978 18.0018 3.95453 18.0965Z" fill="url(#paint0_linear_4372_201)"/>
<path d="M2.86214 19.7281L8.07977 18.6021C8.5206 18.5069 8.87422 18.7605 9.03809 19.5205C9.57572 22.015 8.80522 24.9998 6.39215 24.9998C4.10701 24.9998 2.58422 22.2747 2.33554 20.8099C2.22198 20.1457 2.38393 19.8308 2.86214 19.7281Z" fill="url(#paint1_linear_4372_201)"/>
<path d="M14.019 12.885C13.0995 12.6569 12.7104 12.514 12.1685 12.1044C11.2077 11.379 11.4823 9.35576 11.764 7.45981C11.9974 5.8892 12.5412 4.30156 13.2562 3.10994C14.3966 1.20496 15.5787 0.881118 16.3707 0.944784C17.2936 1.01848 18.1115 1.47718 18.7345 2.27075C19.7925 3.61827 20.1672 5.76037 19.7886 8.30201C19.5323 10.0265 18.952 11.9495 18.2749 12.7551C17.5979 13.5608 16.5916 13.3788 15.9749 13.2845C15.3583 13.1903 14.7746 13.0725 14.019 12.885Z" fill="url(#paint2_linear_4372_201)"/>
<path d="M17.0721 14.9156L11.8544 13.7896C11.4136 13.6944 11.06 13.948 10.8961 14.708C10.3589 17.2025 11.1294 20.1873 13.5425 20.1873C15.8277 20.1873 17.3505 17.4622 17.5991 15.9974C17.7122 15.3332 17.5503 15.0183 17.0721 14.9156Z" fill="url(#paint3_linear_4372_201)"/>
<defs>
<linearGradient id="paint0_linear_4372_201" x1="4.21666" y1="5.74902" x2="4.21666" y2="18.1812" gradientUnits="userSpaceOnUse">
<stop stop-color="#DB6EC3"/>
<stop offset="1" stop-color="#D568BC"/>
</linearGradient>
<linearGradient id="paint1_linear_4372_201" x1="5.7509" y1="18.583" x2="5.7509" y2="24.9998" gradientUnits="userSpaceOnUse">
<stop stop-color="#DB6EC3"/>
<stop offset="1" stop-color="#D568BC"/>
</linearGradient>
<linearGradient id="paint2_linear_4372_201" x1="15.7157" y1="0.9375" x2="15.7157" y2="13.371" gradientUnits="userSpaceOnUse">
<stop stop-color="#DB6EC3"/>
<stop offset="1" stop-color="#D568BC"/>
</linearGradient>
<linearGradient id="paint3_linear_4372_201" x1="14.1835" y1="13.7705" x2="14.1835" y2="20.1873" gradientUnits="userSpaceOnUse">
<stop stop-color="#DB6EC3"/>
<stop offset="1" stop-color="#D568BC"/>
</linearGradient>
</defs>
</svg>
