<svg width="20" height="23" viewBox="0 0 20 23" fill="none" xmlns="http://www.w3.org/2000/svg">
<path d="M3.95454 16.4017C3.33977 16.4918 2.32777 16.6595 1.65455 15.8957C0.981319 15.1319 0.399134 13.2876 0.14326 11.6393C-0.234322 9.20991 0.140385 7.16244 1.19742 5.87444C1.82034 5.11592 2.63779 4.67653 3.56162 4.60657C4.35272 4.54572 5.53482 4.85526 6.67619 6.67609C7.39111 7.81698 7.93496 9.33258 8.16831 10.8338C8.45006 12.646 8.72462 14.5799 7.7639 15.2733C7.22196 15.6647 6.83288 15.8003 5.91336 16.0193C5.15724 16.199 4.56979 16.3111 3.95454 16.4017Z" fill="url(#paint0_linear_4257_477)"/>
<path d="M2.86165 17.9607L8.07928 16.8845C8.52011 16.7934 8.87373 17.0359 9.03761 17.7623C9.57523 20.1466 8.80474 22.9996 6.39166 22.9996C4.10652 22.9996 2.58374 20.3948 2.33505 18.9947C2.22149 18.3598 2.38345 18.0589 2.86165 17.9607Z" fill="url(#paint1_linear_4257_477)"/>
<path d="M14.0195 11.4197C13.1 11.2017 12.7109 11.0651 12.1689 10.6737C11.2082 9.9803 11.4828 8.04639 11.7645 6.23419C11.9979 4.73297 12.5417 3.21545 13.2566 2.07648C14.3971 0.255649 15.5792 -0.0538915 16.3712 0.00696249C17.2941 0.0773997 18.112 0.515836 18.7349 1.27435C19.7929 2.56235 20.1676 4.60982 19.7891 7.03919C19.5327 8.68751 18.9525 10.5256 18.2754 11.2956C17.5984 12.0656 16.5921 11.8917 15.9754 11.8016C15.3587 11.7115 14.7751 11.5989 14.0195 11.4197Z" fill="url(#paint2_linear_4257_477)"/>
<path d="M17.0725 13.3601L11.8549 12.2839C11.4141 12.1929 11.0605 12.4353 10.8966 13.1617C10.3594 15.5461 11.1299 18.399 13.543 18.399C15.8281 18.399 17.3509 15.7943 17.5996 14.3941C17.7127 13.7592 17.5507 13.4583 17.0725 13.3601Z" fill="url(#paint3_linear_4257_477)"/>
<defs>
<linearGradient id="paint0_linear_4257_477" x1="4.21666" y1="4.59961" x2="4.21666" y2="16.4827" gradientUnits="userSpaceOnUse">
<stop stop-color="#FCFAF8"/>
<stop offset="1" stop-color="#E9E8E8" stop-opacity="0.78"/>
</linearGradient>
<linearGradient id="paint1_linear_4257_477" x1="5.75041" y1="16.8662" x2="5.75041" y2="22.9996" gradientUnits="userSpaceOnUse">
<stop stop-color="#FCFAF8"/>
<stop offset="1" stop-color="#E9E8E8" stop-opacity="0.78"/>
</linearGradient>
<linearGradient id="paint2_linear_4257_477" x1="15.7162" y1="0" x2="15.7162" y2="11.8843" gradientUnits="userSpaceOnUse">
<stop stop-color="#FCFAF8"/>
<stop offset="1" stop-color="#E9E8E8" stop-opacity="0.78"/>
</linearGradient>
<linearGradient id="paint3_linear_4257_477" x1="14.184" y1="12.2656" x2="14.184" y2="18.399" gradientUnits="userSpaceOnUse">
<stop stop-color="#FCFAF8"/>
<stop offset="1" stop-color="#E9E8E8" stop-opacity="0.78"/>
</linearGradient>
</defs>
</svg>
