<svg width="24" height="24" viewBox="0 0 24 24" fill="none" xmlns="http://www.w3.org/2000/svg">
<g clip-path="url(#clip0_4323_325)">
<path d="M20.6177 17.7723C20.5006 17.8414 20.3773 17.8982 20.25 17.9432V23.9999C20.7479 23.8603 21.5121 23.5824 22.2202 23.0003C23.4012 22.0295 24 20.6054 24 18.7675V14.3477C23.7333 14.7834 23.43 15.2044 23.0907 15.6078C21.9669 16.9433 20.8335 17.6452 20.6177 17.7723Z" fill="#EBEBEB"/>
<path d="M16.7343 18.0642C16.7343 18.5031 16.6332 18.9187 16.4531 19.2892L18.8437 20.1217V17.9436L16.7343 17.209V18.0642Z" fill="#EBEBEB"/>
<path d="M11.1094 15.2498L0 11.3809V13.559L11.1094 17.4279V15.2498Z" fill="#EBEBEB"/>
<path d="M13.9219 20.8773C12.6878 20.8773 11.6376 20.078 11.2597 18.9702L0 15.0488V16.8929C0 17.1921 0.189328 17.4585 0.471844 17.5569L18.8438 23.9551V21.6114L15.4446 20.4276C15.0053 20.7116 14.4827 20.8773 13.9219 20.8773Z" fill="#EBEBEB"/>
<path d="M8.0625 5.85935C8.0625 7.5394 9.42933 8.90622 11.1094 8.90622C12.7894 8.90622 14.1562 7.5394 14.1562 5.85935C14.1562 4.40233 13.128 3.18161 11.7592 2.88297C11.5625 1.71968 10.8288 0.714395 9.74672 0.173317L9.54877 0.0743639C9.20161 -0.0992611 8.77917 0.0415045 8.60545 0.388801C8.43178 0.736098 8.57255 1.15849 8.91989 1.33211L9.11784 1.43107C9.72769 1.73604 10.16 2.27754 10.3282 2.91443C9.0255 3.26027 8.0625 4.44925 8.0625 5.85935Z" fill="#EBEBEB"/>
<path d="M24 9.39298C24 9.19882 23.9534 4.61107 19.9038 2.22471C19.7255 2.11962 19.3146 2.16682 19.3146 2.16682C19.3146 2.16682 17.0807 2.94588 14.9881 3.67427C15.3535 4.3203 15.5625 5.06604 15.5625 5.85973C15.5625 8.31518 13.5648 10.3129 11.1094 10.3129C8.89045 10.3129 7.04555 8.68146 6.71067 6.55516C3.83489 7.55618 1.38867 8.40809 0.47086 8.72932C0.188625 8.82809 -0.000234157 9.09452 2.17897e-07 9.39354C0.000234593 9.69251 0.189516 9.95866 0.471844 10.057L12.5156 14.2513V18.0648C12.5156 18.8415 13.1452 19.4711 13.9219 19.4711C14.6985 19.4711 15.3281 18.8415 15.3281 18.0648V15.2307L19.3156 16.6194C19.3908 16.6457 19.4689 16.6586 19.5468 16.6586C19.671 16.6586 19.7945 16.6256 19.9038 16.5612C20.0711 16.4627 24 14.0933 24 9.39298ZM16.5 9.86173C16.1117 9.86173 15.7969 9.54692 15.7969 9.1586C15.7969 8.77029 16.1117 8.45548 16.5 8.45548C16.8883 8.45548 17.2031 8.77029 17.2031 9.1586C17.2031 9.54692 16.8883 9.86173 16.5 9.86173ZM17.9062 13.143C17.5179 13.143 17.2031 12.8282 17.2031 12.4399C17.2031 12.0515 17.5179 11.7367 17.9062 11.7367C18.2946 11.7367 18.6094 12.0515 18.6094 12.4399C18.6094 12.8282 18.2946 13.143 17.9062 13.143ZM19.3125 7.04923C18.9242 7.04923 18.6094 6.73441 18.6094 6.3461C18.6094 5.95779 18.9242 5.64298 19.3125 5.64298C19.7008 5.64298 20.0156 5.95779 20.0156 6.3461C20.0156 6.73441 19.7008 7.04923 19.3125 7.04923ZM20.25 10.3305C19.8617 10.3305 19.5469 10.0157 19.5469 9.62735C19.5469 9.23904 19.8617 8.92423 20.25 8.92423C20.6383 8.92423 20.9531 9.23904 20.9531 9.62735C20.9531 10.0157 20.6383 10.3305 20.25 10.3305Z" fill="#EBEBEB"/>
</g>
<defs>
<clipPath id="clip0_4323_325">
<rect width="24" height="24" fill="white"/>
</clipPath>
</defs>
</svg>
