<svg width="37" height="37" viewBox="0 0 37 37" fill="none" xmlns="http://www.w3.org/2000/svg">
<path d="M29.6616 14.8047V16.6279C29.6616 19.6836 29.0763 22.6131 28.0241 25.1332C26.9712 27.6526 25.4514 29.7633 23.5827 31.1815C21.9586 32.414 20.1518 33.0578 18.3181 33.0578H14.8402C13.923 33.0578 13.0132 32.8965 12.1295 32.5817C11.2451 32.267 10.3876 31.7981 9.57554 31.1815C5.83804 28.3452 3.49658 22.7393 3.49658 16.628V14.8048H29.6616V14.8047Z" fill="#C0AB91"/>
<path d="M25.8577 28.6164C25.5581 28.6164 25.3101 28.3883 25.2992 28.0981C25.2881 27.8013 25.5293 27.5521 25.8379 27.5413C33.289 27.2828 35.1934 22.7131 35.6082 21.2342C35.6284 21.1623 35.6463 21.0987 35.6625 21.0443L35.7009 20.8615C36.0831 19.1466 34.9992 17.4759 33.2345 17.0518C32.4674 16.8673 31.1981 17.1671 30.5234 17.6173C30.026 17.9491 29.4037 18.5944 29.2635 19.7839C29.2288 20.0791 28.9519 20.2904 28.6449 20.2577C28.338 20.2243 28.1174 19.958 28.1521 19.6629C28.3394 18.0728 29.1982 17.1923 29.8857 16.7336C30.8316 16.1026 32.4188 15.7473 33.5056 16.0083C34.639 16.2807 35.6028 16.9559 36.2197 17.9095C36.835 18.8609 37.0396 19.9871 36.7959 21.0808L36.7543 21.2786C36.7511 21.2933 36.7474 21.3079 36.7431 21.3223C36.7269 21.3757 36.7089 21.4401 36.6881 21.5142C36.4835 22.2435 36.0044 23.9511 34.5333 25.4925C32.7154 27.3974 29.3775 28.4945 25.8781 28.6159C25.8714 28.6163 25.8645 28.6164 25.8577 28.6164Z" fill="#B39A7C"/>
<path d="M33.1276 33.0583C33.1276 33.211 33.0881 33.3615 33.0105 33.5092C32.0397 35.3755 25.1151 36.8223 16.7163 36.8223C7.65235 36.8223 0.304199 35.1375 0.304199 33.0583C0.304199 32.332 1.20204 31.653 2.75828 31.0773C5.65233 30.0076 10.8215 29.2949 16.7162 29.2949C25.7803 29.295 33.1276 30.9798 33.1276 33.0583Z" fill="#A78966"/>
<path d="M29.6614 14.8047V16.6279C29.6614 19.6836 29.076 22.6131 28.0239 25.1332C26.9709 27.6526 25.4512 29.7633 23.5825 31.1815C21.9584 32.414 20.1516 33.0578 18.3179 33.0578H17.3753C16.4581 33.0578 15.5483 32.8965 14.6647 32.5817C13.7803 32.267 12.9228 31.7981 12.1107 31.1815C8.37327 28.3452 6.03174 22.7393 6.03174 16.6279V14.8047H29.6614Z" fill="#D9CCBC"/>
<path d="M29.6615 14.8043C29.6615 15.2954 29.2917 15.7621 28.6235 16.1866C28.4363 16.3056 28.2261 16.4203 27.9942 16.5321C26.5236 17.2405 24.1777 17.7968 21.353 18.0966C20.2658 18.2119 19.1085 18.288 17.9034 18.3209C17.4679 18.3324 17.0265 18.3388 16.5791 18.3388C16.2473 18.3388 15.9184 18.3359 15.5925 18.3288C14.2652 18.3023 12.9931 18.2227 11.8059 18.0958C9.17589 17.8176 6.96112 17.3157 5.48165 16.6762C5.11997 16.5206 4.8031 16.3565 4.53388 16.1858C3.86573 15.7621 3.49658 15.2946 3.49658 14.8042C3.49658 13.8851 4.79481 13.0484 6.92307 12.4196C7.89694 12.1321 9.04531 11.8876 10.3212 11.699C11.8879 11.4689 13.65 11.3212 15.5224 11.281C15.8706 11.2731 16.2234 11.2695 16.579 11.2695C17.048 11.2695 17.5104 11.276 17.966 11.2896C19.7155 11.3391 21.362 11.4818 22.837 11.699C24.2993 11.9148 25.593 12.2031 26.6497 12.5472C28.5311 13.1603 29.6615 13.9468 29.6615 14.8043Z" fill="#EBE5DD"/>
<path d="M28.6234 16.1868C28.4362 16.3058 28.2259 16.4206 27.994 16.5324C26.5235 17.2407 24.1775 17.7971 21.3529 18.0968C20.3365 18.2051 19.2589 18.2782 18.1382 18.3141C17.0249 18.2775 15.9548 18.2037 14.9466 18.0961C12.3166 17.8179 10.1018 17.316 8.62233 16.6765C8.61866 16.675 8.61507 16.6734 8.61155 16.6719C8.17546 16.4836 8.18074 15.8865 8.61683 15.6982C9.04104 15.515 9.52582 15.343 10.0637 15.1838C11.0376 14.8963 12.186 14.6518 13.4619 14.4639C14.8832 14.2546 16.4655 14.1141 18.1456 14.0596C19.8279 14.1134 21.4125 14.2531 22.8368 14.4639C24.2991 14.679 25.5929 14.9679 26.6495 15.3121C27.4548 15.5745 28.1222 15.8685 28.6234 16.1868Z" fill="#6A563D"/>
<path d="M14.3645 3.27892C14.3645 2.98187 14.1141 2.74121 13.8053 2.74121C13.4964 2.74121 13.246 2.98187 13.246 3.27892C13.246 3.61433 13.146 3.75207 12.9803 3.98018C12.7831 4.25165 12.5132 4.62342 12.5132 5.29711C12.5132 5.97081 12.7832 6.34258 12.9803 6.61412C13.146 6.84223 13.246 6.97997 13.246 7.3153C13.246 7.65063 13.146 7.78837 12.9803 8.01642C12.7831 8.28788 12.5132 8.65966 12.5132 9.33328C12.5132 9.63026 12.7635 9.87099 13.0724 9.87099C13.3813 9.87099 13.6317 9.63033 13.6317 9.33328C13.6317 8.99795 13.7317 8.86021 13.8974 8.63216C14.0945 8.3607 14.3645 7.98892 14.3645 7.3153C14.3645 6.64161 14.0946 6.2699 13.8974 5.99844C13.7317 5.77026 13.6317 5.63251 13.6317 5.29711C13.6317 4.96171 13.7317 4.8239 13.8974 4.59579C14.0945 4.32432 14.3645 3.95262 14.3645 3.27892Z" fill="#EBE5DD"/>
<path d="M19.912 5.29711C19.912 4.96164 20.012 4.8239 20.1777 4.59579C20.3748 4.32432 20.6448 3.95262 20.6448 3.27892C20.6448 2.98187 20.3945 2.74121 20.0855 2.74121C19.7766 2.74121 19.5263 2.98187 19.5263 3.27892C19.5263 3.61433 19.4263 3.75207 19.2606 3.98018C19.0634 4.25165 18.7935 4.62342 18.7935 5.29711C18.7935 5.97081 19.0634 6.34258 19.2606 6.61405C19.4263 6.84223 19.5263 6.97997 19.5263 7.3153C19.5263 7.65063 19.4263 7.78837 19.2606 8.01642C19.0634 8.28788 18.7935 8.65966 18.7935 9.33328C18.7935 9.63033 19.0438 9.87099 19.3527 9.87099C19.6617 9.87099 19.912 9.63033 19.912 9.33328C19.912 8.99788 20.012 8.86021 20.1777 8.63216C20.3748 8.3607 20.6448 7.98892 20.6448 7.3153C20.6448 6.64161 20.3748 6.2699 20.1777 5.99844C20.012 5.77033 19.912 5.63259 19.912 5.29711Z" fill="#EBE5DD"/>
<path d="M17.5042 1.26721C17.5042 0.970152 17.2538 0.729492 16.9449 0.729492C16.636 0.729492 16.3856 0.970152 16.3856 1.26721C16.3856 1.79984 16.2526 2.0417 16.0842 2.34778C15.892 2.69707 15.6528 3.13179 15.6528 3.93117C15.6528 4.73055 15.892 5.16535 16.0842 5.51464C16.2526 5.82085 16.3856 6.06271 16.3856 6.59521C16.3856 7.12771 16.2526 7.36942 16.0842 7.67557C15.892 8.02479 15.6528 8.45951 15.6528 9.25889C15.6528 9.55595 15.9032 9.79661 16.2121 9.79661C16.521 9.79661 16.7714 9.55595 16.7714 9.25889C16.7714 8.7264 16.9044 8.48461 17.0728 8.17846C17.265 7.82924 17.5042 7.39452 17.5042 6.59521C17.5042 5.79583 17.265 5.36103 17.0728 5.01175C16.9044 4.70553 16.7714 4.46367 16.7714 3.93117C16.7714 3.39868 16.9044 3.15675 17.0728 2.85067C17.265 2.50138 17.5042 2.06673 17.5042 1.26721Z" fill="#EBE5DD"/>
</svg>
