<svg width="34" height="64" viewBox="0 0 34 64" fill="none" xmlns="http://www.w3.org/2000/svg">
<path d="M17.841 42.7321C17.841 42.9582 17.739 43.14 17.6104 43.14C17.4819 43.14 17.3799 42.9582 17.3799 42.7321C17.3799 42.506 17.4819 42.3242 17.6104 42.3242C17.7346 42.3242 17.841 42.506 17.841 42.7321Z" fill="#ED985F"/>
<path d="M13.4734 2.10225C13.3892 1.85397 12.4094 -0.806213 8.22844 0.244559C8.22844 0.244559 10.3344 -0.101265 10.9463 0.692356C10.9463 0.692356 9.2393 -0.0125926 8.21513 0.670188C7.19096 1.35297 7.09786 3.52102 7.27964 4.17276C7.46142 4.82451 8.69397 6.73984 9.46099 6.71324C9.75361 6.70437 10.0595 6.59353 10.33 6.46495C10.2236 6.81964 10.1349 7.20094 10.0595 7.6177C9.39005 11.4838 12.0502 14.3081 13.3404 13.5366C14.1695 13.0445 14.8656 14.4987 14.8656 14.4987L21.5382 4.92648C21.5382 4.92648 16.4262 -0.770745 13.4734 2.10225Z" fill="#2E552D"/>
<path d="M22.8242 39.2742C22.7887 40.3028 24.6154 43.6635 25.6662 46.5675C26.3401 48.443 27.0096 50.1765 27.3687 51.0987C27.5948 51.6751 27.7677 52.2648 27.8919 52.8677C28.2022 54.4018 28.7121 57.6162 28.8806 62.8345C28.8806 62.9055 28.885 62.9764 28.885 63.0429L19.4458 63.0385L19.4103 62.8301L19.2019 61.6951V61.6907L19.4014 56.7605L18.8073 55.8427L17.1004 56.4856L16.3467 62.8301L16.3245 63.0341L6.86755 63.0296C6.86755 62.9631 6.86755 62.8922 6.86755 62.8257C6.86312 61.1719 6.86312 59.762 6.86312 58.5605C6.85868 54.4594 7.59467 50.3938 9.04003 46.5542C10.1396 43.6369 11.7623 40.5821 11.4209 39.1501C11.3411 38.8175 10.1972 35.9091 9.65631 33.1513C9.59867 32.8632 9.54546 32.575 9.48783 32.2868C9.47453 32.3444 9.46123 32.3976 9.44793 32.4553C8.5745 36.1086 7.43062 40.8481 7.21781 41.6329C6.85868 42.9364 3.56006 52.9697 3.56006 52.9697H1.95508C1.95508 52.9697 2.95708 43.1359 3.86154 40.6265C4.766 38.117 5.20937 28.7443 6.06949 24.6698C6.51729 22.555 7.22224 21.6283 8.37942 21.0209C8.97353 20.7106 9.68291 20.48 10.543 20.2184C11.0839 20.0544 11.6825 19.8726 12.3475 19.6509C13.3052 19.3273 14.1964 18.8351 14.4668 17.8597C14.7062 16.9907 14.8747 15.8469 14.8836 14.4724C14.8836 14.1931 14.8791 13.9094 14.8703 13.6123L15.154 13.6566L15.4245 13.701L19.9202 14.4192C19.9202 14.4192 19.9202 14.4724 19.9157 14.5744C19.9157 14.5877 19.9157 14.6054 19.9157 14.6232V14.632C19.9157 14.6498 19.9157 14.6631 19.9157 14.6808C19.9157 14.7118 19.9157 14.7473 19.9113 14.7828C19.9113 14.8094 19.9113 14.836 19.9113 14.8626C19.9113 14.9513 19.9069 15.0532 19.9069 15.1641C19.9069 15.1907 19.9069 15.2217 19.9069 15.2528C19.9069 15.2661 19.9069 15.2838 19.9069 15.2971C19.9069 15.3414 19.9069 15.3858 19.9069 15.4345V15.4434C19.9069 15.5276 19.9069 15.6207 19.9024 15.7094C19.9024 15.9045 19.9024 16.1084 19.9024 16.3257C19.9024 16.4188 19.9024 16.5119 19.9069 16.605C19.9069 16.6272 19.9069 16.6493 19.9069 16.6715C19.9069 16.7646 19.9113 16.8577 19.9113 16.9464C19.9157 17.0705 19.9157 17.1947 19.9202 17.3188C19.9468 18.1213 19.8315 18.7154 20.0488 19.1278C20.2882 19.5755 21.5518 19.8948 22.9351 20.48C23.6444 20.7771 24.3849 21.1451 25.0366 21.6328C25.8568 22.2446 26.5396 23.0515 26.8411 24.1511C27.9451 28.1635 28.6722 38.1259 29.5766 40.6353C30.4811 43.1448 31.4831 52.9786 31.4831 52.9786H29.8781C29.8781 52.9786 26.5795 42.9453 26.2204 41.6418C26.1095 41.2383 25.7548 39.7885 25.3159 37.9796C24.9169 36.3258 24.4469 34.375 24.0302 32.6459C23.9903 32.4819 23.9504 32.3178 23.9149 32.1582C23.8927 32.6104 23.875 33.0671 23.8528 33.5105C23.7154 36.2327 22.8464 38.5515 22.8242 39.2742Z" fill="#FFB27D"/>
<path d="M19.9073 14.4325C19.9073 14.4325 19.8541 15.9266 19.9029 17.3277C17.2516 17.3543 15.7619 14.9911 15.1367 13.6699L19.9073 14.4325Z" fill="#ED985F"/>
<path d="M20.8428 15.7265C20.8428 15.7265 14.5825 16.0634 14.4317 12.1618C14.281 8.26023 13.3721 5.67542 17.3624 5.29413C21.3526 4.91284 22.1906 6.37151 22.5542 7.66169C22.9222 8.95188 22.4655 15.5403 20.8428 15.7265Z" fill="#FFB27D"/>
<path d="M22.288 5.49846C21.2771 4.35901 20.5544 4.6472 20.1554 5.01519C16.6617 3.25947 14.5557 6.12803 14.5557 6.12803C14.2409 8.94339 12.2812 10.6237 12.2812 10.6237C12.2812 10.6237 13.4517 11.2844 16.0587 10.5085C16.8568 10.2735 17.5529 9.67494 18.1381 8.95669C17.1405 10.7834 15.7395 12.1223 15.7395 12.1223C18.8297 10.5484 19.9293 6.12803 20.0357 5.6625C20.4303 5.99059 21.215 6.70884 21.4722 7.43152C21.8224 8.41579 22.0397 10.4553 22.6338 10.3622C22.6294 10.3666 23.8043 7.20541 22.288 5.49846Z" fill="#2E552D"/>
<path d="M1.97704 52.6592C1.97704 52.6592 0.602616 54.8893 0.549412 55.5455C0.496209 56.2017 0.686857 58.4406 0.686857 58.4406C0.686857 58.4406 1.19672 58.2988 1.30313 57.248C1.40954 56.1972 3.02338 55.5632 3.34704 54.8716C3.67069 54.1799 3.54655 52.7479 3.54655 52.7479L1.97704 52.6592Z" fill="#FFB27D"/>
<path d="M3.57382 52.9033C3.57382 52.9033 4.01718 54.6945 3.82654 55.2975C3.63589 55.9005 3.42751 56.8537 3.12602 56.7562C2.82454 56.6586 2.56738 54.8497 2.56738 54.8497L3.57382 52.9033Z" fill="#FFB27D"/>
<path d="M0.886728 55.5986C0.868993 55.6917 0 58.1879 0 58.1879C0 58.1879 0.718249 58.1923 0.767019 57.8465C0.815789 57.4962 0.886728 55.5986 0.886728 55.5986Z" fill="#FFB27D"/>
<path d="M31.4302 52.9033C31.4302 52.9033 32.8046 55.1334 32.8578 55.7896C32.911 56.4458 32.7203 58.6848 32.7203 58.6848C32.7203 58.6848 32.2105 58.5429 32.1041 57.4921C31.9977 56.4414 30.3838 55.8074 30.0602 55.1157C29.7365 54.4241 29.8429 52.9033 29.8429 52.9033H31.4302Z" fill="#FFB27D"/>
<path d="M29.8296 53.1465C29.8296 53.1465 29.3863 54.9377 29.5769 55.5406C29.7676 56.1436 29.9759 57.0969 30.2774 56.9993C30.5789 56.9018 30.8361 55.0929 30.8361 55.0929L29.8296 53.1465Z" fill="#FFB27D"/>
<path d="M32.5166 55.8379C32.5343 55.931 33.4033 58.4271 33.4033 58.4271C33.4033 58.4271 32.6851 58.4316 32.6363 58.0857C32.5875 57.7399 32.5166 55.8379 32.5166 55.8379Z" fill="#FFB27D"/>
<path d="M9.03173 46.5674C9.03173 46.5674 15.5093 48.5581 25.6667 46.5674C25.6667 46.5674 28.553 50.7971 29.7457 62.8388H19.3887L18.4266 57.0308L17.2473 57.0485L16.5556 62.8388H5.93262C5.93262 62.8388 6.23411 52.0119 9.03173 46.5674Z" fill="#3F9456"/>
<path d="M24.1282 26.9479C24.2435 28.1982 24.6425 29.3864 24.0218 32.6495C23.9686 32.9244 23.911 33.2126 23.8445 33.5141C23.8445 33.5141 17.633 35.5358 9.76326 33.5141C9.76326 33.5141 9.71892 33.3855 9.64798 33.1594C9.59035 32.9821 9.51941 32.7426 9.4396 32.4633C9.11594 31.3416 8.68588 29.577 8.79672 28.4598C8.9652 26.7218 10.1357 23.2724 8.37109 21.0378C8.9652 20.7275 9.67459 20.4969 10.5347 20.2354C10.5347 20.2354 12.0998 25.0414 14.2412 25.2941C16.3782 25.5468 18.2625 25.4005 18.2625 25.4005C18.2625 25.4005 20.7897 25.4848 21.7429 23.7468C22.4523 22.4566 22.8913 20.6521 22.9267 20.4881C23.6361 20.7851 24.3765 21.1531 25.0283 21.6408C24.7534 22.2926 23.9287 24.8463 24.1282 26.9479Z" fill="#8ED042"/>
<path d="M10.2427 35.9846C9.89715 34.9727 9.81076 33.7941 9.81076 33.3313L23.7559 32.8994C23.941 33.1771 23.8731 33.7571 24.0953 34.4729C24.3729 35.3676 23.4165 38.9156 23.3548 40.0879C23.3055 41.0259 24.8769 44.6746 25.6687 46.3818C23.8485 46.824 21.2098 47.6885 17.8284 47.8119C14.447 47.9353 9.96502 47.0502 9.07031 46.5669C9.71821 44.6232 11.051 40.5507 11.1991 39.8103C11.3842 38.8847 10.6746 37.2496 10.2427 35.9846Z" fill="#8ED042"/>
<path d="M9.14647 46.266C9.14647 46.266 8.21097 48.1459 8.32625 48.1814C8.43709 48.2168 20.123 50.76 26.2236 47.6564L25.4312 45.9424C25.4268 45.9424 19.131 48.6912 9.14647 46.266Z" fill="#F99746"/>
</svg>
