<svg width="18" height="25" viewBox="0 0 18 25" fill="none" xmlns="http://www.w3.org/2000/svg">
<path d="M10.7135 4.81767C12.0439 4.81767 13.1224 3.7392 13.1224 2.40884C13.1224 1.07847 12.0439 0 10.7135 0C9.38316 0 8.30469 1.07847 8.30469 2.40884C8.30469 3.7392 9.38316 4.81767 10.7135 4.81767Z" fill="#72B852"/>
<path d="M11.8912 12.3697C12.1863 12.8129 12.6271 13.1489 13.133 13.3176L16.3548 14.3919L17.1172 12.1083L13.8954 11.034L11.8924 8.02895C11.6594 7.68105 11.3403 7.39933 10.9662 7.21115L9.23909 6.34759C8.72527 6.09071 8.13625 6.02702 7.5794 6.16813L3.7337 7.12805C3.39615 7.21215 3.0808 7.36829 2.80928 7.58575C2.53777 7.80321 2.31652 8.07684 2.16073 8.38787L0 12.7105L2.1547 13.7885L4.31543 9.46582L6.99285 8.79617L4.82008 18.8482L0.395049 21.8918L1.75965 23.8767L6.18589 20.8319C6.69295 20.4826 7.04464 19.9587 7.17351 19.3565L7.7962 16.4804L10.8277 18.7543L11.9418 24.3247L14.3037 23.8514L13.1896 18.2786C13.0726 17.698 12.7459 17.1809 12.2718 16.826L9.65702 14.8652L10.4363 10.1861L11.8912 12.3697Z" fill="#72B852"/>
</svg>
