<svg width="24" height="32" viewBox="0 0 24 32" fill="none" xmlns="http://www.w3.org/2000/svg">
<path d="M22.5934 0.0380859C22.893 0.0380859 23.1291 0.293356 23.1057 0.592024L22.8272 4.15346L21.9746 15.0563L20.69 31.4886C20.6691 31.7561 20.4459 31.9625 20.1777 31.9625H3.82156C3.55325 31.9625 3.33016 31.7561 3.30927 31.4886L1.33601 6.24775L0.894177 0.591961C0.870795 0.293294 1.10686 0.0380859 1.40646 0.0380859H22.5934Z" fill="#CAEDFF"/>
<path d="M22.594 0.0380859C22.8936 0.0380859 23.1296 0.293294 23.1062 0.591961L22.8282 4.15315L21.9755 15.0561L20.6908 31.4881C20.6699 31.7556 20.4467 31.962 20.1785 31.962H19.4688L20.7898 15.0561L21.6425 4.15315L21.9646 0.0380859H22.594Z" fill="#76C2E0"/>
<path d="M20.0007 6.55205C20.3402 6.46937 20.6621 6.74116 20.636 7.08965L20.2787 11.8699L19.8602 17.4721L18.9813 29.2371C18.9612 29.5053 18.7378 29.7127 18.4688 29.7127H5.56484C5.29592 29.7127 5.07245 29.5053 5.05237 29.237L3.50828 8.56341C3.49044 8.32441 3.63972 8.10381 3.86905 8.0341C5.57469 7.51589 8.20235 7.06097 10.6244 8.05143C13.6808 9.30116 16.2743 7.58647 19.4645 6.69284C19.6411 6.64327 19.8198 6.59607 20.0007 6.55205Z" fill="#50B8FF"/>
<path d="M19.9976 6.55215C20.3381 6.46934 20.6611 6.73964 20.635 7.089L20.278 11.8691L19.8588 17.4714L18.9802 29.2369C18.9602 29.5051 18.7367 29.7125 18.4677 29.7125H17.8506L18.7648 17.4714L19.1839 11.8691L19.573 6.66207C19.7131 6.62373 19.8547 6.58694 19.9976 6.55215Z" fill="#2195F2"/>
<path d="M17.7317 10.9699C17.4656 10.9699 17.25 10.7542 17.25 10.4882V10.3733C17.25 10.1073 17.4657 9.8916 17.7317 9.8916C17.9978 9.8916 18.2135 10.1073 18.2135 10.3733V10.4882C18.2135 10.7542 17.9979 10.9699 17.7317 10.9699Z" fill="#CAEDFF"/>
<path d="M15.5013 13.0695C15.2351 13.0695 15.0195 12.8539 15.0195 12.5878V12.4729C15.0195 12.2069 15.2352 11.9912 15.5013 11.9912C15.7673 11.9912 15.983 12.2069 15.983 12.4729V12.5878C15.983 12.8539 15.7673 13.0695 15.5013 13.0695Z" fill="#CAEDFF"/>
<path d="M17.7317 18.2355C17.4656 18.2355 17.25 18.0199 17.25 17.7538V17.639C17.25 17.3729 17.4657 17.1572 17.7317 17.1572C17.9978 17.1572 18.2135 17.3729 18.2135 17.639V17.7538C18.2135 18.0199 17.9979 18.2355 17.7317 18.2355Z" fill="#CAEDFF"/>
<path d="M9.5208 16.3977C9.25474 16.3977 9.03906 16.182 9.03906 15.9159V15.8011C9.03906 15.535 9.25474 15.3193 9.5208 15.3193C9.78685 15.3193 10.0025 15.535 10.0025 15.8011V15.9159C10.0025 16.182 9.78685 16.3977 9.5208 16.3977Z" fill="#CAEDFF"/>
<path d="M6.66337 12.2297C6.39732 12.2297 6.18164 12.014 6.18164 11.748V11.6331C6.18164 11.367 6.39732 11.1514 6.66337 11.1514C6.92943 11.1514 7.14511 11.367 7.14511 11.6331V11.748C7.14511 12.014 6.92943 12.2297 6.66337 12.2297Z" fill="#CAEDFF"/>
<path d="M10.3636 10.9133C10.0975 10.9133 9.88184 10.6976 9.88184 10.4315V10.3167C9.88184 10.0506 10.0975 9.83496 10.3636 9.83496C10.6296 9.83496 10.8453 10.0506 10.8453 10.3167V10.4315C10.8454 10.6976 10.6296 10.9133 10.3636 10.9133Z" fill="#CAEDFF"/>
</svg>
