<svg width="19" height="25" viewBox="0 0 19 25" fill="none" xmlns="http://www.w3.org/2000/svg">
<path d="M0 10.0643C0 9.48391 0.288459 8.71953 0.865377 7.77114C1.44229 6.82275 1.99428 6.03714 2.52134 5.41432C2.66379 5.24446 2.84185 5.03567 3.05553 4.78796C3.2692 4.54024 3.39028 4.40223 3.41877 4.37392L4.2521 5.35062C4.87887 6.04422 5.45579 6.85106 5.98285 7.77114C6.50991 8.69122 6.77344 9.4556 6.77344 10.0643C6.77344 10.9985 6.44937 11.7983 5.80123 12.4636C5.15309 13.1288 4.35893 13.4615 3.41877 13.4615C2.47861 13.4615 1.67377 13.1288 1.00426 12.4636C0.334755 11.7983 0 10.9985 0 10.0643ZM7.11532 19.4703C7.11532 18.8192 7.3005 18.0583 7.67087 17.1878C8.04124 16.3173 8.49707 15.514 9.03838 14.7779C10.0783 13.3907 11.0754 12.2371 12.0298 11.317C12.1295 11.2462 12.3289 11.0622 12.6281 10.7649L13.205 11.317C14.0882 12.1521 15.0925 13.2987 16.2178 14.7567C16.8018 15.5352 17.2755 16.3491 17.6387 17.1984C18.002 18.0477 18.1836 18.805 18.1836 19.4703C18.1836 21.0274 17.6494 22.3332 16.581 23.3877C15.5127 24.4423 14.195 24.9696 12.6281 24.9696C11.0896 24.9696 9.78623 24.4317 8.71787 23.3559C7.6495 22.2801 7.11532 20.9849 7.11532 19.4703ZM10.5768 3.84311C10.5768 2.8664 11.3389 1.58537 12.8631 0L13.44 0.636979C13.8674 1.13241 14.252 1.68799 14.5939 2.30374C14.9358 2.91949 15.1067 3.43261 15.1067 3.84311C15.1067 4.46593 14.8895 4.98613 14.455 5.4037C14.0205 5.82128 13.4899 6.03007 12.8631 6.03007C12.2079 6.03007 11.663 5.82128 11.2285 5.4037C10.7941 4.98613 10.5768 4.46593 10.5768 3.84311Z" fill="url(#paint0_linear_4257_491)"/>
<defs>
<linearGradient id="paint0_linear_4257_491" x1="9.0918" y1="1.61373" x2="9.0918" y2="26.5833" gradientUnits="userSpaceOnUse">
<stop stop-color="#3AF5EA"/>
<stop offset="1" stop-color="#379ECA" stop-opacity="0.78"/>
</linearGradient>
</defs>
</svg>
