<svg width="26" height="26" viewBox="0 0 84 70" fill="none" xmlns="http://www.w3.org/2000/svg">
<path d="M70.146 27.6318H28.39C28.3573 27.7761 28.3257 27.9201 28.2913 28.0649C29.9835 28.4862 31.5599 29.2597 32.8841 30.3327C32.9092 30.3531 32.9325 30.3749 32.9574 30.3952C33.2276 30.6182 33.4885 30.8521 33.736 31.0997L35.6297 32.9934C35.6835 33.0472 35.7345 33.1038 35.7872 33.1582C37.2835 34.7181 38.3142 36.7066 38.7681 38.8859C38.8078 38.9282 38.8485 38.97 38.8875 39.0128C41.5922 38.3432 44.2352 37.9942 46.6919 37.9942C49.5136 37.9942 52.0095 38.4495 54.1102 39.3475C56.8744 40.5289 58.9016 42.4624 59.9729 44.9396C60.983 47.2755 61.0581 49.9177 60.1906 52.5815C59.5246 54.6259 58.3136 56.6666 56.5912 58.6474C54.764 60.7491 52.3934 62.7314 49.6638 64.4741C48.0823 65.4839 46.3819 66.4141 44.5923 67.2373C44.3096 67.3675 44.0244 67.4946 43.7375 67.6194C43.4302 68.1905 43.0682 68.7337 42.6473 69.2366C42.4221 69.5054 42.1829 69.7597 41.9318 70.0005H62.7778C64.095 70.0005 65.2291 69.0708 65.4874 67.7793L67.9905 55.2638H70.1463C77.7644 55.2638 83.9623 49.0659 83.9623 41.4478C83.962 33.8296 77.7644 27.6318 70.146 27.6318ZM70.146 49.7373H69.0954L72.3514 33.4585C75.855 34.4269 78.4355 37.6405 78.4355 41.4478C78.4355 46.0187 74.7171 49.7373 70.146 49.7373Z" fill="#72B852"/>
<path d="M42.6257 11.862C41.2708 10.5073 40.6719 9.8428 40.6721 8.28999C40.6721 6.73637 41.2712 6.07222 42.626 4.71767C43.7056 3.63879 43.7061 1.88904 42.6272 0.809835C41.5483 -0.269699 39.7987 -0.269863 38.7195 0.808851C37.2111 2.31623 35.1459 4.38068 35.1459 8.2895C35.1457 12.1972 37.2105 14.2621 38.7184 15.7697C40.0732 17.1244 40.6723 17.789 40.6723 19.3423C40.6723 20.8685 41.9094 22.1055 43.4355 22.1055C44.9615 22.1055 46.1987 20.8685 46.1987 19.3423C46.1985 15.4345 44.1334 13.3695 42.6257 11.862Z" fill="#72B852"/>
<path d="M57.3626 11.862C56.0079 10.5073 55.4088 9.8428 55.409 8.28999C55.409 6.73637 56.008 6.07222 57.3631 4.71767C58.4424 3.63879 58.4429 1.88904 57.364 0.809835C56.2852 -0.269699 54.5356 -0.269863 53.4564 0.808851C51.948 2.31623 49.8826 4.38068 49.8826 8.2895C49.8824 12.1972 51.9472 14.2621 53.4551 15.7697C54.8099 17.1244 55.409 17.789 55.409 19.3423C55.409 20.8685 56.6461 22.1055 58.1722 22.1055C59.6982 22.1055 60.9354 20.8685 60.9354 19.3423C60.9354 15.4345 58.8704 13.3695 57.3626 11.862Z" fill="#72B852"/>
<path d="M54.9003 47.1327C53.8649 44.7386 50.7724 43.5205 46.6916 43.5205C45.1429 43.5205 43.4513 43.6968 41.6761 44.0499C41.7583 44.3565 41.8314 44.6656 41.8872 44.9779L44.7501 60.9723C52.1807 56.8746 56.6019 51.0677 54.9003 47.1327Z" fill="#72B852"/>
<path d="M39.315 61.9699L36.8665 48.29L36.8306 48.3405L34.5628 51.5178L32.295 54.6951L31.0692 56.4124L23.6441 66.815C23.541 66.9594 23.4336 67.0988 23.3248 67.2366H32.1435H34.9067C35.0585 67.2366 35.2073 67.2289 35.3539 67.2166C36.5085 67.1192 37.4911 66.6459 38.1982 65.9202C38.5975 65.5108 38.9103 65.0216 39.1156 64.4737C39.2399 64.1416 39.3237 63.7871 39.3655 63.4174C39.418 62.9568 39.4049 62.4716 39.315 61.9699Z" fill="#72B852"/>
<path d="M20.1048 12.3372C19.5371 12.0917 18.9297 11.9736 18.2951 11.9736C14.5291 11.9736 9.77292 16.1293 6.26636 22.4872L22.258 25.3492C22.5704 25.4051 22.8802 25.4761 23.1868 25.5584C24.4692 19.106 23.4067 13.765 20.1048 12.3372Z" fill="#72B852"/>
<path d="M5.26697 27.9222C4.95638 27.8666 4.65169 27.8398 4.35602 27.8398C4.17547 27.8398 3.99852 27.8512 3.82437 27.8703C2.84273 27.9809 1.97671 28.3954 1.31797 29.0368C0.591833 29.7437 0.117416 30.7259 0.0195146 31.8803C0.00705149 32.0278 0 32.1773 0 32.3303V43.0222L11.5539 34.7757L14.7306 32.5084L17.9073 30.2411L17.9711 30.1957L5.26697 27.9222Z" fill="#72B852"/>
<path d="M33.0143 38.8816C32.5627 37.7627 31.7357 36.9252 30.9064 36.0791C30.029 35.1839 29.1337 34.2616 27.9603 33.7617C27.5274 33.5771 27.073 33.4392 26.6079 33.35C25.0241 33.0459 23.042 33.3664 21.6888 34.3326L19.2514 36.0722L3.12367 47.5832C2.56643 47.9808 2.12629 48.4546 1.80323 48.973C1.28913 49.7965 1.07398 50.7335 1.16794 51.6625C1.26781 52.6501 1.71665 53.6281 2.52724 54.45C2.53593 54.4587 2.54364 54.4677 2.55233 54.4764L12.2535 64.1773C12.3221 64.2458 12.3921 64.3109 12.4625 64.3742C13.3044 65.1304 14.2913 65.5285 15.2775 65.5786C15.3488 65.5822 15.4198 65.584 15.4912 65.584C15.5768 65.584 15.6625 65.5812 15.7481 65.5763C15.8531 65.5699 15.9579 65.5594 16.062 65.5449C16.7914 65.4447 17.4989 65.1517 18.123 64.6717C18.4982 64.3832 18.8441 64.028 19.146 63.6051L28.8157 50.0576L31.0003 46.9967C31.8888 45.7521 32.9195 44.5669 33.2958 43.051C33.635 41.683 33.5426 40.1901 33.0143 38.8816Z" fill="#72B852"/>
</svg>
