<svg width="26" height="26" viewBox="0 0 65 70" fill="none" xmlns="http://www.w3.org/2000/svg">
<path d="M63.3423 17.7734H61.408H48.8618V12.3941C48.8618 10.9285 49.6676 9.60188 50.9645 8.93192L62.165 3.14956C62.9795 2.72925 63.3008 1.72463 62.8827 0.905679C62.4642 0.0867221 61.465 -0.236261 60.6502 0.184717L49.4494 5.96708C47.0415 7.21001 45.5453 9.67288 45.5453 12.3937V17.7731H32.9991H31.0648C30.1492 17.7731 29.4067 18.5191 29.4067 19.4397V21.8882C29.4067 22.8088 30.1492 23.5548 31.0648 23.5548H31.5668L32.7255 44.4277C32.0669 44.3127 31.3911 44.2494 30.7003 44.2494H11.809C5.29751 44.2494 0 49.5741 0 56.1187C0 57.4533 0.877446 58.5859 2.08253 58.9643C2.02284 59.2412 1.98967 59.5282 1.98967 59.8232C1.98967 60.1259 2.02549 60.4198 2.08816 60.7035C0.877114 61.1071 0 62.2544 0 63.6057V66.9415C0 68.6277 1.36492 70 3.04287 70H35.7137H39.4668H58.6934C59.5732 70 60.2997 69.3094 60.3488 68.4261L62.8399 23.5545H63.3419C64.2575 23.5545 65 22.8085 65 21.8879V19.4394C65.0003 18.5194 64.2579 17.7734 63.3423 17.7734ZM11.809 47.5825H30.701C35.2666 47.5825 39.0023 51.222 39.1866 55.7661H36.4837H6.02639H3.32342C3.50813 51.222 7.24374 47.5825 11.809 47.5825ZM3.31612 63.8807H6.02639H36.4837H39.1939V66.6672H3.31612V63.8807Z" fill="#72B852"/>
</svg>
