<svg width="26" height="26" viewBox="0 0 54 71" fill="none" xmlns="http://www.w3.org/2000/svg">
<path d="M36.5471 41.4487C35.9894 40.7976 35.1777 40.2461 34.3252 40.2461H18.9516C18.0991 40.2461 17.2874 40.7976 16.7282 41.4487C16.1704 42.1014 15.9195 43.0558 16.0389 43.9107L18.61 62.1676C18.8171 63.6353 20.0565 64.7598 21.5181 64.7598H31.7556C33.2172 64.7598 34.4597 63.6797 34.6638 62.2105L37.2348 43.9061C37.3543 43.0512 37.1018 42.0998 36.5471 41.4487Z" fill="#72B852"/>
<path d="M13.3243 47.2446C12.3902 46.8294 11.3094 46.9306 10.469 47.5173L3.5856 52.3294C2.24791 53.2624 1.91387 55.1176 2.83438 56.4704L8.77613 65.2044C9.63467 66.4668 11.3019 66.862 12.626 66.1144L15.197 64.6621C16.2521 64.0646 16.8416 62.8727 16.6768 61.6578L15.0474 49.5671C14.9129 48.5422 14.2584 47.6629 13.3243 47.2446Z" fill="#72B852"/>
<path d="M3.82889 61.6866C3.50089 61.2407 2.94466 61.0324 2.40958 61.1565C1.87602 61.2806 1.46186 61.7095 1.35455 62.2549L0.0274393 68.936C-0.0813895 69.483 0.139291 70.0437 0.586698 70.3669C1.03864 70.6902 1.62964 70.7147 2.10426 70.4297L6.44229 67.8146C6.78238 67.6108 7.0212 67.2707 7.09829 66.8785C7.17689 66.4833 7.08469 66.0773 6.84738 65.7571L3.82889 61.6866Z" fill="#72B852"/>
<path d="M49.602 52.3277L42.7171 47.5157C41.8752 46.9289 40.7959 46.8248 39.8603 47.243C38.9277 47.6582 38.2747 48.5421 38.1342 49.5655L36.5063 61.6562C36.343 62.871 36.9295 64.063 37.986 64.6604L40.5556 66.1128C41.8797 66.8604 43.5469 66.4652 44.4054 65.2028L50.3472 56.4688C51.2722 55.116 50.9367 53.2607 49.602 52.3277Z" fill="#72B852"/>
<path d="M53.1617 68.9359L51.8346 62.2563C51.7273 61.7094 51.3132 61.2804 50.7796 61.1564C50.246 61.0323 49.6868 61.2421 49.3618 61.6849L46.3448 65.7524C46.109 66.0726 46.0153 66.4816 46.0939 66.8723C46.171 67.266 46.4098 67.6061 46.7514 67.8114L51.0879 70.4266C51.561 70.7115 52.1536 70.687 52.6055 70.3637C53.0529 70.0451 53.2721 69.4813 53.1617 68.9359Z" fill="#72B852"/>
<path d="M26.8554 37.3119C29.0213 37.3119 47.9984 37.1235 47.9984 30.5558C47.9984 27.6296 44.2272 25.9705 39.8528 25.0313C40.0221 24.7479 40.1823 24.4553 40.332 24.1581L43.3323 23.8854C45.7402 23.8272 47.7475 21.9918 48.0165 19.5973L48.6181 14.3854C48.7723 13.0357 48.3823 11.928 47.424 10.8403C46.3236 9.59479 44.8151 9.66373 43.816 9.66373H42.4451L42.7398 5.38023C42.7429 5.35878 42.7429 5.29444 42.7444 5.27452C42.7459 5.23928 42.7489 5.17954 42.7489 5.1443C42.7504 2.65631 35.6327 0.62793 26.8538 0.62793C18.075 0.62793 10.9603 2.64099 10.9603 5.13051C10.9603 5.16728 10.9603 5.20098 10.9648 5.23622C10.9648 5.25767 10.9648 5.27605 10.9679 5.29597L11.9231 18.8451C12.0803 21.1063 12.7696 23.2082 13.8548 25.0329C9.48506 25.9735 5.71082 27.6327 5.71082 30.5573C5.71233 37.1235 24.6909 37.3119 26.8554 37.3119ZM41.7876 19.0228L42.2456 12.74H44.2604C45.518 12.74 45.9019 13.9825 45.852 14.4298L45.2308 19.4655C45.1129 20.4874 44.3209 20.9133 43.2719 20.9562C42.8215 20.9746 41.4732 21.0818 41.4732 21.0818C41.6576 20.3127 41.7286 19.8409 41.7876 19.0228ZM26.8554 3.90643C32.6112 3.90643 37.2757 4.89611 37.2757 6.11866C37.2757 7.34427 32.6112 8.33395 26.8554 8.33395C21.1025 8.33395 16.435 7.34427 16.435 6.11866C16.435 4.89765 21.101 3.90643 26.8554 3.90643ZM16.6133 28.028C19.0257 30.1483 22.1697 31.1058 25.5887 31.1058H28.1205C31.5425 31.1058 34.6865 30.1483 37.0974 28.028C40.8912 28.6576 43.3278 29.7132 44.1183 30.398C42.7595 31.5792 36.5094 33.4666 26.8569 33.4666C17.2074 33.4666 10.9542 31.5485 9.59842 30.3658C10.3814 29.6795 12.8164 28.6576 16.6133 28.028Z" fill="#72B852"/>
</svg>
