<svg width="48" height="48" viewBox="0 0 48 48" fill="none" xmlns="http://www.w3.org/2000/svg">
<rect width="48" height="48" rx="24" fill="#282421"/>
<path d="M24.1511 17.7193C23.2102 17.7193 21.7537 16.6495 20.2198 16.6881C18.1962 16.7139 16.3401 17.8611 15.2961 19.6785C13.1951 23.3262 14.7547 28.714 16.8041 31.6786C17.8095 33.1222 18.9953 34.7462 20.5678 34.6947C22.0759 34.6302 22.643 33.7151 24.4733 33.7151C26.2908 33.7151 26.8063 34.6947 28.4046 34.656C30.0287 34.6302 31.0598 33.1866 32.0523 31.7301C33.1995 30.0545 33.6764 28.4304 33.7022 28.3402C33.6635 28.3273 30.5443 27.1286 30.5056 23.5195C30.4798 20.5034 32.9675 19.0598 33.0835 18.9953C31.6656 16.9201 29.4873 16.6881 28.7269 16.6366C26.7419 16.4819 25.0791 17.7193 24.1511 17.7193ZM27.5024 14.6774C28.3402 13.672 28.8944 12.2671 28.7397 10.875C27.541 10.9266 26.0974 11.6741 25.2338 12.6795C24.4604 13.5689 23.7902 14.9996 23.9706 16.3659C25.2983 16.469 26.6645 15.6828 27.5024 14.6774Z" fill="white"/>
</svg>
