<svg width="48" height="48" viewBox="0 0 48 48" fill="none" xmlns="http://www.w3.org/2000/svg">
<path d="M48 24.1487C48 10.808 37.2495 0 24 0C10.7415 0 0 10.808 0 24.1487C0 36.1989 8.7735 46.1904 20.25 48V31.1306H14.1555V24.1502H20.25V18.8269C20.25 12.7762 23.8275 9.43458 29.3115 9.43458C31.938 9.43458 34.6875 9.90548 34.6875 9.90548V15.8476H31.656C28.68 15.8476 27.75 17.7115 27.75 19.6208V24.1487H34.4055L33.336 31.1291H27.75V47.9985C39.2175 46.1889 48 36.1973 48 24.1472V24.1487Z" fill="#2054DB"/>
</svg>
