<svg width="40" height="40" viewBox="0 0 40 40" fill="none" xmlns="http://www.w3.org/2000/svg">
<rect width="40" height="40" rx="10" fill="#F2F3F4"/>
<path d="M31.1257 14.5599C31.0184 14.3931 30.8751 14.2568 30.708 14.1626C30.541 14.0684 30.3553 14.0192 30.1667 14.0191H14.2218L12.8755 10.5434C12.699 10.0857 12.4 9.69463 12.0166 9.41987C11.6332 9.1451 11.1826 8.99897 10.7218 9.00001H8V11.5096H10.7218L16.2565 25.7952C16.3452 26.0237 16.4947 26.219 16.6863 26.3563C16.878 26.4936 17.1031 26.5669 17.3333 26.5668H26.6667C27.1532 26.5668 27.5883 26.2419 27.7598 25.7537L31.2598 15.7156C31.326 15.5256 31.3483 15.3212 31.325 15.12C31.3016 14.9187 31.2332 14.7265 31.1257 14.5599Z" fill="#71BE41"/>
</svg>
