<svg width="40" height="40" viewBox="0 0 40 40" fill="none" xmlns="http://www.w3.org/2000/svg">
<rect width="40" height="40" rx="10" fill="#F2F3F4"/>
<path d="M19.9962 8C17.6175 8.002 15.3362 8.95002 13.6506 10.637C11.965 12.324 11.0121 14.6129 11 17.0037C11 20.5883 13.0008 23.5895 14.4671 25.7771L14.7344 26.1762C16.1933 28.3014 17.7583 30.3509 19.4234 32.3169L20.0038 33L20.5842 32.3169C22.2492 30.3507 23.8142 28.3012 25.2732 26.1762L25.5405 25.7694C26.9992 23.5818 29 20.5883 29 17.0037C28.9879 14.6115 28.0339 12.3215 26.3467 10.6343C24.6595 8.9471 22.3762 7.99997 19.9962 8ZM19.9962 21.0488C19.0053 21.0488 18.0368 20.7535 17.2129 20.2002C16.3891 19.6469 15.7469 18.8605 15.3678 17.9404C14.9886 17.0204 14.8894 16.0079 15.0827 15.0312C15.276 14.0544 15.7531 13.1572 16.4537 12.453C17.1544 11.7488 18.047 11.2692 19.0188 11.075C19.9906 10.8807 20.9979 10.9804 21.9133 11.3615C22.8287 11.7426 23.6112 12.388 24.1616 13.216C24.7121 14.0441 25.0059 15.0176 25.0059 16.0135C25.0059 17.349 24.4781 18.6297 23.5386 19.574C22.5991 20.5183 21.3249 21.0488 19.9962 21.0488Z" fill="#71BE41"/>
<path d="M20 19C21.6569 19 23 17.6569 23 16C23 14.3431 21.6569 13 20 13C18.3431 13 17 14.3431 17 16C17 17.6569 18.3431 19 20 19Z" fill="#71BE41"/>
</svg>
