<svg width="55" height="55" viewBox="0 0 55 55" fill="none" xmlns="http://www.w3.org/2000/svg">
<g filter="url(#filter0_d_3793_951)">
<path fill-rule="evenodd" clip-rule="evenodd" d="M27.5 15C20.5966 15 15 20.5966 15 27.5C15 34.4034 20.5966 40 27.5 40C34.4034 40 40 34.4034 40 27.5C40 20.5966 34.4034 15 27.5 15ZM28.6364 32.0455C28.6364 32.3468 28.5166 32.6359 28.3035 32.849C28.0904 33.0621 27.8014 33.1818 27.5 33.1818C27.1986 33.1818 26.9096 33.0621 26.6965 32.849C26.4834 32.6359 26.3636 32.3468 26.3636 32.0455V28.6364H22.9545C22.6532 28.6364 22.3641 28.5166 22.151 28.3035C21.9379 28.0904 21.8182 27.8014 21.8182 27.5C21.8182 27.1986 21.9379 26.9096 22.151 26.6965C22.3641 26.4834 22.6532 26.3636 22.9545 26.3636H26.3636V22.9545C26.3636 22.6532 26.4834 22.3641 26.6965 22.151C26.9096 21.9379 27.1986 21.8182 27.5 21.8182C27.8014 21.8182 28.0904 21.9379 28.3035 22.151C28.5166 22.3641 28.6364 22.6532 28.6364 22.9545V26.3636H32.0455C32.3468 26.3636 32.6359 26.4834 32.849 26.6965C33.0621 26.9096 33.1818 27.1986 33.1818 27.5C33.1818 27.8014 33.0621 28.0904 32.849 28.3035C32.6359 28.5166 32.3468 28.6364 32.0455 28.6364H28.6364V32.0455Z" fill="url(#paint0_linear_3793_951)"/>
</g>
<defs>
<filter id="filter0_d_3793_951" x="0" y="0" width="55" height="55" filterUnits="userSpaceOnUse" color-interpolation-filters="sRGB">
<feFlood flood-opacity="0" result="BackgroundImageFix"/>
<feColorMatrix in="SourceAlpha" type="matrix" values="0 0 0 0 0 0 0 0 0 0 0 0 0 0 0 0 0 0 127 0" result="hardAlpha"/>
<feOffset/>
<feGaussianBlur stdDeviation="7.5"/>
<feComposite in2="hardAlpha" operator="out"/>
<feColorMatrix type="matrix" values="0 0 0 0 0 0 0 0 0 0 0 0 0 0 0 0 0 0 0.07 0"/>
<feBlend mode="normal" in2="BackgroundImageFix" result="effect1_dropShadow_3793_951"/>
<feBlend mode="normal" in="SourceGraphic" in2="effect1_dropShadow_3793_951" result="shape"/>
</filter>
<linearGradient id="paint0_linear_3793_951" x1="27.5" y1="15" x2="27.5" y2="40" gradientUnits="userSpaceOnUse">
<stop stop-color="#66cc33"/>
<stop offset="1" stop-color="#86B841"/>
</linearGradient>
</defs>
</svg>
