<svg width="21" height="22" viewBox="0 0 21 22" fill="none" xmlns="http://www.w3.org/2000/svg">
<circle cx="10.2962" cy="11.1804" r="10.1246" transform="rotate(179.019 10.2962 11.1804)" fill="url(#paint0_linear_3933_128)"/>
<path d="M10.2964 6.1145C10.4643 6.1145 10.6254 6.18122 10.7442 6.29997C10.8629 6.41873 10.9296 6.5798 10.9296 6.74774V10.5472H14.7291C14.897 10.5472 15.0581 10.6139 15.1768 10.7327C15.2956 10.8514 15.3623 11.0125 15.3623 11.1804C15.3623 11.3484 15.2956 11.5094 15.1768 11.6282C15.0581 11.747 14.897 11.8137 14.7291 11.8137H10.9296V15.6131C10.9296 15.7811 10.8629 15.9421 10.7442 16.0609C10.6254 16.1796 10.4643 16.2464 10.2964 16.2464C10.1284 16.2464 9.96738 16.1796 9.84863 16.0609C9.72987 15.9421 9.66315 15.7811 9.66315 15.6131V11.8137H5.86371C5.69576 11.8137 5.5347 11.747 5.41594 11.6282C5.29719 11.5094 5.23047 11.3484 5.23047 11.1804C5.23047 11.0125 5.29719 10.8514 5.41594 10.7327C5.5347 10.6139 5.69576 10.5472 5.86371 10.5472H9.66315V6.74774C9.66315 6.5798 9.72987 6.41873 9.84863 6.29997C9.96738 6.18122 10.1284 6.1145 10.2964 6.1145Z" fill="black"/>
<defs>
<linearGradient id="paint0_linear_3933_128" x1="10.2962" y1="1.05577" x2="10.2962" y2="21.305" gradientUnits="userSpaceOnUse">
<stop stop-color="white"/>
<stop offset="1" stop-color="#E4E4E4" stop-opacity="0.92"/>
</linearGradient>
</defs>
</svg>
