<svg width="42" height="70" viewBox="0 0 42 70" fill="none" xmlns="http://www.w3.org/2000/svg">
<path d="M35.6551 0H6.3449C2.84639 0 0 2.83627 0 6.32233V63.6777C0 67.1637 2.84639 70 6.3449 70H35.6551C39.1536 70 42 67.1637 42 63.6777V6.32233C42 2.83627 39.1536 0 35.6551 0ZM21 66.5546C19.3536 66.5546 18.0189 65.2246 18.0189 63.5841C18.0189 61.9436 19.3536 60.6136 21 60.6136C22.6464 60.6136 23.9811 61.9436 23.9811 63.5841C23.9811 65.2246 22.6464 66.5546 21 66.5546ZM37.6018 57.734H4.39819V7.44665H37.6018V57.734ZM7.66904 23.4408V12.6714C7.66904 11.7581 8.41175 11.018 9.32835 11.018H32.6716C33.5882 11.018 34.331 11.7581 34.331 12.6714V23.4405C34.331 24.3538 33.5882 25.0939 32.6716 25.0939H9.32835C8.41175 25.0942 7.66904 24.3538 7.66904 23.4408ZM33.9012 30.9367C33.9012 31.8501 33.1585 32.5901 32.2419 32.5901H9.75812C8.84151 32.5901 8.0988 31.8501 8.0988 30.9367C8.0988 30.0234 8.84151 29.2833 9.75812 29.2833H32.2419C33.1585 29.2833 33.9012 30.0234 33.9012 30.9367ZM8.0988 38.0927C8.0988 37.1794 8.84151 36.4393 9.75812 36.4393H25.515C26.4316 36.4393 27.1743 37.1794 27.1743 38.0927C27.1743 39.0061 26.4316 39.7461 25.515 39.7461H9.75812C8.84151 39.7461 8.0988 39.0061 8.0988 38.0927ZM27.1743 52.4053C27.1743 53.3187 26.4316 54.0588 25.515 54.0588H9.75812C8.84151 54.0588 8.0988 53.3187 8.0988 52.4053C8.0988 51.492 8.84151 50.7519 9.75812 50.7519H25.515C26.4316 50.7519 27.1743 51.492 27.1743 52.4053ZM31.4132 45.249C31.4132 46.1624 30.6705 46.9024 29.7539 46.9024H9.75812C8.84151 46.9024 8.0988 46.1624 8.0988 45.249C8.0988 44.3357 8.84151 43.5956 9.75812 43.5956H29.7539C30.6702 43.5956 31.4132 44.3357 31.4132 45.249Z" fill="#72B852"/>
</svg>
