<svg width="25" height="22" viewBox="0 0 25 22" fill="none" xmlns="http://www.w3.org/2000/svg">
<path d="M15.4626 14.8576C15.4626 15.0898 15.3776 15.2909 15.2081 15.4602C15.0385 15.6301 14.8375 15.7149 14.6053 15.7149H10.3196C10.0874 15.7149 9.88653 15.6301 9.71686 15.4602C9.54724 15.2909 9.46243 15.0898 9.46243 14.8576V12.7148H0.462433V19.1435C0.462433 19.7326 0.672164 20.237 1.09186 20.6566C1.51146 21.0762 2.01602 21.2861 2.60534 21.2861H22.3197C22.9088 21.2861 23.4134 21.0762 23.833 20.6566C24.2528 20.237 24.4624 19.7326 24.4624 19.1435V12.7148H15.4626V14.8576Z" fill="white"/>
<path d="M14.1769 12.7148H10.748V14.4291H14.1769V12.7148Z" fill="white"/>
<path d="M23.833 4.77285C23.4134 4.35316 22.9088 4.14343 22.3196 4.14343H17.6052V2.00048C17.6052 1.64331 17.4803 1.33981 17.2302 1.08979C16.9804 0.839903 16.6767 0.714844 16.3197 0.714844H8.60535C8.24828 0.714844 7.94473 0.839903 7.69466 1.08979C7.44458 1.33967 7.31966 1.64327 7.31966 2.00048V4.14343H2.60534C2.01606 4.14343 1.51151 4.35316 1.09186 4.77285C0.672164 5.1925 0.462433 5.69677 0.462433 6.28609V11.429H24.4624V6.28609C24.4624 5.69677 24.2528 5.1925 23.833 4.77285ZM15.891 4.14343H9.03391V2.42904H15.891V4.14343Z" fill="white"/>
</svg>
