<svg width="30" height="39" viewBox="0 0 30 39" fill="none" xmlns="http://www.w3.org/2000/svg">
<path d="M3.49402 3.15677L29.3193 1.45435C29.7211 1.42742 30.0246 1.08097 29.9984 0.679925C29.9722 0.278884 29.625 -0.0246257 29.2247 0.00157661L3.39867 1.704C2.99763 1.7302 2.69412 2.07738 2.72033 2.47842C2.74653 2.87946 3.09298 3.18297 3.49402 3.15677Z" fill="white"/>
<path d="M16.9349 6.55041H29.1495C29.552 6.55041 29.8773 6.22434 29.8773 5.82257C29.8773 5.4208 29.552 5.09473 29.1495 5.09473H16.9349C16.5324 5.09473 16.207 5.4208 16.207 5.82257C16.207 6.22434 16.5324 6.55041 16.9349 6.55041Z" fill="white"/>
<path d="M3.71612 6.55041H5.98917C6.39167 6.55041 6.71701 6.22434 6.71701 5.82257C6.71701 5.4208 6.39167 5.09473 5.98917 5.09473H3.71612C3.31363 5.09473 2.98828 5.4208 2.98828 5.82257C2.98828 6.22434 3.31363 6.55041 3.71612 6.55041Z" fill="white"/>
<path d="M29.0007 23.3565C29.0035 22.7096 28.7602 22.0927 28.3264 21.6639C27.8941 21.2314 27.29 20.9983 26.6394 21.0005H2.36133C1.7107 20.999 1.1066 21.2321 0.674275 21.6639C0.239806 22.0927 -0.00283801 22.7096 2.5052e-05 23.3565C2.5052e-05 23.6077 0.0343818 23.8633 0.103095 24.1181L3.34408 36.2866C3.55594 37.0729 4.03837 37.7326 4.63889 38.2123C5.24228 38.6891 5.97809 38.9987 6.75827 39.0009H22.2431C23.0233 38.9987 23.7591 38.6891 24.3625 38.2123C24.963 37.7326 25.4455 37.0729 25.6573 36.2866L28.8983 24.1181C28.9656 23.8633 29.0007 23.6077 29.0007 23.3565ZM6.79693 35.1771C6.41685 35.2888 6.02175 35.0565 5.9151 34.6577L3.50727 25.6623C3.40062 25.2635 3.62251 24.8498 4.0033 24.7381C4.38337 24.6264 4.77847 24.8588 4.88512 25.2575L7.29295 34.2529C7.3996 34.6517 7.17771 35.0655 6.79693 35.1771Z" fill="white"/>
<path d="M6.15041 16.6799C6.15405 17.8314 6.39642 18.8482 6.67882 19.6517H8.24222C7.93071 18.9144 7.601 17.8612 7.60609 16.6799C7.60827 15.5496 7.88922 14.3173 8.76773 13.0647C9.83984 11.5443 10.2132 9.99106 10.2103 8.63654C10.2001 5.91951 8.79975 4.00529 8.7619 3.94124C8.52681 3.61517 8.07191 3.54166 7.74584 3.77675C7.41976 4.01184 7.34698 4.46601 7.58062 4.79209C7.61919 4.83649 8.76336 6.51489 8.7539 8.63582C8.75098 9.7334 8.46931 10.9518 7.57552 12.227C6.5136 13.7351 6.1475 15.3021 6.15041 16.6799Z" fill="white"/>
<path d="M7.32617 21.1074C7.46373 21.3556 7.55981 21.4983 7.56854 21.5143C7.79345 21.8476 8.24544 21.9357 8.57879 21.7115C8.78695 21.5711 8.88594 21.3411 8.88666 21.1074H7.32617Z" fill="white"/>
<path d="M8.88478 16.6799C8.88841 17.8314 9.13079 18.8482 9.41319 19.6517H10.9766C10.6651 18.9144 10.3354 17.8612 10.3405 16.6799C10.3426 15.5496 10.6236 14.3173 11.5021 13.0647C12.5742 11.5443 12.9476 9.99106 12.9447 8.63654C12.9345 5.91951 11.5341 4.00529 11.4963 3.94124C11.2612 3.61517 10.8063 3.54166 10.4802 3.77675C10.1541 4.01184 10.0813 4.46601 10.315 4.79209C10.3536 4.83649 11.4977 6.51489 11.4883 8.63582C11.4854 9.7334 11.2037 10.9518 10.3099 12.227C9.24797 13.7351 8.88259 15.3021 8.88478 16.6799Z" fill="white"/>
<path d="M10.0605 21.1074C10.1981 21.3556 10.2942 21.4983 10.3029 21.5143C10.5278 21.8476 10.9798 21.9357 11.3132 21.7115C11.5213 21.5711 11.6203 21.3411 11.621 21.1074H10.0605Z" fill="white"/>
<path d="M11.6211 16.6799C11.6248 17.8314 11.8671 18.8482 12.1495 19.6517H13.7129C13.4014 18.9144 13.0717 17.8612 13.0768 16.6799C13.079 15.5496 13.3599 14.3173 14.2384 13.0647C15.3105 11.5443 15.6839 9.99106 15.681 8.63654C15.6708 5.91951 14.2705 4.00529 14.2326 3.94124C13.9975 3.61517 13.5426 3.54166 13.2165 3.77675C12.8905 4.01184 12.8177 4.46601 13.0513 4.79209C13.0899 4.83649 14.2341 6.51489 14.2246 8.63582C14.2217 9.7334 13.94 10.9518 13.0462 12.227C11.9843 13.7351 11.6182 15.3021 11.6211 16.6799Z" fill="white"/>
<path d="M12.7969 21.1074C12.9344 21.3556 13.0305 21.4983 13.0392 21.5143C13.2641 21.8476 13.7161 21.9357 14.0495 21.7115C14.2577 21.5711 14.3566 21.3411 14.3574 21.1074H12.7969Z" fill="white"/>
</svg>
