<svg width="57" height="57" viewBox="0 0 69 69" fill="none" xmlns="http://www.w3.org/2000/svg">
<circle cx="34.2023" cy="34.2023" r="33.2023" stroke="#72B852" stroke-width="2"/>
<path d="M47.3788 30.3782C47.3788 29.228 46.9486 28.1303 46.1674 27.2871C45.4642 26.5282 44.5346 26.0361 43.5223 25.8809C43.2448 23.8851 41.5275 22.3652 39.4791 22.3652C37.4306 22.3652 35.7133 23.8851 35.4358 25.8809C34.7902 25.9799 34.1784 26.2165 33.6373 26.5715C34.6975 28.9788 35.2726 31.7739 35.2726 34.5889C35.2726 36.4326 34.8989 37.9714 34.3414 39.2578C35.3984 40.5744 36.9499 41.4779 38.7115 41.6834V37.6211L37.1266 35.9588C36.834 35.652 36.8456 35.1662 37.1524 34.8737C37.4592 34.5811 37.9451 34.5926 38.2376 34.8995L38.7115 35.3965V34.2722L37.1266 32.6099C36.834 32.3031 36.8456 31.8172 37.1524 31.5247C37.4592 31.2322 37.9451 31.2437 38.2376 31.5506L38.7115 32.0476V30.9232L37.1266 29.261C36.834 28.9542 36.8456 28.4683 37.1524 28.1758C37.4592 27.8833 37.9451 27.8948 38.2376 28.2017L38.7115 28.6987V27.1467C38.7115 26.7228 39.0552 26.3791 39.4791 26.3791C39.903 26.3791 40.2467 26.7228 40.2467 27.1467V28.6987L40.7206 28.2017C41.0132 27.8948 41.4989 27.8833 41.8058 28.1758C42.1126 28.4684 42.1241 28.9542 41.8316 29.261L40.2467 30.9232V32.0476L40.7206 31.5506C41.0132 31.2437 41.4989 31.2322 41.8058 31.5247C42.1126 31.8173 42.1241 32.3031 41.8316 32.6099L40.2467 34.2722V35.3964L40.7206 34.8994C41.0132 34.5925 41.4989 34.581 41.8058 34.8735C42.1126 35.1661 42.1241 35.6519 41.8316 35.9587L40.2467 37.621V41.6828C43.5183 41.3013 46.066 38.5133 46.066 35.1409C46.066 34.6628 46.0145 34.1873 45.9129 33.7238C46.8474 32.8624 47.3788 31.6563 47.3788 30.3782Z" fill="#72B852"/>
<path d="M21.0256 34.5888C21.0256 34.6473 21.0264 34.7052 21.0272 34.763H22.911C23.3349 34.763 23.6786 35.1067 23.6786 35.5306C23.6786 35.9545 23.3349 36.2982 22.911 36.2982H21.1553C21.2159 36.6853 21.2961 37.0537 21.3929 37.4043H24.7318C25.1557 37.4043 25.4994 37.748 25.4994 38.1719C25.4994 38.5958 25.1557 38.9395 24.7318 38.9395H21.9629C22.885 40.8858 24.2951 42.15 25.2884 43.0404C25.4477 43.1832 25.5983 43.3182 25.7305 43.4417C26.083 43.7712 26.2423 44.2135 26.3829 44.6038C26.5604 45.0969 26.7616 45.6556 27.3815 45.6556C28.0015 45.6556 28.2027 45.0968 28.3802 44.6038C28.5208 44.2135 28.6801 43.7712 29.0326 43.4417C29.1648 43.3182 29.3154 43.1832 29.4747 43.0404C30.468 42.15 31.8781 40.8858 32.8002 38.9395H31.1439C30.72 38.9395 30.3763 38.5958 30.3763 38.1719C30.3763 37.748 30.72 37.4043 31.1439 37.4043H33.3702C33.467 37.0537 33.5472 36.6853 33.6078 36.2982H30.1291C29.7052 36.2982 29.3615 35.9545 29.3615 35.5306C29.3615 35.1067 29.7052 34.763 30.1291 34.763H33.7359C33.7367 34.7052 33.7374 34.6473 33.7374 34.5888C33.7374 34.1709 33.7233 33.7538 33.6964 33.3387H21.0666C21.0397 33.7538 21.0256 34.171 21.0256 34.5888H21.0256Z" fill="#72B852"/>
<path d="M31.663 26.0324C30.4054 23.7361 28.8048 22.3651 27.3816 22.3651C25.9582 22.3651 24.3577 23.7361 23.1 26.0324C22.17 27.7306 21.5308 29.7171 21.2274 31.8036H33.5357C33.2323 29.7171 32.5931 27.7306 31.663 26.0324Z" fill="#72B852"/>
</svg>
