<svg width="57" height="57" viewBox="0 0 57 57" fill="none" xmlns="http://www.w3.org/2000/svg">
<circle cx="28.3717" cy="28.3717" r="27.3717" stroke="#72B852" stroke-width="2"/>
<path d="M21 24.2923C21 25.2532 22.9053 25.8496 22.9369 26.2057C22.997 26.8812 21.496 27.7265 21.6137 28.3563C21.7396 29.0302 23.4605 29.3425 23.6459 29.9513C23.8488 30.6182 22.7036 31.7054 22.8418 32.3152C23.2925 34.3041 26.2861 34.8211 27.4949 35.6193C27.4867 35.671 27.4791 35.7227 27.4706 35.7743C27.2689 37.009 26.9672 38.248 26.5075 39.4123C26.1059 40.4585 25.5907 41.4344 24.9355 42.3396C24.457 42.9619 23.7141 43.6363 24.3428 44.4652C25.9217 46.5463 27.4599 41.9463 27.724 41.0246C28.2162 39.3064 28.4459 37.4663 28.417 35.6586C29.5611 34.8072 32.6961 34.3544 33.1581 32.3152C33.2964 31.7054 32.1512 30.6181 32.3544 29.9513C32.5397 29.3424 34.2604 29.0301 34.3864 28.3563C34.5042 27.7265 33.0032 26.8812 33.0631 26.2057C33.0947 25.8496 35 25.2532 35 24.2923C35 23.3314 33.0947 22.7353 33.0631 22.379C33.0032 21.7037 34.5042 20.8583 34.3865 20.2285C34.2605 19.5547 32.5397 19.2422 32.3544 18.6335C32.1512 17.9664 33.424 16.8415 33.1581 16.2693C32.8566 15.62 31.1179 15.7569 30.7482 15.254C30.3073 14.6547 29.3962 12 28.0001 12C26.6038 12 25.693 14.6547 25.2521 15.254C24.882 15.7569 23.1435 15.6199 22.842 16.2693C22.5762 16.8415 23.8489 17.9665 23.646 18.6335C23.4605 19.2423 21.7397 19.5548 21.6137 20.2285C21.4961 20.8583 22.9971 21.7037 22.937 22.379C22.9054 22.7353 21 23.3314 21 24.2923ZM28.0001 15.245C28.3265 18.0043 28.371 20.8 28.3826 23.5758C28.3714 26.3515 28.329 29.1474 28.0001 31.9065C27.6712 29.1474 27.6287 26.3515 27.6176 23.5758C27.6291 20.7999 27.6737 18.0043 28.0001 15.245Z" fill="#72B852"/>
</svg>
