<svg width="25" height="25" viewBox="0 0 25 25" fill="none" xmlns="http://www.w3.org/2000/svg">
<rect x="0.120117" y="0.778137" width="24" height="24" rx="7" fill="#74BD21"/>
<path d="M10.4441 17.1509L7.25021 14.1164C7.17446 14.03 7.11437 13.9275 7.07337 13.8146C7.03237 13.7018 7.01127 13.5808 7.01127 13.4587C7.01127 13.3365 7.03237 13.2156 7.07337 13.1027C7.11437 12.9899 7.17446 12.8873 7.25021 12.801C7.32596 12.7146 7.41589 12.6461 7.51487 12.5993C7.61384 12.5526 7.71993 12.5285 7.82706 12.5285C7.93419 12.5285 8.04027 12.5526 8.13924 12.5993C8.23822 12.6461 8.32815 12.7146 8.4039 12.801L11.021 15.1677L15.8362 9.68753C15.912 9.60116 16.0019 9.53265 16.1009 9.4859C16.1998 9.43916 16.3059 9.4151 16.413 9.4151C16.5202 9.4151 16.6263 9.43916 16.7252 9.4859C16.8242 9.53265 16.9141 9.60116 16.9899 9.68753C17.0656 9.77391 17.1257 9.87644 17.1667 9.98929C17.2077 10.1021 17.2288 10.2231 17.2288 10.3452C17.2288 10.4674 17.2077 10.5883 17.1667 10.7012C17.1257 10.814 17.0656 10.9166 16.9899 11.003L11.5978 17.1509C11.5221 17.2374 11.4322 17.306 11.3332 17.3529C11.2342 17.3997 11.1281 17.4238 11.021 17.4238C10.9138 17.4238 10.8077 17.3997 10.7087 17.3529C10.6097 17.306 10.5198 17.2374 10.4441 17.1509Z" fill="white"/>
</svg>
