<svg xmlns="http://www.w3.org/2000/svg" viewBox="0 0 560.67 500"><defs><style>.cls-1{fill:#fff;}</style></defs><g id="Layer_2" data-name="Layer 2"><g id="Layer_1-2" data-name="Layer 1"><path class="cls-1" d="M442.12,417.68v-.22c0-7.65,0-15.56.1-23.26.34-36.94,1.68-67.16,4.13-93a5.71,5.71,0,0,1-1.24-.38,407.27,407.27,0,0,0-125.79-32.7,418.63,418.63,0,0,0-104.88,3.55,414.42,414.42,0,0,0-71.91,18.11,248.46,248.46,0,0,0-26.68,10.9,5.89,5.89,0,0,1-1.53.52c2.47,25.88,3.81,56.14,4.17,93v0c.05,7.67.05,15.56.05,23.2v.22Z"/><path class="cls-1" d="M79.4,181.66c1.62,2.24,3.28,4.8,5.07,7.83,12.62,19.42,21.4,47.59,26.85,86.09q.86,6,1.6,12.41c3.86-1.81,12.57-5.7,25.44-10.27A432.8,432.8,0,0,1,320.07,255.3a418.49,418.49,0,0,1,127.66,32.78q.63-5.35,1.33-10.49c5.22-38.1,13.63-66.18,25.72-85.84l0,0,0,0,.69-1.1c.19-.32.39-.63.59-.95a88.9,88.9,0,0,1,8.23-12v-28.6a149.07,149.07,0,0,0-149-149H219.36a149.07,149.07,0,0,0-149,149.05v22.24A67.87,67.87,0,0,1,79.4,181.66Z"/><rect class="cls-1" x="56.29" y="428.57" width="448.08" height="30.07"/><rect class="cls-1" x="91.13" y="469.52" width="37.01" height="30.48"/><rect class="cls-1" x="426.51" y="469.52" width="37.01" height="30.48"/><path class="cls-1" d="M558.31,193.65c-3-7.63-9.21-13.51-16.42-17.35-7.44-3.89-14.63-6.08-21.53-6.08-12.68,0-24.36,7.39-34.63,25.19-.47.74-.93,1.48-1.39,2.22-24,39-30.12,112.69-30.9,196.7-.09,7.63-.09,15.36-.09,23.13h50.88c3-55,18-110.84,40.85-167.37,2.87-7,6.24-13.79,9.53-20.59C561,216.36,562.52,204.38,558.31,193.65Z"/><path class="cls-1" d="M107.27,417.46h0c0-7.77,0-15.5,0-23.13-.83-85.68-7.22-160.48-32.34-198.92q-1.14-1.95-2.29-3.74l-.58-.89c-.58-.88-1.16-1.73-1.75-2.54h0c-9.1-12.63-19.18-18-30-18-6.89,0-14.08,2.18-21.5,6.07C11.56,180.14,5.36,186,2.4,193.65c-4.26,10.73-2.73,22.71,3.65,35.85,3.29,6.8,6.71,13.6,9.53,20.59,22.9,56.53,37.89,112.41,40.85,167.37Z"/></g></g></svg>