<svg width="22" height="33" viewBox="0 0 22 33" fill="none" xmlns="http://www.w3.org/2000/svg">
<path d="M6.14886 8.65171L2.12272 9.14533C1.47178 9.22514 1.017 9.80702 1.09681 10.458C1.17661 11.1089 1.7585 11.5637 2.40943 11.4839L6.41146 10.9932C7.06239 10.9134 7.51718 10.3315 7.43737 9.68058C7.38167 9.02669 6.79979 8.5719 6.14886 8.65171ZM1.60249 4.90221L4.43526 4.55491L4.14559 2.19226L1.31283 2.53957C0.661893 2.61938 0.207108 3.20126 0.286915 3.85219C0.366722 4.50313 0.951562 4.98202 1.60249 4.90221ZM6.55232 11.9425L3.71956 12.2898C3.06863 12.3697 2.61384 12.9515 2.69365 13.6025C2.77346 14.2534 3.35534 14.7082 4.00627 14.6284L6.83904 14.2811C7.48997 14.2013 7.94476 13.6194 7.86495 12.9684C7.78514 12.3175 7.20326 11.8627 6.55232 11.9425ZM14.391 3.82372L10.3013 0.605537C10.0577 0.415162 9.74008 0.319512 9.43872 0.35646L6.12379 0.762883C5.47286 0.84269 5.01807 1.42458 5.09788 2.07551L5.64766 6.55971C5.72747 7.21064 6.30935 7.66543 6.96028 7.58562C7.61122 7.50581 8.066 6.92393 7.98619 6.273L7.66845 3.68132C7.63593 3.41613 7.82631 3.17255 8.0915 3.14003C8.3567 3.10752 8.60028 3.29789 8.63279 3.56309C8.98305 6.41996 11.6053 8.44767 14.4381 8.10037C14.7033 8.06785 14.9469 8.25823 14.9794 8.52342C15.0119 8.78862 14.8215 9.0322 14.5563 9.06471C12.3263 9.33812 10.2272 8.38417 8.9462 6.71813C8.85008 7.23157 8.59898 7.67836 8.22756 8.04202C8.22756 8.04202 8.74039 12.2249 8.82019 12.8758C8.8734 13.3098 8.76694 13.7388 8.61398 14.0879L12.0374 13.6682C13.4839 13.4909 14.6927 12.5718 15.3388 11.3547L21.9204 10.5478L20.9967 3.01383L14.391 3.82372ZM2.00596 8.19304L5.1883 7.80287C4.90731 7.50696 4.74562 7.08631 4.69537 6.67646L4.55201 5.5072L1.71925 5.8545C1.06832 5.93431 0.613532 6.5162 0.693338 7.16713C0.761091 7.81954 1.35503 8.27285 2.00596 8.19304Z" fill="#72B852"/>
<path d="M4.5445 24.7187C4.47822 24.6921 4.40426 24.6921 4.33798 24.7187L1.02482 26.0438L4.44124 27.41L7.85767 26.0438L4.5445 24.7187ZM8.32733 26.4541L4.71882 27.8975V32.2954L8.32733 30.852V26.4541ZM4.16366 32.296V27.8969L0.555155 26.4541V30.8526L4.16366 32.296ZM4.13202 24.2029C4.33052 24.1235 4.55196 24.1235 4.75046 24.2029L8.70816 25.7862C8.75962 25.8068 8.80372 25.8424 8.83479 25.8883C8.86586 25.9342 8.88247 25.9884 8.88248 26.0438V30.8526C8.88241 30.9635 8.84911 31.0719 8.78687 31.1637C8.72463 31.2555 8.6363 31.3266 8.53329 31.3677L4.5445 32.9633C4.47822 32.9898 4.40426 32.9898 4.33798 32.9633L0.349748 31.3677C0.246628 31.3267 0.158187 31.2556 0.0958431 31.1638C0.033499 31.072 0.000114545 30.9636 0 30.8526V26.0438C1.29018e-05 25.9884 0.0166234 25.9342 0.0476917 25.8883C0.07876 25.8424 0.122863 25.8068 0.174319 25.7862L4.13202 24.2029Z" fill="#72B852"/>
<path d="M13.3951 24.8824C13.3382 24.8393 13.2669 24.8198 13.1959 24.8279L9.65044 25.2311L12.5848 27.451L16.2408 27.0354L13.3951 24.8824ZM16.5854 27.5552L12.7238 27.9945L11.5625 32.2363L15.4241 31.797L16.5854 27.5552ZM11.0269 32.0902L12.1885 27.8473L9.08911 25.5028L7.92763 29.7452L11.0269 32.0902ZM13.1335 24.2761C13.3459 24.2519 13.5595 24.3104 13.73 24.4394L17.1291 27.0116C17.1733 27.0451 17.2064 27.091 17.2243 27.1435C17.2421 27.196 17.2438 27.2526 17.2292 27.3061L15.9594 31.9441C15.93 32.0511 15.8693 32.1468 15.785 32.219C15.7007 32.2911 15.5968 32.3363 15.4865 32.3488L11.218 32.8344C11.1471 32.8425 11.0757 32.823 11.0188 32.7799L7.59348 30.1879C7.50486 30.121 7.43832 30.0291 7.40244 29.9241C7.36655 29.8191 7.36298 29.7057 7.39218 29.5986L8.662 24.9605C8.67665 24.9071 8.70697 24.8592 8.74906 24.8231C8.79115 24.7871 8.84307 24.7644 8.89815 24.7581L13.1335 24.2761Z" fill="#72B852"/>
<path d="M8.88105 16.2127C8.81477 16.1861 8.74081 16.1861 8.67453 16.2127L5.36136 17.5378L8.77779 18.9041L12.1942 17.5378L8.88105 16.2127ZM12.6639 17.9481L9.05537 19.3915V23.7895L12.6639 22.346V17.9481ZM8.50021 23.79V19.391L4.8917 17.9481V22.3466L8.50021 23.79ZM8.46857 15.697C8.66707 15.6176 8.88851 15.6176 9.08701 15.697L13.0447 17.2803C13.0962 17.3009 13.1403 17.3364 13.1713 17.3823C13.2024 17.4283 13.219 17.4824 13.219 17.5378V22.3466C13.219 22.4575 13.1857 22.5659 13.1234 22.6577C13.0612 22.7496 12.9729 22.8206 12.8698 22.8618L8.88105 24.4573C8.81477 24.4839 8.74081 24.4839 8.67453 24.4573L4.6863 22.8618C4.58318 22.8207 4.49474 22.7497 4.43239 22.6578C4.37005 22.566 4.33666 22.4576 4.33655 22.3466V17.5378C4.33656 17.4824 4.35317 17.4283 4.38424 17.3823C4.41531 17.3364 4.45941 17.3009 4.51087 17.2803L8.46857 15.697Z" fill="#72B852"/>
</svg>
