<svg width="73" height="63" viewBox="0 0 73 63" fill="none" xmlns="http://www.w3.org/2000/svg">
<path d="M0.76329 37.3246L43.417 0.744141H72.7998L0.76329 62.9617V37.3246Z" fill="#C4C4C4"/>
<path d="M0.76329 37.3246L43.417 0.744141H72.7998L0.76329 62.9617V37.3246Z" fill="url(#paint0_linear_2075:59)"/>
<path d="M14.6314 33.0285L12.1528 35.2613L17.7748 41.5025L20.2535 39.2697C21.9742 37.7196 22.0293 35.1989 20.4471 33.4425C18.8649 31.686 16.3522 31.4784 14.6314 33.0285ZM19.1933 38.0928L17.9451 39.2172L14.4433 35.3298L15.6916 34.2054C16.7704 33.2336 18.2341 33.3525 19.2702 34.5026C20.3063 35.6528 20.2721 37.121 19.1933 38.0928ZM23.4671 33.1932L26.8284 30.1653C26.7186 29.9896 26.5999 29.822 26.4473 29.6526C25.2667 28.3419 23.3908 28.1421 22.0713 29.3307C20.6715 30.5917 20.6411 32.4764 21.8378 33.8049C23.0344 35.1334 24.9032 35.3074 26.4011 33.9581C27.257 33.187 27.6125 32.237 27.4854 31.2532L26.0762 31.5535C26.113 31.9888 25.925 32.4973 25.4792 32.8988C24.8729 33.445 24.1577 33.6371 23.4671 33.1932ZM22.6461 32.3176C22.2658 31.6265 22.3877 30.9192 23.0029 30.365C23.4844 29.9313 24.1988 29.7562 24.9197 30.2696L22.6461 32.3176ZM26.7873 23.8551L25.7914 22.7495C24.2935 23.9373 24.2664 25.2699 25.3748 26.5003L25.4149 26.5449L24.773 27.1232L25.7689 28.2287L26.4108 27.6505L29.4307 31.0029L30.5808 29.9668L27.561 26.6144L28.5061 25.7631L27.5102 24.6575L26.5651 25.5088L26.5249 25.4643C25.9788 24.858 26.1498 24.3486 26.7873 23.8551ZM31.26 21.2797L31.7338 21.8057C31.0514 21.6936 30.3451 21.8777 29.6942 22.464C28.5084 23.5322 28.4513 25.441 29.648 26.7695C30.8447 28.098 32.749 28.2398 33.9349 27.1716C34.5857 26.5853 34.8423 25.902 34.8019 25.2116L35.2757 25.7377L36.4259 24.7016L32.4101 20.2436L31.26 21.2797ZM33.161 25.8822C32.4566 26.5167 31.4728 26.4824 30.7981 25.7334C30.1235 24.9845 30.1917 24.0024 30.8961 23.3679C31.6094 22.7254 32.5932 22.7597 33.2679 23.5087C33.9425 24.2576 33.8743 25.2397 33.161 25.8822ZM36.3954 16.6537L38.5639 19.061C39.2626 19.8367 39.1407 20.5441 38.579 21.0501C38.0619 21.5159 37.4152 21.5332 36.8691 20.9269L34.5319 18.3323L33.3818 19.3684L35.8474 22.1056C36.9156 23.2914 38.25 23.2846 39.1951 22.4332C39.7925 21.8951 40.0553 21.2546 39.9614 20.6124L40.4111 21.1117L41.5613 20.0757L37.5455 15.6177L36.3954 16.6537ZM42.6147 19.1268L43.7649 18.0907L37.9019 11.582L36.7517 12.6181L42.6147 19.1268ZM44.3477 11.493L43.3518 10.3874L42.3443 11.295L41.2199 10.0467L40.383 11.4305L41.1941 12.331L40.4184 13.0298L41.4144 14.1353L42.19 13.4366L43.8606 15.2911C44.9449 16.4948 45.9144 16.4774 47.3676 14.8454L46.4279 13.8022C45.8002 14.4322 45.4445 14.7365 45.0108 14.2551L43.3402 12.4005L44.3477 11.493Z" fill="white"/>
<defs>
<linearGradient id="paint0_linear_2075:59" x1="63.3415" y1="0.744128" x2="-2.37423" y2="51.391" gradientUnits="userSpaceOnUse">
<stop stop-color="#86B841"/>
<stop offset="1" stop-color="#41B87F"/>
</linearGradient>
</defs>
</svg>
