<svg width="21" height="20" viewBox="0 0 21 20" fill="#EFEFEF" xmlns="http://www.w3.org/2000/svg">
<path d="M18.1433 4.2893L18.2538 4.2908C18.6639 4.32475 18.9782 4.66563 19 5.07596L18.9894 5.30475L18.64 9.58851L18.2734 13.769C18.1959 14.6035 18.1265 15.3074 18.0665 15.8615C17.8583 17.7926 16.6061 18.9868 14.7185 19.0221C11.7771 19.0765 8.94974 19.076 6.20414 19.0165C4.37108 18.978 3.13741 17.7709 2.93283 15.8694L2.79144 14.4684L2.54438 11.7509L2.29129 8.76883L2.00191 5.18922C1.96594 4.72995 2.29946 4.32771 2.74683 4.29079C3.15692 4.25694 3.52034 4.54182 3.60576 4.94328L3.63901 5.27137L3.91073 8.62718L4.20743 12.1055C4.34051 13.6113 4.45593 14.8299 4.54829 15.686C4.66487 16.7696 5.23486 17.3273 6.23791 17.3484C8.96206 17.4073 11.7683 17.4079 14.689 17.3539C15.753 17.334 16.3321 16.7817 16.4511 15.6777L16.5919 14.2842C16.6331 13.8548 16.6771 13.3807 16.7237 12.8657L17.0207 9.44481L17.3785 5.05532C17.4115 4.63434 17.7436 4.31164 18.1433 4.2893ZM1.31266 5.70233C0.863838 5.70233 0.5 5.32882 0.5 4.86807C0.5 4.44572 0.805725 4.09667 1.20238 4.04143L1.31266 4.03381H4.85302C5.27373 4.03381 5.64205 3.7559 5.7738 3.35549L5.80604 3.23184L6.08116 1.82722C6.32346 0.896927 7.11022 0.234579 8.03222 0.159875L8.20658 0.152832H12.7932C13.7305 0.152832 14.5582 0.760457 14.8768 1.69937L14.9304 1.87923L15.1937 3.23151C15.2763 3.65517 15.6139 3.9716 16.0223 4.02563L16.1468 4.03381H19.6873C20.1362 4.03381 20.5 4.40732 20.5 4.86807C20.5 5.29042 20.1943 5.63948 19.7976 5.69472L19.6873 5.70233H1.31266ZM12.7932 1.82135H8.20658C7.97856 1.82135 7.77588 1.95836 7.69169 2.13054L7.66314 2.20619L7.39977 3.55914C7.36756 3.72427 7.32088 3.88329 7.26124 4.03491L13.7387 4.03512C13.7014 3.94053 13.6693 3.84305 13.6425 3.743L13.5999 3.55881L13.3485 2.2582C13.2897 2.03253 13.1082 1.86732 12.8891 1.82955L12.7932 1.82135Z" fill="#FF7F7F"/>
</svg>
