<svg width="14" height="8" viewBox="0 0 14 8" fill="none" xmlns="http://www.w3.org/2000/svg">
<path opacity="0.6" d="M13.9983 1.35769C13.9987 1.11345 13.9217 0.876757 13.7806 0.688695C13.7011 0.582849 13.6035 0.495356 13.4934 0.431225C13.3832 0.367094 13.2627 0.327585 13.1387 0.314962C13.0148 0.302339 12.8897 0.31685 12.7708 0.357663C12.6519 0.398476 12.5415 0.464789 12.4458 0.552806L7.37188 5.23575L2.28846 0.720054C2.19163 0.633225 2.08022 0.568383 1.96062 0.529256C1.84102 0.490129 1.7156 0.477487 1.59157 0.492058C1.46753 0.506628 1.34733 0.548123 1.23786 0.614159C1.1284 0.680194 1.03183 0.769468 0.95371 0.876848C0.867532 0.985001 0.802529 1.11166 0.76278 1.24886C0.723032 1.38607 0.709397 1.53087 0.72273 1.67418C0.736064 1.81748 0.776078 1.95619 0.840261 2.08161C0.904444 2.20703 0.991411 2.31644 1.0957 2.40299L6.7755 7.45178C6.94489 7.60553 7.15735 7.68957 7.37661 7.68957C7.59588 7.68957 7.80834 7.60553 7.97773 7.45178L13.6575 2.22529C13.7721 2.12042 13.8626 1.98722 13.9219 1.83647C13.9811 1.68573 14.0073 1.5217 13.9983 1.35769Z" fill="black"/>
</svg>
