<svg width="23" height="31" viewBox="0 0 23 31" fill="none" xmlns="http://www.w3.org/2000/svg">
<path d="M0.425781 13.0026C0.425781 12.3077 0.768544 11.3926 1.45407 10.2571C2.1396 9.12167 2.7955 8.1811 3.42178 7.43542C3.59105 7.23206 3.80263 6.98209 4.05653 6.68551C4.31043 6.38894 4.4543 6.2237 4.48815 6.18981L5.47836 7.35916C6.22313 8.18957 6.90865 9.15556 7.53493 10.2571C8.16122 11.3587 8.47436 12.2738 8.47436 13.0026C8.47436 14.1211 8.08928 15.0786 7.31912 15.8751C6.54896 16.6716 5.60531 17.0699 4.48815 17.0699C3.371 17.0699 2.41465 16.6716 1.6191 15.8751C0.823555 15.0786 0.425781 14.1211 0.425781 13.0026ZM8.8806 24.264C8.8806 23.4844 9.10064 22.5735 9.54073 21.5312C9.98082 20.489 10.5225 19.5272 11.1657 18.646C12.4013 16.9852 13.5862 15.604 14.7203 14.5024C14.8387 14.4177 15.0757 14.1974 15.4312 13.8415L16.1167 14.5024C17.1661 15.5023 18.3595 16.875 19.6967 18.6206C20.3907 19.5527 20.9535 20.5271 21.3851 21.544C21.8167 22.5608 22.0325 23.4675 22.0325 24.264C22.0325 26.1282 21.3978 27.6915 20.1283 28.9541C18.8588 30.2167 17.2931 30.848 15.4312 30.848C13.6031 30.848 12.0543 30.204 10.7848 28.916C9.51534 27.628 8.8806 26.0773 8.8806 24.264ZM12.9937 5.55429C12.9937 4.38493 13.8993 2.85121 15.7105 0.953125L16.396 1.71575C16.9038 2.3089 17.3608 2.97408 17.767 3.71128C18.1733 4.44848 18.3764 5.06282 18.3764 5.55429C18.3764 6.29996 18.1183 6.92277 17.602 7.42271C17.0857 7.92266 16.4552 8.17263 15.7105 8.17263C14.9318 8.17263 14.2844 7.92266 13.7681 7.42271C13.2519 6.92277 12.9937 6.29996 12.9937 5.55429Z" fill="white"/>
</svg>
