<svg width="201" height="209" viewBox="0 0 201 209" fill="none" xmlns="http://www.w3.org/2000/svg">
<path d="M175.245 76.5891C178.767 76.5891 181.62 73.7326 181.62 70.2091C181.62 66.6854 178.767 63.8291 175.245 63.8291C171.725 63.8291 168.872 66.6854 168.872 70.2091C168.872 73.7326 171.725 76.5891 175.245 76.5891Z" fill="#EAEEF9"/>
<path d="M5.92312 111.091C8.23919 111.091 10.1167 109.212 10.1167 106.894C10.1167 104.575 8.23919 102.696 5.92312 102.696C3.60704 102.696 1.72949 104.575 1.72949 106.894C1.72949 109.212 3.60704 111.091 5.92312 111.091Z" fill="#EAEEF9"/>
<path d="M25.2005 186.552C27.5165 186.552 29.3942 184.673 29.3942 182.355C29.3942 180.037 27.5165 178.157 25.2005 178.157C22.8843 178.157 21.0068 180.037 21.0068 182.355C21.0068 184.673 22.8843 186.552 25.2005 186.552Z" fill="#EAEEF9"/>
<path d="M47.6167 186.552L106.465 168.112V92.5095L47.6167 110.807V186.552Z" fill="#EFF2F9" stroke="#C7CEDC" stroke-width="2" stroke-miterlimit="10" stroke-linejoin="round"/>
<path d="M165.314 186.552L106.465 168.112V92.5095L165.314 110.807V186.552Z" fill="#EFF2F9" stroke="#C7CEDC" stroke-width="2" stroke-miterlimit="10" stroke-linejoin="round"/>
<path d="M106.465 205.133L47.6167 186.693V111.091L106.465 129.531V205.133Z" fill="white" stroke="#C7CEDC" stroke-width="2" stroke-miterlimit="10" stroke-linejoin="round"/>
<path d="M106.465 205.133L165.314 186.693V111.091L106.465 129.531V205.133Z" fill="white" stroke="#C7CEDC" stroke-width="2" stroke-miterlimit="10" stroke-linejoin="round"/>
<path d="M106.465 92.5095L78.7968 71.8003L18.9653 91.9421L47.617 110.807L106.465 92.5095Z" fill="#EFF2F9" stroke="#C7CEDC" stroke-width="2" stroke-miterlimit="10" stroke-linejoin="round"/>
<path d="M106.465 92.5095L134.134 71.8003L193.965 91.9421L165.314 110.807L106.465 92.5095Z" fill="#EFF2F9" stroke="#C7CEDC" stroke-width="2" stroke-miterlimit="10" stroke-linejoin="round"/>
<path d="M47.617 111.091L106.465 129.531L77.1113 148.254L18.9653 128.963L47.617 111.091Z" fill="#EFF2F9" stroke="#C7CEDC" stroke-width="2" stroke-miterlimit="10" stroke-linejoin="round"/>
<path d="M165.314 111.091L106.465 129.531L135.819 148.254L193.965 128.963L165.314 111.091Z" fill="#EFF2F9" stroke="#C7CEDC" stroke-width="2" stroke-miterlimit="10" stroke-linejoin="round"/>
<path d="M122.884 19.928C131.129 42.3021 133.586 47.2735 134.393 69.32C134.082 74.3525 133.89 79.8248 131.517 84.2313C128.349 90.972 120.599 95.6403 113.277 95.716C105.733 95.8506 98.3383 91.2321 95.0098 84.1103C92.6679 79.7881 92.7424 73.876 95.9548 69.9518C99.4469 66.1881 105.591 65.2498 110.01 67.6013C114.872 69.8346 117.773 74.4783 118.848 79.3755C119.923 84.2726 119.451 89.5843 118.139 94.4136C115.395 106.159 113.122 106.728 106.394 126.614" stroke="#C9D4E2" stroke-width="2" stroke-miterlimit="10" stroke-dasharray="4 4"/>
<path d="M132.918 8.08574C132.899 11.3757 129.837 13.3902 125.955 12.3397C121.867 11.6429 118.973 10.9246 118.787 7.98832C118.881 4.97699 122.166 3.7984 126.012 2.46982C130.623 0.637627 132.657 4.87077 132.918 8.08574Z" fill="#EFF2F9" stroke="#C7CEDC" stroke-width="2" stroke-miterlimit="10" stroke-linejoin="round"/>
<path d="M106.503 18.1463C108.575 20.2791 112.943 20.9009 115.071 17.6433C117.405 14.032 119.403 11.4066 117.256 8.99523C115.185 6.86251 113.168 8.29838 108.557 10.1306C104.861 12.0164 104.077 15.81 106.503 18.1463Z" fill="#EFF2F9" stroke="#C7CEDC" stroke-width="2" stroke-miterlimit="10" stroke-linejoin="round"/>
<path d="M116.063 4.53732C117.948 3.73372 120.207 4.32327 121.215 5.84508C121.644 6.32735 122.148 7.08827 122.297 7.64553C123.902 11.3964 123.397 15.115 121.232 15.9936C118.861 17.2258 115.595 15.1144 114.344 11.5672C114.046 10.4527 113.897 9.8954 113.673 9.0595C113.43 7.03407 114.177 5.34092 116.063 4.53732C116.343 4.46232 116.063 4.53732 116.063 4.53732Z" fill="#EFF2F9"/>
<path d="M116.063 4.53732C117.948 3.73372 120.207 4.32327 121.215 5.84508C121.644 6.32735 122.148 7.08827 122.297 7.64553C123.902 11.3964 123.397 15.115 121.232 15.9936C118.861 17.2258 115.595 15.1144 114.344 11.5672C114.046 10.4527 113.897 9.8954 113.673 9.0595C113.43 7.03407 114.177 5.34092 116.063 4.53732ZM116.063 4.53732C116.063 4.53732 116.343 4.46232 116.063 4.53732V4.53732Z" stroke="#C7CEDC" stroke-width="2" stroke-miterlimit="10" stroke-linejoin="round"/>
<path d="M29.3942 64.9173H25.744V61.2671H22.6153V64.9173H18.9653V68.1501H22.6153V71.8003H25.744V68.1501H29.3942V64.9173Z" fill="#AAB2C5"/>
<path d="M37.4116 156.496H33.7616V152.846H30.6329V156.496H26.9829V159.729H30.6329V163.379H33.7616V159.729H37.4116V156.496Z" fill="#AAB2C5"/>
<path d="M196.975 156.702L192.508 154.448L194.763 149.982L190.935 148.049L188.68 152.515L184.215 150.26L182.218 154.216L186.683 156.471L184.428 160.936L188.257 162.869L190.512 158.403L194.978 160.658L196.975 156.702Z" fill="#AAB2C5"/>
</svg>
