<svg width="57" height="57" viewBox="0 0 69 69" fill="none" xmlns="http://www.w3.org/2000/svg">
<path d="M45.3103 28.2308H43.978L43.9989 28.1959C44.2102 27.8425 44.1245 27.3649 43.8076 27.1293C43.4906 26.8936 43.0623 26.9891 42.8511 27.3426C42.0567 28.6714 42.0775 28.6183 42.0363 28.7537C41.9655 28.9881 42.0017 29.2366 42.1154 29.4267C42.1904 29.5517 41.8448 28.9741 42.8511 30.6574C42.984 30.8797 43.2027 31 43.4256 31C43.9688 30.9999 44.3067 30.319 43.9989 29.804L43.978 29.7692H45.3103C45.6912 29.7692 46 29.4248 46 29C46 28.5752 45.6912 28.2308 45.3103 28.2308Z" fill="#72B852"/>
<path d="M26.3195 29.3423C26.4339 29.1707 26.4731 28.9438 26.4001 28.7271C26.3579 28.6031 26.3783 28.6504 25.5695 27.4373C25.3541 27.1142 24.9175 27.0269 24.5945 27.2423C24.2713 27.4577 24.184 27.8942 24.3995 28.2173L24.4207 28.2492H23.0626C22.6743 28.2492 22.3595 28.564 22.3595 28.9523C22.3595 29.3406 22.6743 29.6554 23.0626 29.6554H24.4207L24.3995 29.6872C24.0852 30.1587 24.4313 30.7805 24.9839 30.7805C25.2111 30.7805 25.4341 30.6705 25.5695 30.4673C26.5965 28.9268 26.2431 29.4566 26.3195 29.3423Z" fill="#72B852"/>
<path d="M42.0009 35.3329C41.8401 34.562 41.6222 33.7591 41.3343 32.9311L40.6893 33.1751C37.3884 34.4855 31.334 34.4868 28.0299 33.1751L27.3849 32.9311C27.097 33.7591 26.879 34.562 26.7183 35.3329C27.221 35.3977 27.3752 35.4173 27.3925 35.4201C28.6733 35.6257 32.5496 36.4291 34.3596 38.7889C36.1696 36.4291 40.0459 35.6257 41.3267 35.4201C41.344 35.4173 41.4981 35.3977 42.0009 35.3329Z" fill="#72B852"/>
<circle cx="34.2023" cy="34.2023" r="33.2023" stroke="#72B852" stroke-width="2"/>
<path d="M27.2311 31.8153C27.8184 32.0372 27.916 32.074 27.9276 32.0785C31.0171 33.3064 36.9788 33.308 40.0725 32.0785C40.0841 32.074 40.1841 32.0362 40.769 31.8153C39.9289 29.4395 39.9833 27.2651 40.1898 25.8232C40.4289 24.1541 40.9179 23.0709 40.9311 23.0421C41.1564 22.5572 40.8019 22 40.2651 22H27.7349C27.199 22 26.8427 22.557 27.0694 23.043C27.0886 23.0841 28.9075 27.0828 27.2311 31.8153V31.8153ZM33.2692 30.5316C33.3143 30.1056 33.7056 29.8027 34.1434 29.8849C34.5379 29.9667 34.7964 30.3392 34.72 30.7472C34.6364 31.1457 34.2614 31.3987 33.8565 31.3231C33.4678 31.242 33.2329 30.8888 33.2692 30.5316V30.5316Z" fill="#72B852"/>
<path d="M33.4991 40.3399C32.407 37.8056 27.9477 36.9597 27.0228 36.8103L26.3252 36.7204C26.0576 38.7633 26.1734 40.5204 26.3829 41.8362C26.7717 44.2788 27.5479 45.7658 27.5807 45.8279C27.7025 46.0582 27.9417 46.2023 28.2023 46.2023H33.4991V40.3399H33.4991Z" fill="#72B852"/>
<path d="M41.5389 36.8103C40.614 36.9597 36.1547 37.8056 35.0626 40.3399V46.2023H40.3595C40.6201 46.2023 40.8592 46.0582 40.9811 45.8279C41.0139 45.7658 41.79 44.2788 42.1789 41.8362C42.3884 40.5204 42.5041 38.7633 42.2365 36.7204L41.5389 36.8103Z" fill="#72B852"/>
</svg>
