<svg width="14" height="13" viewBox="0 0 14 13" fill="none" xmlns="http://www.w3.org/2000/svg">
<path d="M8.74806 4.12169L8.86629 4.35337L9.12387 4.38956L13.2487 4.96902C13.2489 4.96904 13.249 4.96906 13.2491 4.96908C13.2538 4.96979 13.2574 4.97099 13.26 4.97226L10.2791 7.78156L10.0825 7.96685L10.1297 8.23284L10.834 12.1998C10.8335 12.2002 10.8329 12.2006 10.8323 12.201C10.8303 12.2022 10.8269 12.2039 10.8209 12.2049L10.8202 12.205C10.8166 12.2056 10.8125 12.2057 10.8086 12.2051C10.8068 12.2048 10.8054 12.2044 10.8043 12.2041C10.8031 12.2037 10.8023 12.2034 10.802 12.2032L10.7998 12.2021L7.10892 10.3263L6.88239 10.2112L6.65586 10.3263L2.96502 12.2021L2.96426 12.2025C2.95982 12.2047 2.95356 12.2063 2.94656 12.2058C2.93958 12.2053 2.93432 12.203 2.93126 12.2008L2.93042 12.202L2.93042 12.202L2.93126 12.2008C2.93106 12.2007 2.93088 12.2006 2.93071 12.2004L3.6351 8.23284L3.68232 7.96685L3.48572 7.78156L0.504543 4.97205C0.506997 4.97084 0.509933 4.96988 0.513352 4.9694L0.514513 4.96924L4.6409 4.38956L4.89848 4.35337L5.01671 4.12169L6.86021 0.509074C6.8605 0.508562 6.86097 0.507928 6.86213 0.506962C6.86382 0.505564 6.867 0.503523 6.87176 0.501966C6.88179 0.498687 6.89085 0.499771 6.89783 0.503102L6.8984 0.503374C6.90181 0.504998 6.90318 0.50656 6.90346 0.506904L8.74806 4.12169Z" fill="#74BD21" stroke="#74BD21"/>
</svg>
