<svg width="25" height="25" viewBox="0 0 25 25" fill="none" xmlns="http://www.w3.org/2000/svg">
<g clip-path="url(#clip0_1938_179)">
<path d="M1.43774 8.75232H15.6936C16.1254 10.7592 17.9132 12.2679 20.0471 12.2679C22.5026 12.2679 24.5002 10.2703 24.5002 7.81482C24.5002 5.35938 22.5026 3.36169 20.0471 3.36169C17.9132 3.36169 16.1254 4.87048 15.6936 6.87732H1.43774C0.919922 6.87732 0.500244 7.297 0.500244 7.81482C0.500244 8.33264 0.919922 8.75232 1.43774 8.75232ZM20.0471 5.23669C21.4688 5.23669 22.6252 6.39319 22.6252 7.81482C22.6252 9.23645 21.4688 10.3929 20.0471 10.3929C18.6255 10.3929 17.469 9.23645 17.469 7.81482C17.469 6.39319 18.6255 5.23669 20.0471 5.23669ZM23.5627 17.1898H9.30688C8.87512 15.183 7.08728 13.6742 4.95337 13.6742C2.49792 13.6742 0.500244 15.6719 0.500244 18.1273C0.500244 20.5828 2.49792 22.5804 4.95337 22.5804C7.08728 22.5804 8.87512 21.0717 9.30688 19.0648H23.5627C24.0806 19.0648 24.5002 18.6451 24.5002 18.1273C24.5002 17.6095 24.0806 17.1898 23.5627 17.1898ZM4.95337 20.7054C3.53174 20.7054 2.37524 19.549 2.37524 18.1273C2.37524 16.7057 3.53174 15.5492 4.95337 15.5492C6.375 15.5492 7.53149 16.7057 7.53149 18.1273C7.53149 19.549 6.375 20.7054 4.95337 20.7054Z" fill="black"/>
</g>
<defs>
<clipPath id="clip0_1938_179">
<rect width="24" height="24" fill="white" transform="translate(0.500244 0.971069)"/>
</clipPath>
</defs>
</svg>
