<svg width="62" height="63" viewBox="0 0 62 63" fill="none" xmlns="http://www.w3.org/2000/svg">
<g clip-path="url(#clip0_3921_442)">
<path fill-rule="evenodd" clip-rule="evenodd" d="M26.3367 53.127L38.6214 52.9108C39.0404 52.907 39.4546 52.8206 39.8402 52.6566C40.2258 52.4926 40.5753 52.2541 40.8686 51.9548C41.1619 51.6555 41.3933 51.3014 41.5496 50.9125C41.7058 50.5237 41.7839 50.1079 41.7792 49.6888L45.8583 16.1374C45.8343 15.2921 45.4761 14.4908 44.8622 13.9091C44.2483 13.3275 43.4288 13.013 42.5834 13.0347L20.7995 13.4258C20.381 13.43 19.9674 13.5166 19.5824 13.6807C19.1974 13.8448 18.8486 14.0832 18.5558 14.3823C18.263 14.6813 18.0321 15.0352 17.8762 15.4236C17.7203 15.812 17.6425 16.2273 17.6473 16.6458L23.0599 50.0224C23.0928 51.7725 24.5623 53.1585 26.3367 53.127ZM32.3811 37.1168C29.4916 40.1475 23.8885 41.2009 23.8885 41.2009L22.2727 29.857L20.6656 18.5875C20.6675 17.785 20.9828 17.015 21.5444 16.4417C22.1061 15.8685 22.8695 15.5375 23.6717 15.5193L39.8971 15.0836C40.2905 15.0683 40.6829 15.1318 41.0514 15.2705C41.4198 15.4092 41.7568 15.6202 42.0424 15.8912C42.328 16.1621 42.5565 16.4875 42.7143 16.8482C42.8722 17.2088 42.9563 17.5974 42.9616 17.9911L41.1246 32.9126C41.1247 32.9163 35.7491 33.5855 32.3811 37.1168Z" fill="white"/>
</g>
<defs>
<clipPath id="clip0_3921_442">
<rect width="44.7696" height="42.1361" fill="white" transform="translate(0.443359 33.1804) rotate(-46.0777)"/>
</clipPath>
</defs>
</svg>
