<svg width="24" height="25" viewBox="0 0 24 25" fill="none" xmlns="http://www.w3.org/2000/svg">
<path d="M8.86212 22.8677V19.1985C8.86212 18.2618 9.62699 17.5025 10.5705 17.5025H14.0195C14.4726 17.5025 14.9071 17.6812 15.2275 17.9992C15.5479 18.3173 15.7279 18.7487 15.7279 19.1985V22.8677C15.725 23.2571 15.8789 23.6316 16.1552 23.9079C16.4316 24.1843 16.8076 24.3397 17.1999 24.3397H19.553C20.6519 24.3425 21.7069 23.9111 22.485 23.1407C23.2631 22.3702 23.7004 21.3241 23.7004 20.2331V9.77995C23.7004 8.89867 23.3069 8.06273 22.6259 7.49732L14.6212 1.15076C13.2288 0.0379959 11.2337 0.0739244 9.88285 1.2361L2.0608 7.49732C1.34768 8.04606 0.921453 8.88448 0.900391 9.77995V20.2224C0.900391 22.4963 2.75725 24.3397 5.0478 24.3397H7.34713C8.16186 24.3397 8.82398 23.6872 8.82989 22.8784L8.86212 22.8677Z" fill="#D2D2D2"/>
</svg>
