<?xml version="1.0" encoding="UTF-8"?>
<!DOCTYPE svg PUBLIC "-//W3C//DTD SVG 1.1//EN" "http://www.w3.org/Graphics/SVG/1.1/DTD/svg11.dtd">
<!-- Creator: CorelDRAW 2020 (64-Bit) -->
<svg xmlns="http://www.w3.org/2000/svg" xml:space="preserve" width="200mm" height="200mm" version="1.1" style="shape-rendering:geometricPrecision; text-rendering:geometricPrecision; image-rendering:optimizeQuality; fill-rule:evenodd; clip-rule:evenodd"
viewBox="0 0 20000 20000"
 xmlns:xlink="http://www.w3.org/1999/xlink"
 xmlns:xodm="http://www.corel.com/coreldraw/odm/2003">
 <defs>
  <style type="text/css">
   <![CDATA[
    .fil1 {fill:#FEFEFE;fill-rule:nonzero}
    .fil0 {fill:url(#id0)}
   ]]>
  </style>
  <linearGradient id="id0" gradientUnits="userSpaceOnUse" x1="7935.83" y1="20764.09" x2="23493.83" y2="-4013.46">
   <stop offset="0" style="stop-opacity:1; stop-color:#FFA812"/>
   <stop offset="1" style="stop-opacity:1; stop-color:#FFCE78"/>
  </linearGradient>
 </defs>
 <g id="Layer_x0020_1">
  <metadata id="CorelCorpID_0Corel-Layer"/>
  <g id="_2423184049440">
   <circle class="fil0" cx="9952.61" cy="9671.82" r="8931.44"/>
   <g>
    <path class="fil1" d="M10826.2 5851.48c617.5,0 1118.08,-500.58 1118.08,-1118.08 0,-617.48 -500.58,-1118.04 -1118.08,-1118.04 -617.46,0 -1118.05,500.56 -1118.05,1118.04 0,617.5 500.59,1118.08 1118.05,1118.08zm-3687.59 5158.82l-344.78 804.06 -1558.02 0c-411.64,0 -745.4,333.77 -745.4,745.39 0,411.67 333.76,745.42 745.4,745.42l1804.07 0c448.38,0 852.1,-266.53 1027.46,-677.62l204.75 -477.94 -248.52 -146.76c-403.4,-238.35 -700.23,-591 -884.96,-992.55zm6296.47 -2177.48l-1025.6 0 -607.07 -1240.34c-291.1,-595.24 -825.74,-1030.32 -1439.09,-1186.59l-1655.66 -492.42c-659.16,-158.39 -1345.65,-12.87 -1883.06,399.22l-924.03 708.37c-326.75,250.41 -388.7,718.18 -137.87,1044.94 250.83,326.85 718.32,388.07 1044.91,137.87l924.58 -708.37c178.61,-137.16 406.16,-186.27 588.57,-142.94l342.47 101.76 -872.57 2035.62c-293.99,686.67 -30.58,1491.02 612.6,1870.67l1979.46 1168.58 -639.84 2043.57c-123.02,392.69 95.67,810.9 488.37,933.82 74.35,23.36 149.36,34.54 223.23,34.54 316.96,0 610.93,-204.29 710.88,-522.92l538.65 -1720.56c-16.13,-36.36 -25.14,-76.53 -25.14,-118.7l0 -0.04c0,-105.82 56.53,-199.07 140.89,-251.02l82.57 -263.74c137.74,-483.86 -67.3,-1003.45 -504.08,-1266.94l-1426.44 -841.84 729.35 -1823.4 472.12 965.04c186.38,380.61 580.44,626.37 1004.2,626.37l1257.6 0c411.64,0 745.42,-333.79 745.42,-745.42 0,-411.54 -333.78,-745.13 -745.42,-745.13z"/>
    <path class="fil1" d="M15182 13301.75c0,-1236.75 -1002.53,-2239.26 -2239.26,-2239.26 -1236.75,0 -2239.28,1002.51 -2239.28,2239.26 0,1236.76 1002.53,2239.25 2239.28,2239.25 1236.73,0 2239.26,-1002.49 2239.26,-2239.25zm-2119.16 1299.97l-0.04 0c-162.03,0 -294.6,-132.57 -294.6,-294.6l0 -833.58 -794.72 0c-162.04,0 -294.61,-132.57 -294.61,-294.6l0 -0.04c0,-162.04 132.57,-294.61 294.61,-294.61l794.72 0 0 -779.13c0,-162.05 132.57,-294.62 294.6,-294.62l0.04 0c162.04,0 294.61,132.57 294.61,294.62l0 779.13 817.98 0c162.04,0 294.6,132.57 294.6,294.61l0 0.04c0,162.03 -132.56,294.6 -294.6,294.6l-817.98 0 0 833.58c0,162.03 -132.57,294.6 -294.61,294.6z"/>
   </g>
  </g>
 </g>
</svg>
