<svg width="35" height="35" viewBox="0 0 35 35" fill="none" xmlns="http://www.w3.org/2000/svg">
<path d="M23.5374 3.11548C23.4674 3.55297 23.4324 3.99047 23.4324 4.42796C23.4324 8.3654 26.6174 11.5486 30.5373 11.5486C30.9748 11.5486 31.3948 11.4979 31.8323 11.4279V25.5484C31.8323 31.4826 28.3324 35 22.3824 35H9.4517C3.49998 35 0 31.4826 0 25.5484V12.6003C0 6.65043 3.49998 3.11548 9.4517 3.11548H23.5374ZM23.8891 13.7553C23.4149 13.7028 22.9441 13.9128 22.6624 14.2978L18.4292 19.7752L13.5799 15.9603C13.2824 15.7328 12.9324 15.6435 12.5824 15.6803C12.2342 15.7328 11.9192 15.9235 11.7074 16.2035L6.52922 22.9427L6.42247 23.1002C6.12497 23.6584 6.26497 24.3759 6.78997 24.7627C7.03497 24.9202 7.29746 25.0251 7.59496 25.0251C7.99921 25.0426 8.38246 24.8309 8.62746 24.5002L13.0199 18.846L18.0074 22.5927L18.1649 22.6959C18.7249 22.9934 19.4249 22.8552 19.8274 22.3284L24.8849 15.8028L24.8149 15.8378C25.0949 15.4528 25.1474 14.9628 24.9549 14.5253C24.7641 14.0878 24.3424 13.7903 23.8891 13.7553ZM30.7825 0C33.11 0 35 1.88997 35 4.21744C35 6.5449 33.11 8.43487 30.7825 8.43487C28.455 8.43487 26.565 6.5449 26.565 4.21744C26.565 1.88997 28.455 0 30.7825 0Z" fill="#72B852"/>
</svg>
