<svg width="70" height="70" viewBox="0 0 70 70" fill="none" xmlns="http://www.w3.org/2000/svg">
<path d="M5.22603 47.768C5.05222 46.4874 3.95395 45.5 2.625 45.5C1.29605 45.5 0.197785 46.4874 0.0239754 47.768L0 48.1241V60.3782L0.0190054 60.9877C0.32137 65.8241 4.19769 69.6917 9.03868 69.9825L9.625 70H21.875L22.2312 69.9762C23.5125 69.8023 24.5 68.7044 24.5 67.3759C24.5 66.0473 23.5125 64.9494 22.2312 64.7759L21.875 64.7517H9.625L9.1777 64.7293C7.11865 64.5201 5.4817 62.8837 5.27257 60.8253L5.25 60.3782V48.1241L5.22603 47.768Z" fill="#72B852"/>
<path d="M69.9759 47.768C69.8023 46.4874 68.704 45.5 67.3751 45.5C65.9254 45.5 64.7501 46.6749 64.7501 48.1241V60.3782L64.7273 60.8253C64.5033 63.031 62.6403 64.7517 60.3751 64.7517H48.1251L47.7688 64.7759C46.4874 64.9494 45.5001 66.0473 45.5001 67.3759C45.5001 68.8251 46.6754 70 48.1251 70H60.3751L60.9613 69.9825C66.0041 69.6795 70.0001 65.4956 70.0001 60.3782V48.1241L69.9759 47.768Z" fill="#72B852"/>
<path d="M24.5 2.62412C24.5 1.17487 23.3247 0 21.875 0H9.625L9.03868 0.0175638C3.99595 0.320493 0 4.50464 0 9.62178V21.8759L0.0239754 22.232C0.197785 23.5128 1.29605 24.5 2.625 24.5C4.07474 24.5 5.25 23.3251 5.25 21.8759V9.62178L5.27257 9.1746C5.49664 6.96922 7.35976 5.24825 9.625 5.24825H21.875L22.2312 5.22428C23.5125 5.05053 24.5 3.95263 24.5 2.62412Z" fill="#72B852"/>
<path d="M60.9613 0.0175638L60.3751 0H48.1251L47.7688 0.023967C46.4874 0.197719 45.5001 1.29562 45.5001 2.62412C45.5001 3.95263 46.4874 5.05053 47.7688 5.22428L48.1251 5.24825H60.3751L60.8224 5.27081C62.8814 5.47987 64.5184 7.11627 64.7273 9.1746L64.7501 9.62178V21.8759L64.7739 22.232C64.9478 23.5128 66.0461 24.5 67.3751 24.5C68.704 24.5 69.8023 23.5128 69.9759 22.232L70.0001 21.8759V9.62178L69.9808 9.01239C69.6788 4.1761 65.8022 0.308352 60.9613 0.0175638Z" fill="#72B852"/>
<path d="M22.75 40.25C22.75 33.4845 28.2345 28 35 28C41.7655 28 47.25 33.4845 47.25 40.25C47.25 47.0155 41.7655 52.5 35 52.5C28.2345 52.5 22.75 47.0155 22.75 40.25Z" fill="#72B852"/>
<path d="M15.5159 33.2267L15.4864 33.2985L15.4836 33.3062C14.9699 34.6568 13.4577 35.34 12.1008 34.8321C10.0061 34.0485 10.5659 31.4411 10.5734 31.4215L10.5937 31.3697C10.6099 31.3284 10.6319 31.2742 10.6596 31.2077C10.7152 31.0747 10.7944 30.8923 10.8989 30.6676C11.1077 30.2186 11.4192 29.5984 11.8483 28.8645C12.7046 27.3998 14.0421 25.4594 15.9869 23.5186C19.9168 19.5969 26.2619 15.75 35.8216 15.75C45.3813 15.75 51.7263 19.5969 55.6562 23.5186C57.6013 25.4594 58.9386 27.3998 59.7951 28.8645C60.2241 29.5984 60.5355 30.2186 60.7445 30.6676C60.8491 30.8923 60.928 31.0747 60.9837 31.2077C61.0114 31.2742 61.0332 31.3284 61.0497 31.3697L61.0697 31.4215L61.0767 31.4397L61.0795 31.447L61.0819 31.453C61.5919 32.8103 60.9027 34.3233 59.5426 34.8321C58.187 35.3396 56.68 34.6295 56.1567 33.2992L56.1272 33.2267C56.1272 33.2267 56.0462 33.0363 55.9726 32.8785C55.8252 32.5618 55.5889 32.0882 55.2508 31.5097C54.5724 30.3495 53.4989 28.7899 51.9364 27.2307C48.8518 24.1527 43.7981 20.9999 35.8216 20.9999C27.845 20.9999 22.7915 24.1527 19.7069 27.2307C18.1444 28.7899 17.0707 30.3495 16.3925 31.5097C16.0544 32.0882 15.8179 32.5618 15.6705 32.8785C15.597 33.0363 15.5459 33.155 15.5159 33.2267Z" fill="#72B852"/>
</svg>
