<svg width="21" height="28" viewBox="0 0 21 28" fill="none" xmlns="http://www.w3.org/2000/svg">
<path d="M10.4624 0.194336C4.9484 0.194336 0.462433 4.6803 0.462433 10.1943C0.462433 17.0373 9.41145 27.0832 9.79247 27.5076C10.1503 27.9062 10.7752 27.9054 11.1324 27.5076C11.5134 27.0832 20.4624 17.0373 20.4624 10.1943C20.4623 4.6803 15.9764 0.194336 10.4624 0.194336ZM10.4624 15.2255C7.68819 15.2255 5.43123 12.9685 5.43123 10.1943C5.43123 7.42003 7.68824 5.16308 10.4624 5.16308C13.2366 5.16308 15.4936 7.42009 15.4936 10.1943C15.4936 12.9686 13.2366 15.2255 10.4624 15.2255Z" fill="white"/>
</svg>
