<svg width="68" height="65" viewBox="0 0 68 65" fill="none" xmlns="http://www.w3.org/2000/svg">
<path d="M35.3087 0C35.3087 0 33.5368 0.904257 31.7667 2.2359C30.8818 2.90172 29.986 3.67418 29.2778 4.56381C28.5696 5.4533 27.9923 6.50959 28.0801 7.74471C28.1777 9.11736 29.1082 10.1396 30.1008 10.7525C31.0933 11.3653 32.2202 11.7361 33.2816 12.1018C34.3431 12.4675 35.3392 12.8282 35.9711 13.2185C36.6032 13.6087 36.7985 13.8615 36.8301 14.3072C36.8338 14.3578 36.773 14.6279 36.4729 15.0049C36.1728 15.3818 35.69 15.8156 35.185 16.1957C34.1749 16.9554 33.1212 17.5 33.1212 17.5L34.2437 19.6897C34.2437 19.6897 35.4504 19.0753 36.6644 18.162C37.2714 17.7054 37.8916 17.1739 38.3981 16.5378C38.9047 15.9013 39.3542 15.1104 39.2848 14.1325C39.1871 12.7598 38.2566 11.7376 37.2641 11.1247C36.2716 10.5118 35.1447 10.1411 34.0833 9.77539C33.0218 9.40967 32.0257 9.049 31.3938 8.65867C30.7617 8.26834 30.5663 8.01568 30.5348 7.56998C30.5129 7.26209 30.7012 6.7267 31.2028 6.09656C31.7045 5.46629 32.463 4.79103 33.2462 4.20191C34.8122 3.02381 36.4312 2.18969 36.4312 2.18969L35.3087 0ZM17.8087 6.5625C17.8087 6.5625 16.0368 7.46676 14.2667 8.7984C13.3818 9.46422 12.486 10.2367 11.7778 11.1263C11.0696 12.0158 10.4923 13.0721 10.5801 14.3072C10.6777 15.6799 11.6082 16.7021 12.6008 17.315C13.5933 17.9278 14.7202 18.2986 15.7816 18.6643C16.8431 19.03 17.8392 19.3907 18.4711 19.781C19.1032 20.1712 19.2985 20.424 19.3301 20.8697C19.3338 20.9203 19.273 21.1904 18.9729 21.5674C18.6728 21.9443 18.19 22.3781 17.685 22.7582C16.6749 23.5179 15.6212 24.0625 15.6212 24.0625L16.7437 26.2522C16.7437 26.2522 17.9504 25.6378 19.1644 24.7245C19.7714 24.2679 20.3916 23.7364 20.8981 23.1001C21.4047 22.4638 21.8542 21.6728 21.7848 20.695C21.6872 19.3223 20.7566 18.3001 19.7641 17.6872C18.7716 17.0743 17.6446 16.7036 16.5833 16.3379C15.5218 15.9722 14.5257 15.6115 13.8938 15.2212C13.2617 14.8308 13.0663 14.5782 13.0348 14.1325C13.0129 13.8246 13.2012 13.2892 13.7028 12.6591C14.2045 12.0288 14.963 11.3535 15.7462 10.7644C17.3121 9.58631 18.9312 8.75219 18.9312 8.75219L17.8087 6.5625ZM52.8087 6.5625C52.8087 6.5625 51.0368 7.46676 49.2667 8.7984C48.3818 9.46422 47.486 10.2367 46.7778 11.1263C46.0696 12.0158 45.4923 13.0721 45.5801 14.3072C45.6777 15.6799 46.6082 16.7021 47.6008 17.315C48.5933 17.9278 49.7202 18.2986 50.7816 18.6643C51.8431 19.03 52.8392 19.3907 53.4711 19.781C54.1032 20.1712 54.2985 20.424 54.3301 20.8697C54.3338 20.9203 54.273 21.1904 53.9729 21.5674C53.6728 21.9443 53.19 22.3781 52.685 22.7582C51.6749 23.5179 50.6212 24.0625 50.6212 24.0625L51.7437 26.2522C51.7437 26.2522 52.9504 25.6378 54.1644 24.7245C54.7714 24.2679 55.3916 23.7364 55.8981 23.1001C56.4047 22.4638 56.8542 21.6728 56.7848 20.695C56.6871 19.3223 55.7566 18.3001 54.7641 17.6872C53.7716 17.0743 52.6447 16.7036 51.5833 16.3379C50.5218 15.9722 49.5257 15.6115 48.8938 15.2212C48.2617 14.8308 48.0663 14.5782 48.0348 14.1325C48.0129 13.8246 48.2012 13.2892 48.7028 12.6591C49.2045 12.0288 49.963 11.3535 50.7462 10.7644C52.3121 9.58631 53.9312 8.75219 53.9312 8.75219L52.8087 6.5625ZM33.6824 22.8329C31.9051 22.8329 30.7031 23.6414 29.7843 25.0195C29.404 25.5901 29.097 26.2637 28.8663 26.9972C30.4139 26.7775 32.0204 26.6615 33.6824 26.6615C35.3445 26.6615 36.9508 26.7775 38.4986 26.9972C38.2679 26.2637 37.9609 25.5901 37.5806 25.0195C36.6618 23.6414 35.4598 22.8329 33.6824 22.8329ZM33.6824 29.1219C17.3545 29.1219 7.19291 40.8851 6.5383 52.9115H60.8266C60.1718 40.8851 50.0102 29.1218 33.6824 29.1218V29.1219ZM1.73988 53.5452L0 55.2851C2.47734 57.7626 5.24494 57.8328 7.43244 57.8328H59.9324C62.1199 57.8328 64.8874 57.7626 67.3649 55.2851L65.625 53.5452C63.7273 55.4427 62.1199 55.3725 59.9324 55.3725H7.43244C5.24494 55.3725 3.6374 55.4427 1.73988 53.5452ZM14.1062 60.2938L16.8409 64.3959H50.524L53.2587 60.2938H14.1062Z" fill="#72B852"/>
</svg>
