<svg id="Layer_1" data-name="Layer 1" xmlns="http://www.w3.org/2000/svg" viewBox="0 0 87.3 55.32"><defs><style>.cls-1{fill:#d1f0c2;}.cls-2{fill:#fff;}</style></defs><polygon class="cls-1" points="16.41 55.32 81.83 55.32 79.62 41.2 78.13 51.58 16.41 55.32"/><path class="cls-2" d="M110.22,24.32l.87-.08,0,.3-.29,0-.12,1.29-.3,0,.12-1.3-.28,0Z" transform="translate(-31.55 -2.8)"/><path class="cls-2" d="M111.44,24.21l.29,0,.27,1.08.47-1.14.29,0,.12,1.58-.29,0-.08-1-.43,1-.26,0-.24-1-.26,1-.29,0Z" transform="translate(-31.55 -2.8)"/><path class="cls-1" d="M45,51.77c-.24,1.4-.49,2.81-2.62,3l-1.78.15c-2.13.19-1.89-1.22-1.64-2.62L42.33,33c.25-1.41.49-2.82,2.63-3l1.77-.16c2.13-.18,1.89,1.22,1.65,2.63Z" transform="translate(-31.55 -2.8)"/><path class="cls-1" d="M59.92,39.73c.1,0,.19-.12.24-.36l1.4-8.09c.24-1.4.49-2.81,2.62-3L66,28.13c2.13-.19,1.88,1.22,1.64,2.63L64.24,50.09c-.24,1.4-.48,2.81-2.62,3-3.2.28-3.35-.26-3.66-1.27l-3-9.74c-.07-.2-.16-.33-.23-.33s-.16.16-.2.37l-1.52,9c-.24,1.4-.49,2.81-2.62,3l-1.78.16c-2.13.19-1.89-1.22-1.64-2.63l3.36-19.33c.24-1.4.48-2.81,2.62-3l1.88-.17c1.17-.1,1.54,0,1.88,1l2.91,9.26C59.72,39.65,59.81,39.74,59.92,39.73Z" transform="translate(-31.55 -2.8)"/><path class="cls-2" d="M86.88,28.32c1.1-1.89,1.94-2.1,3.22-2.22L92,25.94c2.13-.19,1.89,1.22,1.64,2.62L90.31,47.89c-.25,1.41-.49,2.81-2.62,3L85.91,51c-2.13.19-1.89-1.21-1.64-2.62l1.67-9.67c0-.21,0-.34-.11-.33s-.24.16-.38.38c-3.39,5.17-3.67,6.38-4.84,6.48s-1.07-1.08-2.7-5.82c-.07-.2-.18-.33-.26-.33s-.2.16-.23.37l-1.68,9.67c-.25,1.4-.49,2.81-2.62,3l-1.78.16c-2.13.19-1.89-1.22-1.64-2.63l3.35-19.33c.25-1.4.49-2.81,2.62-3l1.89-.17c1.31-.11,2.1,0,2.57,1.71l1.58,6c.18.61.29,1,.54.92s.49-.38.88-1Z" transform="translate(-31.55 -2.8)"/><path class="cls-2" d="M99,43.57c-.07.77.58,1.09,1.29,1,2-.18,2.71-.31,3.46-.37,1.49-.13,1.88.25,1.69,1.3L105,48a1.55,1.55,0,0,1-1.67,1.53l-9.38.82c-2.13.19-1.77-1.92-1.64-2.62l3.35-19.33c.25-1.41.49-2.81,2.62-3l9.17-.8c.89-.08,1.61.2,1.49.9l-.52,3c-.15.85-.86.94-1.75,1-1.39.12-2.48.15-3.37.23-2,.17-2.07.87-2.27,2-.39,2.29-.5,2.89,1.28,2.73,2.2-.19,2.57-.29,3.39-.36,1.24-.11,1.1,1.11,1,1.5l-.39,2.25c-.18,1-.94,1.19-1.83,1.26-1.81.16-2.94.19-3.68.26-1.14.1-1.23.59-1.43,1.75Z" transform="translate(-31.55 -2.8)"/><path class="cls-2" d="M41,17.46c.07,0,.14-.09.17-.27l1-6c.18-1,.36-2.07,1.89-2.21l1.27-.11c1.53-.13,1.35.9,1.17,1.94L44,25.1c-.18,1-.36,2.07-1.89,2.21-2.3.2-2.41-.2-2.63-.95l-2.09-7.19c0-.15-.11-.24-.16-.24s-.12.11-.15.27L36,25.8c-.18,1-.36,2.08-1.89,2.21l-1.27.11c-1.54.14-1.36-.9-1.18-1.94l2.48-14.25c.18-1,.36-2.07,1.89-2.2l1.35-.12c.84-.08,1.11,0,1.35.77l2.05,6.84C40.83,17.39,40.89,17.47,41,17.46Z" transform="translate(-31.55 -2.8)"/><path class="cls-2" d="M46.46,15.8c.72-4.17,1.64-7.26,7-7.73,5.13-.45,5,2.53,4.25,6.65-.27,1.55-.46,3.07-.7,4.45-.71,4.09-1.87,7.13-6.79,7.56-5.38.47-5.24-2.56-4.52-6.7.13-.7.27-1.4.4-2.13S46.34,16.48,46.46,15.8Zm4.74-2.55-1.42,8.16c-.13.78-.31,1.81,1,1.7S52.2,22,52.33,21.18L53.75,13c.11-.64.25-1.42-1-1.31S51.31,12.6,51.2,13.25Z" transform="translate(-31.55 -2.8)"/><path class="cls-1" d="M65.14,7.05c2.12-.18,3.48.08,3.35.8l-.34,2c-.05.28-.24.79-1.11.86l-.2,0c-.41,0-1.28-.17-2-.1a1.26,1.26,0,0,0-1.28,1.13c-.14.8,0,1.2.87,1.94,2.6,2.27,2.89,4,2.53,6.13a6.87,6.87,0,0,1-1.26,3.35,6.81,6.81,0,0,1-3.07,2.18,12,12,0,0,1-2.5.5c-1.88.17-3.66,0-3.48-1.07l.35-2c.05-.31.36-.64,1.05-.7a18.8,18.8,0,0,0,2.61.15,2.29,2.29,0,0,0,1.92-1.52c.11-.59.16-1-1.13-2.45-2-2.15-2.9-3.14-2.53-5.26C59.79,7.9,63.1,7.23,65.14,7.05Z" transform="translate(-31.55 -2.8)"/><path class="cls-1" d="M78.83,18.92c-.55,3.21-1.29,5.42-6.42,5.87-5.38.47-5.38-1.7-4.8-5.07C69,11.53,69.53,8.84,69.53,8.84c.18-1,.36-2.08,1.89-2.21l1.27-.11c1.54-.14,1.36.9,1.18,1.94l-2,11.4c-.14.77-.25,1.42,1.15,1.3,1.15-.1,1.26-.75,1.4-1.53l2-11.42c.18-1,.36-2.05,1.89-2.18l1.27-.12c1.53-.13,1.35.91,1.18,1.92Z" transform="translate(-31.55 -2.8)"/><path class="cls-1" d="M88.13,16.29c.14-.8-.31-.79-.8-.74-.84.07-.87-.34-.75-1l0-.26C87,12.16,87,12,88.24,11.92l3.65-.32c1.1-.1,1,.45.92.94L91.4,20.62C91,23.16,88.49,23.38,87,23.51c-4.06.35-8.15-1.13-6.82-8.77,1.29-7.44,6.28-9.56,9.42-9.83,2.66-.23,3.68,0,3.54.76l-.36,2.05A.83.83,0,0,1,92,8.4c-.79.07-1.53-.19-2.68-.09-3.24.28-4.41,4.9-4.6,6-.37,2.13-.63,5.8,2,5.57.51-.05.92-.34,1.07-1.24Z" transform="translate(-31.55 -2.8)"/><path class="cls-1" d="M104.6,20.57c-.2,1.19-1,1.36-2.47,1.49l-1.35.12c-1.58.13-.11-3.82-1.14-3.73l-2,.18c-1,.09-1.11,3.92-2.64,4.06l-1.2.1c-1.32.12-2.09.08-1.89-1.11.27-1.55,1.12-3,5.21-15.26.43-1.31,1.08-2.13,2.1-2.22l3.93-.34c1-.09,1.39.64,1.42,1.91C104.42,16.24,104.87,19,104.6,20.57Zm-6.22-6.25c-.08.42.1.4.92.33s1-.09,1.06-.47a3.23,3.23,0,0,0,0-.42c.13-2.51.57-5.64,0-5.59s-1.25,3.18-2,5.76A2.07,2.07,0,0,0,98.38,14.32Z" transform="translate(-31.55 -2.8)"/><path class="cls-1" d="M114.82,2.83c3.8-.33,4.39,2.35,3.86,5.41-.32,1.86-.56,3-2.23,4.43-.82.68-1.21.36-1.39,1.34s-.07,2.33.77,2.26a4.52,4.52,0,0,0,.84-.2c.81-.08.82.61.61,1.8-.1.57-.24,1.28-.38,2.05-.09.52-.37,1-1.7,1.12-2.35.21-3.24-1.45-3.39-3.32-.2-2.36-.89-2.71-1-2.69s-.28.43-.31.64l-.64,3.67c-.18,1-.36,2.08-1.89,2.21l-1.79.16c-1,.09-.84-.95-.66-2L108,5.47c.18-1,.36-2.07,1.89-2.2Zm-3,4.81c0,.33-.13.93-.23,1.47s-.19,1-.25,1.3c-.15.85,0,1,1,.91s1.6-1.27,1.81-2.43.19-2.57-1-2.47S112,6.7,111.82,7.64Z" transform="translate(-31.55 -2.8)"/></svg>