<svg id="Layer_1" data-name="Layer 1" xmlns="http://www.w3.org/2000/svg" viewBox="0 0 89.4 56.65"><defs><style>.cls-1{fill:#a3e085;}.cls-2{fill:#6c3;}.cls-3{fill:#999;}</style></defs><polygon class="cls-1" points="16.8 56.65 83.8 56.65 81.54 42.19 80.01 52.82 16.8 56.65"/><path class="cls-2" d="M112.1,24.2l.89-.07,0,.3-.29,0-.12,1.33-.31,0,.12-1.32-.29,0Z" transform="translate(-31.54 -2.17)"/><path class="cls-2" d="M113.35,24.1l.3,0,.27,1.11L114.4,24l.3,0,.12,1.62-.29,0-.08-1L114,25.66l-.27,0-.24-1-.27,1.05-.3,0Z" transform="translate(-31.54 -2.17)"/><path class="cls-3" d="M45.33,52.31c-.25,1.44-.5,2.88-2.68,3.07l-1.82.16c-2.18.19-1.93-1.24-1.68-2.68l3.43-19.8c.25-1.44.5-2.88,2.69-3.07l1.82-.16c2.18-.19,1.93,1.25,1.68,2.69Z" transform="translate(-31.54 -2.17)"/><path class="cls-3" d="M60.59,40c.11,0,.2-.12.24-.37l1.44-8.28c.25-1.44.5-2.88,2.68-3.07l1.82-.16c2.19-.19,1.94,1.25,1.69,2.69L65,50.59c-.25,1.44-.5,2.88-2.68,3.07-3.28.29-3.43-.26-3.76-1.3l-3-10c-.07-.2-.15-.34-.23-.33s-.17.15-.21.37l-1.55,9.17c-.25,1.44-.5,2.88-2.69,3.07l-1.82.16c-2.18.2-1.93-1.24-1.68-2.68l3.44-19.8c.25-1.44.5-2.88,2.68-3.07l1.93-.17c1.2-.1,1.58,0,1.93,1.07l3,9.49C60.39,39.9,60.48,40,60.59,40Z" transform="translate(-31.54 -2.17)"/><path class="cls-2" d="M88.2,28.31c1.13-1.95,2-2.16,3.3-2.28l2-.17c2.19-.19,1.94,1.25,1.69,2.69L91.71,48.34c-.25,1.44-.5,2.88-2.68,3.07l-1.82.16c-2.19.19-1.94-1.24-1.69-2.68L87.24,39c0-.22,0-.36-.12-.35s-.24.17-.39.39c-3.46,5.3-3.75,6.53-5,6.64s-1.1-1.11-2.76-6c-.07-.21-.19-.34-.27-.33s-.2.16-.24.37l-1.72,9.9c-.25,1.44-.5,2.88-2.68,3.07l-1.82.16c-2.19.19-1.94-1.25-1.69-2.69L74,30.4c.25-1.44.5-2.88,2.68-3.07l1.93-.17c1.35-.12,2.15,0,2.64,1.75L82.91,35c.18.63.3,1,.55,1s.5-.4.91-1.07Z" transform="translate(-31.54 -2.17)"/><path class="cls-2" d="M100.58,43.92c-.07.78.59,1.12,1.32,1,2.07-.18,2.78-.31,3.54-.38,1.53-.13,1.93.26,1.74,1.34l-.44,2.52A1.57,1.57,0,0,1,105,50l-9.61.84c-2.18.2-1.81-2-1.68-2.68l3.43-19.8c.25-1.44.5-2.88,2.69-3.07l9.39-.82c.91-.08,1.64.21,1.52.93l-.53,3.06c-.15.86-.89,1-1.8,1-1.41.13-2.53.15-3.44.23-2,.18-2.13.9-2.33,2.05-.4,2.34-.51,3,1.31,2.79,2.26-.2,2.63-.3,3.47-.37,1.27-.12,1.13,1.14,1.06,1.53l-.4,2.31c-.19,1.08-1,1.22-1.87,1.3-1.86.16-3,.19-3.78.26-1.16.1-1.25.6-1.46,1.79Z" transform="translate(-31.54 -2.17)"/><path class="cls-2" d="M41.18,17.18c.08,0,.15-.09.18-.28l1.06-6.1c.19-1.06.37-2.12,1.94-2.26l1.3-.11c1.57-.14,1.39.92,1.2,2L44.33,25c-.19,1.07-.37,2.13-1.94,2.26-2.35.21-2.46-.2-2.69-1l-2.14-7.37c-.05-.15-.11-.25-.16-.24s-.12.11-.15.27L36.1,25.72c-.19,1.07-.37,2.13-1.94,2.26l-1.3.12c-1.57.14-1.39-.93-1.2-2l2.53-14.59c.19-1.06.37-2.12,1.94-2.26l1.38-.12c.86-.08,1.13,0,1.38.79l2.11,7C41,17.11,41.11,17.19,41.18,17.18Z" transform="translate(-31.54 -2.17)"/><path class="cls-2" d="M46.81,15.49c.74-4.28,1.67-7.44,7.19-7.92,5.25-.46,5.08,2.58,4.35,6.8-.28,1.59-.47,3.15-.72,4.56-.73,4.19-1.91,7.3-7,7.74-5.51.48-5.36-2.61-4.63-6.86.13-.72.28-1.43.41-2.18S46.69,16.18,46.81,15.49Zm4.85-2.62-1.45,8.35c-.14.8-.32,1.86,1,1.75s1.49-1.18,1.63-2l1.45-8.36c.12-.67.26-1.46-1.05-1.35S51.78,12.2,51.66,12.87Z" transform="translate(-31.54 -2.17)"/><path class="cls-3" d="M65.94,6.52c2.17-.19,3.56.08,3.43.83l-.35,2c0,.29-.25.8-1.14.88l-.2,0c-.42,0-1.31-.17-2.07-.11a1.29,1.29,0,0,0-1.31,1.16c-.14.82,0,1.23.89,2,2.66,2.33,3,4.13,2.59,6.28A7,7,0,0,1,66.49,23a7,7,0,0,1-3.14,2.23,12.63,12.63,0,0,1-2.56.52c-1.93.16-3.75,0-3.57-1.1l.36-2.05c.05-.32.37-.66,1.08-.72a19.15,19.15,0,0,0,2.67.16,2.35,2.35,0,0,0,2-1.56c.11-.61.16-1.06-1.16-2.51-2-2.2-3-3.21-2.59-5.39C60.46,7.39,63.85,6.71,65.94,6.52Z" transform="translate(-31.54 -2.17)"/><path class="cls-3" d="M80,18.67c-.57,3.29-1.32,5.55-6.58,6-5.51.49-5.51-1.74-4.91-5.18,1.46-8.39,2-11.15,2-11.15.19-1.06.37-2.12,1.94-2.26L73.67,6c1.57-.14,1.39.92,1.2,2l-2,11.68c-.14.79-.26,1.45,1.18,1.33,1.18-.1,1.29-.77,1.43-1.56l2-11.7c.18-1,.36-2.1,1.93-2.24l1.31-.11c1.57-.14,1.38.92,1.2,2Z" transform="translate(-31.54 -2.17)"/><path class="cls-3" d="M89.48,16c.15-.83-.32-.81-.81-.77-.87.08-.9-.34-.77-1.06l0-.26c.38-2.15.43-2.29,1.65-2.39l3.74-.33c1.12-.1,1,.46.94,1l-1.44,8.28c-.45,2.6-3,2.82-4.47,2.95-4.16.37-8.35-1.15-7-9C82.69,6.78,87.81,4.61,91,4.33c2.72-.24,3.76,0,3.62.78L94.28,7.2a.87.87,0,0,1-.87.71c-.81.07-1.56-.21-2.74-.1-3.31.29-4.52,5-4.71,6.11-.38,2.17-.65,5.93,2,5.7.52-.05.93-.35,1.09-1.27Z" transform="translate(-31.54 -2.17)"/><path class="cls-3" d="M106.35,20.36c-.21,1.22-1,1.4-2.53,1.53l-1.38.12c-1.62.14-.12-3.91-1.17-3.82l-2.09.19c-1,.09-1.13,4-2.7,4.15l-1.23.11c-1.36.12-2.15.08-1.94-1.14.28-1.59,1.15-3.05,5.34-15.62.44-1.34,1.1-2.19,2.14-2.28l4-.35c1-.09,1.43.66,1.46,2C106.17,15.94,106.63,18.77,106.35,20.36ZM100,14c-.07.42.11.41,1,.34s1-.09,1.09-.49a3.53,3.53,0,0,0,0-.42c.14-2.58.59-5.78,0-5.73s-1.28,3.25-2,5.9A2.11,2.11,0,0,0,100,14Z" transform="translate(-31.54 -2.17)"/><path class="cls-3" d="M116.81,2.2c3.89-.34,4.5,2.4,4,5.53-.34,1.92-.57,3.14-2.28,4.54-.85.7-1.25.37-1.43,1.38S117,16,117.85,16a3.4,3.4,0,0,0,.85-.21c.84-.07.85.64.63,1.86-.1.58-.25,1.3-.39,2.09-.09.54-.38,1-1.74,1.15-2.4.21-3.32-1.49-3.47-3.41-.2-2.41-.91-2.76-1.07-2.75s-.28.44-.32.65l-.65,3.77c-.19,1.06-.37,2.12-1.94,2.26l-1.83.16c-1,.09-.86-1-.67-2l2.53-14.59c.18-1.06.37-2.13,1.94-2.26Zm-3.07,4.92c-.06.35-.13,1-.23,1.51s-.2,1-.26,1.33c-.15.88,0,1,1,.93s1.64-1.29,1.85-2.49.2-2.63-1-2.53S113.91,6.17,113.74,7.12Z" transform="translate(-31.54 -2.17)"/></svg>