<svg width="14" height="13" viewBox="0 0 14 13" fill="none" xmlns="http://www.w3.org/2000/svg">
<path d="M8.98341 4.12169L9.10164 4.35337L9.35922 4.38956L13.4841 4.96902C13.4842 4.96904 13.4843 4.96906 13.4845 4.96908C13.4891 4.96979 13.4927 4.97099 13.4954 4.97226L10.5144 7.78156L10.3178 7.96685L10.365 8.23284L11.0693 12.1998C11.0688 12.2002 11.0683 12.2006 11.0677 12.201C11.0657 12.2022 11.0622 12.2039 11.0563 12.2049L11.0556 12.205C11.052 12.2056 11.0479 12.2057 11.044 12.2051C11.0422 12.2048 11.0407 12.2044 11.0397 12.2041C11.0384 12.2037 11.0376 12.2034 11.0373 12.2032L11.0351 12.2021L7.34427 10.3263L7.11774 10.2112L6.89121 10.3263L3.20037 12.2021L3.19961 12.2025C3.19517 12.2047 3.18891 12.2063 3.18191 12.2058C3.17493 12.2053 3.16967 12.203 3.16661 12.2008L3.16578 12.202L3.16578 12.202L3.16661 12.2008C3.16641 12.2007 3.16623 12.2006 3.16606 12.2004L3.87045 8.23284L3.91767 7.96685L3.72107 7.78156L0.739894 4.97205C0.742349 4.97084 0.745285 4.96988 0.748704 4.9694L0.749865 4.96924L4.87626 4.38956L5.13383 4.35337L5.25206 4.12169L7.09556 0.509074C7.09585 0.508562 7.09632 0.507928 7.09749 0.506962C7.09917 0.505564 7.10235 0.503523 7.10711 0.501966C7.11715 0.498687 7.1262 0.499771 7.13318 0.503102L7.13375 0.503374C7.13717 0.504998 7.13853 0.50656 7.13881 0.506904L8.98341 4.12169Z" stroke="#A9A9A9"/>
</svg>
