<svg width="26" height="26" viewBox="0 0 26 26" fill="#72B852" xmlns="http://www.w3.org/2000/svg">
<path d="M25.4912 7.93222C25.4893 7.84198 25.4771 7.75224 25.455 7.66472C25.4463 7.63347 25.4287 7.60347 25.4175 7.57222C25.3913 7.50097 25.3675 7.43097 25.33 7.36597C25.31 7.33222 25.2825 7.30472 25.2587 7.27222C25.2187 7.21597 25.18 7.15847 25.1313 7.10972C25.1025 7.08222 25.065 7.05972 25.0338 7.03347C24.985 6.99347 24.94 6.94972 24.8838 6.91597C24.8787 6.91222 24.8725 6.91222 24.8662 6.90847L24.8563 6.90097L13.6325 0.663473C13.447 0.560631 13.2385 0.506567 13.0264 0.506348C12.8143 0.50613 12.6057 0.559764 12.42 0.662223L1.14375 6.89972C1.14 6.90347 1.13625 6.90847 1.13 6.91222L1.1175 6.91722C1.07375 6.94222 1.04125 6.97847 1 7.00847C0.955 7.04222 0.9075 7.07222 0.8675 7.11097C0.83 7.14972 0.80125 7.19472 0.76875 7.23847C0.735 7.28222 0.6975 7.32097 0.67 7.36847C0.6375 7.42222 0.62 7.48347 0.59625 7.54222C0.57875 7.58347 0.55625 7.62222 0.545 7.66722C0.523412 7.75315 0.511257 7.84117 0.50875 7.92972C0.5075 7.95097 0.5 7.96972 0.5 7.99222V17.9947C0.5 18.4485 0.74625 18.8672 1.14375 19.0872L12.3663 25.321L12.3675 25.3222L12.37 25.3235L12.395 25.3372C12.4487 25.3672 12.5075 25.3835 12.5638 25.4047C12.6038 25.421 12.6425 25.4422 12.685 25.4535C12.8924 25.507 13.1101 25.507 13.3175 25.4535C13.3587 25.4422 13.3975 25.421 13.4387 25.4047C13.495 25.3835 13.5538 25.3685 13.6075 25.3372L13.6325 25.3235L13.635 25.3222L13.6362 25.321L24.8587 19.0872C25.2537 18.8672 25.5 18.4485 25.5 17.9947V7.99222C25.5 7.97097 25.4925 7.95347 25.4912 7.93222ZM12.965 12.8347L4.3225 8.00097L7.775 6.09097L16.3175 10.9722L12.965 12.8347ZM13.025 3.18597L21.6763 7.99472L18.8713 9.55347L10.3337 4.67472L13.025 3.18597ZM3 10.126L11.75 15.021V22.121L3 17.2585V10.126ZM14.25 22.121L14.2525 15.0222L18 12.9247V16.7447L20.5 15.4947V11.526L23 10.1272V17.2585L14.25 22.121Z" fill="#66CC33"/>
</svg>
