<svg width="25" height="25" viewBox="0 0 25 25" fill="none" xmlns="http://www.w3.org/2000/svg">
<path fill-rule="evenodd" clip-rule="evenodd" d="M21.8827 8.48491L24.4821 12.3136C24.6036 12.4963 24.6331 12.7243 24.5624 12.9316C24.491 13.139 24.3276 13.3017 24.1195 13.3704L15.6352 16.1829C15.337 16.2832 15.0046 16.1715 14.8277 15.9062L12.6002 12.565L10.3728 15.9062C10.196 16.1712 9.86383 16.2833 9.56524 16.1829L1.08093 13.3704C0.872904 13.3018 0.709452 13.139 0.638062 12.9316C0.567328 12.7243 0.596859 12.4963 0.718405 12.3136L3.31774 8.48496L0.718358 4.65624C0.596813 4.47357 0.567282 4.24562 0.638015 4.03825C0.709405 3.83092 0.872857 3.66817 1.08089 3.5995L9.5652 0.787023C9.86458 0.683992 10.1956 0.798695 10.3727 1.06372L12.6002 4.4049L14.8277 1.06372C15.0034 0.800054 15.3317 0.684695 15.6352 0.787023L24.1195 3.5995C24.3275 3.66812 24.491 3.83087 24.5624 4.03825C24.6331 4.24562 24.6036 4.47357 24.4821 4.6562L21.8827 8.48491ZM6.38545 8.48496L12.6002 10.5565L18.815 8.48496L12.6002 6.41338L6.38545 8.48496ZM13.6576 17.6861C14.1945 18.4919 15.1951 18.8139 16.0801 18.517L21.7408 16.6301V20.7348C21.7408 21.0376 21.5471 21.3061 21.2602 21.4016L12.8261 24.2134C12.8035 24.2209 12.7808 24.2271 12.7575 24.2326C12.7053 24.2443 12.6531 24.2505 12.6003 24.2505C12.5508 24.2505 12.5007 24.245 12.4512 24.2347L12.4498 24.234C12.4244 24.2285 12.399 24.2216 12.3736 24.2127L3.94031 21.4016C3.65329 21.3061 3.45966 21.0376 3.45966 20.7348V16.63L9.11686 18.5156C10.0075 18.8153 11.0069 18.4904 11.5428 17.6861L12.6003 16.1001L13.6576 17.6861Z" fill="#D2D2D2"/>
</svg>
