<svg width="57" height="57" viewBox="0 0 69 69" fill="none" xmlns="http://www.w3.org/2000/svg">
<circle cx="34.7809" cy="34.2023" r="33.2023" stroke="#72B852" stroke-width="2"/>
<path d="M38.4653 26.2463H38.3552C38.4063 26.0703 38.4417 25.8891 38.4417 25.6954C38.4417 25.5515 38.4244 25.4131 38.3956 25.2781C39.448 25.2368 40.2911 24.3763 40.2911 23.3122C40.2913 22.2229 39.4077 21.3386 38.3177 21.3386H31.2453C30.1557 21.3386 29.2714 22.2229 29.2714 23.3123C29.2714 24.3754 30.1143 25.2359 31.166 25.2783C31.1377 25.4134 31.1199 25.5517 31.1199 25.6955C31.1199 25.8884 31.1565 26.0705 31.2076 26.2464H31.0973C28.3853 26.2464 26.1857 28.5525 26.1857 31.3978V41.9136C26.1857 44.7586 28.3853 47.0659 31.0973 47.0659H38.4632C41.175 47.0659 43.3761 44.7586 43.3761 41.9136V31.3989C43.3772 28.5523 41.177 26.2463 38.4653 26.2463ZM34.4118 38.7932H29.6009C28.7827 38.7932 28.1208 38.13 28.1208 37.313C28.1208 36.4956 28.7827 35.8326 29.6009 35.8326H34.4117C35.2299 35.8326 35.8917 36.4958 35.8917 37.313C35.8919 38.1302 35.2299 38.7932 34.4118 38.7932ZM36.6325 34.2292H29.6009C28.7827 34.2292 28.1208 33.5665 28.1208 32.7491C28.1208 31.9316 28.7827 31.2689 29.6009 31.2689H36.6325C37.4507 31.2689 38.1127 31.9316 38.1127 32.7491C38.1127 33.5665 37.4507 34.2292 36.6325 34.2292Z" fill="#72B852"/>
</svg>
