<svg xmlns="http://www.w3.org/2000/svg" width="19" height="27.001" viewBox="0 0 19 27.001">
  <g id="Recipes_Green" data-name="Recipes Green" transform="translate(-6.5 -2.499)">
    <g id="Layer_37" data-name="Layer 37">
      <path id="Path_36" data-name="Path 36" d="M25,29.5H7a.5.5,0,0,1-.5-.5V9A.5.5,0,0,1,7,8.5H25a.5.5,0,0,1,.5.5V29A.5.5,0,0,1,25,29.5Zm-17.5-1h17V9.5H7.5Z" fill="#72b852"/>
      <path id="Path_37" data-name="Path 37" d="M7,9.5a.51.51,0,0,1-.47-.32.52.52,0,0,1,.29-.65l16-6a.5.5,0,0,1,.46.06A.49.49,0,0,1,23.5,3V8.34a.5.5,0,0,1-1,0V3.72L7.18,9.47Z" fill="#72b852"/>
      <path id="Path_38" data-name="Path 38" d="M12,26.5a1.59,1.59,0,0,1-1.63-1.64V22.59a1.64,1.64,0,0,1,3.27,0v2.27A1.6,1.6,0,0,1,12,26.5ZM12,22a.58.58,0,0,0-.63.64V24.9a.58.58,0,0,0,.63.64.59.59,0,0,0,.64-.64V22.59A.59.59,0,0,0,12,22Z" fill="#72b852"/>
      <path id="Path_39" data-name="Path 39" d="M12,21.67a.5.5,0,0,1-.5-.5V17.76a.5.5,0,0,1,1,0v3.41A.5.5,0,0,1,12,21.67Z" fill="#72b852"/>
      <path id="Path_40" data-name="Path 40" d="M12,18.26c-1.7,0-2.58-1.65-2.58-3.28,0-2.45,1.34-4,2.58-4s2.58,1.52,2.58,4C14.58,16.61,13.7,18.26,12,18.26ZM12,12c-.66,0-1.58,1.13-1.58,3,0,1.1.49,2.28,1.58,2.28S13.58,16.1,13.58,15C13.58,13.14,12.66,12,12,12Z" fill="#72b852"/>
      <path id="Path_41" data-name="Path 41" d="M20,26.5a1.57,1.57,0,0,1-1.62-1.62V22.63a1.62,1.62,0,1,1,3.24,0v2.25A1.57,1.57,0,0,1,20,26.5ZM20,22a.58.58,0,0,0-.62.63v2.25a.57.57,0,0,0,.62.62.58.58,0,0,0,.62-.62V22.63A.57.57,0,0,0,20,22Z" fill="#72b852"/>
      <path id="Path_42" data-name="Path 42" d="M20,21.73a.5.5,0,0,1-.5-.5v-9a.5.5,0,1,1,1,0v9A.5.5,0,0,1,20,21.73Z" fill="#72b852"/>
      <path id="Path_43" data-name="Path 43" d="M22.25,16.11h-4.5a.5.5,0,0,1-.5-.5V12.24a.5.5,0,0,1,1,0v2.87h3.5V12.24a.5.5,0,0,1,1,0v3.37a.5.5,0,0,1-.5.5Z" fill="#72b852"/>
    </g>
  </g>
</svg>
