<svg width="10" height="11" viewBox="0 0 10 11" fill="none" xmlns="http://www.w3.org/2000/svg">
<path d="M7.95497 2.28342H1.95497L2.60497 1.63842C2.69912 1.54427 2.75202 1.41657 2.75202 1.28342C2.75202 1.15027 2.69912 1.02257 2.60497 0.928418C2.51082 0.834266 2.38312 0.781372 2.24997 0.781372C2.11682 0.781372 1.98912 0.834266 1.89497 0.928418L0.394969 2.42842C0.348105 2.4749 0.310908 2.5302 0.285524 2.59113C0.260139 2.65206 0.24707 2.71741 0.24707 2.78342C0.24707 2.84942 0.260139 2.91478 0.285524 2.97571C0.310908 3.03664 0.348105 3.09194 0.394969 3.13842L1.89497 4.63842C1.94145 4.68528 1.99675 4.72248 2.05768 4.74786C2.11861 4.77325 2.18396 4.78632 2.24997 4.78632C2.31598 4.78632 2.38133 4.77325 2.44226 4.74786C2.50319 4.72248 2.55849 4.68528 2.60497 4.63842C2.65183 4.59194 2.68903 4.53664 2.71442 4.47571C2.7398 4.41478 2.75287 4.34942 2.75287 4.28342C2.75287 4.21741 2.7398 4.15206 2.71442 4.09113C2.68903 4.0302 2.65183 3.9749 2.60497 3.92842L1.95497 3.28342H7.95497C8.05741 3.28143 8.15923 3.29964 8.25463 3.33701C8.35002 3.37438 8.43712 3.43018 8.51095 3.50123C8.58477 3.57227 8.64388 3.65716 8.68489 3.75104C8.72591 3.84493 8.74802 3.94598 8.74997 4.04842V5.28342C8.74997 5.41603 8.80265 5.5432 8.89642 5.63697C8.99018 5.73074 9.11736 5.78342 9.24997 5.78342C9.38258 5.78342 9.50976 5.73074 9.60352 5.63697C9.69729 5.5432 9.74997 5.41603 9.74997 5.28342V4.04842C9.74801 3.81466 9.70002 3.58358 9.60875 3.36837C9.51748 3.15316 9.38471 2.95804 9.21803 2.79414C9.05135 2.63025 8.85401 2.50079 8.6373 2.41316C8.42058 2.32552 8.18872 2.28144 7.95497 2.28342ZM8.10497 6.92842C8.01082 6.83427 7.88312 6.78137 7.74997 6.78137C7.61682 6.78137 7.48912 6.83427 7.39497 6.92842C7.30082 7.02257 7.24792 7.15027 7.24792 7.28342C7.24792 7.41657 7.30082 7.54427 7.39497 7.63842L8.04497 8.28342H2.04497C1.94253 8.28541 1.84071 8.2672 1.74531 8.22982C1.64992 8.19245 1.56282 8.13665 1.48899 8.06561C1.41516 7.99457 1.35606 7.90968 1.31505 7.81579C1.27403 7.7219 1.25192 7.62086 1.24997 7.51842V6.28342C1.24997 6.15081 1.19729 6.02363 1.10352 5.92986C1.00975 5.8361 0.882578 5.78342 0.749969 5.78342C0.617361 5.78342 0.490184 5.8361 0.396416 5.92986C0.302648 6.02363 0.249969 6.15081 0.249969 6.28342V7.51842C0.251931 7.75217 0.299917 7.98325 0.391187 8.19846C0.482458 8.41367 0.615225 8.6088 0.781908 8.77269C0.948591 8.93659 1.14592 9.06605 1.36264 9.15368C1.57936 9.24131 1.81121 9.2854 2.04497 9.28342H8.04497L7.39497 9.92842C7.34811 9.9749 7.31091 10.0302 7.28552 10.0911C7.26014 10.1521 7.24707 10.2174 7.24707 10.2834C7.24707 10.3494 7.26014 10.4148 7.28552 10.4757C7.31091 10.5366 7.34811 10.5919 7.39497 10.6384C7.44145 10.6853 7.49675 10.7225 7.55768 10.7479C7.61861 10.7732 7.68396 10.7863 7.74997 10.7863C7.81598 10.7863 7.88133 10.7732 7.94226 10.7479C8.00319 10.7225 8.05849 10.6853 8.10497 10.6384L9.60497 9.13842C9.65183 9.09194 9.68903 9.03664 9.71442 8.97571C9.7398 8.91478 9.75287 8.84942 9.75287 8.78342C9.75287 8.71741 9.7398 8.65206 9.71442 8.59113C9.68903 8.5302 9.65183 8.4749 9.60497 8.42842L8.10497 6.92842Z" fill="white"/>
</svg>
