<svg width="51" height="51" viewBox="0 0 51 51" fill="none" xmlns="http://www.w3.org/2000/svg">
<rect x="1.03491" y="0.724609" width="49" height="49" rx="24.5" fill="url(#paint0_linear)" stroke="black"/>
<path d="M29.6639 24.729L21.7176 24.173C21.7175 24.1729 21.7174 24.1728 21.7172 24.1727C21.7124 24.1682 21.7062 24.1594 21.7026 24.1468C21.7026 24.1466 21.7025 24.1463 21.7025 24.1461L20.0375 17.7817C20.033 17.7635 20.0353 17.7531 20.0372 17.7473C20.0398 17.7395 20.0447 17.7325 20.0503 17.7277C20.0508 17.7273 20.0513 17.727 20.0517 17.7266L34.0192 25.1773C34.0223 25.1792 34.0244 25.1814 34.027 25.1861C34.0308 25.1932 34.035 25.206 34.0349 25.2226C34.0348 25.2393 34.0306 25.2521 34.0266 25.2594C34.0237 25.2646 34.0208 25.2676 34.0156 25.2706C34.0154 25.2707 34.0151 25.2708 34.0149 25.271L20.0544 32.7211C20.0483 32.7157 20.0426 32.7077 20.0395 32.6985C20.037 32.6914 20.0349 32.6805 20.0386 32.6632L21.7031 26.307L21.7034 26.3058C21.7072 26.2913 21.7127 26.2848 21.7148 26.2827L29.6639 25.7266V24.729Z" fill="white" stroke="black"/>
<defs>
<linearGradient id="paint0_linear" x1="50.5349" y1="25.2246" x2="2.63478" y2="25.2246" gradientUnits="userSpaceOnUse">
<stop stop-color="#86B841"/>
<stop offset="1" stop-color="#41B87F"/>
</linearGradient>
</defs>
</svg>
