<svg width="57" height="57" viewBox="0 0 57 57" fill="none" xmlns="http://www.w3.org/2000/svg">
<circle cx="28.3717" cy="28.3717" r="27.3717" stroke="#72B852" stroke-width="2"/>
<path d="M35.4911 40.8855L34.0473 24.9335C33.9526 23.9359 33.1251 23.1834 32.1232 23.1834H32.1164V21.25H32.5997C33.3991 21.25 34.0497 20.5994 34.0497 19.8C34.0497 16.6018 31.4479 14 28.2497 14C25.0515 14 22.4497 16.6018 22.4497 19.8C22.4497 20.5994 23.1003 21.25 23.8997 21.25H24.383V23.1833H24.3763C23.3743 23.1833 22.5468 23.9359 22.4516 24.9354L21.0089 40.8835C20.9566 41.4244 21.1369 41.9652 21.5024 42.3673C21.8683 42.7695 22.3893 43 22.9331 43H33.5664C34.1102 43 34.6312 42.7695 34.9971 42.3673C35.3625 41.9652 35.5428 41.4244 35.4911 40.8855ZM30.1831 16.4167C30.461 16.4167 30.6664 16.6221 30.6664 16.9C30.6664 17.1779 30.461 17.3833 30.1831 17.3833C29.9052 17.3833 29.6998 17.1779 29.6998 16.9C29.6998 16.6221 29.9052 16.4167 30.1831 16.4167ZM28.2498 15.9333C28.5277 15.9333 28.7331 16.1388 28.7331 16.4166C28.7331 16.6945 28.5276 16.8999 28.2498 16.8999C27.9718 16.8999 27.7664 16.6945 27.7664 16.4166C27.7664 16.1388 27.9718 15.9333 28.2498 15.9333ZM26.3164 16.4167C26.5944 16.4167 26.7998 16.6221 26.7998 16.9C26.7998 17.1779 26.5943 17.3833 26.3164 17.3833C26.0385 17.3833 25.8331 17.1779 25.8331 16.9C25.8331 16.6221 26.0385 16.4167 26.3164 16.4167ZM28.2498 32.85C30.5388 32.85 31.1498 34.6727 31.1498 35.75C31.1498 36.8274 30.5388 38.65 28.2498 38.65C25.9607 38.65 25.3498 36.8274 25.3498 35.75C25.3498 35.4833 25.5658 35.2667 25.8331 35.2667C26.1004 35.2667 26.3164 35.4833 26.3164 35.75C26.3164 36.0729 26.4092 37.6834 28.2497 37.6834C30.0902 37.6834 30.1831 36.0729 30.1831 35.75C30.1831 35.4272 30.0903 33.8167 28.2498 33.8167C25.9607 33.8167 25.3498 31.9941 25.3498 30.9167C25.3498 29.8394 25.9607 28.0167 28.2498 28.0167C30.5388 28.0167 31.1498 29.8394 31.1498 30.9167C31.1498 31.1835 30.9337 31.4 30.6665 31.4C30.3992 31.4 30.1831 31.1835 30.1831 30.9167C30.1831 30.5939 30.0904 28.9834 28.2498 28.9834C26.4093 28.9834 26.3165 30.5939 26.3165 30.9167C26.3165 31.2396 26.4092 32.85 28.2498 32.85Z" fill="#72B852"/>
</svg>
