<svg width="37" height="37" viewBox="0 0 37 37" fill="none" xmlns="http://www.w3.org/2000/svg">
<path d="M18.6661 0.431152C12.0396 0.431152 0.666626 11.8041 0.666626 18.4306C0.666626 25.0572 12.0396 36.4312 18.6661 36.4312C25.2927 36.4312 36.6666 25.0572 36.6666 18.4306C36.6666 11.8041 25.2927 0.431152 18.6661 0.431152ZM21.1642 25.0287C20.5465 25.2726 20.0548 25.4574 19.6861 25.5854C19.3183 25.7134 18.8906 25.7774 18.404 25.7774C17.6563 25.7774 17.0742 25.5946 16.6598 25.2299C16.2453 24.8652 16.0391 24.403 16.0391 23.8412C16.0391 23.6228 16.0543 23.3993 16.0848 23.1717C16.1163 22.9442 16.1661 22.6882 16.2341 22.4007L17.0072 19.67C17.0753 19.4079 17.1342 19.159 17.1809 18.9274C17.2276 18.6938 17.25 18.4794 17.25 18.2844C17.25 17.9369 17.1779 17.6931 17.0346 17.556C16.8894 17.4188 16.6161 17.3518 16.2087 17.3518C16.0096 17.3518 15.8044 17.3812 15.5941 17.4432C15.3859 17.5072 15.205 17.5651 15.0567 17.622L15.2609 16.7809C15.7668 16.5746 16.2514 16.3979 16.7136 16.2516C17.1758 16.1033 17.6127 16.0301 18.0241 16.0301C18.7667 16.0301 19.3396 16.211 19.7429 16.5685C20.1442 16.9272 20.3464 17.3934 20.3464 17.9664C20.3464 18.0852 20.3322 18.2945 20.3047 18.5932C20.2773 18.8929 20.2255 19.1661 20.1503 19.4171L19.3813 22.1396C19.3183 22.358 19.2624 22.6079 19.2116 22.8873C19.1619 23.1666 19.1375 23.38 19.1375 23.5232C19.1375 23.8849 19.2177 24.1317 19.3803 24.2628C19.5408 24.3938 19.8222 24.4599 20.2204 24.4599C20.4083 24.4599 20.6186 24.4263 20.8563 24.3613C21.092 24.2963 21.2627 24.2384 21.3704 24.1886L21.1642 25.0287ZM21.028 13.9781C20.6694 14.3113 20.2377 14.4779 19.7328 14.4779C19.2289 14.4779 18.7941 14.3113 18.4325 13.9781C18.0728 13.6449 17.891 13.2395 17.891 12.7661C17.891 12.2938 18.0739 11.8874 18.4325 11.5512C18.7941 11.2139 19.2289 11.0463 19.7328 11.0463C20.2377 11.0463 20.6704 11.2139 21.028 11.5512C21.3866 11.8874 21.5664 12.2938 21.5664 12.7661C21.5664 13.2406 21.3866 13.6449 21.028 13.9781Z" fill="white"/>
</svg>
