<svg id="svg" version="1.1" xmlns="http://www.w3.org/2000/svg" xmlns:xlink="http://www.w3.org/1999/xlink" width="70" height="70" viewBox="0, 0, 400,400"><g id="svgg"><path id="path0" d="M197.776 0.384 C 197.565 0.595,193.614 0.961,188.996 1.198 C 178.003 1.761,173.022 2.344,162.000 4.359 C 158.877 4.929,150.896 6.688,149.000 7.223 C 148.120 7.471,146.813 7.768,146.096 7.881 C 145.379 7.995,144.694 8.249,144.573 8.444 C 144.452 8.640,143.834 8.800,143.200 8.800 C 142.566 8.800,141.936 8.980,141.800 9.200 C 141.664 9.420,141.124 9.600,140.600 9.600 C 140.076 9.600,139.536 9.780,139.400 10.000 C 139.264 10.220,138.724 10.400,138.200 10.400 C 137.676 10.400,137.136 10.580,137.000 10.800 C 136.864 11.020,136.313 11.200,135.776 11.200 C 135.239 11.200,134.800 11.380,134.800 11.600 C 134.800 11.820,134.361 12.000,133.824 12.000 C 133.287 12.000,132.736 12.180,132.600 12.400 C 132.464 12.620,131.924 12.800,131.400 12.800 C 130.876 12.800,130.336 12.980,130.200 13.200 C 130.064 13.420,129.603 13.600,129.176 13.600 C 128.749 13.600,128.400 13.741,128.400 13.913 C 128.400 14.085,127.545 14.475,126.500 14.780 C 125.455 15.085,124.330 15.477,124.000 15.651 C 123.670 15.825,122.140 16.532,120.600 17.221 C 119.060 17.910,115.820 19.416,113.400 20.568 C 110.980 21.720,108.415 22.917,107.700 23.229 C 106.985 23.540,106.400 23.931,106.400 24.098 C 106.400 24.264,106.040 24.400,105.600 24.400 C 105.160 24.400,104.800 24.546,104.800 24.725 C 104.800 24.904,104.170 25.298,103.400 25.600 C 102.630 25.902,102.000 26.275,102.000 26.428 C 102.000 26.581,101.685 26.807,101.300 26.929 C 100.615 27.146,98.396 28.404,98.000 28.800 C 97.890 28.910,97.395 29.225,96.900 29.500 C 94.665 30.741,94.192 31.043,93.445 31.700 C 93.007 32.085,92.413 32.400,92.125 32.400 C 91.836 32.400,91.600 32.551,91.600 32.736 C 91.600 32.920,91.143 33.280,90.585 33.534 C 90.027 33.788,89.352 34.189,89.085 34.423 C 88.526 34.916,80.240 40.802,79.264 41.400 C 78.905 41.620,78.339 42.079,78.006 42.419 C 77.673 42.759,76.783 43.470,76.029 43.997 C 75.274 44.525,74.014 45.529,73.229 46.228 C 69.742 49.332,63.685 54.704,62.435 55.800 C 60.679 57.340,57.340 60.679,55.800 62.435 C 54.704 63.685,49.332 69.742,46.228 73.229 C 45.529 74.014,44.525 75.274,43.997 76.029 C 43.470 76.783,42.759 77.673,42.419 78.006 C 42.079 78.339,41.620 78.905,41.400 79.264 C 40.802 80.240,34.916 88.526,34.423 89.085 C 34.189 89.352,33.788 90.027,33.534 90.585 C 33.280 91.143,32.920 91.600,32.736 91.600 C 32.551 91.600,32.400 91.836,32.400 92.125 C 32.400 92.413,32.085 93.007,31.700 93.445 C 31.049 94.185,30.537 94.989,29.438 97.000 C 29.197 97.440,28.910 97.890,28.800 98.000 C 28.404 98.396,27.146 100.615,26.929 101.300 C 26.807 101.685,26.581 102.000,26.428 102.000 C 26.275 102.000,25.902 102.630,25.600 103.400 C 25.298 104.170,24.904 104.800,24.725 104.800 C 24.546 104.800,24.400 105.160,24.400 105.600 C 24.400 106.040,24.264 106.400,24.098 106.400 C 23.931 106.400,23.540 106.985,23.229 107.700 C 22.917 108.415,21.720 110.980,20.568 113.400 C 19.416 115.820,17.910 119.060,17.221 120.600 C 16.532 122.140,15.825 123.670,15.651 124.000 C 15.477 124.330,15.085 125.455,14.780 126.500 C 14.475 127.545,14.085 128.400,13.913 128.400 C 13.741 128.400,13.600 128.749,13.600 129.176 C 13.600 129.603,13.420 130.064,13.200 130.200 C 12.980 130.336,12.800 130.876,12.800 131.400 C 12.800 131.924,12.620 132.464,12.400 132.600 C 12.180 132.736,12.000 133.287,12.000 133.824 C 12.000 134.361,11.820 134.800,11.600 134.800 C 11.380 134.800,11.200 135.239,11.200 135.776 C 11.200 136.313,11.020 136.864,10.800 137.000 C 10.580 137.136,10.400 137.676,10.400 138.200 C 10.400 138.724,10.220 139.264,10.000 139.400 C 9.780 139.536,9.600 140.076,9.600 140.600 C 9.600 141.124,9.420 141.664,9.200 141.800 C 8.980 141.936,8.800 142.566,8.800 143.200 C 8.800 143.834,8.640 144.452,8.444 144.573 C 8.249 144.694,7.995 145.379,7.881 146.096 C 7.768 146.813,7.471 148.120,7.223 149.000 C 6.688 150.896,4.929 158.877,4.359 162.000 C 2.344 173.022,1.761 178.003,1.198 188.996 C 0.961 193.614,0.595 197.565,0.384 197.776 C -0.115 198.275,-0.115 201.725,0.384 202.224 C 0.595 202.435,0.959 206.386,1.194 211.004 C 1.659 220.160,2.228 225.626,3.546 233.600 C 4.304 238.184,6.383 248.023,7.223 251.000 C 7.471 251.880,7.768 253.187,7.881 253.904 C 7.995 254.621,8.249 255.306,8.444 255.427 C 8.640 255.548,8.800 256.166,8.800 256.800 C 8.800 257.434,8.980 258.064,9.200 258.200 C 9.420 258.336,9.600 258.876,9.600 259.400 C 9.600 259.924,9.780 260.464,10.000 260.600 C 10.220 260.736,10.400 261.276,10.400 261.800 C 10.400 262.324,10.580 262.864,10.800 263.000 C 11.020 263.136,11.200 263.599,11.200 264.029 C 11.200 264.459,11.380 265.168,11.600 265.605 C 11.820 266.042,12.180 266.758,12.400 267.195 C 12.620 267.632,12.800 268.264,12.800 268.600 C 12.800 268.936,12.959 269.523,13.153 269.905 C 13.523 270.632,14.291 272.435,14.813 273.800 C 15.695 276.108,17.655 280.467,20.571 286.600 C 21.721 289.020,22.917 291.585,23.229 292.300 C 23.540 293.015,23.931 293.600,24.098 293.600 C 24.264 293.600,24.400 293.960,24.400 294.400 C 24.400 294.840,24.546 295.200,24.725 295.200 C 24.904 295.200,25.298 295.830,25.600 296.600 C 25.902 297.370,26.275 298.000,26.428 298.000 C 26.581 298.000,26.807 298.315,26.929 298.700 C 27.146 299.385,28.404 301.604,28.800 302.000 C 28.910 302.110,29.225 302.605,29.500 303.100 C 30.741 305.335,31.043 305.808,31.700 306.555 C 32.085 306.993,32.400 307.587,32.400 307.875 C 32.400 308.164,32.551 308.400,32.736 308.400 C 32.920 308.400,33.258 308.805,33.486 309.300 C 33.713 309.795,35.497 312.419,37.450 315.132 C 39.402 317.845,41.180 320.362,41.400 320.726 C 41.620 321.091,42.079 321.661,42.419 321.994 C 42.759 322.327,43.471 323.230,44.000 324.000 C 44.529 324.770,45.241 325.670,45.581 326.001 C 45.921 326.331,47.187 327.771,48.394 329.201 C 49.601 330.630,50.771 331.997,50.994 332.237 C 51.217 332.478,52.660 334.083,54.200 335.804 C 57.861 339.897,61.208 343.238,64.614 346.200 C 67.717 348.898,71.098 351.870,73.229 353.770 C 74.014 354.471,75.274 355.475,76.029 356.003 C 76.783 356.530,77.670 357.249,78.000 357.600 C 78.330 357.951,79.230 358.671,80.000 359.200 C 80.770 359.729,81.490 360.273,81.600 360.410 C 81.710 360.547,82.070 360.781,82.400 360.932 C 82.730 361.082,84.350 362.198,86.000 363.412 C 87.650 364.625,89.585 365.917,90.300 366.283 C 91.015 366.649,91.600 367.095,91.600 367.274 C 91.600 367.453,91.836 367.600,92.125 367.600 C 92.413 367.600,93.007 367.915,93.445 368.300 C 94.192 368.957,94.665 369.259,96.900 370.500 C 97.395 370.775,97.890 371.090,98.000 371.200 C 98.396 371.596,100.615 372.854,101.300 373.071 C 101.685 373.193,102.000 373.419,102.000 373.572 C 102.000 373.725,102.630 374.098,103.400 374.400 C 104.170 374.702,104.800 375.096,104.800 375.275 C 104.800 375.454,105.145 375.600,105.567 375.600 C 105.988 375.600,106.393 375.745,106.467 375.921 C 106.638 376.335,112.931 379.396,120.600 382.797 C 123.230 383.964,125.213 384.810,126.200 385.187 C 127.565 385.709,129.368 386.477,130.095 386.847 C 130.477 387.041,131.064 387.200,131.400 387.200 C 131.993 387.200,132.416 387.366,134.295 388.338 C 134.787 388.592,135.541 388.800,135.971 388.800 C 136.401 388.800,136.864 388.980,137.000 389.200 C 137.136 389.420,137.676 389.600,138.200 389.600 C 138.724 389.600,139.264 389.780,139.400 390.000 C 139.536 390.220,140.076 390.400,140.600 390.400 C 141.124 390.400,141.664 390.580,141.800 390.800 C 141.936 391.020,142.566 391.200,143.200 391.200 C 143.834 391.200,144.464 391.380,144.600 391.600 C 144.736 391.820,145.366 392.000,146.000 392.000 C 146.634 392.000,147.264 392.180,147.400 392.400 C 147.536 392.620,148.166 392.800,148.800 392.800 C 149.434 392.800,150.049 392.956,150.167 393.147 C 150.285 393.338,151.151 393.602,152.091 393.734 C 153.031 393.866,154.610 394.163,155.600 394.394 C 158.293 395.022,168.207 396.817,171.400 397.255 C 177.925 398.149,180.637 398.392,188.600 398.795 C 193.220 399.029,197.313 399.396,197.695 399.611 C 198.591 400.113,201.409 400.113,202.305 399.611 C 202.687 399.396,206.780 399.029,211.400 398.795 C 219.363 398.392,222.075 398.149,228.600 397.255 C 231.793 396.817,241.707 395.022,244.400 394.394 C 245.390 394.163,246.969 393.866,247.909 393.734 C 248.849 393.602,249.715 393.338,249.833 393.147 C 249.951 392.956,250.566 392.800,251.200 392.800 C 251.834 392.800,252.464 392.620,252.600 392.400 C 252.736 392.180,253.366 392.000,254.000 392.000 C 254.634 392.000,255.264 391.820,255.400 391.600 C 255.536 391.380,256.166 391.200,256.800 391.200 C 257.434 391.200,258.064 391.020,258.200 390.800 C 258.336 390.580,258.876 390.400,259.400 390.400 C 259.924 390.400,260.464 390.220,260.600 390.000 C 260.736 389.780,261.276 389.600,261.800 389.600 C 262.324 389.600,262.864 389.420,263.000 389.200 C 263.136 388.980,263.676 388.800,264.200 388.800 C 264.724 388.800,265.264 388.620,265.400 388.400 C 265.536 388.180,266.087 388.000,266.624 388.000 C 267.161 388.000,267.600 387.820,267.600 387.600 C 267.600 387.380,267.962 387.200,268.405 387.200 C 268.848 387.200,269.523 387.041,269.905 386.847 C 270.550 386.519,271.413 386.154,273.700 385.241 C 274.633 384.868,276.515 384.070,279.100 382.950 C 283.538 381.027,294.878 375.585,295.200 375.224 C 295.310 375.100,295.940 374.729,296.600 374.400 C 297.260 374.071,297.890 373.711,298.000 373.601 C 298.110 373.490,298.560 373.203,299.000 372.962 C 300.902 371.922,301.813 371.387,302.000 371.200 C 302.110 371.090,302.605 370.775,303.100 370.500 C 305.335 369.259,305.808 368.957,306.555 368.300 C 306.993 367.915,307.587 367.600,307.875 367.600 C 308.164 367.600,308.400 367.453,308.400 367.274 C 308.400 367.095,308.985 366.649,309.700 366.283 C 310.415 365.917,312.350 364.625,314.000 363.412 C 315.650 362.198,317.270 361.082,317.600 360.932 C 317.930 360.781,318.290 360.547,318.400 360.410 C 318.510 360.273,319.230 359.729,320.000 359.200 C 320.770 358.671,321.670 357.951,322.000 357.600 C 322.330 357.249,323.230 356.529,324.000 356.000 C 324.770 355.471,325.670 354.759,326.000 354.418 C 326.330 354.077,327.860 352.738,329.400 351.442 C 338.392 343.874,343.874 338.392,351.442 329.400 C 352.738 327.860,354.077 326.330,354.418 326.000 C 354.759 325.670,355.471 324.770,356.000 324.000 C 356.529 323.230,357.249 322.330,357.600 322.000 C 357.951 321.670,358.671 320.770,359.200 320.000 C 359.729 319.230,360.273 318.510,360.410 318.400 C 360.547 318.290,360.781 317.930,360.932 317.600 C 361.082 317.270,362.198 315.650,363.412 314.000 C 364.625 312.350,365.917 310.415,366.283 309.700 C 366.649 308.985,367.095 308.400,367.274 308.400 C 367.453 308.400,367.600 308.164,367.600 307.875 C 367.600 307.587,367.915 306.993,368.300 306.555 C 368.957 305.808,369.259 305.335,370.500 303.100 C 370.775 302.605,371.090 302.110,371.200 302.000 C 371.310 301.890,371.625 301.395,371.900 300.900 C 372.175 300.405,372.625 299.595,372.900 299.100 C 373.175 298.605,373.490 298.110,373.601 298.000 C 373.711 297.890,374.071 297.260,374.400 296.600 C 374.729 295.940,375.100 295.310,375.224 295.200 C 375.585 294.878,381.027 283.538,382.950 279.100 C 384.070 276.515,384.868 274.633,385.241 273.700 C 386.154 271.413,386.519 270.550,386.847 269.905 C 387.041 269.523,387.200 268.848,387.200 268.405 C 387.200 267.962,387.380 267.600,387.600 267.600 C 387.820 267.600,388.000 267.161,388.000 266.624 C 388.000 266.087,388.180 265.536,388.400 265.400 C 388.620 265.264,388.800 264.724,388.800 264.200 C 388.800 263.676,388.980 263.136,389.200 263.000 C 389.420 262.864,389.600 262.324,389.600 261.800 C 389.600 261.276,389.780 260.736,390.000 260.600 C 390.220 260.464,390.400 259.924,390.400 259.400 C 390.400 258.876,390.580 258.336,390.800 258.200 C 391.020 258.064,391.200 257.434,391.200 256.800 C 391.200 256.166,391.380 255.536,391.600 255.400 C 391.820 255.264,392.000 254.634,392.000 254.000 C 392.000 253.366,392.180 252.736,392.400 252.600 C 392.620 252.464,392.800 251.834,392.800 251.200 C 392.800 250.566,392.956 249.951,393.147 249.833 C 393.338 249.715,393.602 248.849,393.734 247.909 C 393.866 246.969,394.163 245.390,394.394 244.400 C 395.022 241.707,396.817 231.793,397.255 228.600 C 398.149 222.075,398.392 219.363,398.795 211.400 C 399.029 206.780,399.396 202.687,399.611 202.305 C 400.113 201.409,400.113 198.591,399.611 197.695 C 399.396 197.313,399.029 193.220,398.795 188.600 C 398.392 180.637,398.149 177.925,397.255 171.400 C 396.817 168.207,395.022 158.293,394.394 155.600 C 394.163 154.610,393.866 153.031,393.734 152.091 C 393.602 151.151,393.338 150.285,393.147 150.167 C 392.956 150.049,392.800 149.434,392.800 148.800 C 392.800 148.166,392.620 147.536,392.400 147.400 C 392.180 147.264,392.000 146.634,392.000 146.000 C 392.000 145.366,391.820 144.736,391.600 144.600 C 391.380 144.464,391.200 143.834,391.200 143.200 C 391.200 142.566,391.020 141.936,390.800 141.800 C 390.580 141.664,390.400 141.124,390.400 140.600 C 390.400 140.076,390.220 139.536,390.000 139.400 C 389.780 139.264,389.600 138.724,389.600 138.200 C 389.600 137.676,389.420 137.136,389.200 137.000 C 388.980 136.864,388.800 136.401,388.800 135.971 C 388.800 135.541,388.620 134.832,388.400 134.395 C 388.180 133.958,387.820 133.242,387.600 132.805 C 387.380 132.368,387.200 131.736,387.200 131.400 C 387.200 131.064,387.041 130.477,386.847 130.095 C 386.477 129.368,385.709 127.565,385.187 126.200 C 384.810 125.213,383.964 123.230,382.797 120.600 C 379.396 112.931,376.335 106.638,375.921 106.467 C 375.745 106.393,375.600 105.988,375.600 105.567 C 375.600 105.145,375.454 104.800,375.275 104.800 C 375.096 104.800,374.702 104.170,374.400 103.400 C 374.098 102.630,373.725 102.000,373.572 102.000 C 373.419 102.000,373.193 101.685,373.071 101.300 C 372.854 100.615,371.596 98.396,371.200 98.000 C 371.090 97.890,370.803 97.440,370.562 97.000 C 369.463 94.989,368.951 94.185,368.300 93.445 C 367.915 93.007,367.600 92.413,367.600 92.125 C 367.600 91.836,367.453 91.600,367.274 91.600 C 367.095 91.600,366.649 91.015,366.283 90.300 C 365.917 89.585,364.625 87.650,363.412 86.000 C 362.198 84.350,361.082 82.730,360.932 82.400 C 360.781 82.070,360.547 81.710,360.410 81.600 C 360.273 81.490,359.729 80.770,359.200 80.000 C 358.671 79.230,357.951 78.330,357.600 78.000 C 357.249 77.670,356.530 76.783,356.003 76.029 C 355.475 75.274,354.471 74.014,353.770 73.229 C 351.870 71.098,348.898 67.717,346.200 64.614 C 343.238 61.208,339.897 57.861,335.804 54.200 C 334.083 52.660,332.478 51.217,332.237 50.994 C 331.997 50.771,330.630 49.601,329.201 48.394 C 327.771 47.187,326.331 45.921,326.001 45.581 C 325.670 45.241,324.770 44.529,324.000 44.000 C 323.230 43.471,322.327 42.759,321.994 42.419 C 321.661 42.079,321.091 41.620,320.726 41.400 C 320.362 41.180,317.845 39.402,315.132 37.450 C 312.419 35.497,309.795 33.713,309.300 33.486 C 308.805 33.258,308.400 32.920,308.400 32.736 C 308.400 32.551,308.164 32.400,307.875 32.400 C 307.587 32.400,306.993 32.085,306.555 31.700 C 305.815 31.049,305.011 30.537,303.000 29.438 C 302.560 29.197,302.110 28.910,302.000 28.800 C 301.604 28.404,299.385 27.146,298.700 26.929 C 298.315 26.807,298.000 26.581,298.000 26.428 C 298.000 26.275,297.370 25.902,296.600 25.600 C 295.830 25.298,295.200 24.904,295.200 24.725 C 295.200 24.546,294.840 24.400,294.400 24.400 C 293.960 24.400,293.600 24.264,293.600 24.098 C 293.600 23.931,293.015 23.540,292.300 23.229 C 291.585 22.917,289.020 21.721,286.600 20.571 C 280.570 17.705,276.613 15.922,273.700 14.759 C 271.413 13.846,270.550 13.481,269.905 13.153 C 269.523 12.959,268.936 12.800,268.600 12.800 C 268.264 12.800,267.632 12.620,267.195 12.400 C 266.758 12.180,266.042 11.820,265.605 11.600 C 265.168 11.380,264.459 11.200,264.029 11.200 C 263.599 11.200,263.136 11.020,263.000 10.800 C 262.864 10.580,262.324 10.400,261.800 10.400 C 261.276 10.400,260.736 10.220,260.600 10.000 C 260.464 9.780,259.924 9.600,259.400 9.600 C 258.876 9.600,258.336 9.420,258.200 9.200 C 258.064 8.980,257.434 8.800,256.800 8.800 C 256.166 8.800,255.548 8.640,255.427 8.444 C 255.306 8.249,254.621 7.995,253.904 7.881 C 253.187 7.768,251.880 7.471,251.000 7.223 C 248.023 6.383,238.184 4.304,233.600 3.546 C 225.626 2.228,220.160 1.659,211.004 1.194 C 206.386 0.959,202.435 0.595,202.224 0.384 C 201.725 -0.115,198.275 -0.115,197.776 0.384 M211.400 30.820 C 218.988 31.329,223.081 31.831,231.200 33.248 C 232.410 33.459,234.076 33.733,234.903 33.858 C 235.729 33.983,236.505 34.245,236.626 34.442 C 236.748 34.639,237.546 34.800,238.400 34.800 C 239.254 34.800,240.064 34.980,240.200 35.200 C 240.336 35.420,241.056 35.600,241.800 35.600 C 242.544 35.600,243.264 35.780,243.400 36.000 C 243.536 36.220,244.166 36.400,244.800 36.400 C 245.434 36.400,246.064 36.580,246.200 36.800 C 246.336 37.020,246.966 37.200,247.600 37.200 C 248.234 37.200,248.864 37.380,249.000 37.600 C 249.136 37.820,249.676 38.000,250.200 38.000 C 250.724 38.000,251.264 38.180,251.400 38.400 C 251.536 38.620,252.076 38.800,252.600 38.800 C 253.124 38.800,253.664 38.980,253.800 39.200 C 253.936 39.420,254.399 39.600,254.829 39.600 C 255.584 39.600,255.974 39.744,257.895 40.738 C 258.387 40.992,259.152 41.200,259.595 41.200 C 260.038 41.200,260.400 41.380,260.400 41.600 C 260.400 41.820,260.839 42.000,261.376 42.000 C 261.913 42.000,262.464 42.180,262.600 42.400 C 262.736 42.620,263.197 42.800,263.624 42.800 C 264.051 42.800,264.400 42.980,264.400 43.200 C 264.400 43.420,264.701 43.600,265.068 43.600 C 266.298 43.600,283.907 52.196,284.800 53.232 C 284.910 53.360,285.585 53.719,286.300 54.030 C 287.015 54.341,287.600 54.731,287.600 54.898 C 287.600 55.064,287.836 55.200,288.125 55.200 C 288.413 55.200,289.036 55.560,289.508 56.000 C 289.980 56.440,290.520 56.800,290.708 56.800 C 290.896 56.800,291.398 57.115,291.825 57.500 C 292.251 57.885,293.095 58.455,293.700 58.768 C 294.305 59.080,294.800 59.485,294.800 59.668 C 294.800 59.850,295.025 60.003,295.300 60.007 C 295.575 60.011,296.340 60.450,297.000 60.982 C 297.660 61.514,299.820 63.139,301.800 64.592 C 310.949 71.308,324.620 84.270,330.074 91.400 C 330.579 92.060,331.354 92.980,331.796 93.445 C 332.238 93.909,333.860 96.049,335.400 98.200 C 336.940 100.350,338.389 102.310,338.619 102.555 C 339.470 103.459,341.600 106.758,341.600 107.172 C 341.600 107.407,341.750 107.600,341.932 107.600 C 342.115 107.600,342.520 108.095,342.832 108.700 C 343.145 109.305,343.715 110.149,344.100 110.575 C 344.485 111.002,344.800 111.587,344.800 111.875 C 344.800 112.164,344.936 112.400,345.102 112.400 C 345.269 112.400,345.659 112.985,345.970 113.700 C 346.281 114.415,346.640 115.090,346.768 115.200 C 347.137 115.518,348.272 117.559,349.882 120.800 C 350.702 122.450,351.514 123.860,351.686 123.933 C 351.859 124.007,352.000 124.214,352.000 124.394 C 352.000 124.573,352.738 126.313,353.640 128.260 C 355.253 131.743,356.086 133.626,356.887 135.600 C 357.111 136.150,357.452 136.913,357.647 137.295 C 357.841 137.677,358.000 138.352,358.000 138.795 C 358.000 139.238,358.180 139.600,358.400 139.600 C 358.620 139.600,358.800 139.962,358.800 140.405 C 358.800 140.848,358.980 141.568,359.200 142.005 C 359.420 142.442,359.780 143.158,360.000 143.595 C 360.220 144.032,360.400 144.741,360.400 145.171 C 360.400 145.601,360.580 146.064,360.800 146.200 C 361.020 146.336,361.200 146.876,361.200 147.400 C 361.200 147.924,361.380 148.464,361.600 148.600 C 361.820 148.736,362.000 149.276,362.000 149.800 C 362.000 150.324,362.180 150.864,362.400 151.000 C 362.620 151.136,362.800 151.766,362.800 152.400 C 362.800 153.034,362.980 153.664,363.200 153.800 C 363.420 153.936,363.600 154.566,363.600 155.200 C 363.600 155.834,363.780 156.464,364.000 156.600 C 364.220 156.736,364.400 157.456,364.400 158.200 C 364.400 158.944,364.580 159.664,364.800 159.800 C 365.020 159.936,365.200 160.746,365.200 161.600 C 365.200 162.454,365.361 163.252,365.558 163.374 C 365.755 163.495,366.017 164.271,366.142 165.097 C 366.267 165.924,366.562 167.680,366.798 169.000 C 370.670 190.648,370.368 215.439,365.995 235.000 C 365.749 236.100,365.451 237.676,365.332 238.503 C 365.213 239.329,364.955 240.105,364.758 240.226 C 364.561 240.348,364.400 241.056,364.400 241.800 C 364.400 242.544,364.220 243.264,364.000 243.400 C 363.780 243.536,363.600 244.166,363.600 244.800 C 363.600 245.434,363.420 246.064,363.200 246.200 C 362.980 246.336,362.800 246.966,362.800 247.600 C 362.800 248.234,362.620 248.864,362.400 249.000 C 362.180 249.136,362.000 249.676,362.000 250.200 C 362.000 250.724,361.820 251.264,361.600 251.400 C 361.380 251.536,361.200 252.076,361.200 252.600 C 361.200 253.124,361.020 253.664,360.800 253.800 C 360.580 253.936,360.400 254.476,360.400 255.000 C 360.400 255.524,360.220 256.064,360.000 256.200 C 359.780 256.336,359.600 256.887,359.600 257.424 C 359.600 257.961,359.420 258.400,359.200 258.400 C 358.980 258.400,358.800 258.850,358.800 259.400 C 358.800 259.950,358.620 260.400,358.400 260.400 C 358.180 260.400,358.000 260.762,358.000 261.205 C 358.000 261.648,357.841 262.323,357.647 262.705 C 357.452 263.087,357.111 263.850,356.887 264.400 C 356.298 265.852,355.429 267.846,354.099 270.800 C 353.455 272.230,352.676 273.985,352.367 274.700 C 352.058 275.415,351.669 276.000,351.502 276.000 C 351.336 276.000,351.200 276.345,351.200 276.767 C 351.200 277.188,351.058 277.593,350.885 277.667 C 350.712 277.740,350.081 278.790,349.484 280.000 C 348.259 282.478,347.114 284.501,346.768 284.800 C 346.640 284.910,346.281 285.585,345.970 286.300 C 345.659 287.015,345.269 287.600,345.102 287.600 C 344.936 287.600,344.800 287.836,344.800 288.125 C 344.800 288.413,344.440 289.036,344.000 289.508 C 343.560 289.980,343.200 290.520,343.200 290.708 C 343.200 290.896,342.885 291.398,342.500 291.825 C 342.115 292.251,341.567 293.050,341.283 293.600 C 340.827 294.481,336.009 301.199,334.685 302.800 C 334.412 303.130,333.750 304.030,333.214 304.800 C 332.677 305.570,332.140 306.290,332.019 306.400 C 331.898 306.510,331.194 307.320,330.454 308.200 C 324.278 315.550,315.550 324.278,308.200 330.454 C 307.320 331.194,306.510 331.898,306.400 332.019 C 306.290 332.140,305.570 332.677,304.800 333.214 C 304.030 333.750,303.130 334.412,302.800 334.685 C 301.199 336.009,294.481 340.827,293.600 341.283 C 293.050 341.567,292.251 342.115,291.825 342.500 C 291.398 342.885,290.896 343.200,290.708 343.200 C 290.520 343.200,289.980 343.560,289.508 344.000 C 289.036 344.440,288.413 344.800,288.125 344.800 C 287.836 344.800,287.600 344.936,287.600 345.102 C 287.600 345.269,287.015 345.659,286.300 345.970 C 285.585 346.281,284.910 346.640,284.800 346.768 C 284.501 347.114,282.478 348.259,280.000 349.484 C 278.790 350.081,277.740 350.712,277.667 350.885 C 277.593 351.058,277.188 351.200,276.767 351.200 C 276.345 351.200,276.000 351.336,276.000 351.502 C 276.000 351.669,275.415 352.058,274.700 352.367 C 273.985 352.676,272.230 353.455,270.800 354.099 C 267.846 355.429,265.852 356.298,264.400 356.887 C 263.850 357.111,263.087 357.452,262.705 357.647 C 262.323 357.841,261.648 358.000,261.205 358.000 C 260.762 358.000,260.400 358.180,260.400 358.400 C 260.400 358.620,259.950 358.800,259.400 358.800 C 258.850 358.800,258.400 358.980,258.400 359.200 C 258.400 359.420,257.961 359.600,257.424 359.600 C 256.887 359.600,256.336 359.780,256.200 360.000 C 256.064 360.220,255.524 360.400,255.000 360.400 C 254.476 360.400,253.936 360.580,253.800 360.800 C 253.664 361.020,253.124 361.200,252.600 361.200 C 252.076 361.200,251.536 361.380,251.400 361.600 C 251.264 361.820,250.724 362.000,250.200 362.000 C 249.676 362.000,249.136 362.180,249.000 362.400 C 248.864 362.620,248.234 362.800,247.600 362.800 C 246.966 362.800,246.336 362.980,246.200 363.200 C 246.064 363.420,245.434 363.600,244.800 363.600 C 244.166 363.600,243.536 363.780,243.400 364.000 C 243.264 364.220,242.544 364.400,241.800 364.400 C 241.056 364.400,240.348 364.561,240.226 364.758 C 240.105 364.955,239.329 365.213,238.503 365.332 C 237.676 365.451,236.100 365.749,235.000 365.995 C 215.439 370.368,190.648 370.670,169.000 366.798 C 167.680 366.562,165.924 366.267,165.097 366.142 C 164.271 366.017,163.495 365.755,163.374 365.558 C 163.252 365.361,162.454 365.200,161.600 365.200 C 160.746 365.200,159.936 365.020,159.800 364.800 C 159.664 364.580,158.944 364.400,158.200 364.400 C 157.456 364.400,156.736 364.220,156.600 364.000 C 156.464 363.780,155.834 363.600,155.200 363.600 C 154.566 363.600,153.936 363.420,153.800 363.200 C 153.664 362.980,153.034 362.800,152.400 362.800 C 151.766 362.800,151.136 362.620,151.000 362.400 C 150.864 362.180,150.324 362.000,149.800 362.000 C 149.276 362.000,148.736 361.820,148.600 361.600 C 148.464 361.380,147.924 361.200,147.400 361.200 C 146.876 361.200,146.336 361.020,146.200 360.800 C 146.064 360.580,145.601 360.400,145.171 360.400 C 144.741 360.400,144.032 360.220,143.595 360.000 C 143.158 359.780,142.442 359.420,142.005 359.200 C 141.568 358.980,140.848 358.800,140.405 358.800 C 139.962 358.800,139.600 358.620,139.600 358.400 C 139.600 358.180,139.238 358.000,138.795 358.000 C 138.352 358.000,137.677 357.841,137.295 357.647 C 136.913 357.452,136.150 357.111,135.600 356.887 C 133.626 356.086,131.743 355.253,128.260 353.640 C 126.313 352.738,124.573 352.000,124.394 352.000 C 124.214 352.000,124.007 351.859,123.933 351.686 C 123.860 351.514,122.450 350.702,120.800 349.882 C 117.559 348.272,115.518 347.137,115.200 346.768 C 115.090 346.640,114.415 346.281,113.700 345.970 C 112.985 345.659,112.400 345.269,112.400 345.102 C 112.400 344.936,112.164 344.800,111.875 344.800 C 111.587 344.800,111.002 344.485,110.575 344.100 C 110.149 343.715,109.305 343.145,108.700 342.832 C 108.095 342.520,107.600 342.115,107.600 341.932 C 107.600 341.750,107.407 341.600,107.172 341.600 C 106.758 341.600,103.459 339.470,102.555 338.619 C 102.310 338.389,100.350 336.940,98.200 335.400 C 96.049 333.860,93.909 332.238,93.445 331.796 C 92.980 331.354,92.060 330.579,91.400 330.074 C 84.270 324.620,71.308 310.949,64.592 301.800 C 63.139 299.820,61.514 297.660,60.982 297.000 C 60.450 296.340,60.011 295.657,60.007 295.483 C 60.003 295.309,59.640 294.780,59.200 294.308 C 58.760 293.836,58.400 293.213,58.400 292.925 C 58.400 292.636,58.250 292.400,58.068 292.400 C 57.885 292.400,57.480 291.905,57.168 291.300 C 56.855 290.695,56.285 289.851,55.900 289.425 C 55.515 288.998,55.200 288.413,55.200 288.125 C 55.200 287.836,55.064 287.600,54.898 287.600 C 54.731 287.600,54.341 287.015,54.030 286.300 C 53.719 285.585,53.360 284.910,53.232 284.800 C 52.196 283.907,43.600 266.298,43.600 265.068 C 43.600 264.701,43.420 264.400,43.200 264.400 C 42.980 264.400,42.800 264.051,42.800 263.624 C 42.800 263.197,42.620 262.736,42.400 262.600 C 42.180 262.464,42.000 261.913,42.000 261.376 C 42.000 260.839,41.820 260.400,41.600 260.400 C 41.380 260.400,41.200 260.038,41.200 259.595 C 41.200 259.152,41.020 258.432,40.800 257.995 C 40.580 257.558,40.220 256.842,40.000 256.405 C 39.780 255.968,39.600 255.259,39.600 254.829 C 39.600 254.399,39.420 253.936,39.200 253.800 C 38.980 253.664,38.800 253.124,38.800 252.600 C 38.800 252.076,38.620 251.536,38.400 251.400 C 38.180 251.264,38.000 250.724,38.000 250.200 C 38.000 249.676,37.820 249.136,37.600 249.000 C 37.380 248.864,37.200 248.234,37.200 247.600 C 37.200 246.966,37.020 246.336,36.800 246.200 C 36.580 246.064,36.400 245.434,36.400 244.800 C 36.400 244.166,36.220 243.536,36.000 243.400 C 35.780 243.264,35.600 242.544,35.600 241.800 C 35.600 241.056,35.420 240.336,35.200 240.200 C 34.980 240.064,34.800 239.254,34.800 238.400 C 34.800 237.546,34.639 236.748,34.442 236.626 C 34.245 236.505,33.983 235.729,33.858 234.903 C 33.733 234.076,33.459 232.410,33.248 231.200 C 31.639 221.977,31.312 219.041,30.741 208.700 C 30.008 195.423,30.799 182.838,33.248 168.800 C 33.459 167.590,33.733 165.924,33.858 165.097 C 33.983 164.271,34.245 163.495,34.442 163.374 C 34.639 163.252,34.800 162.454,34.800 161.600 C 34.800 160.746,34.980 159.936,35.200 159.800 C 35.420 159.664,35.600 158.944,35.600 158.200 C 35.600 157.456,35.780 156.736,36.000 156.600 C 36.220 156.464,36.400 155.834,36.400 155.200 C 36.400 154.566,36.580 153.936,36.800 153.800 C 37.020 153.664,37.200 153.034,37.200 152.400 C 37.200 151.766,37.380 151.136,37.600 151.000 C 37.820 150.864,38.000 150.324,38.000 149.800 C 38.000 149.276,38.180 148.736,38.400 148.600 C 38.620 148.464,38.800 147.924,38.800 147.400 C 38.800 146.876,38.980 146.336,39.200 146.200 C 39.420 146.064,39.600 145.601,39.600 145.171 C 39.600 144.741,39.780 144.032,40.000 143.595 C 40.220 143.158,40.580 142.442,40.800 142.005 C 41.020 141.568,41.200 140.848,41.200 140.405 C 41.200 139.962,41.380 139.600,41.600 139.600 C 41.820 139.600,42.000 139.161,42.000 138.624 C 42.000 138.087,42.180 137.536,42.400 137.400 C 42.620 137.264,42.800 136.803,42.800 136.376 C 42.800 135.949,42.980 135.600,43.200 135.600 C 43.420 135.600,43.600 135.257,43.600 134.838 C 43.600 134.419,43.946 133.384,44.369 132.538 C 44.793 131.692,46.594 128.030,48.372 124.400 C 51.552 117.907,52.774 115.595,53.232 115.200 C 53.360 115.090,53.719 114.415,54.030 113.700 C 54.341 112.985,54.731 112.400,54.898 112.400 C 55.064 112.400,55.200 112.164,55.200 111.875 C 55.200 111.587,55.560 110.964,56.000 110.492 C 56.440 110.020,56.800 109.480,56.800 109.292 C 56.800 109.104,57.115 108.602,57.500 108.175 C 57.885 107.749,58.455 106.905,58.768 106.300 C 59.080 105.695,59.485 105.200,59.668 105.200 C 59.850 105.200,60.000 104.975,60.000 104.700 C 60.001 104.425,60.406 103.725,60.900 103.144 C 61.395 102.563,63.060 100.333,64.600 98.189 C 66.140 96.044,67.762 93.909,68.204 93.445 C 68.646 92.980,69.426 92.060,69.937 91.400 C 73.679 86.565,86.565 73.679,91.400 69.937 C 92.060 69.426,92.980 68.646,93.445 68.204 C 93.909 67.762,96.044 66.140,98.189 64.600 C 100.333 63.060,102.563 61.395,103.144 60.900 C 103.725 60.406,104.343 60.001,104.517 60.000 C 104.691 60.000,105.220 59.640,105.692 59.200 C 106.164 58.760,106.787 58.400,107.075 58.400 C 107.364 58.400,107.600 58.250,107.600 58.068 C 107.600 57.885,108.095 57.480,108.700 57.168 C 109.305 56.855,110.149 56.285,110.575 55.900 C 111.002 55.515,111.587 55.200,111.875 55.200 C 112.164 55.200,112.400 55.064,112.400 54.898 C 112.400 54.731,112.985 54.341,113.700 54.030 C 114.415 53.719,115.090 53.360,115.200 53.232 C 115.595 52.774,117.907 51.552,124.400 48.372 C 128.030 46.594,131.692 44.793,132.538 44.369 C 133.384 43.946,134.419 43.600,134.838 43.600 C 135.257 43.600,135.600 43.420,135.600 43.200 C 135.600 42.980,135.949 42.800,136.376 42.800 C 136.803 42.800,137.264 42.620,137.400 42.400 C 137.536 42.180,138.087 42.000,138.624 42.000 C 139.161 42.000,139.600 41.820,139.600 41.600 C 139.600 41.380,139.962 41.200,140.405 41.200 C 141.183 41.200,141.569 41.058,143.495 40.062 C 143.987 39.808,144.741 39.600,145.171 39.600 C 145.601 39.600,146.064 39.420,146.200 39.200 C 146.336 38.980,146.876 38.800,147.400 38.800 C 147.924 38.800,148.464 38.620,148.600 38.400 C 148.736 38.180,149.276 38.000,149.800 38.000 C 150.324 38.000,150.864 37.820,151.000 37.600 C 151.136 37.380,151.766 37.200,152.400 37.200 C 153.034 37.200,153.664 37.020,153.800 36.800 C 153.936 36.580,154.566 36.400,155.200 36.400 C 155.834 36.400,156.464 36.220,156.600 36.000 C 156.736 35.780,157.456 35.600,158.200 35.600 C 158.944 35.600,159.664 35.420,159.800 35.200 C 159.936 34.980,160.746 34.800,161.600 34.800 C 162.454 34.800,163.252 34.639,163.374 34.442 C 163.495 34.245,164.271 33.983,165.097 33.858 C 165.924 33.733,167.590 33.459,168.800 33.248 C 183.633 30.660,197.366 29.877,211.400 30.820 M197.600 93.582 C 197.270 93.805,196.631 93.991,196.180 93.994 C 195.201 94.001,193.208 94.876,193.203 95.300 C 193.201 95.465,192.918 95.600,192.574 95.600 C 191.464 95.600,187.670 99.748,186.508 102.231 L 185.400 104.600 185.400 154.800 L 185.400 205.000 186.442 207.218 C 187.819 210.151,190.006 212.353,195.800 216.643 C 200.816 220.357,201.745 221.074,202.616 221.900 C 202.906 222.175,203.244 222.400,203.367 222.400 C 203.590 222.400,204.817 223.351,205.816 224.300 C 206.106 224.575,206.454 224.800,206.590 224.800 C 206.725 224.800,207.286 225.250,207.836 225.800 C 208.386 226.350,208.995 226.800,209.190 226.800 C 209.384 226.800,209.799 227.056,210.112 227.369 C 210.425 227.682,211.396 228.447,212.270 229.069 C 214.113 230.381,217.128 232.610,218.009 233.314 C 218.344 233.581,219.694 234.610,221.009 235.599 C 222.324 236.588,223.490 237.497,223.600 237.618 C 223.710 237.739,224.430 238.271,225.200 238.800 C 225.970 239.329,226.690 239.869,226.800 240.000 C 226.910 240.131,227.630 240.671,228.400 241.200 C 229.170 241.729,229.890 242.269,230.000 242.400 C 230.110 242.531,230.830 243.071,231.600 243.600 C 232.370 244.129,233.090 244.666,233.200 244.794 C 233.310 244.922,234.660 245.910,236.200 246.989 C 237.740 248.069,239.090 249.061,239.200 249.195 C 239.310 249.329,240.030 249.871,240.800 250.400 C 241.570 250.929,242.290 251.469,242.400 251.600 C 242.510 251.731,243.230 252.271,244.000 252.800 C 244.770 253.329,245.490 253.869,245.600 254.000 C 245.710 254.131,246.430 254.677,247.200 255.214 C 248.618 256.201,249.716 257.056,250.545 257.819 C 255.780 262.637,263.568 263.814,269.200 260.639 C 271.029 259.608,274.800 255.828,274.800 255.026 C 274.800 254.682,274.980 254.400,275.200 254.400 C 275.420 254.400,275.600 254.051,275.600 253.624 C 275.600 253.197,275.780 252.736,276.000 252.600 C 276.220 252.464,276.400 251.744,276.400 251.000 C 276.400 250.256,276.580 249.536,276.800 249.400 C 277.020 249.264,277.200 248.364,277.200 247.400 C 277.200 246.436,277.020 245.536,276.800 245.400 C 276.580 245.264,276.400 244.533,276.400 243.776 C 276.400 243.019,276.220 242.400,276.000 242.400 C 275.780 242.400,275.600 242.040,275.600 241.600 C 275.600 241.160,275.420 240.800,275.200 240.800 C 274.980 240.800,274.800 240.530,274.800 240.200 C 274.800 239.870,274.620 239.600,274.400 239.600 C 274.180 239.600,274.000 239.399,274.000 239.154 C 274.000 238.587,271.147 235.923,268.800 234.299 C 267.810 233.614,266.910 232.950,266.800 232.825 C 266.690 232.700,265.520 231.789,264.200 230.800 C 262.880 229.811,261.710 228.903,261.600 228.782 C 261.490 228.661,260.770 228.129,260.000 227.600 C 259.230 227.071,258.309 226.314,257.953 225.919 C 257.597 225.524,257.147 225.197,256.953 225.193 C 256.759 225.189,256.060 224.750,255.400 224.218 C 254.740 223.686,252.580 222.061,250.600 220.608 C 248.620 219.154,246.730 217.745,246.400 217.477 C 246.070 217.208,245.170 216.550,244.400 216.013 C 243.630 215.477,242.709 214.714,242.353 214.319 C 241.997 213.924,241.529 213.600,241.312 213.600 C 241.096 213.600,240.354 213.060,239.663 212.400 C 238.972 211.740,238.252 211.200,238.063 211.200 C 237.874 211.200,237.154 210.660,236.463 210.000 C 235.772 209.340,235.123 208.800,235.021 208.800 C 234.797 208.800,226.827 202.844,226.071 202.112 C 225.781 201.830,225.419 201.600,225.267 201.600 C 225.116 201.600,224.544 201.190,223.996 200.689 C 223.448 200.187,222.370 199.341,221.600 198.808 C 220.830 198.275,220.110 197.731,220.000 197.600 C 219.890 197.469,219.170 196.923,218.400 196.388 C 217.630 195.853,216.511 194.982,215.913 194.453 L 214.826 193.491 214.713 149.046 L 214.600 104.600 213.492 102.231 C 211.668 98.334,207.288 94.670,203.400 93.790 C 201.151 93.281,198.201 93.175,197.600 93.582 " stroke="none" fill="#37cc12" fill-rule="evenodd"></path><path id="path1" d="" stroke="none" fill="#080404" fill-rule="evenodd"></path><path id="path2" d="" stroke="none" fill="#080404" fill-rule="evenodd"></path><path id="path3" d="" stroke="none" fill="#080404" fill-rule="evenodd"></path><path id="path4" d="" stroke="none" fill="#080404" fill-rule="evenodd"></path></g></svg>