<svg width="47" height="38" viewBox="0 0 47 38" fill="none" xmlns="http://www.w3.org/2000/svg">
<path d="M38.0695 30.3508C37.6109 30.3052 37.1521 30.2605 36.6969 30.1878L31.5076 29.3605C27.9563 28.7944 24.5269 27.6289 21.3661 25.9135L19.6456 24.9799C17.5397 23.8371 15.3126 22.9334 13.0057 22.2857L6.21179 20.3782C4.26797 19.8327 2.24992 20.9661 1.70419 22.9098C1.15847 24.8536 2.29174 26.8716 4.23549 27.4174L27.3071 33.8949C30.7865 34.8718 34.4109 35.2276 38.0137 34.946C38.9784 34.8706 39.7933 34.2013 40.0548 33.2699C40.4494 31.8645 39.4608 30.4888 38.0695 30.3508Z" fill="white"/>
<path d="M38.398 24.2937C36.77 23.4203 35.2129 22.4299 33.7631 21.3533L29.825 24.941L28.0803 23.026L31.7161 19.7136C31.2748 19.332 30.8468 18.943 30.4345 18.5468L26.7991 21.838L25.0604 19.9175L28.6447 16.6725C28.2816 16.257 27.9357 15.8365 27.6087 15.4118L23.9625 18.7761L22.2056 16.8721L26.1323 13.2488C26.0388 13.0915 25.9456 12.9314 25.8531 12.7676L15.5704 16.2462L14.7979 13.9626L13.9898 14.26C13.3775 14.4854 12.914 14.9715 12.7179 15.5937C12.5218 16.2161 12.6231 16.8802 12.9956 17.4158L14.8973 20.1502C16.9653 20.8118 18.9732 21.6676 20.8807 22.7028L22.6012 23.6365C24.5087 24.6716 26.5352 25.4939 28.6247 26.0805C29.7024 26.3831 30.8094 26.6259 31.9149 26.8021L37.1042 27.6293C37.4731 27.6882 37.8715 27.7276 38.2931 27.7695L38.3246 27.7726C38.607 27.8006 38.8883 27.8536 39.1609 27.9301C39.6068 28.0553 40.02 28.2401 40.3965 28.4713C40.8134 27.4213 40.9666 25.6716 38.398 24.2937Z" fill="white"/>
<path d="M22.3216 4.92258C21.6429 3.78644 20.2307 3.26109 18.9477 3.74259L9.57443 7.26045C7.79887 7.92679 6.44792 9.40046 5.93813 11.2271L4.11692 17.7517C5.01924 17.5878 5.97109 17.6203 6.91182 17.8844L10.9554 19.0197L10.869 18.8954C10.0348 17.6961 9.80828 16.209 10.2473 14.8156C10.6863 13.4222 11.7244 12.3338 13.0954 11.8292L13.9677 11.5082L12.8266 8.13475L22.3216 4.92258Z" fill="white"/>
</svg>
