<svg width="40" height="19" viewBox="0 0 40 19" fill="none" xmlns="http://www.w3.org/2000/svg">
<path d="M35.9827 18.2039C38.2015 18.2039 40.0002 16.4053 40.0002 14.1865C40.0002 11.9678 38.2015 10.1691 35.9827 10.1691C33.764 10.1691 31.9653 11.9678 31.9653 14.1865C31.9653 16.4053 33.764 18.2039 35.9827 18.2039Z" fill="#72B852"/>
<path d="M31.7067 13.2168C31.4038 12.0254 30.4983 10.772 29.1516 10.5058L20.989 3.23016C20.4308 2.73238 19.6158 2.71097 19.0353 3.13367L19.0346 1.84288C19.0343 0.824313 18.2094 0 17.1914 0C17.1911 0 17.1908 0 17.1908 0C16.1725 0.000639003 15.3479 0.826231 15.3482 1.84384L15.3533 13.6782L1.84289 13.683C0.824953 13.683 0 14.5086 0 15.5268C0.000319502 16.5454 0.825592 17.37 1.84352 17.37H1.84384L18.1282 17.3643C18.5857 17.7001 19.1429 17.9074 19.7941 17.9023L28.6618 17.826C30.3076 17.8119 31.399 16.3578 31.7169 15.0124C31.7169 15.0124 31.8402 14.5881 31.8262 14.1386C31.8128 13.7076 31.7089 13.229 31.7089 13.229L31.7067 13.2168ZM24.4451 10.4886L19.7311 10.5292C19.488 10.5314 19.2573 10.564 19.0388 10.6228L19.0362 5.66796L24.4451 10.4886Z" fill="#72B852"/>
</svg>
