<svg width="57" height="57" viewBox="0 0 57 57" fill="none" xmlns="http://www.w3.org/2000/svg">
<path d="M23.854 22.8545C25.4707 22.8545 26.7812 21.5439 26.7812 19.9272C26.7812 18.3106 25.4707 17 23.854 17C22.2373 17 20.9268 18.3106 20.9268 19.9272C20.9268 21.5439 22.2373 22.8545 23.854 22.8545Z" fill="#72B852"/>
<path d="M45.8914 36.7655C45.8905 36.7655 45.8894 36.7655 45.8885 36.7655L44.3818 36.769C44.2959 36.5347 44.1582 36.3153 43.9657 36.1311L36.6647 29.1515C36.0704 28.5833 35.153 28.5265 34.493 29.0168L30.6908 31.8421L28.9772 25.2295L32.7841 19.5193C33.3217 18.7129 32.7874 17.6272 31.8249 17.5559L26.756 17.1805C27.2422 17.6951 27.5885 18.3349 27.7486 19.03C27.8073 19.2853 27.8405 19.5424 27.8493 19.7987L29.4766 19.9192L27.228 23.292L22.473 24.4289L23.9989 25.8509L19.7491 23.3658L20.648 22.3126C20.3202 21.8716 20.0829 21.3645 19.9585 20.8238C19.8402 20.31 19.8246 19.7886 19.9069 19.2834L16.8396 22.8771C16.3266 23.4779 16.4851 24.3969 17.1668 24.7926L23.1152 28.2449L21.8673 27.9742L23.9033 36.8162L10.231 36.8477C9.54962 36.8494 8.99844 37.4032 9 38.0846C9.00157 38.765 9.55371 39.3157 10.2339 39.3157C10.2348 39.3157 10.2359 39.3157 10.2368 39.3157L45.8943 39.2335C46.5757 39.2319 47.1269 38.6782 47.1254 37.9968C47.1237 37.3161 46.5716 36.7655 45.8914 36.7655ZM29.671 36.8031L35.3625 32.5738L39.7621 36.7798L29.671 36.8031Z" fill="#72B852"/>
<circle cx="28.3717" cy="28.3717" r="27.3717" stroke="#72B852" stroke-width="2"/>
</svg>
