<svg width="57" height="57" viewBox="0 0 57 57" fill="none" xmlns="http://www.w3.org/2000/svg">
<circle cx="28.3717" cy="28.3717" r="27.3717" stroke="#72B852" stroke-width="2"/>
<path d="M36.7751 28.3902C36.6571 28.2552 36.5571 28.1078 36.4746 27.9523C36.4341 32.1334 33.0207 35.5226 28.8302 35.5226C24.6145 35.5226 21.1847 32.0928 21.1847 27.8772C21.1847 23.6615 24.6145 20.2318 28.8302 20.2318C32.4567 20.2318 35.5015 22.77 36.2817 26.1632L36.9741 21.0163L36.9897 20.9005C35.0182 18.5981 32.0919 17.1364 28.8302 17.1364C26.2855 17.1364 23.945 18.0264 22.1027 19.5109V19.6221V19.7205V21.9005V21.987C22.1027 23.4432 21.348 24.7726 20.1538 25.5322V34.0536V34.2004C22.1091 36.8761 25.2698 38.6178 28.8302 38.6178C32.5714 38.6178 35.8715 36.6946 37.7952 33.7854V33.628V29.0637C37.4049 28.9367 37.0512 28.706 36.7751 28.3902Z" fill="#72B852"/>
<path d="M28.83 21.5312C25.3308 21.5312 22.4839 24.378 22.4839 27.8773C22.4839 31.3766 25.3307 34.2234 28.83 34.2234C32.3293 34.2234 35.1762 31.3766 35.1762 27.8773C35.1762 24.378 32.3292 21.5312 28.83 21.5312Z" fill="#72B852"/>
<path d="M40.9713 16.0012C40.9713 15.4483 40.523 15 39.97 15C39.4687 15 39.0446 15.3708 38.9778 15.8677L37.5148 26.7427C37.4763 27.0289 37.5633 27.3178 37.7534 27.5352C37.9435 27.7526 38.2182 27.8773 38.507 27.8773H39.0945V39.542C39.0945 40.0682 39.5211 40.4948 40.0473 40.4948C40.5735 40.4948 41.0001 40.0682 41.0001 39.542L40.9713 16.0012Z" fill="#72B852"/>
<path d="M20.8035 16.2127C20.8035 15.8538 20.5127 15.563 20.1538 15.563C19.795 15.563 19.5042 15.8538 19.5042 16.2127V19.8073H18.5514V16.2127C18.5514 15.8538 18.2606 15.563 17.9017 15.563C17.5429 15.563 17.2521 15.8538 17.2521 16.2127V19.8073H16.2993V16.2127C16.2993 15.8538 16.0085 15.563 15.6496 15.563C15.2908 15.563 15 15.8538 15 16.2127V22.0738C15 23.3401 15.8157 24.4188 16.9489 24.8141V39.542C16.9489 40.0682 17.3755 40.4948 17.9017 40.4948C18.4279 40.4948 18.8545 40.0682 18.8545 39.542V24.8141C19.9878 24.4188 20.8035 23.3401 20.8035 22.0738V16.2127Z" fill="#72B852"/>
</svg>
