<svg width="26" height="26" viewBox="0 0 26 26" fill="none" xmlns="http://www.w3.org/2000/svg">
<path d="M21.7751 13.3902C21.6571 13.2552 21.5571 13.1078 21.4746 12.9523C21.4341 17.1334 18.0207 20.5226 13.8302 20.5226C9.61451 20.5226 6.18475 17.0928 6.18475 12.8772C6.18475 8.66153 9.61451 5.23176 13.8302 5.23176C17.4567 5.23176 20.5015 7.77004 21.2817 11.1632L21.9741 6.01627L21.9897 5.90055C20.0182 3.59813 17.0919 2.13635 13.8302 2.13635C11.2855 2.13635 8.94503 3.02645 7.10273 4.51092V4.62205V4.72045V6.90048V6.98701C7.10273 8.44316 6.34802 9.77259 5.15381 10.5322V19.0536V19.2004C7.10914 21.8761 10.2698 23.6178 13.8302 23.6178C17.5714 23.6178 20.8715 21.6946 22.7952 18.7854V18.628V14.0637C22.4049 13.9367 22.0512 13.706 21.7751 13.3902Z" fill="#72B852"/>
<path d="M13.83 6.53116C10.3308 6.53116 7.48389 9.37797 7.48389 12.8773C7.48389 16.3766 10.3307 19.2234 13.83 19.2234C17.3293 19.2234 20.1762 16.3766 20.1762 12.8773C20.1762 9.37797 17.3292 6.53116 13.83 6.53116Z" fill="#72B852"/>
<path d="M25.9713 1.00123C25.9713 0.448253 25.523 0 24.97 0C24.4687 0 24.0446 0.370815 23.9778 0.867748L22.5148 11.7427C22.4763 12.0289 22.5633 12.3178 22.7534 12.5352C22.9435 12.7526 23.2182 12.8773 23.507 12.8773H24.0945V24.542C24.0945 25.0682 24.5211 25.4948 25.0473 25.4948C25.5735 25.4948 26.0001 25.0682 26.0001 24.542L25.9713 1.00123Z" fill="#72B852"/>
<path d="M5.80346 1.21266C5.80346 0.853798 5.51268 0.563019 5.15382 0.563019C4.79496 0.563019 4.50418 0.853798 4.50418 1.21266V4.80726H3.55137V1.21266C3.55137 0.853798 3.26059 0.563019 2.90173 0.563019C2.54287 0.563019 2.25209 0.853798 2.25209 1.21266V4.80726H1.29928V1.21266C1.29928 0.853798 1.0085 0.563019 0.649642 0.563019C0.29078 0.563019 0 0.853798 0 1.21266V7.07381C0 8.34009 0.81569 9.41885 1.94892 9.81409V24.542C1.94892 25.0682 2.37552 25.4948 2.90173 25.4948C3.42794 25.4948 3.85454 25.0682 3.85454 24.542V9.81409C4.98777 9.41885 5.80346 8.34009 5.80346 7.07381V1.21266Z" fill="#72B852"/>
</svg>
