<svg width="20" height="30" viewBox="0 0 20 30" fill="none" xmlns="http://www.w3.org/2000/svg">
<path d="M1.37129 10.909C2.09045 11.6281 2.71031 11.9906 3.26731 12.0171C3.83899 12.05 4.4424 11.7233 5.12983 11.0353L5.54522 10.6199L5.96062 11.0353C7.33254 12.4078 8.31609 12.3955 9.71915 10.993L10.1345 10.5776L10.5499 10.993C11.9213 12.3643 12.9054 12.3526 14.3085 10.9501L14.7239 10.5347L15.1393 10.9501C15.8373 11.6481 16.3849 11.9742 16.8608 11.9742C16.8637 11.9742 16.8672 11.9736 16.8708 11.9736C17.3531 11.9689 17.9137 11.6311 18.6358 10.909L19.8279 9.85551C20.0294 5.49003 20 2.0429 19.9965 1.68626C19.9965 1.18214 19.9965 0 9.99941 0C0.00230967 0 0.00289635 1.18214 0.00289635 1.68038C-0.000628931 2.04407 -0.0270685 5.56524 0.184448 9.99945L1.37129 10.909Z" fill="#72B852"/>
<path d="M19.4402 11.7645C18.5001 12.7069 17.7028 13.1411 16.882 13.1481C16.1776 13.1511 15.4984 12.8491 14.7222 12.1687C13.1564 13.5154 11.6793 13.5271 10.1358 12.2092C9.34439 12.8902 8.5753 13.231 7.80914 13.231C7.05825 13.231 6.30972 12.9037 5.54473 12.2504C4.75801 12.919 3.99361 13.2286 3.211 13.1904C2.34554 13.1493 1.50535 12.6963 0.568211 11.7674L0.265625 11.5353C0.664569 18.3773 1.65282 26.6764 4.08879 29.1365C4.63286 29.6864 5.24038 29.9649 5.8955 29.9649H14.1041C14.7633 29.9649 15.375 29.6846 15.9214 29.1323C18.3673 26.6599 19.3503 18.3409 19.7434 11.4971L19.4402 11.7645ZM14.2622 14.8503C14.5865 14.8503 14.8497 15.1135 14.8497 15.4378C14.8497 15.7621 14.5865 16.0254 14.2622 16.0254C13.9378 16.0254 13.6746 15.7621 13.6746 15.4378C13.6746 15.1135 13.9372 14.8503 14.2622 14.8503ZM13.0871 18.3755C13.4114 18.3755 13.6746 18.6388 13.6746 18.9631C13.6746 19.2874 13.4114 19.5506 13.0871 19.5506C12.7627 19.5506 12.4995 19.2874 12.4995 18.9631C12.4995 18.6388 12.7622 18.3755 13.0871 18.3755ZM11.912 15.4378C12.2363 15.4378 12.4995 15.701 12.4995 16.0254C12.4995 16.3497 12.2363 16.6129 11.912 16.6129C11.5876 16.6129 11.3244 16.3497 11.3244 16.0254C11.3244 15.701 11.5871 15.4378 11.912 15.4378ZM10.1493 19.5506C10.4737 19.5506 10.7369 19.8139 10.7369 20.1382C10.7369 20.4625 10.4737 20.7257 10.1493 20.7257C9.82501 20.7257 9.56179 20.4625 9.56179 20.1382C9.56179 19.8139 9.82442 19.5506 10.1493 19.5506ZM3.43368 18.9343C3.11288 18.5912 2.94543 18.1423 2.96129 17.6717C2.97715 17.1999 3.17516 16.7633 3.51828 16.4431L4.80618 15.2398C5.48715 14.6035 6.66107 14.6423 7.29738 15.3244L8.50068 16.6123C8.82148 16.9554 8.98893 17.4043 8.97307 17.8755C8.9572 18.3467 8.7592 18.7833 8.41607 19.1035L7.12817 20.3068C6.80149 20.6123 6.37435 20.7804 5.92546 20.7804C5.4378 20.7804 4.96835 20.5771 4.63756 20.2228L3.43368 18.9343ZM5.44896 24.3051C5.12464 24.3051 4.86141 24.0418 4.86141 23.7175C4.86141 23.3932 5.12464 23.13 5.44896 23.13C5.77329 23.13 6.03651 23.3932 6.03651 23.7175C6.03651 24.0418 5.77329 24.3051 5.44896 24.3051ZM6.62405 27.8303C6.29973 27.8303 6.03651 27.5671 6.03651 27.2428C6.03651 26.9185 6.29973 26.6552 6.62405 26.6552C6.94838 26.6552 7.2116 26.9185 7.2116 27.2428C7.2116 27.5671 6.94838 27.8303 6.62405 27.8303ZM13.704 26.8797L12.4161 28.083C12.0894 28.3885 11.6623 28.5565 11.2134 28.5565C10.7257 28.5565 10.2563 28.3533 9.92548 27.999L8.72218 26.7111C8.40138 26.3679 8.23393 25.919 8.2498 25.4484C8.26566 24.9766 8.46366 24.5401 8.80679 24.2199L10.0947 23.0166C10.7757 22.3797 11.9496 22.4196 12.5859 23.1012L13.7892 24.3891C14.4519 25.0988 14.4143 26.2163 13.704 26.8797ZM14.8497 22.4884C14.5254 22.4884 14.2622 22.2251 14.2622 21.9008C14.2622 21.5765 14.5254 21.3133 14.8497 21.3133C15.174 21.3133 15.4373 21.5765 15.4373 21.9008C15.4373 22.2251 15.174 22.4884 14.8497 22.4884Z" fill="#72B852"/>
</svg>
