<svg width="26" height="26" viewBox="0 0 26 26" fill="none" xmlns="http://www.w3.org/2000/svg">
<path d="M13 26C9.55219 26 6.24558 24.6304 3.80761 22.1924C1.36964 19.7544 0 16.4478 0 13C0 9.55219 1.36964 6.24558 3.80761 3.80761C6.24558 1.36964 9.55219 0 13 0C16.4478 0 19.7544 1.36964 22.1924 3.80761C24.6304 6.24558 26 9.55219 26 13C26 16.4478 24.6304 19.7544 22.1924 22.1924C19.7544 24.6304 16.4478 26 13 26ZM8.45 11.7C8.96717 11.7 9.46316 11.4946 9.82886 11.1289C10.1946 10.7632 10.4 10.2672 10.4 9.75C10.4 9.23283 10.1946 8.73684 9.82886 8.37114C9.46316 8.00545 8.96717 7.8 8.45 7.8C7.93283 7.8 7.43684 8.00545 7.07114 8.37114C6.70545 8.73684 6.5 9.23283 6.5 9.75C6.5 10.2672 6.70545 10.7632 7.07114 11.1289C7.43684 11.4946 7.93283 11.7 8.45 11.7V11.7ZM17.55 11.7C18.0672 11.7 18.5632 11.4946 18.9289 11.1289C19.2946 10.7632 19.5 10.2672 19.5 9.75C19.5 9.23283 19.2946 8.73684 18.9289 8.37114C18.5632 8.00545 18.0672 7.8 17.55 7.8C17.0328 7.8 16.5368 8.00545 16.1711 8.37114C15.8054 8.73684 15.6 9.23283 15.6 9.75C15.6 10.2672 15.8054 10.7632 16.1711 11.1289C16.5368 11.4946 17.0328 11.7 17.55 11.7ZM20.358 15.6H5.642C6.17796 17.1236 7.17366 18.4432 8.49165 19.3767C9.80963 20.3102 11.3849 20.8116 13 20.8116C14.6151 20.8116 16.1904 20.3102 17.5084 19.3767C18.8263 18.4432 19.822 17.1236 20.358 15.6Z" fill="#72B852"/>
</svg>
