<svg xmlns="http://www.w3.org/2000/svg" viewBox="0 0 86.56 86.56"><defs><style>.cls-1{fill:#ffce00;}.cls-2{fill:#562912;}</style></defs><g id="Layer_2" data-name="Layer 2"><g id="Layer_1-2" data-name="Layer 1"><circle class="cls-1" cx="43.28" cy="43.28" r="43.28" transform="translate(-6.3 7.38) rotate(-9.09)"/><path class="cls-2" d="M43.51,63a29.17,29.17,0,0,1-19.66-7.68,2.12,2.12,0,1,1,2.88-3.1,24.77,24.77,0,0,0,33.13.39,2.12,2.12,0,1,1,2.81,3.17A28.87,28.87,0,0,1,43.51,63Z"/><path class="cls-2" d="M70.75,28.21a5.6,5.6,0,1,1-5.6-5.61A5.6,5.6,0,0,1,70.75,28.21Z"/><path class="cls-2" d="M27,28.21a5.61,5.61,0,1,1-5.6-5.61A5.6,5.6,0,0,1,27,28.21Z"/></g></g></svg>