<svg width="88" height="88" viewBox="0 0 88 88" fill="none" xmlns="http://www.w3.org/2000/svg">
<path d="M87.4843 44.2564C87.4843 52.8164 84.946 61.1841 80.1903 68.3015C75.4347 75.4188 68.6752 80.9661 60.7669 84.2419C52.8585 87.5177 44.1563 88.3748 35.7608 86.7048C27.3653 85.0348 19.6536 80.9128 13.6008 74.86C7.54794 68.8072 3.42592 61.0954 1.75595 52.6999C0.0859807 44.3044 0.943069 35.6023 4.21883 27.6939C7.49459 19.7855 13.0419 13.0261 20.1593 8.27042C27.2766 3.51475 35.6444 0.976425 44.2043 0.976425C55.6829 0.976425 66.6913 5.53627 74.8079 13.6528C82.9245 21.7694 87.4843 32.7778 87.4843 44.2564V44.2564Z" fill="#FFCE00"/>
<path d="M59.9243 61.7564C59.3892 61.7568 58.8742 61.5529 58.4843 61.1864C54.7747 57.8302 49.9852 55.9144 44.9843 55.7864C42.2525 55.646 39.5199 56.0492 36.945 56.9728C34.3702 57.8963 32.0042 59.3217 29.9843 61.1664C29.7862 61.3721 29.5485 61.5355 29.2856 61.6471C29.0227 61.7586 28.74 61.8158 28.4544 61.8154C28.1688 61.8149 27.8863 61.7568 27.6237 61.6444C27.3612 61.5321 27.124 61.3679 26.9265 61.1616C26.729 60.9553 26.5752 60.7113 26.4743 60.4441C26.3735 60.1769 26.3277 59.8921 26.3396 59.6068C26.3515 59.3214 26.421 59.0415 26.5438 58.7836C26.6666 58.5258 26.8403 58.2955 27.0543 58.1064C29.4936 55.8679 32.3533 54.1361 35.4673 53.0117C38.5813 51.8873 41.8876 51.3927 45.1943 51.5564C51.2049 51.7237 56.9562 54.0406 61.4043 58.0864C61.7177 58.3787 61.9351 58.759 62.0279 59.1773C62.1208 59.5956 62.0847 60.0322 61.9244 60.4296C61.7642 60.8269 61.4873 61.1664 61.1302 61.4033C60.7732 61.6402 60.3528 61.7633 59.9243 61.7564V61.7564Z" fill="#562912"/>
<path d="M72.2143 38.3364H72.0043C69.8354 37.9597 67.7662 37.1447 65.923 35.9411C64.0798 34.7375 62.5014 33.1707 61.2843 31.3364C61.0894 31.0168 61.0294 30.6329 61.1175 30.2691C61.2057 29.9053 61.4347 29.5914 61.7543 29.3964C62.0739 29.2015 62.4578 29.1415 62.8217 29.2296C63.1855 29.3178 63.4994 29.5468 63.6943 29.8664C64.7016 31.3485 65.9926 32.6162 67.4928 33.5962C68.9929 34.5763 70.6725 35.2494 72.4343 35.5764C72.7984 35.6165 73.1326 35.7967 73.3661 36.0788C73.5997 36.3609 73.7143 36.7229 73.6857 37.088C73.6571 37.4531 73.4876 37.7928 73.213 38.0352C72.9383 38.2775 72.5802 38.4035 72.2143 38.3864V38.3364Z" fill="#562912"/>
<path d="M16.1843 38.3364C15.8202 38.3493 15.4651 38.2207 15.1937 37.9776C14.9223 37.7345 14.7555 37.3958 14.7283 37.0324C14.7012 36.669 14.8157 36.3092 15.048 36.0285C15.2803 35.7477 15.6123 35.5678 15.9743 35.5264C17.7371 35.2061 19.4179 34.5358 20.9173 33.5551C22.4167 32.5744 23.7044 31.3031 24.7043 29.8164C24.8008 29.6582 24.9276 29.5205 25.0773 29.4112C25.2271 29.302 25.3968 29.2233 25.577 29.1796C25.7571 29.136 25.9441 29.1283 26.1272 29.1569C26.3104 29.1855 26.4861 29.2499 26.6443 29.3464C26.8026 29.4429 26.9402 29.5697 27.0495 29.7194C27.1588 29.8691 27.2375 30.0389 27.2811 30.2191C27.3248 30.3992 27.3325 30.5862 27.3039 30.7693C27.2753 30.9525 27.2108 31.1282 27.1143 31.2864C25.8997 33.1208 24.3232 34.6878 22.4816 35.8915C20.64 37.0952 18.572 37.9101 16.4043 38.2864L16.1843 38.3364Z" fill="#562912"/>
</svg>
