<svg width="57" height="57" viewBox="0 0 57 57" fill="none" xmlns="http://www.w3.org/2000/svg">
<path d="M43 25.8672C43 22.6335 40.3691 20.0025 37.1352 20.0025C36.5103 20.0025 35.8893 20.103 35.2993 20.2972C34.9798 18.978 34.2774 17.7766 33.2642 16.8403C31.98 15.6536 30.3093 15 28.5596 15C25.3191 15 22.541 17.2693 21.8116 20.3353C21.1888 20.1161 20.5301 20.0025 19.8649 20.0025C16.6309 20.0026 14 22.6335 14 25.8672C14 28.219 15.4238 30.3358 17.5421 31.2519C17.4696 31.635 17.4331 32.025 17.4331 32.418C17.4331 35.8709 20.2421 38.6799 23.6948 38.6799C25.5837 38.6799 27.343 37.8331 28.5197 36.4103C29.6964 37.8331 31.456 38.6799 33.3448 38.6799C36.7974 38.6799 39.6063 35.8709 39.6063 32.418C39.6063 32.0199 39.5687 31.6246 39.4942 31.236C41.5907 30.311 43 28.2005 43 25.8672ZM35.4316 32.2317H30.8322V31.6102L33.6235 27.143H30.7344V25.9687H35.4316V26.6327L32.6134 31.1552H35.4316V32.2317ZM21.5356 27.143V25.9687H26.135V26.6327L23.3378 31.1552H26.135V32.2317H21.5356V31.6102L24.3479 27.143H21.5356ZM26.135 23.9137V22.8372H30.7344V23.4207L27.999 27.9259H30.8322V29.1002H26.135V28.3982L29.0092 23.9137H26.135Z" fill="#72B852"/>
<path d="M16.3561 36.9225C15.057 36.9225 14 37.9794 14 39.2785C14 40.5777 15.057 41.6347 16.3561 41.6347C17.6552 41.6347 18.7122 40.5777 18.7122 39.2785C18.7122 37.9794 17.6553 36.9225 16.3561 36.9225Z" fill="#72B852"/>
<circle cx="28.3717" cy="28.3717" r="27.3717" stroke="#72B852" stroke-width="2"/>
<circle cx="28.3717" cy="28.3717" r="27.3717" stroke="#72B852" stroke-width="2"/>
</svg>
