<svg width="29" height="27" viewBox="0 0 29 27" fill="none" xmlns="http://www.w3.org/2000/svg">
<path d="M29 10.8672C29 7.63348 26.3691 5.00255 23.1352 5.00255C22.5103 5.00255 21.8893 5.10305 21.2993 5.2972C20.9798 3.97796 20.2774 2.77655 19.2642 1.84033C17.98 0.6536 16.3093 0 14.5596 0C11.3191 0 8.54103 2.26935 7.81159 5.33527C7.18881 5.11606 6.53013 5.00255 5.86488 5.00255C2.63094 5.00265 0 7.63348 0 10.8672C0 13.219 1.42385 15.3358 3.5421 16.2519C3.46959 16.635 3.43309 17.025 3.43309 17.418C3.43309 20.8709 6.24213 23.6799 9.69478 23.6799C11.5837 23.6799 13.343 22.8331 14.5197 21.4103C15.6964 22.8331 17.456 23.6799 19.3448 23.6799C22.7974 23.6799 25.6063 20.8709 25.6063 17.418C25.6063 17.0199 25.5687 16.6246 25.4942 16.236C27.5907 15.311 29 13.2005 29 10.8672ZM21.4316 17.2317H16.8322V16.6102L19.6235 12.143H16.7344V10.9687H21.4316V11.6327L18.6134 16.1552H21.4316V17.2317ZM7.53563 12.143V10.9687H12.135V11.6327L9.3378 16.1552H12.135V17.2317H7.53563V16.6102L10.3479 12.143H7.53563ZM12.135 8.91367V7.83723H16.7344V8.42066L13.999 12.9259H16.8322V14.1002H12.135V13.3982L15.0092 8.91367H12.135Z" fill="#72B852"/>
<path d="M2.35615 21.9225C1.05697 21.9225 0 22.9794 0 24.2785C0 25.5777 1.05697 26.6347 2.35615 26.6347C3.65523 26.6347 4.7122 25.5777 4.7122 24.2785C4.7122 22.9794 3.65532 21.9225 2.35615 21.9225Z" fill="#72B852"/>
</svg>
