<svg width="56" height="55" viewBox="0 0 56 55" fill="none" xmlns="http://www.w3.org/2000/svg">
<path d="M31.206 11.6671L29.6709 7.96075H20.263V12.3029H24.4296L19.4517 17.2809L20.9867 20.9872H30.3946V16.645H26.2281L31.206 11.6671Z" fill="#72B852"/>
<path d="M43.5088 8.77202L41.9737 5.0658H32.5658V9.40786H36.7323L31.7544 14.386L33.2894 18.0921H42.6974V13.75H38.5308L43.5088 8.77202Z" fill="#72B852"/>
<path d="M55.8111 5.8773L54.276 2.17096H44.8681V6.51313H49.0346L44.0566 11.4911L45.5918 15.1974H54.9997V10.8552H50.8332L55.8111 5.8773Z" fill="#72B852"/>
<path d="M53.8283 19.5395H47.0396V22.4342H34.7368V25.3292H18.0856L14.3298 16.2622L15.9211 14.6708V3.6187H28.2237V0.723696H33.7904C31.7702 0.250824 29.6644 0 27.5 0C12.3122 0 0 12.3122 0 27.5C0 42.6878 12.3122 55 27.5 55C42.688 55 55 42.6878 55 27.5C55.0001 24.7316 54.5893 22.0596 53.8283 19.5395ZM17.3685 35.4605C14.0001 35.4605 10.745 33.8525 10.6081 33.7839L12.5454 29.898C12.5701 29.9102 15.0423 31.1185 17.3685 31.1185C19.6859 31.1185 22.1626 29.9125 22.187 29.9003L24.1287 33.7839C23.9919 33.8525 20.7369 35.4605 17.3685 35.4605ZM27.5 47.0395C25.9038 47.0395 24.6052 45.7409 24.6052 44.1447C24.6052 42.5485 25.9038 41.2499 27.5 41.2499C29.0964 41.2499 30.3948 42.5485 30.3948 44.1447C30.3942 45.7412 29.0956 47.0395 27.5 47.0395ZM37.6316 35.4605C34.2632 35.4605 31.0082 33.8525 30.8712 33.7839L32.8085 29.898C32.8333 29.9102 35.3054 31.1185 37.6316 31.1185C39.949 31.1185 42.4259 29.9125 42.4502 29.9003L44.392 33.7839C44.2551 33.8525 41 35.4605 37.6316 35.4605Z" fill="#72B852"/>
</svg>
