<svg width="24" height="35" viewBox="0 0 24 35" fill="none" xmlns="http://www.w3.org/2000/svg">
<path d="M15.0215 6.75486C16.8868 6.75486 18.3989 5.24273 18.3989 3.37743C18.3989 1.51213 16.8868 0 15.0215 0C13.1562 0 11.644 1.51213 11.644 3.37743C11.644 5.24273 13.1562 6.75486 15.0215 6.75486Z" fill="#72B852"/>
<path d="M16.6727 17.3431C17.0864 17.9645 17.7045 18.4357 18.4137 18.6721L22.931 20.1784L24 16.9766L19.4827 15.4703L16.6744 11.257C16.3476 10.7692 15.9002 10.3742 15.3757 10.1103L12.9541 8.89952C12.2337 8.53935 11.4078 8.45005 10.6271 8.6479L5.23501 9.9938C4.76174 10.1117 4.31958 10.3306 3.93889 10.6355C3.5582 10.9404 3.24799 11.3241 3.02955 11.7602L0 17.821L3.02111 19.3324L6.05066 13.2716L9.80467 12.3327L6.75823 26.4267L0.553898 30.6941L2.46721 33.4771L8.67323 29.208C9.38418 28.7183 9.87729 27.9837 10.058 27.1393L10.931 23.1067L15.1815 26.295L16.7436 34.1053L20.0552 33.4416L18.4931 25.6279C18.3291 24.814 17.871 24.0889 17.2063 23.5913L13.5401 20.8421L14.6327 14.2814L16.6727 17.3431V17.3431Z" fill="#72B852"/>
</svg>
