<svg width="57" height="57" viewBox="0 0 57 57" fill="none" xmlns="http://www.w3.org/2000/svg">
<circle cx="28.3717" cy="28.3717" r="27.3717" stroke="#72B852" stroke-width="2"/>
<circle cx="28.3717" cy="28.3717" r="27.3717" stroke="#72B852" stroke-width="2"/>
<path d="M34.7245 24.544C34.7243 24.3885 34.6888 24.2236 34.6181 24.0759L32.1504 18.9121C32.2808 18.6218 32.2464 18.7721 32.2464 15.0894C32.2465 14.4878 31.7587 14 31.157 14H25.5675C24.9659 14 24.4781 14.4878 24.4781 15.0894C24.4781 18.7848 24.4454 18.6258 24.5741 18.9121L22.1065 24.0759C22.0398 24.2152 22.0004 24.379 22.0001 24.544C22.0001 24.5446 22 24.5451 22 24.5456C22 24.9484 22 38.6904 22 39.0949C22 40.6967 23.3032 42 24.9051 42H31.8195C33.4213 42 34.7246 40.6968 34.7246 39.0949V36.9767C34.7246 36.342 34.7246 24.9565 34.7246 24.5455C34.7246 24.545 34.7245 24.5445 34.7245 24.544ZM26.6814 19.5559H30.0433L31.9071 23.4562H24.8174L26.6814 19.5559ZM32.5457 39.0949C32.5457 39.4954 32.2199 39.8211 31.8195 39.8211H24.9051C24.5046 39.8211 24.1789 39.4953 24.1789 39.0949V38.0661H32.5458V39.0949H32.5457ZM26.779 33.3371C26.779 32.6968 27.6278 31.4925 28.0824 30.8933C28.2231 30.7079 28.5015 30.7079 28.6422 30.8933C29.0969 31.4925 29.9456 32.6968 29.9456 33.3371C29.9456 34.2114 29.2367 34.9203 28.3623 34.9203C27.4879 34.9203 26.779 34.2115 26.779 33.3371ZM32.5457 27.39H24.1789V25.635H32.5458V27.39H32.5457Z" fill="#72B852"/>
<path d="M34.7245 24.544C34.7243 24.3885 34.6888 24.2236 34.6181 24.0759L32.1504 18.9121C32.2808 18.6218 32.2464 18.7721 32.2464 15.0894C32.2465 14.4878 31.7587 14 31.157 14H25.5675C24.9659 14 24.4781 14.4878 24.4781 15.0894C24.4781 18.7848 24.4454 18.6258 24.5741 18.9121L22.1065 24.0759C22.0398 24.2152 22.0004 24.379 22.0001 24.544C22.0001 24.5446 22 24.5451 22 24.5456C22 24.9484 22 38.6904 22 39.0949C22 40.6967 23.3032 42 24.9051 42H31.8195C33.4213 42 34.7246 40.6968 34.7246 39.0949V36.9767C34.7246 36.342 34.7246 24.9565 34.7246 24.5455C34.7246 24.545 34.7245 24.5445 34.7245 24.544ZM26.6814 19.5559H30.0433L31.9071 23.4562H24.8174L26.6814 19.5559ZM32.5457 39.0949C32.5457 39.4954 32.2199 39.8211 31.8195 39.8211H24.9051C24.5046 39.8211 24.1789 39.4953 24.1789 39.0949V38.0661H32.5458V39.0949H32.5457ZM26.779 33.3371C26.779 32.6968 27.6278 31.4925 28.0824 30.8933C28.2231 30.7079 28.5015 30.7079 28.6422 30.8933C29.0969 31.4925 29.9456 32.6968 29.9456 33.3371C29.9456 34.2114 29.2367 34.9203 28.3623 34.9203C27.4879 34.9203 26.779 34.2115 26.779 33.3371ZM32.5457 27.39H24.1789V25.635H32.5458V27.39H32.5457Z" fill="#72B852"/>
</svg>
