<svg width="13" height="28" viewBox="0 0 13 28" fill="none" xmlns="http://www.w3.org/2000/svg">
<path d="M12.7245 10.544C12.7243 10.3885 12.6888 10.2236 12.6181 10.0759L10.1504 4.91209C10.2808 4.6218 10.2464 4.77214 10.2464 1.08943C10.2465 0.487758 9.75866 0 9.15704 0H3.56754C2.96592 0 2.47811 0.487758 2.47811 1.08943C2.47811 4.78477 2.44541 4.6258 2.57414 4.91209L0.106477 10.0759C0.0398129 10.2152 0.0003832 10.379 5.50747e-05 10.544C5.50747e-05 10.5446 0 10.5451 0 10.5456C0 10.9484 0 24.6904 0 25.0949C0 26.6967 1.3032 28 2.90511 28H9.81947C11.4213 28 12.7246 26.6968 12.7246 25.0949V22.9767C12.7246 22.342 12.7246 10.9565 12.7246 10.5455C12.7246 10.545 12.7245 10.5445 12.7245 10.544ZM4.68136 5.55587H8.04328L9.90714 9.45618H2.81745L4.68136 5.55587ZM10.5457 25.0949C10.5457 25.4954 10.2199 25.8211 9.81947 25.8211H2.90511C2.50463 25.8211 2.17886 25.4953 2.17886 25.0949V24.0661H10.5458V25.0949H10.5457ZM4.77903 19.3371C4.77903 18.6968 5.62778 17.4925 6.0824 16.8933C6.22306 16.7079 6.50153 16.7079 6.64224 16.8933C7.09691 17.4925 7.9456 18.6968 7.9456 19.3371C7.9456 20.2114 7.23675 20.9203 6.36235 20.9203C5.48795 20.9203 4.77903 20.2115 4.77903 19.3371ZM10.5457 13.39H2.17886V11.635H10.5458V13.39H10.5457Z" fill="#72B852"/>
</svg>
