<svg xmlns="http://www.w3.org/2000/svg" viewBox="0 0 86.56 86.55"><defs><style>.cls-1{fill:#ffce00;}.cls-2{fill:#562912;}</style></defs><g id="Layer_2" data-name="Layer 2"><g id="Layer_1-2" data-name="Layer 1"><path class="cls-1" d="M86.56,43.28A43.28,43.28,0,1,1,43.28,0,43.28,43.28,0,0,1,86.56,43.28Z"/><path class="cls-2" d="M60,60.78a2.1,2.1,0,0,1-1.44-.57,20.92,20.92,0,0,0-13.5-5.4,20.67,20.67,0,0,0-15,5.38,2.12,2.12,0,1,1-2.93-3.06,25,25,0,0,1,18.14-6.55,25.13,25.13,0,0,1,16.21,6.53A2.12,2.12,0,0,1,60,60.78Z"/><path class="cls-2" d="M70.41,48.39a1.11,1.11,0,0,1-.4-.06l-9.19-2.68A1.41,1.41,0,0,1,60.57,43s7.15-3.69,9.29-4.83a1.41,1.41,0,0,1,1.91.58,1.43,1.43,0,0,1-.58,1.91L65,43.93l5.81,1.7a1.41,1.41,0,0,1-.39,2.76Z"/><path class="cls-2" d="M18.55,48.39a1.42,1.42,0,0,1-1.36-1,1.4,1.4,0,0,1,1-1.75L24,43.93c-2.21-1.15-5-2.59-6.19-3.23a1.41,1.41,0,0,1,1.33-2.49C21.24,39.35,28.39,43,28.39,43a1.41,1.41,0,0,1,.75,1.39,1.39,1.39,0,0,1-1,1.22l-9.19,2.68A1.06,1.06,0,0,1,18.55,48.39Z"/><path class="cls-2" d="M72.49,33.36l-.21,0a16.19,16.19,0,0,1-10.72-7A1.41,1.41,0,1,1,64,24.84a13.56,13.56,0,0,0,8.74,5.71,1.41,1.41,0,0,1-.22,2.81Z"/><path class="cls-2" d="M16.46,33.36a1.41,1.41,0,0,1-.21-2.81A13.41,13.41,0,0,0,25,24.84a1.41,1.41,0,1,1,2.41,1.47,16.16,16.16,0,0,1-10.71,7Z"/></g></g></svg>